<?xml version="1.0" standalone="no"?>
<!DOCTYPE svg PUBLIC "-//W3C//DTD SVG 1.1//EN" "http://www.w3.org/Graphics/SVG/1.1/DTD/svg11.dtd" >
<svg xmlns="http://www.w3.org/2000/svg" xmlns:xlink="http://www.w3.org/1999/xlink" version="1.1">
<metadata>
Created by FontForge 20170731 at Mon Jun  7 10:06:59 2021
 By Aleksey,,,
Copyright (c) 2014 by (c) 2009 Designed by Svetoslav Simov (c) Fontfabric, Inc. All rights reserved.
</metadata>
<defs>
<font id="UniSansBook" horiz-adv-x="1003" >
  <font-face 
    font-family="Uni Sans Book"
    font-weight="400"
    font-stretch="normal"
    units-per-em="2048"
    panose-1="0 0 5 0 0 0 0 0 0 0"
    ascent="1638"
    descent="-410"
    x-height="1061"
    cap-height="1450"
    bbox="-88 -500 2150 1886"
    underline-thickness="102"
    underline-position="-307"
    unicode-range="U+0020-FB02"
  />
<missing-glyph horiz-adv-x="1024" 
d="M1024 1434v-1434h-1024v1434h1024zM164 1331l348 -522l348 522h-696zM451 717l-349 522v-1044zM922 1239l-349 -522l349 -522v1044zM512 625l-348 -523h696z" />
    <glyph glyph-name="fi" unicode="fi" horiz-adv-x="962" 
d="M672 1321q0 38 27 65t65 27t65 -27t27 -65t-27 -65t-65 -27t-65 27t-27 65zM825 1061v-1061h-114v1061h114zM498 1458v-106q-126 13 -185 -45t-59 -193v-102h229v-103h-229v-909h-115v1114q0 184 98 273t261 71z" />
    <glyph glyph-name="fl" unicode="fl" horiz-adv-x="1021" 
d="M1010 94v-114q-155 0 -239.5 88t-84.5 247v1137h115v-1137q0 -221 209 -221zM496 1458v-106q-126 13 -185 -45t-59 -193v-102h229v-103h-229v-909h-115v1114q0 184 98 273t261 71z" />
    <glyph glyph-name=".notdef" horiz-adv-x="1024" 
d="M1024 1434v-1434h-1024v1434h1024zM164 1331l348 -522l348 522h-696zM451 717l-349 522v-1044zM922 1239l-349 -522l349 -522v1044zM512 625l-348 -523h696z" />
    <glyph glyph-name=".null" horiz-adv-x="0" 
 />
    <glyph glyph-name="nonmarkingreturn" horiz-adv-x="682" 
 />
    <glyph glyph-name="space" unicode=" " horiz-adv-x="448" 
 />
    <glyph glyph-name="exclam" unicode="!" horiz-adv-x="419" 
d="M150 381v1069h120v-1069h-120zM113 78q0 41 28.5 69.5t69.5 28.5t69.5 -28.5t28.5 -69.5t-28.5 -69.5t-69.5 -28.5t-69.5 28.5t-28.5 69.5z" />
    <glyph glyph-name="quotedbl" unicode="&#x22;" horiz-adv-x="647" 
d="M254 1450l-35 -467h-88v467h123zM537 1450l-37 -467h-86v467h123z" />
    <glyph glyph-name="numbersign" unicode="#" horiz-adv-x="1302" 
d="M1159 571l-29 -114h-266l-133 -457h-129l135 457h-329l-134 -457h-129l136 457h-220l25 114h229l97 326h-267l25 117h276l129 436h130l-130 -436h328l129 436h131l-131 -436h213l-31 -117h-219l-94 -326h258zM444 571h328l96 326h-327z" />
    <glyph glyph-name="dollar" unicode="$" horiz-adv-x="1189" 
d="M639 1360v-557q47 -9 80.5 -16.5t77 -20t75 -26t67.5 -33t60.5 -42.5t48.5 -54t37.5 -67.5t20.5 -83t4 -100.5q-4 -88 -44.5 -160t-106 -118.5t-147 -74t-173.5 -32.5v-208h-100v208q-158 11 -287 84t-182 197l110 49q41 -92 137 -145t222 -64v611q-59 13 -98 22.5
t-92 27.5t-87 37t-70.5 49t-57 65.5t-33 85.5t-9.5 110q6 164 134.5 262.5t312.5 112.5v209h100v-209q157 -9 285.5 -80.5t181.5 -192.5l-109 -49q-38 89 -137 142t-221 61zM211 1098q-3 -54 13 -96.5t43 -69.5t74.5 -49t90.5 -34t107 -26v537q-134 -11 -226.5 -79
t-101.5 -183zM639 684v-588q141 10 240.5 79.5t109.5 189.5q5 63 -11.5 112.5t-45.5 81t-79.5 57t-98 39.5t-115.5 29z" />
    <glyph glyph-name="percent" unicode="%" horiz-adv-x="1533" 
d="M291 -143l-103 61l1022 1618l101 -61zM676 1059q0 -179 -84.5 -284t-218.5 -105q-146 0 -224.5 101t-78.5 292q0 176 84.5 281.5t218.5 105.5q142 0 222.5 -103t80.5 -288zM557 1059q0 274 -186 274q-93 0 -137 -64.5t-44 -205.5q0 -145 44 -210t139 -65q184 0 184 271z
M1464 381q0 -178 -84 -282.5t-217 -104.5q-147 0 -225 100.5t-78 290.5q0 178 84 282.5t219 104.5q141 0 221 -102.5t80 -288.5zM1346 381q0 139 -48.5 207.5t-138.5 68.5q-93 0 -136.5 -65t-43.5 -207q0 -145 44 -209.5t140 -64.5q183 0 183 270z" />
    <glyph glyph-name="ampersand" unicode="&#x26;" horiz-adv-x="1277" 
d="M936 426l115 192l100 -49l-135 -221l227 -260h-156l-137 156q-93 -124 -197 -188t-245 -64q-121 0 -219.5 49t-156.5 142.5t-58 215.5q0 53 11.5 99t37.5 85t50.5 67.5t69.5 61t73.5 51t82.5 50.5q-54 63 -84.5 103.5t-60 106t-29.5 124.5q0 146 105.5 232.5t253.5 86.5
q130 0 225.5 -83.5t95.5 -213.5q0 -42 -10 -80t-24.5 -67t-42 -58.5t-50 -49t-61 -44t-63.5 -38.5t-68 -37zM575 1362q-95 0 -161 -60t-66 -151q0 -36 14 -74.5t44.5 -82t48 -66t53.5 -64.5q41 21 63 33t60.5 35.5t60.5 45t46 50t35 62t11 71.5q0 88 -59 144.5t-150 56.5z
M872 326l-399 411q-43 -25 -66.5 -40t-61.5 -42t-59.5 -50.5t-44.5 -55.5t-33.5 -68.5t-10.5 -77.5q0 -134 94.5 -217.5t234.5 -83.5q189 0 346 224z" />
    <glyph glyph-name="quotesingle" unicode="'" horiz-adv-x="370" 
d="M254 1450l-25 -467h-98v467h123z" />
    <glyph glyph-name="parenleft" unicode="(" horiz-adv-x="534" 
d="M379 1608l98 -66q-128 -161 -195 -390t-67 -454q0 -230 67.5 -434t200.5 -414l-96 -61q-141 196 -217 435t-76 474q0 243 75 482t210 428z" />
    <glyph glyph-name="parenright" unicode=")" horiz-adv-x="534" 
d="M156 -274l-105 65q128 162 197 391.5t69 452.5q0 466 -266 887l96 61q139 -193 216 -451t77 -497q0 -243 -74.5 -481.5t-209.5 -427.5z" />
    <glyph glyph-name="asterisk" unicode="*" horiz-adv-x="913" 
d="M803 1237l31 -98l-295 -92l186 -254l-76 -60l-192 256l-183 -256l-81 60l186 258l-299 94l29 94l303 -98v309h96v-311z" />
    <glyph glyph-name="plus" unicode="+" horiz-adv-x="1206" 
d="M555 758v461h117v-461h454v-119h-454v-465h-117v465h-473v119h473z" />
    <glyph glyph-name="comma" unicode="," horiz-adv-x="421" 
d="M301 184l-158 -467h-120l135 467h143z" />
    <glyph glyph-name="hyphen" unicode="-" horiz-adv-x="759" 
d="M633 674v-119h-506v119h506z" />
    <glyph glyph-name="period" unicode="." horiz-adv-x="417" 
d="M111 86q0 41 28.5 69.5t69.5 28.5t69.5 -28.5t28.5 -69.5t-28.5 -69.5t-69.5 -28.5t-69.5 28.5t-28.5 69.5z" />
    <glyph glyph-name="slash" unicode="/" horiz-adv-x="819" 
d="M774 1487l-620 -1561l-109 37l623 1561z" />
    <glyph glyph-name="zero" unicode="0" horiz-adv-x="1288" 
d="M645 -23q-96 0 -187 26t-167.5 76t-123 133t-46.5 187v650q0 84 31 155t82 119.5t119.5 82t142 49t149.5 15.5t149 -15.5t141 -49t119.5 -82t82 -119.5t30.5 -155v-650q0 -104 -46.5 -187t-123 -133t-167 -76t-185.5 -26zM242 1049v-648q0 -80 36.5 -140.5t97 -94
t128.5 -50t141 -16.5t140.5 16.5t128 50t97 94t36.5 140.5v648q0 80 -36.5 141t-97 94.5t-128 49.5t-140.5 16t-141 -16t-128.5 -49.5t-97 -94t-36.5 -141.5z" />
    <glyph glyph-name="one" unicode="1" horiz-adv-x="624" 
d="M475 1450v-1450h-119v1284l-245 -254l-88 72l329 348h123z" />
    <glyph glyph-name="two" unicode="2" horiz-adv-x="1173" 
d="M573 1350q-132 0 -232.5 -56.5t-143.5 -154.5l-107 47q56 133 187 208.5t298 75.5q43 0 92.5 -8.5t107 -26.5t109 -50t94 -75t68 -107t25.5 -140q0 -194 -180 -365l-604 -577h784v-119h-950l-39 92l721 686q147 141 147 285q0 65 -26.5 116.5t-67 82t-93 51t-99 28
t-91.5 7.5z" />
    <glyph glyph-name="three" unicode="3" horiz-adv-x="1200" 
d="M70 246l108 53q46 -93 159.5 -146t246.5 -53q78 0 148.5 19.5t127 56.5t90 97.5t33.5 136.5q0 166 -93.5 245.5t-266.5 77.5h-121v113h121q295 0 295 244q0 67 -27.5 118.5t-75 81.5t-105.5 45t-124 15q-113 0 -211 -43t-142 -123l-102 59q53 109 176 168t268 59
q89 0 169.5 -23.5t146 -68.5t104.5 -119.5t39 -168.5q0 -205 -160 -297q230 -82 230 -385q-1 -105 -46.5 -188.5t-120 -134.5t-166.5 -78t-193 -27q-165 0 -305.5 69t-202.5 197z" />
    <glyph glyph-name="four" unicode="4" horiz-adv-x="1163" 
d="M1079 485v-108h-121v-377h-120v377h-709l-94 127l780 946h143v-965h121zM168 485h670l4 824z" />
    <glyph glyph-name="five" unicode="5" horiz-adv-x="1200" 
d="M94 246l109 53q45 -91 153.5 -145t233.5 -54q105 0 195 35.5t150 111.5t60 179v90q0 77 -32 136t-88 94t-125.5 52t-149.5 17q-109 0 -199 -22.5t-194 -71.5h-64v729h897v-121h-776v-459q176 73 336 70q98 -1 187 -26t163.5 -74t119.5 -132t46 -190v-94
q-1 -106 -47 -192.5t-121 -140t-168 -82.5t-194 -29q-159 0 -295 70t-197 196z" />
    <glyph glyph-name="six" unicode="6" horiz-adv-x="1282" 
d="M1153 1214l-109 -57q-44 93 -148 143t-234 50q-82 0 -155.5 -19.5t-133 -56.5t-94.5 -96.5t-35 -133.5v-311q66 95 177 138.5t241 43.5q103 -1 196 -28t168 -77.5t119.5 -132t44.5 -183.5v-93q0 -102 -44.5 -184t-119.5 -132.5t-168.5 -77.5t-195.5 -27
q-103 -1 -198.5 25.5t-172 77.5t-122.5 133.5t-46 184.5v648q0 102 46 184.5t122.5 133.5t172 77.5t198.5 25.5q163 0 296.5 -66.5t194.5 -189.5zM1069 406v86q0 97 -59 168t-149.5 104t-198.5 33q-110 0 -203 -32.5t-154 -103.5t-61 -169v-86q0 -74 35 -133.5t94.5 -96.5
t133 -56.5t155.5 -19.5q108 0 198.5 33t149.5 104.5t59 168.5z" />
    <glyph glyph-name="seven" unicode="7" horiz-adv-x="1050" 
d="M70 1329v123h913l43 -90l-778 -1362h-137l759 1329h-800z" />
    <glyph glyph-name="eight" unicode="8" horiz-adv-x="1273" 
d="M655 -20h-39q-100 0 -192 28t-165.5 80t-118.5 136.5t-46 189.5q0 131 63.5 234.5t178.5 139.5v7q-84 34 -129 113.5t-45 176.5q1 93 39.5 168t103 121.5t144 71t167.5 24.5h39q88 0 168 -24.5t145 -70.5t103.5 -121.5t38.5 -168.5q0 -97 -45 -176.5t-129 -113.5v-7
q115 -36 179.5 -139.5t64.5 -234.5q-2 -105 -47.5 -189.5t-119.5 -136.5t-166 -80t-192 -28zM655 1350h-39q-90 0 -164 -26.5t-123.5 -88t-49.5 -150.5q0 -61 20 -106t50.5 -70.5t77 -40.5t90 -19.5t99.5 -4.5h39q56 0 99.5 4.5t90.5 19.5t77.5 40.5t50.5 70.5t20 106
q0 67 -28.5 119.5t-76.5 83.5t-107 46.5t-126 15.5zM616 100h39q57 0 112.5 11t109 35.5t93.5 60.5t64.5 90t24.5 119q0 76 -22.5 133t-58.5 90.5t-90 54.5t-109 28t-124 7h-39q-69 0 -123.5 -7t-108.5 -28t-90.5 -54.5t-58.5 -90.5t-22 -133q0 -65 24.5 -119t64.5 -90
t93 -60.5t108.5 -35.5t112.5 -11z" />
    <glyph glyph-name="nine" unicode="9" horiz-adv-x="1277" 
d="M127 238l109 55q44 -93 148 -143t234 -50q82 0 155.5 19.5t133 56.5t94.5 96.5t35 133.5v311q-66 -95 -177 -138.5t-241 -43.5q-103 1 -196 28t-168 77.5t-119.5 132t-44.5 183.5v93q0 102 44.5 184t119.5 132.5t168.5 77.5t195.5 27q103 1 198 -25.5t171 -77.5
t122.5 -133.5t47.5 -184.5v-646q0 -102 -46 -184.5t-122.5 -133.5t-172 -77.5t-198.5 -25.5q-163 0 -296.5 66.5t-194.5 189.5zM211 1044v-86q0 -97 59 -168t149.5 -104t198.5 -33q110 0 203 32.5t154 103.5t61 169v86q0 74 -35 133.5t-94.5 96.5t-133 56.5t-155.5 19.5
q-108 0 -198.5 -33t-149.5 -104.5t-59 -168.5z" />
    <glyph glyph-name="colon" unicode=":" horiz-adv-x="454" 
d="M129 891q0 41 28.5 69.5t69.5 28.5t70 -28.5t29 -69.5t-29 -69.5t-70 -28.5t-69.5 28.5t-28.5 69.5zM129 117q0 41 28.5 69.5t69.5 28.5t70 -28.5t29 -69.5t-29 -70t-70 -29t-69.5 29t-28.5 70z" />
    <glyph glyph-name="semicolon" unicode=";" horiz-adv-x="512" 
d="M147 860q0 41 29 69.5t70 28.5t69.5 -28.5t28.5 -69.5t-28.5 -69.5t-69.5 -28.5t-70 28.5t-29 69.5zM360 184l-157 -467h-121l119 467h159z" />
    <glyph glyph-name="less" unicode="&#x3c;" horiz-adv-x="903" 
d="M201 621l587 -338v-136l-720 424v99l720 430v-137z" />
    <glyph glyph-name="equal" unicode="=" horiz-adv-x="1095" 
d="M965 817v-110h-834v110h834zM965 537v-113h-834v113h834z" />
    <glyph glyph-name="greater" unicode="&#x3e;" horiz-adv-x="903" 
d="M836 670v-99l-721 -424v136l587 338l-587 342v137z" />
    <glyph glyph-name="question" unicode="?" horiz-adv-x="978" 
d="M141 1221l-90 71q68 87 176 132.5t226 45.5q89 0 170.5 -26.5t147 -76.5t104.5 -131.5t38 -182.5q-1 -100 -35 -179t-94.5 -131t-132 -84t-157.5 -47l-17 -333h-100l-12 430q113 1 210.5 40.5t160.5 120t61 185.5q-1 73 -31 131t-79.5 94t-110 55t-127.5 19
q-91 0 -173 -34.5t-133 -98.5h-2zM430 174q40 0 67 -28.5t27 -69.5t-27 -68.5t-67 -27.5t-69 27.5t-29 68.5t29 69.5t69 28.5z" />
    <glyph glyph-name="at" unicode="@" horiz-adv-x="1601" 
d="M1264 1118l-195 -581q-22 -68 -22 -97q0 -53 51 -53q111 0 207 128.5t127 356.5q20 146 -49.5 262t-209.5 180t-323 64q-134 0 -249 -53t-195 -143.5t-130.5 -207t-64.5 -245.5q-16 -144 14 -262t94 -195t152.5 -128t189 -68t203.5 -8t197 45l24 -90
q-114 -44 -235.5 -55.5t-236.5 8t-215 78.5t-171.5 148.5t-106 225.5t-18.5 301q15 156 75.5 292.5t155.5 237t227.5 158.5t285.5 58q169 0 304 -46t221.5 -127t128.5 -191.5t32 -238.5q-20 -250 -150.5 -421.5t-300.5 -171.5q-59 0 -97.5 37.5t-31.5 115.5h-4
q-125 -153 -274 -153q-129 0 -200 83.5t-71 210.5q0 106 33.5 210t93 187.5t150.5 135t197 51.5q74 0 133 -40.5t84 -125.5h4l45 127h121zM516 578q0 -84 49 -137.5t127 -53.5q67 0 132 46.5t109.5 116t71.5 149t27 145.5q0 100 -40.5 154.5t-123.5 54.5q-68 1 -127 -29
t-99.5 -80t-69.5 -113.5t-42.5 -128t-13.5 -124.5z" />
    <glyph glyph-name="A" unicode="A" horiz-adv-x="1247" 
d="M711 1450l524 -1450h-127l-174 483h-623l-170 -483h-127l521 1450h176zM623 1360l-269 -756h537z" />
    <glyph glyph-name="B" unicode="B" horiz-adv-x="1284" 
d="M971 772q121 -42 173 -135.5t52 -233.5q-2 -109 -39.5 -188.5t-104 -125.5t-151 -67.5t-190.5 -21.5h-549v1450h551q116 0 207.5 -39t148.5 -123.5t57 -204.5q0 -222 -155 -311zM283 829h430q136 0 216.5 61.5t80.5 192.5q0 67 -23 116t-64.5 76.5t-93.5 40.5t-116 13
h-430v-500zM283 121h430q83 -2 146 11t113.5 44.5t76.5 89t26 140.5q0 164 -92.5 234.5t-269.5 68.5h-430v-588z" />
    <glyph glyph-name="C" unicode="C" horiz-adv-x="1214" 
d="M121 420v610q0 85 30.5 157.5t83.5 123.5t122.5 87.5t148 54t160.5 17.5q105 0 200 -27.5t173.5 -87.5t119.5 -145l-108 -53v-2q-48 93 -156 144t-236 51q-108 0 -201 -34.5t-154.5 -109t-61.5 -176.5v-610q0 -102 61.5 -176.5t154.5 -109t201 -34.5q128 0 236 51
t156 144l108 -53q-61 -126 -199 -194t-301 -68q-103 0 -198 28t-171.5 81.5t-122.5 139t-46 191.5z" />
    <glyph glyph-name="D" unicode="D" horiz-adv-x="1310" 
d="M162 0v1450h483q106 0 200.5 -25t172.5 -74.5t124 -133t46 -191.5v-604q0 -86 -30.5 -157.5t-82 -119.5t-122 -81.5t-147.5 -48.5t-161 -15h-483zM283 121h362q65 0 125 10.5t114.5 34t94.5 57.5t64 85.5t24 113.5v604q0 78 -35.5 138t-96.5 95t-134.5 52.5t-155.5 17.5
h-362v-1208z" />
    <glyph glyph-name="E" unicode="E" horiz-adv-x="1165" 
d="M283 1329v-543h727v-122h-727v-543h788v-121h-909v1450h909v-121h-788z" />
    <glyph glyph-name="F" unicode="F" horiz-adv-x="1136" 
d="M1069 1329h-786v-586h690v-120h-690v-623h-121v1450h907v-121z" />
    <glyph glyph-name="G" unicode="G" horiz-adv-x="1298" 
d="M121 426v604q0 85 30.5 157.5t83 123.5t122 87.5t147.5 54t160 17.5q162 0 297 -67.5t196 -194.5l-108 -53q-45 93 -153.5 144t-236.5 51q-108 0 -201 -34.5t-154.5 -109t-61.5 -176.5v-606q0 -103 62.5 -178.5t157 -110.5t204.5 -35q109 0 203 35t156 110.5t62 178.5
v182h-444v121h565v-301q0 -107 -46.5 -194t-123.5 -141t-173 -82.5t-199 -28.5q-104 0 -200 28.5t-174 82.5t-124.5 141t-46.5 194z" />
    <glyph glyph-name="H" unicode="H" horiz-adv-x="1411" 
d="M283 670v-670h-121v1450h121v-666h845v666h121v-1450h-121v670h-845z" />
    <glyph glyph-name="I" unicode="I" horiz-adv-x="444" 
d="M283 1450v-1450h-121v1450h121z" />
    <glyph glyph-name="J" unicode="J" horiz-adv-x="1214" 
d="M459 1329v121h604v-1032q0 -85 -29.5 -157t-79.5 -123t-117 -87t-142 -53.5t-154 -17.5q-117 0 -222 39.5t-182.5 122t-99.5 194.5l119 29q17 -85 77.5 -146.5t141 -90t172.5 -28.5q76 0 146 21t126 60t89.5 102t33.5 141v905h-483z" />
    <glyph glyph-name="K" unicode="K" horiz-adv-x="1261" 
d="M283 1450v-797l811 797h155l-698 -698l694 -752h-155l-625 666l-182 -183v-483h-121v1450h121z" />
    <glyph glyph-name="L" unicode="L" horiz-adv-x="1040" 
d="M1008 0h-846v1450h121v-1329h725v-121z" />
    <glyph glyph-name="M" unicode="M" horiz-adv-x="1644" 
d="M766 199l-483 1083v-1282h-121v1450h176l485 -1096l484 1096h176v-1450h-121v1282l-481 -1083h-115z" />
    <glyph glyph-name="N" unicode="N" horiz-adv-x="1411" 
d="M309 1450l819 -1317v1317h121v-1450h-180l-786 1264v-1264h-121v1450h147z" />
    <glyph glyph-name="O" unicode="O" horiz-adv-x="1386" 
d="M119 426v598q0 107 49 194t130.5 141t183 82.5t212.5 28.5q110 0 211 -28.5t183 -82.5t131 -141t49 -194v-598q0 -107 -49 -194t-131 -141t-183 -82.5t-211 -28.5q-111 0 -212.5 28.5t-183 82.5t-130.5 141t-49 194zM240 1024v-598q0 -78 38.5 -142t103.5 -103t145 -60
t167 -21q86 0 166 21t144.5 60t103.5 103t39 142v598q0 83 -39 147t-105 102t-145.5 57.5t-167.5 19.5q-87 -1 -165.5 -21t-143.5 -58t-103 -102t-38 -145z" />
    <glyph glyph-name="P" unicode="P" horiz-adv-x="1255" 
d="M283 0h-121v1450h547q103 0 189.5 -31t142.5 -83.5t95 -120.5t47.5 -143.5t0 -150.5t-47.5 -143t-94.5 -120.5t-141.5 -83.5t-189 -31h-428v-543zM283 664h426q100 0 177.5 37t117.5 96t58 130.5t-1 142.5t-59.5 129.5t-117.5 94.5t-175 35h-426v-665z" />
    <glyph glyph-name="Q" unicode="Q" horiz-adv-x="1386" 
d="M1268 1024v-598q0 -169 -121 -287l115 -137l-88 -63l-115 135q-152 -94 -365 -94q-111 0 -212.5 28.5t-183 82.5t-130.5 141t-49 194v598q0 107 49 194t130.5 141t183 82.5t212.5 28.5q110 0 211 -28.5t183 -82.5t131 -141t49 -194zM1147 426v598q0 83 -39 147t-105 102
t-145.5 57.5t-167.5 19.5q-87 0 -165.5 -20t-143 -58.5t-103 -102.5t-38.5 -145v-598q0 -78 38.5 -142t103.5 -103t145 -60t167 -21q177 0 293 58l-121 143l86 68l123 -146q72 82 72 203z" />
    <glyph glyph-name="R" unicode="R" horiz-adv-x="1265" 
d="M1042 0l-475 614h-284v-614h-121v1450h547q105 0 190.5 -24t151.5 -73.5t103.5 -132t39.5 -192.5q0 -109 -38.5 -191t-106.5 -129.5t-152.5 -70.5t-185.5 -23h-4l485 -614h-150zM283 725h428q177 0 269.5 69.5t92.5 233.5q0 301 -362 301h-428v-604z" />
    <glyph glyph-name="S" unicode="S" horiz-adv-x="1210" 
d="M219 1102q-2 -34 3.5 -63.5t15.5 -52t29.5 -43t38.5 -34.5t50 -28t55.5 -22.5t63 -18t65.5 -15.5t70 -14q70 -14 109 -22.5t102.5 -27.5t99.5 -39t81 -54.5t67.5 -75.5t37 -100.5t11.5 -131.5q-4 -92 -49.5 -166t-118.5 -120t-162.5 -70t-187.5 -24q-111 0 -213 30.5
t-185.5 95t-123.5 154.5l110 49q44 -100 160.5 -154.5t255.5 -54.5q74 0 141 16.5t122 48.5t90 83.5t40 116.5q3 40 -3 74t-16 60.5t-32 49.5t-41 39.5t-54 32.5t-59 25t-68 20.5t-70 17.5t-74 16q-67 14 -104 22.5t-96.5 26.5t-93.5 36t-75.5 48.5t-63 66.5t-35.5 88
t-12 114q4 117 78 202.5t184.5 125.5t239.5 40q170 0 312 -70.5t200 -201.5l-108 -49q-42 97 -156 150t-248 53q-98 0 -180.5 -26t-139.5 -84.5t-63 -139.5z" />
    <glyph glyph-name="T" unicode="T" horiz-adv-x="1144" 
d="M1116 1450v-117h-483v-1333h-121v1333h-483v117h1087z" />
    <glyph glyph-name="U" unicode="U" horiz-adv-x="1390" 
d="M272 1450v-1020q0 -79 36 -143.5t96.5 -104.5t135.5 -61t156 -21t155.5 21.5t134.5 61t96 104t36 143.5v1020h121v-1018q0 -109 -46.5 -197t-124 -142.5t-173.5 -83.5t-199 -29q-104 0 -200 29t-173.5 83.5t-124 142.5t-46.5 197v1018h120z" />
    <glyph glyph-name="V" unicode="V" horiz-adv-x="1245" 
d="M535 0l-523 1452h127l486 -1362l481 1362h127l-520 -1452h-178z" />
    <glyph glyph-name="W" unicode="W" horiz-adv-x="1927" 
d="M1391 90l381 1360h126l-419 -1450h-176l-338 1069l-340 -1069h-176l-420 1450h127l381 -1360l368 1170h117z" />
    <glyph glyph-name="X" unicode="X" horiz-adv-x="1173" 
d="M659 723l496 -723h-145l-422 629l-424 -629h-146l498 723l-493 727h141l424 -621l422 621h143z" />
    <glyph glyph-name="Y" unicode="Y" horiz-adv-x="1144" 
d="M633 567v-567h-121v567l-504 883h142l423 -762l422 762h144z" />
    <glyph glyph-name="Z" unicode="Z" horiz-adv-x="1181" 
d="M86 1329v121h995l43 -92l-903 -1237h883v-121h-1018l-37 92l903 1237h-866z" />
    <glyph glyph-name="bracketleft" unicode="[" horiz-adv-x="509" 
d="M258 1450v-1624h184v-98h-307v1818h307v-96h-184z" />
    <glyph glyph-name="backslash" unicode="\" horiz-adv-x="821" 
d="M666 -74l-621 1561l109 37l622 -1561z" />
    <glyph glyph-name="bracketright" unicode="]" horiz-adv-x="509" 
d="M252 -172v1622h-184v98h307v-1818h-307v98h184z" />
    <glyph glyph-name="asciicircum" unicode="^" horiz-adv-x="1103" 
d="M592 1450l424 -580h-144l-327 463l-316 -463h-141l410 580h94z" />
    <glyph glyph-name="underscore" unicode="_" horiz-adv-x="1286" 
d="M1155 -63v-115h-1024v115h1024z" />
    <glyph glyph-name="grave" unicode="`" horiz-adv-x="430" 
d="M199 1548l-189 232h164l143 -232h-118z" />
    <glyph glyph-name="a" unicode="a" horiz-adv-x="1005" 
d="M764 584v159q0 73 -43.5 126t-108.5 77.5t-141 24.5q-82 0 -155 -28t-113 -79l-78 74q63 69 159 106t199 37q105 0 193 -37t145.5 -115.5t57.5 -185.5v-696q-207 -70 -435 -67q-164 2 -267 85t-103 242q1 70 24 126.5t61.5 94t91 63.5t110 37t120.5 11q151 0 283 -55z
M764 113v376q-135 52 -279 52q-62 0 -112.5 -12t-93 -38t-66.5 -73t-25 -111q0 -115 71 -169t192 -56q175 -3 313 31z" />
    <glyph glyph-name="b" unicode="b" horiz-adv-x="1048" 
d="M250 1454v-436q138 63 289 63q104 1 194.5 -37.5t149.5 -119t59 -187.5v-413q0 -86 -33.5 -153t-90.5 -107t-126.5 -61t-146.5 -23q-203 0 -410 71v1403h115zM250 911v-780q111 -39 295 -39q115 0 198 59.5t82 167.5v424q1 108 -82.5 167t-201.5 61q-153 0 -291 -60z" />
    <glyph glyph-name="c" unicode="c" horiz-adv-x="944" 
d="M870 899l-96 -57q-34 63 -106 96t-160 33q-75 0 -138 -22.5t-106 -75.5t-43 -128v-430q0 -56 24.5 -100.5t65.5 -71t91.5 -40t105.5 -13.5q99 0 177 42t101 122l105 -47q-39 -110 -145.5 -168.5t-237.5 -58.5q-76 0 -147 22t-128.5 63t-92 108.5t-34.5 150.5v413
q0 83 34.5 150.5t92 108.5t128.5 63t147 22q115 0 213 -46.5t149 -135.5z" />
    <glyph glyph-name="d" unicode="d" horiz-adv-x="1048" 
d="M913 1454v-1403q-207 -71 -409 -71q-77 2 -146.5 24t-126.5 63t-91 107.5t-34 149.5v411q0 107 59.5 187.5t150 119t194.5 37.5q151 0 289 -63v438h114zM799 131v774q-138 60 -291 60q-118 -2 -202 -61t-83 -167v-418q0 -73 41.5 -126t104 -77t135.5 -24q184 0 295 39z
" />
    <glyph glyph-name="e" unicode="e" 
d="M223 479v-160q0 -111 84 -170t203 -59q90 0 164.5 36t105.5 105l103 -47q-30 -66 -90 -113t-132 -69t-151 -22q-77 0 -148 22t-129 63t-92.5 108.5t-34.5 150.5v413q0 83 34.5 150.5t92.5 108.5t129 63t148 22q76 0 146.5 -22t128 -63t92 -108.5t34.5 -150.5v-258h-688z
M797 575v170q0 73 -42.5 126t-106 76.5t-138.5 23.5q-119 0 -203.5 -58.5t-83.5 -167.5v-170h574z" />
    <glyph glyph-name="f" unicode="f" horiz-adv-x="524" 
d="M498 1458v-106q-126 13 -185 -45t-59 -193v-102h229v-103h-229v-909h-115v1114q0 184 98 273t261 71z" />
    <glyph glyph-name="g" unicode="g" horiz-adv-x="1038" 
d="M156 -287l71 68q44 -48 118.5 -73t156.5 -25q125 0 207 63t82 182v115q-126 -63 -285 -63q-103 -1 -192.5 37t-148.5 118t-59 187v419q0 81 33.5 147t89 107t125 63t144.5 23q129 0 293 -47l112 -35v-1069q0 -110 -57.5 -192t-146.5 -121t-195 -39q-101 0 -192.5 34
t-155.5 101zM791 147v762q-145 62 -293 62q-114 0 -196 -59.5t-81 -166.5v-432q0 -106 83.5 -165.5t197.5 -59.5q153 3 289 59z" />
    <glyph glyph-name="h" unicode="h" horiz-adv-x="1075" 
d="M254 1450v-432q135 63 287 63q104 0 193.5 -38t148.5 -117.5t59 -186.5v-739h-115v745q0 107 -84.5 166.5t-199.5 59.5q-148 0 -289 -58v-913h-115v1450h115z" />
    <glyph glyph-name="i" unicode="i" horiz-adv-x="393" 
d="M104 1321q0 38 27.5 65t65.5 27t65 -27t27 -65t-27 -65t-65 -27t-65.5 27t-27.5 65zM139 1061h115v-1061h-115v1061z" />
    <glyph glyph-name="j" unicode="j" horiz-adv-x="393" 
d="M104 1321q0 38 27.5 65t65.5 27t65 -27t27 -65t-27 -65t-65 -27t-65.5 27t-27.5 65zM-72 -279v-114q155 0 240.5 92.5t85.5 255.5v1106h-115v-1106q0 -112 -52.5 -173t-158.5 -61z" />
    <glyph glyph-name="k" unicode="k" horiz-adv-x="989" 
d="M254 1450v-946l559 557h143l-475 -479l471 -582h-141l-410 500l-147 -148v-352h-115v1450h115z" />
    <glyph glyph-name="l" unicode="l" horiz-adv-x="468" 
d="M457 94v-114q-155 0 -239.5 88t-84.5 247v1135h115v-1135q0 -221 209 -221z" />
    <glyph glyph-name="m" unicode="m" horiz-adv-x="1660" 
d="M135 0v991q72 40 165.5 65t186.5 25q226 0 336 -143q56 71 139.5 107t170.5 36q110 0 198 -38t143.5 -119.5t55.5 -196.5v-727h-117v727q0 64 -22.5 112.5t-62 76.5t-87.5 41.5t-104 13.5q-95 0 -174.5 -51.5t-79.5 -139.5v-780h-113v772q0 65 -45.5 111.5t-111.5 67
t-142 20.5q-144 0 -219 -60v-911h-117z" />
    <glyph glyph-name="n" unicode="n" horiz-adv-x="1069" 
d="M135 0v997q245 84 408 84q76 -2 145 -24t125 -63t89.5 -107t33.5 -148v-739h-115v743q0 74 -42 127.5t-103.5 77t-132.5 23.5q-148 0 -293 -62v-909h-115z" />
    <glyph glyph-name="o" unicode="o" horiz-adv-x="1017" 
d="M106 326v409q0 83 34.5 150.5t92.5 109t129 63.5t148 23q77 -1 147.5 -23t128 -63.5t91.5 -108.5t34 -151v-409q0 -84 -34 -151t-91.5 -108.5t-128 -63.5t-147.5 -23q-77 1 -148 23t-129 63.5t-92.5 109t-34.5 150.5zM510 971q-74 0 -137 -22.5t-107.5 -76.5t-44.5 -131
v-419q0 -77 44.5 -131.5t107.5 -77.5t137 -23q53 0 103 14t91.5 41t67 73t25.5 104v419q0 77 -44.5 131t-107 76.5t-135.5 22.5z" />
    <glyph glyph-name="p" unicode="p" horiz-adv-x="1050" 
d="M137 -391v1399q207 71 410 71q61 -1 118 -14.5t108 -41t89 -67.5t60 -96t22 -123v-411q0 -108 -59 -188.5t-149.5 -119t-194.5 -38.5q-146 0 -289 65v-436h-115zM252 936v-789q144 -59 291 -59q117 2 200.5 61t83.5 166v433q0 107 -82.5 165t-197.5 58q-195 0 -295 -35z
" />
    <glyph glyph-name="q" unicode="q" horiz-adv-x="1050" 
d="M801 -391v436q-143 -65 -289 -65q-62 0 -120 13t-109.5 40t-90 65.5t-61 93.5t-22.5 121v435q0 83 34 148.5t91 104.5t126.5 59.5t145.5 20.5q202 0 409 -71v-1401h-114zM801 147v789q-100 35 -295 35q-116 0 -199 -58t-82 -165v-433q0 -107 84 -166t201 -59
q152 0 291 57z" />
    <glyph glyph-name="r" unicode="r" horiz-adv-x="618" 
d="M514 1081q24 0 78 -4v-114q-69 14 -148 -2q-86 -20 -141 -76.5t-55 -145.5v-739h-115v739q0 72 25.5 132t66 98t92 64t101 37t96.5 11z" />
    <glyph glyph-name="s" unicode="s" horiz-adv-x="901" 
d="M70 199l88 55q59 -80 143 -122t178 -42q100 0 168.5 46.5t67.5 146.5q-1 41 -16.5 73.5t-37.5 52.5t-57.5 35t-64 22.5t-68.5 14.5q-62 11 -105.5 22t-97.5 34t-87 53t-56 78.5t-23 111.5q0 77 34.5 137t91 94.5t120.5 52t131 17.5q85 0 163.5 -27t133.5 -79l-74 -86
q-79 82 -223 82q-45 0 -88 -9.5t-84 -30t-66.5 -60t-25.5 -91.5q1 -40 20.5 -71t42 -49t67 -33.5t67.5 -20.5t70 -14q7 -1 10 -2q55 -10 99.5 -23.5t90 -38t76.5 -56.5t50.5 -80.5t20.5 -108.5q0 -101 -51.5 -170.5t-128 -100t-170.5 -32.5q-126 -3 -233.5 53.5
t-175.5 165.5z" />
    <glyph glyph-name="t" unicode="t" horiz-adv-x="538" 
d="M510 86v-102q-184 -30 -280.5 64.5t-96.5 273.5v981h100l15 -242h229v-103h-229v-636q0 -58 13 -104t42 -81t81.5 -49t125.5 -2z" />
    <glyph glyph-name="u" unicode="u" horiz-adv-x="1067" 
d="M932 61l-115 -34q-164 -47 -293 -47q-102 0 -189.5 37t-145.5 116.5t-58 188.5v741h115v-748q0 -105 82.5 -165t195.5 -60q144 0 293 64v909h115v-1002z" />
    <glyph glyph-name="v" unicode="v" horiz-adv-x="964" 
d="M817 1061h121l-373 -1061h-166l-372 1061h120l336 -957z" />
    <glyph glyph-name="w" unicode="w" horiz-adv-x="1480" 
d="M520 0h-164l-319 1061h121l280 -942l230 942h145l229 -942l281 942h121l-320 -1061h-163l-220 907z" />
    <glyph glyph-name="x" unicode="x" horiz-adv-x="948" 
d="M907 1061l-364 -531l364 -530h-139l-293 446l-295 -446h-139l365 530l-365 531h139l295 -449l293 449h139z" />
    <glyph glyph-name="y" unicode="y" horiz-adv-x="1095" 
d="M182 -279l80 74q100 -106 279 -106q126 0 212.5 67.5t86.5 190.5v102q-61 -39 -132.5 -53t-162.5 -16q-79 -1 -153 22.5t-132.5 67.5t-93.5 112.5t-35 151.5v727h119v-731q0 -111 88 -176.5t205 -67.5q150 0 297 64v911h116v-1114q0 -90 -33.5 -162t-91 -116
t-130.5 -67.5t-156 -23.5q-105 0 -203 37.5t-160 105.5z" />
    <glyph glyph-name="z" unicode="z" horiz-adv-x="950" 
d="M92 950v111h739l48 -84l-662 -856h657v-121h-772l-49 82l668 868h-629z" />
    <glyph glyph-name="braceleft" unicode="{" horiz-adv-x="565" 
d="M498 1450h-76q-25 0 -41 -8t-25 -18.5t-13 -35.5t-4.5 -43t-0.5 -57v-327q1 -75 -12.5 -138t-33.5 -99.5t-37 -56.5t-30 -26v-4q13 -7 30 -27.5t37 -57t33.5 -99t12.5 -136.5v-335q0 -84 17.5 -119t76.5 -35h66v-98h-103q-85 0 -132.5 66t-47.5 181v299q0 314 -143 314
v98q143 0 143 316v296q0 116 47 182t133 66h103v-98z" />
    <glyph glyph-name="bar" unicode="|" horiz-adv-x="385" 
d="M250 -365h-115v1909h115v-1909z" />
    <glyph glyph-name="braceright" unicode="}" horiz-adv-x="565" 
d="M68 1548h102q86 0 133 -66t47 -182v-296q0 -316 144 -316v-98q-144 0 -144 -314v-299q0 -115 -47.5 -181t-132.5 -66h-102v98h65q59 0 76.5 35t17.5 119v335q-1 74 12.5 136.5t33.5 99t37 57t30 27.5v4q-13 6 -30 26t-37 56.5t-33.5 99.5t-12.5 138v327q0 39 -0.5 57
t-4.5 43t-13 35.5t-25 18.5t-41 8h-75v98z" />
    <glyph glyph-name="asciitilde" unicode="~" horiz-adv-x="1079" 
d="M897 745l68 -61q-90 -188 -256 -188q-47 0 -95.5 22t-83 48.5t-78.5 48.5t-83 22q-56 0 -97.5 -35t-83.5 -100l-69 59q96 184 256 184q43 0 84.5 -14.5t74 -34.5t62.5 -40.5t61.5 -35t59.5 -14.5q55 0 95.5 36t84.5 103z" />
    <glyph glyph-name="uni00A0" unicode="&#xa0;" horiz-adv-x="446" 
 />
    <glyph glyph-name="exclamdown" unicode="&#xa1;" horiz-adv-x="405" 
d="M301 983q0 -41 -28.5 -69.5t-69.5 -28.5t-70 28.5t-29 69.5t29 69.5t70 28.5t69.5 -28.5t28.5 -69.5zM264 680v-1069h-121v1069h121z" />
    <glyph glyph-name="cent" unicode="&#xa2;" horiz-adv-x="968" 
d="M872 889l-96 -62q-30 56 -90.5 88.5t-136.5 38.5v-843q87 6 153.5 47.5t88.5 113.5l102 -51q-37 -101 -131 -159t-213 -66v-189h-94v189q-146 16 -245 105t-99 237v389q0 148 99.5 236.5t244.5 103.5v190h94v-188q104 -6 190.5 -52t132.5 -128zM455 113v839
q-100 -13 -165.5 -70t-64.5 -151v-4v-389v-4q-1 -94 64.5 -151t165.5 -70z" />
    <glyph glyph-name="sterling" unicode="&#xa3;" horiz-adv-x="1079" 
d="M301 100v615h-213v90h213v242q0 59 12 115t42 113t75.5 99.5t118.5 69t164 26.5q81 0 146.5 -27t131.5 -85l-82 -74q-43 43 -89.5 61.5t-112.5 18.5q-74 0 -132 -29t-91 -75t-49.5 -96t-16.5 -99v-260h338v-90h-338v-615h563v-100h-893v100h213z" />
    <glyph glyph-name="currency" unicode="&#xa4;" horiz-adv-x="1271" 
d="M133 291l117 112q-123 132 -123 322t123 322l-117 112l70 76l116 -115q140 109 318 109q177 0 317 -109l117 115l70 -76l-117 -112q123 -132 123 -322t-123 -322l117 -112l-70 -76l-117 115q-140 -109 -317 -109q-178 0 -318 109l-116 -115zM238 723q0 -165 116.5 -281
t278.5 -116q163 0 280 116t117 281q0 168 -116.5 285.5t-280.5 117.5q-162 0 -278.5 -117.5t-116.5 -285.5z" />
    <glyph glyph-name="yen" unicode="&#xa5;" horiz-adv-x="1224" 
d="M709 633h307l-21 -90h-323v-109h346l-21 -90h-325v-342h-121v342h-344l18 90h326v109h-338l20 90h281l-467 819h141l424 -778l422 778h144z" />
    <glyph glyph-name="brokenbar" unicode="&#xa6;" horiz-adv-x="409" 
d="M264 729h-119v717h119v-717zM264 -295h-119v717h119v-717z" />
    <glyph glyph-name="section" unicode="&#xa7;" horiz-adv-x="972" 
d="M78 -49l108 51q32 -87 110 -133.5t173 -46.5q100 0 180 56t80 149q0 56 -34.5 100.5t-89.5 76t-121 60.5t-132.5 62.5t-121.5 73.5t-89.5 102t-34.5 139q0 171 218 264q-168 101 -168 260q0 101 57 176t142 110.5t182 35.5q111 0 200 -48t127 -145l-108 -59
q-28 67 -89 102t-137 35q-99 0 -175 -56t-76 -151q0 -53 33 -96t86.5 -73.5t117.5 -59.5t128 -62t117.5 -72.5t86.5 -99t33 -133.5q0 -170 -183 -270q70 -41 112 -107t42 -145q0 -157 -112.5 -249.5t-268.5 -92.5q-134 0 -239.5 62t-153.5 184zM377 453l217 -105
q65 35 117.5 92.5t52.5 118.5q0 113 -166 203l-156 88q-39 -13 -72 -30t-66 -41.5t-52 -59t-19 -74.5q0 -74 36 -114.5t108 -77.5z" />
    <glyph glyph-name="dieresis" unicode="&#xa8;" horiz-adv-x="575" 
d="M23 1665q0 35 24 59.5t59 24.5t59.5 -24.5t24.5 -59.5t-24.5 -59.5t-59.5 -24.5t-59 24.5t-24 59.5zM391 1665q0 35 24.5 59.5t59.5 24.5t59.5 -24.5t24.5 -59.5t-24.5 -59.5t-59.5 -24.5t-59.5 24.5t-24.5 59.5z" />
    <glyph glyph-name="copyright" unicode="&#xa9;" horiz-adv-x="1712" 
d="M94 725q0 155 60.5 296t162.5 243t243 162.5t296 60.5t296 -60.5t243 -162.5t162.5 -243t60.5 -296t-60.5 -296t-162.5 -243t-243 -162.5t-296 -60.5t-296 60.5t-243 162.5t-162.5 243t-60.5 296zM215 725q0 -174 86 -321.5t233.5 -233.5t321.5 -86t321.5 86t233.5 233.5
t86 321.5t-86 321.5t-233.5 233.5t-321.5 86t-321.5 -86t-233.5 -233.5t-86 -321.5zM1122 981l97 61q-51 89 -149.5 136t-213.5 47q-76 0 -146.5 -22t-128 -63t-92 -108.5t-34.5 -150.5v-310q0 -83 34.5 -150.5t92 -108.5t128 -63t146.5 -22q130 0 237 59t146 169l-104 51
q-23 -80 -101.5 -122t-177.5 -42q-55 0 -105.5 14t-91.5 40.5t-65.5 70.5t-24.5 100v4v310v4q0 56 24.5 100t65.5 70.5t91.5 40.5t105.5 14q88 0 160 -33t106 -96z" />
    <glyph glyph-name="ordfeminine" unicode="&#xaa;" horiz-adv-x="774" 
d="M537 1174v75q0 55 -49.5 84t-118.5 29q-51 0 -100.5 -17t-78.5 -53l-69 68q49 55 117 82.5t139 27.5t131.5 -23.5t100.5 -76t40 -125.5v-471q-140 -46 -299 -43q-110 2 -183 69.5t-73 180.5q1 62 25 106.5t65.5 68.5t90 35t106.5 11q83 0 156 -28zM537 848v233
q-83 27 -160 27q-168 0 -170 -127q0 -67 42 -107.5t105 -42.5q99 0 183 17z" />
    <glyph glyph-name="guillemotleft" unicode="&#xab;" horiz-adv-x="847" 
d="M354 1020l99 -59l-244 -357l244 -356l-99 -60l-280 416zM651 1020l99 -59l-244 -357l244 -356l-99 -60l-280 416z" />
    <glyph glyph-name="logicalnot" unicode="&#xac;" horiz-adv-x="1249" 
d="M131 705v112h977v-469h-113v357h-864z" />
    <glyph glyph-name="uni00AD" unicode="&#xad;" horiz-adv-x="669" 
d="M588 555v-119h-506v119h506z" />
    <glyph glyph-name="registered" unicode="&#xae;" horiz-adv-x="1712" 
d="M94 725q0 155 60.5 296t162.5 243t243 162.5t296 60.5t296 -60.5t243 -162.5t162.5 -243t60.5 -296t-60.5 -296t-162.5 -243t-243 -162.5t-296 -60.5t-296 60.5t-243 162.5t-162.5 243t-60.5 296zM211 725q0 -175 86.5 -323.5t235 -235t323.5 -86.5t323.5 86.5t235 235
t86.5 323.5t-86.5 323.5t-235 235t-323.5 86.5t-323.5 -86.5t-235 -235t-86.5 -323.5zM580 289v878h313q147 0 224 -67.5t77 -188.5q0 -115 -62.5 -182.5t-158.5 -83.5l262 -356h-125l-262 356h-160v-356h-108zM688 743h143q52 0 91.5 6.5t78.5 23t60.5 51.5t21.5 87
q0 79 -58.5 118.5t-137.5 39.5h-199v-326z" />
    <glyph glyph-name="macron" unicode="&#xaf;" horiz-adv-x="491" 
d="M29 1636v99h512v-99h-512z" />
    <glyph glyph-name="degree" unicode="&#xb0;" horiz-adv-x="724" 
d="M362 920q-114 0 -194 80.5t-80 195.5q0 114 80 193t194 79t194.5 -79t80.5 -193t-81 -195t-194 -81zM362 1022q71 0 122 51t51 121t-51 121t-122 51q-70 0 -121 -51t-51 -121t51 -121t121 -51z" />
    <glyph glyph-name="plusminus" unicode="&#xb1;" horiz-adv-x="1155" 
d="M514 893v367h117v-367h395v-117h-395v-368h-117v368h-385v117h385zM1018 307v-112h-881v112h881z" />
    <glyph glyph-name="twosuperior" unicode="&#xb2;" horiz-adv-x="843" 
d="M719 686v-104h-580l-30 75l426 404q79 75 79 151q0 71 -60 111.5t-140 40.5q-152 0 -205 -109l-96 41q36 88 117 129t180 41q140 0 224.5 -69t84.5 -180q0 -62 -31 -123.5t-80 -106.5l-315 -301h426z" />
    <glyph glyph-name="threesuperior" unicode="&#xb3;" horiz-adv-x="804" 
d="M578 1059q67 -26 101 -80.5t34 -128.5q-4 -122 -91 -192t-225 -70q-33 0 -71 7.5t-83 24t-84.5 51t-60.5 81.5l-8 16l92 45l8 -16q25 -51 81 -78.5t128 -30.5q93 0 151 42.5t58 119.5q0 166 -184 160h-66v82h66q66 0 107.5 39t41.5 96q0 62 -49.5 100.5t-124.5 38.5
q-56 0 -106 -23.5t-74 -66.5l-8 -16l-86 47q19 50 58 84t84.5 48t76.5 18.5t57 4.5q123 0 197 -64.5t74 -170.5q0 -54 -24.5 -99t-69.5 -69z" />
    <glyph glyph-name="acute" unicode="&#xb4;" horiz-adv-x="1267" 
d="M895 1780l-186 -232h-119l141 232h164z" />
    <glyph glyph-name="mu" unicode="&#xb5;" horiz-adv-x="1077" 
d="M948 0h-119q-4 127 -8 147h-6q-37 -79 -123 -125.5t-200 -46.5q-155 0 -240 117v-559h-121v1516h123v-660q0 -303 238 -303q144 0 235.5 100t91.5 287v576h123z" />
    <glyph glyph-name="paragraph" unicode="&#xb6;" horiz-adv-x="1161" 
d="M520 -258v803q-226 0 -357 147q-106 119 -110 287q-4 169 97 296q124 156 350 173q26 2 53 2h465v-1708h-119v1610h-256v-1610h-123z" />
    <glyph glyph-name="periodcentered" unicode="&#xb7;" horiz-adv-x="450" 
d="M127 651q0 41 28.5 70t69.5 29t70 -29t29 -70t-29 -69.5t-70 -28.5t-69.5 28.5t-28.5 69.5z" />
    <glyph glyph-name="cedilla" unicode="&#xb8;" horiz-adv-x="491" 
d="M238 -139l2 -4q99 12 154 -33t52 -133q-3 -92 -72.5 -141.5t-156.5 -49.5q-93 0 -180 41l26 76q69 -35 150 -35q55 0 94.5 28t42.5 81q2 43 -19.5 68.5t-54 30t-64 0.5t-54.5 -15l-29 28l119 224h76z" />
    <glyph glyph-name="onesuperior" unicode="&#xb9;" horiz-adv-x="493" 
d="M129 1161l-78 62l207 237h98v-868h-102v708z" />
    <glyph glyph-name="ordmasculine" unicode="&#xba;" horiz-adv-x="835" 
d="M418 729q-126 0 -220 67.5t-94 188.5v229q0 121 94 188.5t220 67.5t219.5 -67.5t93.5 -188.5v-229q0 -121 -93.5 -188.5t-219.5 -67.5zM209 1214v-229q0 -54 33.5 -90.5t78 -50t97.5 -13.5t97.5 13.5t78 50t33.5 90.5v229q0 54 -33.5 90.5t-78 50t-97.5 13.5t-97.5 -13.5
t-78 -50t-33.5 -90.5z" />
    <glyph glyph-name="guillemotright" unicode="&#xbb;" horiz-adv-x="847" 
d="M197 188l-99 60l244 356l-244 357l99 59l280 -416zM494 188l-99 60l244 356l-244 357l99 59l280 -416z" />
    <glyph glyph-name="onequarter" unicode="&#xbc;" horiz-adv-x="1474" 
d="M1219 1462l-936 -1532l-93 58l934 1532zM356 592v868h-98l-207 -237l78 -62l125 139v-708h102zM1223 872l-459 -563l67 -98h396v-211h104v211h70v96h-70v565h-108zM1235 741l-8 -434h-338z" />
    <glyph glyph-name="onehalf" unicode="&#xbd;" horiz-adv-x="1570" 
d="M1178 1462l-936 -1532l-92 58l933 1532zM356 592v868h-98l-207 -237l78 -62l125 139v-708h102zM1061 100l315 299q49 45 80 106.5t31 123.5q0 111 -84.5 180.5t-224.5 69.5q-99 0 -180 -41t-117 -129l96 -41q54 108 205 108q91 0 145.5 -44.5t54.5 -106.5q0 -77 -79 -152
l-426 -397l30 -76h580v100h-426z" />
    <glyph glyph-name="threequarters" unicode="&#xbe;" horiz-adv-x="1587" 
d="M1399 1462l-936 -1532l-92 58l934 1532zM553 1059q45 24 69.5 69t24.5 99q0 112 -81.5 176.5t-205.5 58.5q-83 -4 -156 -40t-104 -115l86 -47l9 16q24 43 74 66.5t106 23.5q75 0 124.5 -38.5t49.5 -100.5q0 -59 -45.5 -97t-104.5 -38h-65v-82h65q92 0 138.5 -37.5
t46.5 -122.5q0 -77 -64.5 -119.5t-142.5 -42.5q-57 0 -120 26.5t-91 82.5l-8 16l-92 -45l8 -16q23 -49 65 -84t88 -51t81.5 -22.5t62.5 -6.5q80 0 151 28t119 89.5t47 144.5q0 74 -34 128.5t-101 80.5zM1444 868h-109l-458 -561l67 -98h395v-209h105v209h69v96h-69v563z
M1001 305l347 432l-9 -432h-338z" />
    <glyph glyph-name="questiondown" unicode="&#xbf;" horiz-adv-x="970" 
d="M547 887q-40 0 -67 28.5t-27 69.5t27 68.5t67 27.5t69 -27.5t29 -68.5t-29 -69.5t-69 -28.5zM836 -160l90 -71q-68 -87 -176 -133t-226 -46q-89 0 -171 26.5t-147.5 77t-104.5 132t-38 182.5q1 100 35.5 179t94.5 131t132 84t158 47l17 333h100l12 -430
q-113 -1 -210.5 -40.5t-160.5 -120t-61 -185.5q1 -73 31 -131t79.5 -94t110 -55t127.5 -19q91 0 173 34.5t133 98.5h2z" />
    <glyph glyph-name="Agrave" unicode="&#xc0;" horiz-adv-x="1247" 
d="M588 1548l-189 232h164l144 -232h-119zM711 1450l524 -1450h-127l-174 483h-623l-170 -483h-127l521 1450h176zM623 1360l-269 -756h537z" />
    <glyph glyph-name="Aacute" unicode="&#xc1;" horiz-adv-x="1247" 
d="M834 1780l-187 -232h-119l142 232h164zM711 1450l524 -1450h-127l-174 483h-623l-170 -483h-127l521 1450h176zM623 1360l-269 -756h537z" />
    <glyph glyph-name="Acircumflex" unicode="&#xc2;" horiz-adv-x="1247" 
d="M690 1780l211 -232h-129l-154 160l-143 -160h-131l211 232h135zM711 1450l524 -1450h-127l-174 483h-623l-170 -483h-127l521 1450h176zM623 1360l-269 -756h537z" />
    <glyph glyph-name="Atilde" unicode="&#xc3;" horiz-adv-x="1247" 
d="M432 1597l-82 29q12 72 56.5 113t111.5 41q29 0 61 -15.5t55.5 -34t52 -34t50.5 -15.5q60 0 78 76l80 -31q-19 -70 -60.5 -109.5t-97.5 -39.5q-40 0 -80 24.5t-77.5 49t-69.5 24.5q-53 0 -78 -78zM711 1450l524 -1450h-127l-174 483h-623l-170 -483h-127l521 1450h176z
M623 1360l-269 -756h537z" />
    <glyph glyph-name="Adieresis" unicode="&#xc4;" horiz-adv-x="1247" 
d="M354 1665q0 35 24.5 59.5t59.5 24.5t59.5 -24.5t24.5 -59.5t-24.5 -59.5t-59.5 -24.5t-59.5 24.5t-24.5 59.5zM723 1665q0 35 24.5 59.5t59.5 24.5t59.5 -24.5t24.5 -59.5t-24.5 -59.5t-59.5 -24.5t-59.5 24.5t-24.5 59.5zM711 1450l524 -1450h-127l-174 483h-623
l-170 -483h-127l521 1450h176zM623 1360l-269 -756h537z" />
    <glyph glyph-name="Aring" unicode="&#xc5;" horiz-adv-x="1247" 
d="M1235 0h-127l-174 483h-623l-170 -483h-127l521 1448q-50 25 -80.5 71.5t-30.5 102.5q0 80 58.5 137.5t140.5 57.5t140 -57.5t58 -137.5q0 -56 -30 -102.5t-80 -71.5zM623 1726q-43 0 -73 -30.5t-30 -73.5t30 -73.5t73 -30.5q40 0 69 30.5t29 73.5t-29 73.5t-69 30.5z
M891 604l-268 756l-269 -756h537z" />
    <glyph glyph-name="AE" unicode="&#xc6;" horiz-adv-x="1642" 
d="M729 1450h821v-121h-618v-545h555v-120h-555v-543h618v-121h-739v483h-440l-240 -483h-141zM811 604v750l-379 -750h379z" />
    <glyph glyph-name="Ccedilla" unicode="&#xc7;" horiz-adv-x="1214" 
d="M659 100q128 0 236 51t156 144l108 -53q-58 -121 -188 -188.5t-287 -73.5l-61 -119l2 -4q99 12 154 -33t52 -133q-3 -92 -72.5 -141.5t-156.5 -49.5q-93 0 -180 41l27 76q69 -35 149 -35q55 0 94.5 28t42.5 81q2 43 -19.5 68.5t-54 30t-64 0.5t-54.5 -15l-29 28l94 179
q-96 6 -182.5 37t-155 84.5t-109 135.5t-40.5 181v610q0 85 30.5 157.5t83.5 123.5t122.5 87.5t148 54t160.5 17.5q105 0 200 -27.5t173.5 -87.5t119.5 -145l-108 -53v-2q-48 93 -156 144t-236 51q-108 0 -201 -34.5t-154.5 -109t-61.5 -176.5v-610q0 -102 61.5 -176.5
t154.5 -109t201 -34.5z" />
    <glyph glyph-name="Egrave" unicode="&#xc8;" horiz-adv-x="1165" 
d="M608 1548l-188 232h164l143 -232h-119zM283 1329v-543h727v-122h-727v-543h788v-121h-909v1450h909v-121h-788z" />
    <glyph glyph-name="Eacute" unicode="&#xc9;" horiz-adv-x="1165" 
d="M854 1780l-186 -232h-119l141 232h164zM283 1329v-543h727v-122h-727v-543h788v-121h-909v1450h909v-121h-788z" />
    <glyph glyph-name="Ecircumflex" unicode="&#xca;" horiz-adv-x="1165" 
d="M711 1780l211 -232h-129l-154 160l-143 -160h-131l210 232h136zM283 1329v-543h727v-122h-727v-543h788v-121h-909v1450h909v-121h-788z" />
    <glyph glyph-name="Edieresis" unicode="&#xcb;" horiz-adv-x="1165" 
d="M375 1665q0 35 24.5 59.5t59.5 24.5t59.5 -24.5t24.5 -59.5t-24.5 -59.5t-59.5 -24.5t-59.5 24.5t-24.5 59.5zM743 1665q0 35 24.5 59.5t59.5 24.5t59.5 -24.5t24.5 -59.5t-24.5 -59.5t-59.5 -24.5t-59.5 24.5t-24.5 59.5zM283 1329v-543h727v-122h-727v-543h788v-121
h-909v1450h909v-121h-788z" />
    <glyph glyph-name="Igrave" unicode="&#xcc;" horiz-adv-x="444" 
d="M188 1548l-188 232h164l143 -232h-119zM283 1450v-1450h-121v1450h121z" />
    <glyph glyph-name="Iacute" unicode="&#xcd;" horiz-adv-x="444" 
d="M434 1780l-186 -232h-119l141 232h164zM283 1450v-1450h-121v1450h121z" />
    <glyph glyph-name="Icircumflex" unicode="&#xce;" horiz-adv-x="444" 
d="M291 1815l149 -232h-129l-84 166l-90 -166h-131l150 232h135zM283 1450v-1450h-121v1450h121z" />
    <glyph glyph-name="Idieresis" unicode="&#xcf;" horiz-adv-x="444" 
d="M-4 1698q0 35 24.5 59.5t59.5 24.5t59.5 -24.5t24.5 -59.5t-24.5 -59.5t-59.5 -24.5t-59.5 24.5t-24.5 59.5zM283 1698q0 35 24.5 59.5t59.5 24.5t59.5 -24.5t24.5 -59.5t-24.5 -59.5t-59.5 -24.5t-59.5 24.5t-24.5 59.5zM283 1450v-1450h-121v1450h121z" />
    <glyph glyph-name="Eth" unicode="&#xd0;" horiz-adv-x="1318" 
d="M170 770v680h483q106 0 200.5 -25t172.5 -74.5t124 -133t46 -191.5v-604q0 -86 -30.5 -157.5t-82 -119.5t-122 -81.5t-147.5 -48.5t-161 -15h-483v668h-129v102h129zM291 121h362q65 0 125 10.5t114.5 34t94.5 57.5t64 85.5t24 113.5v604q0 78 -35.5 138t-96.5 95
t-134.5 52.5t-155.5 17.5h-362v-559h256v-102h-256v-547z" />
    <glyph glyph-name="Ntilde" unicode="&#xd1;" horiz-adv-x="1411" 
d="M557 1597l-82 29q12 72 56.5 113t111.5 41q29 0 61 -15.5t55.5 -34t52 -34t50.5 -15.5q60 0 78 76l80 -31q-19 -70 -60.5 -109.5t-97.5 -39.5q-40 0 -80 24.5t-77.5 49t-69.5 24.5q-53 0 -78 -78zM309 1450l819 -1317v1317h121v-1450h-180l-786 1264v-1264h-121v1450h147
z" />
    <glyph glyph-name="Ograve" unicode="&#xd2;" horiz-adv-x="1386" 
d="M659 1548l-188 232h164l143 -232h-119zM119 426v598q0 107 49 194t130.5 141t183 82.5t212.5 28.5q110 0 211 -28.5t183 -82.5t131 -141t49 -194v-598q0 -107 -49 -194t-131 -141t-183 -82.5t-211 -28.5q-111 0 -212.5 28.5t-183 82.5t-130.5 141t-49 194zM240 1024v-598
q0 -78 38.5 -142t103.5 -103t145 -60t167 -21q86 0 166 21t144.5 60t103.5 103t39 142v598q0 83 -39 147t-105 102t-145.5 57.5t-167.5 19.5q-87 -1 -165.5 -21t-143.5 -58t-103 -102t-38 -145z" />
    <glyph glyph-name="Oacute" unicode="&#xd3;" horiz-adv-x="1386" 
d="M905 1780l-186 -232h-119l141 232h164zM119 426v598q0 107 49 194t130.5 141t183 82.5t212.5 28.5q110 0 211 -28.5t183 -82.5t131 -141t49 -194v-598q0 -107 -49 -194t-131 -141t-183 -82.5t-211 -28.5q-111 0 -212.5 28.5t-183 82.5t-130.5 141t-49 194zM240 1024v-598
q0 -78 38.5 -142t103.5 -103t145 -60t167 -21q86 0 166 21t144.5 60t103.5 103t39 142v598q0 83 -39 147t-105 102t-145.5 57.5t-167.5 19.5q-87 -1 -165.5 -21t-143.5 -58t-103 -102t-38 -145z" />
    <glyph glyph-name="Ocircumflex" unicode="&#xd4;" horiz-adv-x="1386" 
d="M762 1780l211 -232h-129l-154 160l-143 -160h-131l211 232h135zM119 426v598q0 107 49 194t130.5 141t183 82.5t212.5 28.5q110 0 211 -28.5t183 -82.5t131 -141t49 -194v-598q0 -107 -49 -194t-131 -141t-183 -82.5t-211 -28.5q-111 0 -212.5 28.5t-183 82.5t-130.5 141
t-49 194zM240 1024v-598q0 -78 38.5 -142t103.5 -103t145 -60t167 -21q86 0 166 21t144.5 60t103.5 103t39 142v598q0 83 -39 147t-105 102t-145.5 57.5t-167.5 19.5q-87 -1 -165.5 -21t-143.5 -58t-103 -102t-38 -145z" />
    <glyph glyph-name="Otilde" unicode="&#xd5;" horiz-adv-x="1386" 
d="M504 1597l-82 29q12 72 56.5 113t111.5 41q29 0 61 -15.5t55.5 -34t52 -34t50.5 -15.5q60 0 78 76l80 -31q-19 -70 -60.5 -109.5t-97.5 -39.5q-40 0 -80 24.5t-77.5 49t-69.5 24.5q-53 0 -78 -78zM119 426v598q0 107 49 194t130.5 141t183 82.5t212.5 28.5
q110 0 211 -28.5t183 -82.5t131 -141t49 -194v-598q0 -107 -49 -194t-131 -141t-183 -82.5t-211 -28.5q-111 0 -212.5 28.5t-183 82.5t-130.5 141t-49 194zM240 1024v-598q0 -78 38.5 -142t103.5 -103t145 -60t167 -21q86 0 166 21t144.5 60t103.5 103t39 142v598
q0 83 -39 147t-105 102t-145.5 57.5t-167.5 19.5q-87 -1 -165.5 -21t-143.5 -58t-103 -102t-38 -145z" />
    <glyph glyph-name="Odieresis" unicode="&#xd6;" horiz-adv-x="1386" 
d="M426 1665q0 35 24.5 59.5t59.5 24.5t59.5 -24.5t24.5 -59.5t-24.5 -59.5t-59.5 -24.5t-59.5 24.5t-24.5 59.5zM795 1665q0 35 24.5 59.5t59.5 24.5t59.5 -24.5t24.5 -59.5t-24.5 -59.5t-59.5 -24.5t-59.5 24.5t-24.5 59.5zM119 426v598q0 107 49 194t130.5 141t183 82.5
t212.5 28.5q110 0 211 -28.5t183 -82.5t131 -141t49 -194v-598q0 -107 -49 -194t-131 -141t-183 -82.5t-211 -28.5q-111 0 -212.5 28.5t-183 82.5t-130.5 141t-49 194zM240 1024v-598q0 -78 38.5 -142t103.5 -103t145 -60t167 -21q86 0 166 21t144.5 60t103.5 103t39 142
v598q0 83 -39 147t-105 102t-145.5 57.5t-167.5 19.5q-87 -1 -165.5 -21t-143.5 -58t-103 -102t-38 -145z" />
    <glyph glyph-name="multiply" unicode="&#xd7;" horiz-adv-x="1032" 
d="M518 698l330 330l80 -82l-326 -325l322 -322l-82 -84l-324 324l-332 -332l-80 84l328 327l-334 336l82 82z" />
    <glyph glyph-name="Oslash" unicode="&#xd8;" horiz-adv-x="1386" 
d="M1137 1577l-86 -195q101 -59 159 -149t58 -209v-598q0 -107 -49 -194t-131 -141t-183 -82.5t-211 -28.5q-138 0 -254 40l-90 -198l-92 31l92 206q-107 57 -169 150t-62 217v598q0 107 49 194t130.5 141t183 82.5t212.5 28.5q144 0 271 -47l82 185zM240 1024v-598
q0 -164 161 -256l514 1145q-98 35 -225 35q-87 -1 -165.5 -21t-143.5 -58t-103 -102t-38 -145zM1147 426v598q0 165 -146 250l-512 -1143q98 -31 205 -31q86 0 166 21t144.5 60t103.5 103t39 142z" />
    <glyph glyph-name="Ugrave" unicode="&#xd9;" horiz-adv-x="1390" 
d="M662 1548l-189 232h164l143 -232h-118zM272 1450v-1020q0 -79 36 -143.5t96.5 -104.5t135.5 -61t156 -21t155.5 21.5t134.5 61t96 104t36 143.5v1020h121v-1018q0 -109 -46.5 -197t-124 -142.5t-173.5 -83.5t-199 -29q-104 0 -200 29t-173.5 83.5t-124 142.5t-46.5 197
v1018h120z" />
    <glyph glyph-name="Uacute" unicode="&#xda;" horiz-adv-x="1390" 
d="M907 1780l-186 -232h-119l141 232h164zM272 1450v-1020q0 -79 36 -143.5t96.5 -104.5t135.5 -61t156 -21t155.5 21.5t134.5 61t96 104t36 143.5v1020h121v-1018q0 -109 -46.5 -197t-124 -142.5t-173.5 -83.5t-199 -29q-104 0 -200 29t-173.5 83.5t-124 142.5t-46.5 197
v1018h120z" />
    <glyph glyph-name="Ucircumflex" unicode="&#xdb;" horiz-adv-x="1390" 
d="M764 1780l211 -232h-129l-154 160l-143 -160h-131l211 232h135zM272 1450v-1020q0 -79 36 -143.5t96.5 -104.5t135.5 -61t156 -21t155.5 21.5t134.5 61t96 104t36 143.5v1020h121v-1018q0 -109 -46.5 -197t-124 -142.5t-173.5 -83.5t-199 -29q-104 0 -200 29t-173.5 83.5
t-124 142.5t-46.5 197v1018h120z" />
    <glyph glyph-name="Udieresis" unicode="&#xdc;" horiz-adv-x="1390" 
d="M428 1665q0 35 24.5 59.5t59.5 24.5t59.5 -24.5t24.5 -59.5t-24.5 -59.5t-59.5 -24.5t-59.5 24.5t-24.5 59.5zM797 1665q0 35 24.5 59.5t59.5 24.5t59.5 -24.5t24.5 -59.5t-24.5 -59.5t-59.5 -24.5t-59.5 24.5t-24.5 59.5zM272 1450v-1020q0 -79 36 -143.5t96.5 -104.5
t135.5 -61t156 -21t155.5 21.5t134.5 61t96 104t36 143.5v1020h121v-1018q0 -109 -46.5 -197t-124 -142.5t-173.5 -83.5t-199 -29q-104 0 -200 29t-173.5 83.5t-124 142.5t-46.5 197v1018h120z" />
    <glyph glyph-name="Yacute" unicode="&#xdd;" horiz-adv-x="1144" 
d="M784 1780l-186 -232h-119l142 232h163zM633 567v-567h-121v567l-504 883h142l423 -762l422 762h144z" />
    <glyph glyph-name="Thorn" unicode="&#xde;" horiz-adv-x="1255" 
d="M283 0h-121v1450h121v-268h426q132 0 235.5 -50t156.5 -130t78 -177t0 -194t-78 -177t-156 -130t-234 -50h-428v-274zM283 395h426q100 0 177.5 37t117.5 96t58 130.5t-1 143t-59.5 130t-117.5 94.5t-175 35h-426v-666z" />
    <glyph glyph-name="germandbls" unicode="&#xdf;" horiz-adv-x="1208" 
d="M582 121q80 -2 153.5 17t133 56t95 98.5t35.5 139.5q0 107 -49 178t-129 101.5t-186 29.5h-189v115h189q128 0 213.5 73t85.5 204q0 69 -29 121.5t-79 82t-107.5 44t-122.5 14.5q-64 0 -122.5 -16.5t-107.5 -48.5t-78.5 -86.5t-29.5 -123.5v-1122h-119v1122
q0 74 25.5 137.5t70 109t102.5 78t124 48.5t135 16q87 0 167.5 -23.5t146.5 -68.5t105.5 -118.5t39.5 -165.5q0 -105 -41.5 -192t-126.5 -136q235 -81 235 -375q-2 -86 -33 -158.5t-82.5 -122.5t-120 -85t-145 -51t-157.5 -15q-131 3 -222 49l3 129q44 -23 104 -38t113 -17z
" />
    <glyph glyph-name="agrave" unicode="&#xe0;" horiz-adv-x="1005" 
d="M469 1182l-188 231h163l144 -231h-119zM764 584v159q0 73 -43.5 126t-108.5 77.5t-141 24.5q-82 0 -155 -28t-113 -79l-78 74q63 69 159 106t199 37q105 0 193 -37t145.5 -115.5t57.5 -185.5v-696q-207 -70 -435 -67q-164 2 -267 85t-103 242q1 70 24 126.5t61.5 94
t91 63.5t110 37t120.5 11q151 0 283 -55zM764 113v376q-135 52 -279 52q-62 0 -112.5 -12t-93 -38t-66.5 -73t-25 -111q0 -115 71 -169t192 -56q175 -3 313 31z" />
    <glyph glyph-name="aacute" unicode="&#xe1;" horiz-adv-x="1005" 
d="M715 1413l-187 -231h-118l141 231h164zM764 584v159q0 73 -43.5 126t-108.5 77.5t-141 24.5q-82 0 -155 -28t-113 -79l-78 74q63 69 159 106t199 37q105 0 193 -37t145.5 -115.5t57.5 -185.5v-696q-207 -70 -435 -67q-164 2 -267 85t-103 242q1 70 24 126.5t61.5 94
t91 63.5t110 37t120.5 11q151 0 283 -55zM764 113v376q-135 52 -279 52q-62 0 -112.5 -12t-93 -38t-66.5 -73t-25 -111q0 -115 71 -169t192 -56q175 -3 313 31z" />
    <glyph glyph-name="acircumflex" unicode="&#xe2;" horiz-adv-x="1005" 
d="M571 1413l211 -231h-129l-153 159l-152 -159h-131l219 231h135zM764 584v159q0 73 -43.5 126t-108.5 77.5t-141 24.5q-82 0 -155 -28t-113 -79l-78 74q63 69 159 106t199 37q105 0 193 -37t145.5 -115.5t57.5 -185.5v-696q-207 -70 -435 -67q-164 2 -267 85t-103 242
q1 70 24 126.5t61.5 94t91 63.5t110 37t120.5 11q151 0 283 -55zM764 113v376q-135 52 -279 52q-62 0 -112.5 -12t-93 -38t-66.5 -73t-25 -111q0 -115 71 -169t192 -56q175 -3 313 31z" />
    <glyph glyph-name="atilde" unicode="&#xe3;" horiz-adv-x="1005" 
d="M313 1231l-82 29q12 72 56.5 112.5t111.5 40.5q36 0 76.5 -24.5t77.5 -49t65 -24.5q60 0 78 76l80 -31q-19 -70 -60.5 -110t-97.5 -40q-32 0 -64.5 15.5t-55 34t-52 34t-55.5 15.5q-53 0 -78 -78zM764 584v159q0 73 -43.5 126t-108.5 77.5t-141 24.5q-82 0 -155 -28
t-113 -79l-78 74q63 69 159 106t199 37q105 0 193 -37t145.5 -115.5t57.5 -185.5v-696q-207 -70 -435 -67q-164 2 -267 85t-103 242q1 70 24 126.5t61.5 94t91 63.5t110 37t120.5 11q151 0 283 -55zM764 113v376q-135 52 -279 52q-62 0 -112.5 -12t-93 -38t-66.5 -73
t-25 -111q0 -115 71 -169t192 -56q175 -3 313 31z" />
    <glyph glyph-name="adieresis" unicode="&#xe4;" horiz-adv-x="1005" 
d="M236 1298q0 35 24 59.5t59 24.5t59.5 -24.5t24.5 -59.5t-24.5 -59.5t-59.5 -24.5t-59 24.5t-24 59.5zM604 1298q0 35 24.5 59.5t59.5 24.5t59.5 -24.5t24.5 -59.5t-24.5 -59.5t-59.5 -24.5t-59.5 24.5t-24.5 59.5zM764 584v159q0 73 -43.5 126t-108.5 77.5t-141 24.5
q-82 0 -155 -28t-113 -79l-78 74q63 69 159 106t199 37q105 0 193 -37t145.5 -115.5t57.5 -185.5v-696q-207 -70 -435 -67q-164 2 -267 85t-103 242q1 70 24 126.5t61.5 94t91 63.5t110 37t120.5 11q151 0 283 -55zM764 113v376q-135 52 -279 52q-62 0 -112.5 -12t-93 -38
t-66.5 -73t-25 -111q0 -115 71 -169t192 -56q175 -3 313 31z" />
    <glyph glyph-name="aring" unicode="&#xe5;" horiz-adv-x="1005" 
d="M313 1337q0 76 56.5 129.5t134.5 53.5t134 -53.5t56 -129.5t-55.5 -127t-134.5 -51t-135 51t-56 127zM612 1337q0 47 -31.5 79t-76.5 32q-47 0 -80 -32t-33 -79t32.5 -76.5t80.5 -29.5q45 0 76.5 30t31.5 76zM764 584v159q0 73 -43.5 126t-108.5 77.5t-141 24.5
q-82 0 -155 -28t-113 -79l-78 74q63 69 159 106t199 37q105 0 193 -37t145.5 -115.5t57.5 -185.5v-696q-207 -70 -435 -67q-164 2 -267 85t-103 242q1 70 24 126.5t61.5 94t91 63.5t110 37t120.5 11q151 0 283 -55zM764 113v376q-135 52 -279 52q-62 0 -112.5 -12t-93 -38
t-66.5 -73t-25 -111q0 -115 71 -169t192 -56q175 -3 313 31z" />
    <glyph glyph-name="ae" unicode="&#xe6;" horiz-adv-x="1658" 
d="M764 616v132q0 107 -86 165t-205 58q-82 0 -155 -29t-113 -80l-78 74q63 70 157.5 106.5t198.5 36.5q107 0 198.5 -38.5t143.5 -112.5q54 73 145.5 113t194.5 40q77 0 148 -22t128 -63t91.5 -108t34.5 -151v-266h-688v-154q0 -73 42.5 -126t105.5 -77t138 -24
q91 0 166.5 37t104.5 106l102 -51q-45 -98 -148 -150t-225 -52q-95 0 -179.5 30.5t-139.5 91.5q-67 -59 -165 -90.5t-202 -31.5q-80 0 -150.5 20.5t-128 61.5t-91 109.5t-33.5 156.5q0 73 23.5 132t63 98t94 66t115 38.5t126.5 11.5q141 0 266 -58zM1452 569v176
q0 106 -85.5 166t-201.5 60q-115 0 -200.5 -58.5t-85.5 -164.5v-179h573zM764 322v198q-127 51 -272 51q-49 0 -91.5 -7t-81.5 -25t-67 -45t-44.5 -69.5t-17.5 -96.5q1 -81 43 -136.5t105 -78.5t143 -23q85 0 168 26t142 70q-27 66 -27 136z" />
    <glyph glyph-name="ccedilla" unicode="&#xe7;" horiz-adv-x="944" 
d="M786 254l105 -47q-38 -104 -136.5 -162.5t-222.5 -64.5l-61 -119l2 -4q99 12 154.5 -33t52.5 -133q-3 -92 -72.5 -141.5t-156.5 -49.5q-94 0 -181 41l27 76q69 -35 149 -35q55 0 95 28.5t43 80.5q2 43 -19.5 68.5t-54.5 30t-64.5 0.5t-54.5 -15l-29 28l95 179
q-69 7 -131 32t-112 66.5t-79 104.5t-29 139v413q0 83 34.5 150.5t92 108.5t128.5 63t147 22q115 0 213 -46.5t149 -135.5l-96 -57q-34 63 -106 96t-160 33q-75 0 -138 -22.5t-106 -75.5t-43 -128v-430q0 -56 24.5 -100.5t65.5 -71t91.5 -40t105.5 -13.5q99 0 177 42
t101 122z" />
    <glyph glyph-name="egrave" unicode="&#xe8;" 
d="M475 1180l-188 231h164l143 -231h-119zM223 465v-146q0 -111 84 -170t203 -59q90 0 164.5 36t105.5 105l103 -47q-30 -66 -90 -113t-132 -69t-151 -22q-77 0 -148 22t-129 63t-92.5 108.5t-34.5 150.5v413q0 83 34.5 150.5t92.5 108.5t129 63t148 22q76 0 146.5 -22
t128 -63t92 -108.5t34.5 -150.5v-272h-688zM797 565v180q0 73 -42.5 126t-106 76.5t-138.5 23.5q-119 0 -203.5 -58.5t-83.5 -167.5v-180h574z" />
    <glyph glyph-name="eacute" unicode="&#xe9;" 
d="M721 1411l-186 -231h-119l141 231h164zM223 465v-146q0 -111 84 -170t203 -59q90 0 164.5 36t105.5 105l103 -47q-30 -66 -90 -113t-132 -69t-151 -22q-77 0 -148 22t-129 63t-92.5 108.5t-34.5 150.5v413q0 83 34.5 150.5t92.5 108.5t129 63t148 22q76 0 146.5 -22
t128 -63t92 -108.5t34.5 -150.5v-272h-688zM797 565v180q0 73 -42.5 126t-106 76.5t-138.5 23.5q-119 0 -203.5 -58.5t-83.5 -167.5v-180h574z" />
    <glyph glyph-name="ecircumflex" unicode="&#xea;" 
d="M578 1411l210 -231h-129l-153 159l-144 -159h-131l211 231h136zM223 465v-146q0 -111 84 -170t203 -59q90 0 164.5 36t105.5 105l103 -47q-30 -66 -90 -113t-132 -69t-151 -22q-77 0 -148 22t-129 63t-92.5 108.5t-34.5 150.5v413q0 83 34.5 150.5t92.5 108.5t129 63
t148 22q76 0 146.5 -22t128 -63t92 -108.5t34.5 -150.5v-272h-688zM797 565v180q0 73 -42.5 126t-106 76.5t-138.5 23.5q-119 0 -203.5 -58.5t-83.5 -167.5v-180h574z" />
    <glyph glyph-name="edieresis" unicode="&#xeb;" 
d="M242 1296q0 35 24.5 59.5t59.5 24.5t59.5 -24.5t24.5 -59.5t-24.5 -59.5t-59.5 -24.5t-59.5 24.5t-24.5 59.5zM610 1296q0 35 24.5 59.5t59.5 24.5t59.5 -24.5t24.5 -59.5t-24.5 -59.5t-59.5 -24.5t-59.5 24.5t-24.5 59.5zM223 465v-146q0 -111 84 -170t203 -59
q90 0 164.5 36t105.5 105l103 -47q-30 -66 -90 -113t-132 -69t-151 -22q-77 0 -148 22t-129 63t-92.5 108.5t-34.5 150.5v413q0 83 34.5 150.5t92.5 108.5t129 63t148 22q76 0 146.5 -22t128 -63t92 -108.5t34.5 -150.5v-272h-688zM797 565v180q0 73 -42.5 126t-106 76.5
t-138.5 23.5q-119 0 -203.5 -58.5t-83.5 -167.5v-180h574z" />
    <glyph glyph-name="igrave" unicode="&#xec;" horiz-adv-x="401" 
d="M166 1180l-189 231h164l144 -231h-119zM262 1061v-1061h-123v1061h123z" />
    <glyph glyph-name="iacute" unicode="&#xed;" horiz-adv-x="401" 
d="M412 1411l-187 -231h-119l142 231h164zM262 1061v-1061h-123v1061h123z" />
    <glyph glyph-name="icircumflex" unicode="&#xee;" horiz-adv-x="401" 
d="M268 1425l150 -231h-129l-84 160l-90 -160h-131l149 231h135zM262 1061v-1061h-123v1061h123z" />
    <glyph glyph-name="idieresis" unicode="&#xef;" horiz-adv-x="401" 
d="M-6 1313q0 35 24.5 59.5t59.5 24.5t59.5 -24.5t24.5 -59.5t-24.5 -59.5t-59.5 -24.5t-59.5 24.5t-24.5 59.5zM240 1313q0 35 24.5 59.5t59.5 24.5t59.5 -24.5t24.5 -59.5t-24.5 -59.5t-59.5 -24.5t-59.5 24.5t-24.5 59.5zM262 1061v-1061h-123v1061h123z" />
    <glyph glyph-name="eth" unicode="&#xf0;" horiz-adv-x="1034" 
d="M231 1255l-77 72q67 75 177 110.5t226 26.5l45 138l90 -31l-39 -125q110 -33 178 -113t68 -203v-1060q-80 -26 -113 -35q-164 -47 -292 -47q-75 1 -143.5 23t-124.5 63t-89 107t-33 147v311q0 106 58.5 185.5t147.5 117.5t192 37q156 0 284 -64v215q0 79 -46 131.5
t-122 77.5l-51 -163l-92 32l49 150q-89 6 -170 -21.5t-123 -81.5zM786 162v645q-136 59 -288 59q-73 -1 -135 -24.5t-104 -76t-42 -124.5v-2v-311v-2q0 -73 41 -125.5t103 -76.5t135 -24q145 0 290 62z" />
    <glyph glyph-name="ntilde" unicode="&#xf1;" horiz-adv-x="1069" 
d="M352 1229l-82 28q12 72 56.5 113t111.5 41q36 0 76.5 -24.5t77.5 -49t65 -24.5q60 0 78 76l80 -31q-19 -70 -60.5 -110t-97.5 -40q-31 0 -64 15.5t-55.5 34t-52 34t-55.5 15.5q-53 0 -78 -78zM135 0v997q245 84 408 84q76 -2 145 -24t125 -63t89.5 -107t33.5 -148v-739
h-115v743q0 74 -42 127.5t-103.5 77t-132.5 23.5q-148 0 -293 -62v-909h-115z" />
    <glyph glyph-name="ograve" unicode="&#xf2;" horiz-adv-x="1017" 
d="M475 1180l-188 231h164l143 -231h-119zM106 326v409q0 83 34.5 150.5t92.5 109t129 63.5t148 23q77 -1 147.5 -23t128 -63.5t91.5 -108.5t34 -151v-409q0 -84 -34 -151t-91.5 -108.5t-128 -63.5t-147.5 -23q-77 1 -148 23t-129 63.5t-92.5 109t-34.5 150.5zM510 971
q-74 0 -137 -22.5t-107.5 -76.5t-44.5 -131v-419q0 -77 44.5 -131.5t107.5 -77.5t137 -23q53 0 103 14t91.5 41t67 73t25.5 104v419q0 77 -44.5 131t-107 76.5t-135.5 22.5z" />
    <glyph glyph-name="oacute" unicode="&#xf3;" horiz-adv-x="1017" 
d="M721 1411l-186 -231h-119l141 231h164zM106 326v409q0 83 34.5 150.5t92.5 109t129 63.5t148 23q77 -1 147.5 -23t128 -63.5t91.5 -108.5t34 -151v-409q0 -84 -34 -151t-91.5 -108.5t-128 -63.5t-147.5 -23q-77 1 -148 23t-129 63.5t-92.5 109t-34.5 150.5zM510 971
q-74 0 -137 -22.5t-107.5 -76.5t-44.5 -131v-419q0 -77 44.5 -131.5t107.5 -77.5t137 -23q53 0 103 14t91.5 41t67 73t25.5 104v419q0 77 -44.5 131t-107 76.5t-135.5 22.5z" />
    <glyph glyph-name="ocircumflex" unicode="&#xf4;" horiz-adv-x="1017" 
d="M578 1411l210 -231h-129l-153 159l-144 -159h-131l211 231h136zM106 326v409q0 83 34.5 150.5t92.5 109t129 63.5t148 23q77 -1 147.5 -23t128 -63.5t91.5 -108.5t34 -151v-409q0 -84 -34 -151t-91.5 -108.5t-128 -63.5t-147.5 -23q-77 1 -148 23t-129 63.5t-92.5 109
t-34.5 150.5zM510 971q-74 0 -137 -22.5t-107.5 -76.5t-44.5 -131v-419q0 -77 44.5 -131.5t107.5 -77.5t137 -23q53 0 103 14t91.5 41t67 73t25.5 104v419q0 77 -44.5 131t-107 76.5t-135.5 22.5z" />
    <glyph glyph-name="otilde" unicode="&#xf5;" horiz-adv-x="1017" 
d="M319 1229l-81 28q12 72 56.5 113t111.5 41q36 0 76.5 -24.5t77.5 -49t65 -24.5q32 0 50 18.5t27 57.5l80 -31q-19 -70 -60 -110t-97 -40q-40 0 -80.5 25t-78 49.5t-69.5 24.5q-53 0 -78 -78zM106 326v409q0 83 34.5 150.5t92.5 109t129 63.5t148 23q77 -1 147.5 -23
t128 -63.5t91.5 -108.5t34 -151v-409q0 -84 -34 -151t-91.5 -108.5t-128 -63.5t-147.5 -23q-77 1 -148 23t-129 63.5t-92.5 109t-34.5 150.5zM510 971q-74 0 -137 -22.5t-107.5 -76.5t-44.5 -131v-419q0 -77 44.5 -131.5t107.5 -77.5t137 -23q53 0 103 14t91.5 41t67 73
t25.5 104v419q0 77 -44.5 131t-107 76.5t-135.5 22.5z" />
    <glyph glyph-name="odieresis" unicode="&#xf6;" horiz-adv-x="1017" 
d="M242 1296q0 35 24.5 59.5t59.5 24.5t59.5 -24.5t24.5 -59.5t-24.5 -59.5t-59.5 -24.5t-59.5 24.5t-24.5 59.5zM610 1296q0 35 24.5 59.5t59.5 24.5t59.5 -24.5t24.5 -59.5t-24.5 -59.5t-59.5 -24.5t-59.5 24.5t-24.5 59.5zM106 326v409q0 83 34.5 150.5t92.5 109
t129 63.5t148 23q77 -1 147.5 -23t128 -63.5t91.5 -108.5t34 -151v-409q0 -84 -34 -151t-91.5 -108.5t-128 -63.5t-147.5 -23q-77 1 -148 23t-129 63.5t-92.5 109t-34.5 150.5zM510 971q-74 0 -137 -22.5t-107.5 -76.5t-44.5 -131v-419q0 -77 44.5 -131.5t107.5 -77.5
t137 -23q53 0 103 14t91.5 41t67 73t25.5 104v419q0 77 -44.5 131t-107 76.5t-135.5 22.5z" />
    <glyph glyph-name="divide" unicode="&#xf7;" horiz-adv-x="1118" 
d="M467 981q0 43 30.5 73.5t73.5 30.5t74 -30.5t31 -73.5t-31 -73.5t-74 -30.5t-73.5 30.5t-30.5 73.5zM1006 739v-123h-889v123h889zM467 350q0 44 30.5 73.5t73.5 31.5q43 0 74 -31t31 -74t-31 -73.5t-74 -30.5t-73.5 30.5t-30.5 73.5z" />
    <glyph glyph-name="oslash" unicode="&#xf8;" horiz-adv-x="1017" 
d="M819 1165l-63 -151q155 -93 155 -279v-409q0 -84 -34 -151t-91.5 -108.5t-128 -63.5t-147.5 -23q-92 0 -174 30l-68 -164l-71 29l71 168q-162 96 -162 283v409q0 83 34.5 150.5t92.5 109t129 63.5t148 23q89 0 180 -32l60 141zM221 741v-419q0 -112 90 -175l336 799
q-67 25 -137 25q-74 0 -137 -22.5t-107.5 -76.5t-44.5 -131zM797 322v419q0 107 -84 170l-334 -798q59 -23 131 -23q53 0 103 14t91.5 41t67 73t25.5 104z" />
    <glyph glyph-name="ugrave" unicode="&#xf9;" horiz-adv-x="1067" 
d="M498 1159l-189 232h164l143 -232h-118zM932 61l-115 -34q-164 -47 -293 -47q-102 0 -189.5 37t-145.5 116.5t-58 188.5v741h115v-748q0 -105 82.5 -165t195.5 -60q144 0 293 64v909h115v-1002z" />
    <glyph glyph-name="uacute" unicode="&#xfa;" horiz-adv-x="1067" 
d="M743 1391l-186 -232h-119l142 232h163zM932 61l-115 -34q-164 -47 -293 -47q-102 0 -189.5 37t-145.5 116.5t-58 188.5v741h115v-748q0 -105 82.5 -165t195.5 -60q144 0 293 64v909h115v-1002z" />
    <glyph glyph-name="ucircumflex" unicode="&#xfb;" horiz-adv-x="1067" 
d="M600 1391l211 -232h-129l-154 160l-143 -160h-131l211 232h135zM932 61l-115 -34q-164 -47 -293 -47q-102 0 -189.5 37t-145.5 116.5t-58 188.5v741h115v-748q0 -105 82.5 -165t195.5 -60q144 0 293 64v909h115v-1002z" />
    <glyph glyph-name="udieresis" unicode="&#xfc;" horiz-adv-x="1067" 
d="M264 1276q0 35 24.5 59.5t59.5 24.5t59.5 -24.5t24.5 -59.5t-24.5 -59.5t-59.5 -24.5t-59.5 24.5t-24.5 59.5zM633 1276q0 35 24.5 59.5t59.5 24.5t59.5 -24.5t24.5 -59.5t-24.5 -59.5t-59.5 -24.5t-59.5 24.5t-24.5 59.5zM932 61l-115 -34q-164 -47 -293 -47
q-102 0 -189.5 37t-145.5 116.5t-58 188.5v741h115v-748q0 -105 82.5 -165t195.5 -60q144 0 293 64v909h115v-1002z" />
    <glyph glyph-name="yacute" unicode="&#xfd;" horiz-adv-x="1095" 
d="M756 1391l-187 -232h-118l141 232h164zM182 -279l80 74q100 -106 279 -106q126 0 212.5 67.5t86.5 190.5v102q-61 -39 -132.5 -53t-162.5 -16q-79 -1 -153 22.5t-132.5 67.5t-93.5 112.5t-35 151.5v727h119v-731q0 -111 88 -176.5t205 -67.5q150 0 297 64v911h116v-1114
q0 -90 -33.5 -162t-91 -116t-130.5 -67.5t-156 -23.5q-105 0 -203 37.5t-160 105.5z" />
    <glyph glyph-name="thorn" unicode="&#xfe;" horiz-adv-x="1052" 
d="M139 1448h115v-404q142 37 295 37q61 -1 118 -14.5t108 -41t89 -67.5t60 -96t22 -123v-413q0 -107 -59 -188t-149.5 -120t-194.5 -38q-153 3 -289 65v-436h-115v1839zM254 936v-786q142 -60 293 -60q116 0 199 59.5t83 165.5v433q0 106 -82 164.5t-198 58.5
q-193 0 -295 -35z" />
    <glyph glyph-name="ydieresis" unicode="&#xff;" horiz-adv-x="1095" 
d="M276 1276q0 35 24.5 59.5t59.5 24.5t59.5 -24.5t24.5 -59.5t-24.5 -59.5t-59.5 -24.5t-59.5 24.5t-24.5 59.5zM645 1276q0 35 24.5 59.5t59.5 24.5t59.5 -24.5t24.5 -59.5t-24.5 -59.5t-59.5 -24.5t-59.5 24.5t-24.5 59.5zM182 -279l80 74q100 -106 279 -106
q126 0 212.5 67.5t86.5 190.5v102q-61 -39 -132.5 -53t-162.5 -16q-79 -1 -153 22.5t-132.5 67.5t-93.5 112.5t-35 151.5v727h119v-731q0 -111 88 -176.5t205 -67.5q150 0 297 64v911h116v-1114q0 -90 -33.5 -162t-91 -116t-130.5 -67.5t-156 -23.5q-105 0 -203 37.5
t-160 105.5z" />
    <glyph glyph-name="Amacron" unicode="&#x100;" horiz-adv-x="1247" 
d="M711 1450l524 -1450h-127l-174 483h-623l-170 -483h-127l521 1450h176zM623 1360l-269 -756h537zM367 1567v98h512v-98h-512z" />
    <glyph glyph-name="amacron" unicode="&#x101;" horiz-adv-x="1005" 
d="M242 1270v98h512v-98h-512zM764 584v159q0 73 -43.5 126t-108.5 77.5t-141 24.5q-82 0 -155 -28t-113 -79l-78 74q63 69 159 106t199 37q105 0 193 -37t145.5 -115.5t57.5 -185.5v-696q-207 -70 -435 -67q-164 2 -267 85t-103 242q1 70 24 126.5t61.5 94t91 63.5t110 37
t120.5 11q151 0 283 -55zM764 113v376q-135 52 -279 52q-62 0 -112.5 -12t-93 -38t-66.5 -73t-25 -111q0 -115 71 -169t192 -56q175 -3 313 31z" />
    <glyph glyph-name="Abreve" unicode="&#x102;" horiz-adv-x="1247" 
d="M774 1780h96q0 -108 -67.5 -174t-179.5 -66t-180 66t-68 174h96q0 -63 42.5 -102.5t109.5 -39.5t109 39.5t42 102.5zM711 1450l524 -1450h-127l-174 483h-623l-170 -483h-127l521 1450h176zM623 1360l-269 -756h537z" />
    <glyph glyph-name="abreve" unicode="&#x103;" horiz-adv-x="1005" 
d="M655 1413h97q0 -108 -68 -173.5t-180 -65.5t-180 65.5t-68 173.5h96q0 -63 42 -102t110 -39q67 0 109 39t42 102zM764 584v159q0 73 -43.5 126t-108.5 77.5t-141 24.5q-82 0 -155 -28t-113 -79l-78 74q63 69 159 106t199 37q105 0 193 -37t145.5 -115.5t57.5 -185.5v-696
q-207 -70 -435 -67q-164 2 -267 85t-103 242q1 70 24 126.5t61.5 94t91 63.5t110 37t120.5 11q151 0 283 -55zM764 113v376q-135 52 -279 52q-62 0 -112.5 -12t-93 -38t-66.5 -73t-25 -111q0 -115 71 -169t192 -56q175 -3 313 31z" />
    <glyph glyph-name="Aogonek" unicode="&#x104;" horiz-adv-x="1245" 
d="M1290 -340l33 -92q-75 -68 -174 -68q-76 0 -122 49.5t-46 128.5q0 67 48 158.5t118 163.5h-41l-174 483h-623l-170 -483h-127l520 1450h177l524 -1450q-76 -86 -113.5 -170t-32.5 -135q4 -46 35.5 -69.5t78 -15t89.5 49.5zM621 1360l-269 -756h537z" />
    <glyph glyph-name="aogonek" unicode="&#x105;" horiz-adv-x="1009" 
d="M764 584v159q0 73 -43.5 126t-108.5 77.5t-141 24.5q-82 0 -155 -28t-113 -79l-78 74q63 69 159 106t199 37q105 0 193 -37t145.5 -115.5t57.5 -185.5v-696q-195 -228 -183 -352q4 -46 35.5 -69.5t78 -15t89.5 49.5l33 -92q-75 -68 -174 -68q-76 0 -122 49.5t-46 128.5
q0 69 51.5 165.5t124.5 168.5l-2 2q-141 -34 -320 -34q-164 2 -267 85t-103 242q1 70 24 126.5t61.5 94t91 63.5t110 37t120.5 11q151 0 283 -55zM764 113v376q-135 52 -279 52q-62 0 -112.5 -12t-93 -38t-66.5 -73t-25 -111q0 -115 71 -169t192 -56q175 -3 313 31z" />
    <glyph glyph-name="Cacute" unicode="&#x106;" horiz-adv-x="1214" 
d="M877 1780l-187 -232h-119l142 232h164zM121 420v610q0 85 30.5 157.5t83.5 123.5t122.5 87.5t148 54t160.5 17.5q105 0 200 -27.5t173.5 -87.5t119.5 -145l-108 -53v-2q-48 93 -156 144t-236 51q-108 0 -201 -34.5t-154.5 -109t-61.5 -176.5v-610q0 -102 61.5 -176.5
t154.5 -109t201 -34.5q128 0 236 51t156 144l108 -53q-61 -126 -199 -194t-301 -68q-103 0 -198 28t-171.5 81.5t-122.5 139t-46 191.5z" />
    <glyph glyph-name="cacute" unicode="&#x107;" horiz-adv-x="944" 
d="M719 1411l-187 -231h-118l141 231h164zM870 899l-96 -57q-34 63 -106 96t-160 33q-75 0 -138 -22.5t-106 -75.5t-43 -128v-430q0 -56 24.5 -100.5t65.5 -71t91.5 -40t105.5 -13.5q99 0 177 42t101 122l105 -47q-39 -110 -145.5 -168.5t-237.5 -58.5q-76 0 -147 22
t-128.5 63t-92 108.5t-34.5 150.5v413q0 83 34.5 150.5t92 108.5t128.5 63t147 22q115 0 213 -46.5t149 -135.5z" />
    <glyph glyph-name="Cdotaccent" unicode="&#x10a;" horiz-adv-x="1214" 
d="M573 1665q0 40 26.5 66t66.5 26t66 -26t26 -66t-26 -66t-66 -26t-66.5 26t-26.5 66zM121 420v610q0 85 30.5 157.5t83.5 123.5t122.5 87.5t148 54t160.5 17.5q105 0 200 -27.5t173.5 -87.5t119.5 -145l-108 -53v-2q-48 93 -156 144t-236 51q-108 0 -201 -34.5
t-154.5 -109t-61.5 -176.5v-610q0 -102 61.5 -176.5t154.5 -109t201 -34.5q128 0 236 51t156 144l108 -53q-61 -126 -199 -194t-301 -68q-103 0 -198 28t-171.5 81.5t-122.5 139t-46 191.5z" />
    <glyph glyph-name="cdotaccent" unicode="&#x10b;" horiz-adv-x="944" 
d="M416 1296q0 40 26 66.5t66 26.5t66 -26.5t26 -66.5t-26 -66t-66 -26t-66 26t-26 66zM870 899l-96 -57q-34 63 -106 96t-160 33q-75 0 -138 -22.5t-106 -75.5t-43 -128v-430q0 -56 24.5 -100.5t65.5 -71t91.5 -40t105.5 -13.5q99 0 177 42t101 122l105 -47
q-39 -110 -145.5 -168.5t-237.5 -58.5q-76 0 -147 22t-128.5 63t-92 108.5t-34.5 150.5v413q0 83 34.5 150.5t92 108.5t128.5 63t147 22q115 0 213 -46.5t149 -135.5z" />
    <glyph glyph-name="Ccaron" unicode="&#x10c;" horiz-adv-x="1214" 
d="M580 1548l-222 232h136l161 -156l152 156h137l-221 -232h-143zM121 420v610q0 85 30.5 157.5t83.5 123.5t122.5 87.5t148 54t160.5 17.5q105 0 200 -27.5t173.5 -87.5t119.5 -145l-108 -53v-2q-48 93 -156 144t-236 51q-108 0 -201 -34.5t-154.5 -109t-61.5 -176.5v-610
q0 -102 61.5 -176.5t154.5 -109t201 -34.5q128 0 236 51t156 144l108 -53q-61 -126 -199 -194t-301 -68q-103 0 -198 28t-171.5 81.5t-122.5 139t-46 191.5z" />
    <glyph glyph-name="ccaron" unicode="&#x10d;" horiz-adv-x="944" 
d="M422 1180l-221 231h135l162 -156l151 156h137l-221 -231h-143zM870 899l-96 -57q-34 63 -106 96t-160 33q-75 0 -138 -22.5t-106 -75.5t-43 -128v-430q0 -56 24.5 -100.5t65.5 -71t91.5 -40t105.5 -13.5q99 0 177 42t101 122l105 -47q-39 -110 -145.5 -168.5
t-237.5 -58.5q-76 0 -147 22t-128.5 63t-92 108.5t-34.5 150.5v413q0 83 34.5 150.5t92 108.5t128.5 63t147 22q115 0 213 -46.5t149 -135.5z" />
    <glyph glyph-name="Dcaron" unicode="&#x10e;" horiz-adv-x="1310" 
d="M565 1548l-221 232h135l162 -156l152 156h137l-221 -232h-144zM162 0v1450h483q106 0 200.5 -25t172.5 -74.5t124 -133t46 -191.5v-604q0 -86 -30.5 -157.5t-82 -119.5t-122 -81.5t-147.5 -48.5t-161 -15h-483zM283 121h362q65 0 125 10.5t114.5 34t94.5 57.5t64 85.5
t24 113.5v604q0 78 -35.5 138t-96.5 95t-134.5 52.5t-155.5 17.5h-362v-1208z" />
    <glyph glyph-name="dcaron" unicode="&#x10f;" horiz-adv-x="1073" 
d="M913 1454v-1403q-207 -71 -409 -71q-77 2 -146.5 24t-126.5 63t-91 107.5t-34 149.5v411q0 107 59.5 187.5t150 119t194.5 37.5q151 0 289 -63v438h114zM1149 1450l-74 -313h-80l52 313h102zM799 131v774q-138 60 -291 60q-118 -2 -202 -61t-83 -167v-418
q0 -73 41.5 -126t104 -77t135.5 -24q184 0 295 39z" />
    <glyph glyph-name="Dcroat" unicode="&#x110;" horiz-adv-x="1318" 
d="M170 770v680h483q106 0 200.5 -25t172.5 -74.5t124 -133t46 -191.5v-604q0 -86 -30.5 -157.5t-82 -119.5t-122 -81.5t-147.5 -48.5t-161 -15h-483v668h-129v102h129zM291 121h362q65 0 125 10.5t114.5 34t94.5 57.5t64 85.5t24 113.5v604q0 78 -35.5 138t-96.5 95
t-134.5 52.5t-155.5 17.5h-362v-559h256v-102h-256v-547z" />
    <glyph glyph-name="dcroat" unicode="&#x111;" horiz-adv-x="1048" 
d="M1038 1231h-125v-1180q-207 -71 -409 -71q-77 2 -146.5 24t-126.5 63t-91 107.5t-34 149.5v411q0 107 59.5 187.5t150 119t194.5 37.5q151 0 289 -63v215h-240v88h240v135h114v-135h125v-88zM799 131v774q-138 60 -291 60q-118 -2 -202 -61t-83 -167v-418
q0 -73 41.5 -126t104 -77t135.5 -24q184 0 295 39z" />
    <glyph glyph-name="Emacron" unicode="&#x112;" horiz-adv-x="1165" 
d="M381 1636v99h512v-99h-512zM283 1329v-543h727v-122h-727v-543h788v-121h-909v1450h909v-121h-788z" />
    <glyph glyph-name="emacron" unicode="&#x113;" 
d="M248 1268v98h512v-98h-512zM223 465v-146q0 -111 84 -170t203 -59q90 0 164.5 36t105.5 105l103 -47q-30 -66 -90 -113t-132 -69t-151 -22q-77 0 -148 22t-129 63t-92.5 108.5t-34.5 150.5v413q0 83 34.5 150.5t92.5 108.5t129 63t148 22q76 0 146.5 -22t128 -63
t92 -108.5t34.5 -150.5v-272h-688zM797 565v180q0 73 -42.5 126t-106 76.5t-138.5 23.5q-119 0 -203.5 -58.5t-83.5 -167.5v-180h574z" />
    <glyph glyph-name="Edotaccent" unicode="&#x116;" horiz-adv-x="1165" 
d="M551 1665q0 40 26 66t66 26t66 -26t26 -66t-26 -66t-66 -26t-66 26t-26 66zM283 1329v-543h727v-122h-727v-543h788v-121h-909v1450h909v-121h-788z" />
    <glyph glyph-name="edotaccent" unicode="&#x117;" 
d="M418 1296q0 40 26 66.5t66 26.5t66 -26.5t26 -66.5t-26 -66t-66 -26t-66 26t-26 66zM223 465v-146q0 -111 84 -170t203 -59q90 0 164.5 36t105.5 105l103 -47q-30 -66 -90 -113t-132 -69t-151 -22q-77 0 -148 22t-129 63t-92.5 108.5t-34.5 150.5v413q0 83 34.5 150.5
t92.5 108.5t129 63t148 22q76 0 146.5 -22t128 -63t92 -108.5t34.5 -150.5v-272h-688zM797 565v180q0 73 -42.5 126t-106 76.5t-138.5 23.5q-119 0 -203.5 -58.5t-83.5 -167.5v-180h574z" />
    <glyph glyph-name="Eogonek" unicode="&#x118;" horiz-adv-x="1163" 
d="M1126 -340l33 -92q-75 -68 -174 -68q-76 0 -122 49.5t-46 128.5q0 67 48 158.5t118 163.5h-823v1450h909v-121h-788v-543h727v-122h-727v-543h788v-121q-76 -86 -113 -170t-32 -135q4 -46 35.5 -69.5t77.5 -15t89 49.5z" />
    <glyph glyph-name="eogonek" unicode="&#x119;" 
d="M223 465v-146q0 -111 84 -170t203 -59q90 0 164.5 36t105.5 105l103 -47q-20 -45 -53.5 -80.5t-124.5 -109.5q-57 -46 -93.5 -108t-47 -109t-7.5 -82q4 -46 35.5 -69.5t78 -15t89.5 49.5l33 -92q-75 -68 -175 -68q-76 0 -121.5 49.5t-45.5 128.5q0 147 155 310
q-44 -8 -96 -8q-77 0 -148 22t-129 63t-92.5 108.5t-34.5 150.5v413q0 83 34.5 150.5t92.5 108.5t129 63t148 22q76 0 146.5 -22t128 -63t92 -108.5t34.5 -150.5v-272h-688zM510 971q-119 0 -203.5 -58.5t-83.5 -167.5v-180h574v180q0 73 -42.5 126t-106 76.5t-138.5 23.5z
" />
    <glyph glyph-name="Ecaron" unicode="&#x11a;" horiz-adv-x="1165" 
d="M557 1548l-221 232h135l162 -156l151 156h138l-222 -232h-143zM283 1329v-543h727v-122h-727v-543h788v-121h-909v1450h909v-121h-788z" />
    <glyph glyph-name="ecaron" unicode="&#x11b;" 
d="M424 1180l-221 231h135l162 -156l151 156h137l-221 -231h-143zM223 465v-146q0 -111 84 -170t203 -59q90 0 164.5 36t105.5 105l103 -47q-30 -66 -90 -113t-132 -69t-151 -22q-77 0 -148 22t-129 63t-92.5 108.5t-34.5 150.5v413q0 83 34.5 150.5t92.5 108.5t129 63
t148 22q76 0 146.5 -22t128 -63t92 -108.5t34.5 -150.5v-272h-688zM797 565v180q0 73 -42.5 126t-106 76.5t-138.5 23.5q-119 0 -203.5 -58.5t-83.5 -167.5v-180h574z" />
    <glyph glyph-name="Gbreve" unicode="&#x11e;" horiz-adv-x="1298" 
d="M815 1780h96q0 -108 -67.5 -174t-179.5 -66t-180 66t-68 174h96q0 -63 42.5 -102.5t109.5 -39.5t109 39.5t42 102.5zM121 426v604q0 85 30.5 157.5t83 123.5t122 87.5t147.5 54t160 17.5q162 0 297 -67.5t196 -194.5l-108 -53q-45 93 -153.5 144t-236.5 51
q-108 0 -201 -34.5t-154.5 -109t-61.5 -176.5v-606q0 -103 62.5 -178.5t157 -110.5t204.5 -35q109 0 203 35t156 110.5t62 178.5v182h-444v121h565v-301q0 -107 -46.5 -194t-123.5 -141t-173 -82.5t-199 -28.5q-104 0 -200 28.5t-174 82.5t-124.5 141t-46.5 194z" />
    <glyph glyph-name="gbreve" unicode="&#x11f;" horiz-adv-x="1038" 
d="M690 1411h96q0 -108 -67.5 -174t-179.5 -66t-180 66t-68 174h96q0 -63 42 -102t110 -39q67 0 109 39t42 102zM156 -287l71 68q44 -48 118.5 -73t156.5 -25q125 0 207 63t82 182v115q-126 -63 -285 -63q-103 -1 -192.5 37t-148.5 118t-59 187v419q0 81 33.5 147t89 107
t125 63t144.5 23q129 0 293 -47l112 -35v-1069q0 -110 -57.5 -192t-146.5 -121t-195 -39q-101 0 -192.5 34t-155.5 101zM791 147v762q-145 62 -293 62q-114 0 -196 -59.5t-81 -166.5v-432q0 -106 83.5 -165.5t197.5 -59.5q153 3 289 59z" />
    <glyph glyph-name="Gdotaccent" unicode="&#x120;" horiz-adv-x="1298" 
d="M571 1665q0 40 26.5 66t66.5 26t66 -26t26 -66t-26 -66t-66 -26t-66.5 26t-26.5 66zM121 426v604q0 85 30.5 157.5t83 123.5t122 87.5t147.5 54t160 17.5q162 0 297 -67.5t196 -194.5l-108 -53q-45 93 -153.5 144t-236.5 51q-108 0 -201 -34.5t-154.5 -109t-61.5 -176.5
v-606q0 -103 62.5 -178.5t157 -110.5t204.5 -35q109 0 203 35t156 110.5t62 178.5v182h-444v121h565v-301q0 -107 -46.5 -194t-123.5 -141t-173 -82.5t-199 -28.5q-104 0 -200 28.5t-174 82.5t-124.5 141t-46.5 194z" />
    <glyph glyph-name="gdotaccent" unicode="&#x121;" horiz-adv-x="1038" 
d="M446 1296q0 40 26.5 66.5t66.5 26.5t66 -26.5t26 -66.5t-26 -66t-66 -26t-66.5 26t-26.5 66zM156 -287l71 68q44 -48 118.5 -73t156.5 -25q125 0 207 63t82 182v115q-126 -63 -285 -63q-103 -1 -192.5 37t-148.5 118t-59 187v419q0 81 33.5 147t89 107t125 63t144.5 23
q129 0 293 -47l112 -35v-1069q0 -110 -57.5 -192t-146.5 -121t-195 -39q-101 0 -192.5 34t-155.5 101zM791 147v762q-145 62 -293 62q-114 0 -196 -59.5t-81 -166.5v-432q0 -106 83.5 -165.5t197.5 -59.5q153 3 289 59z" />
    <glyph glyph-name="Gcommaaccent" unicode="&#x122;" horiz-adv-x="1298" 
d="M121 426v604q0 85 30.5 157.5t83 123.5t122 87.5t147.5 54t160 17.5q162 0 297 -67.5t196 -194.5l-108 -53q-45 93 -153.5 144t-236.5 51q-108 0 -201 -34.5t-154.5 -109t-61.5 -176.5v-606q0 -103 62.5 -178.5t157 -110.5t204.5 -35q109 0 203 35t156 110.5t62 178.5
v182h-444v121h565v-301q0 -107 -46.5 -194t-123.5 -141t-173 -82.5t-199 -28.5q-104 0 -200 28.5t-174 82.5t-124.5 141t-46.5 194zM745 -156l-124 -340h-119l102 340h141z" />
    <glyph glyph-name="gcommaaccent" unicode="&#x123;" horiz-adv-x="1038" 
d="M455 1188l98 262h121l-76 -262h-143zM156 -287l71 68q44 -48 118.5 -73t156.5 -25q125 0 207 63t82 182v115q-126 -63 -285 -63q-103 -1 -192.5 37t-148.5 118t-59 187v419q0 81 33.5 147t89 107t125 63t144.5 23q129 0 293 -47l112 -35v-1069q0 -110 -57.5 -192
t-146.5 -121t-195 -39q-101 0 -192.5 34t-155.5 101zM791 147v762q-145 62 -293 62q-114 0 -196 -59.5t-81 -166.5v-432q0 -106 83.5 -165.5t197.5 -59.5q153 3 289 59z" />
    <glyph glyph-name="Hbar" unicode="&#x126;" horiz-adv-x="1431" 
d="M1393 1071h-133v-1071h-121v670h-846v-670h-121v1071h-133v98h133v281h121v-281h846v281h121v-281h133v-98zM1139 1071h-846v-287h846v287z" />
    <glyph glyph-name="hbar" unicode="&#x127;" horiz-adv-x="1075" 
d="M541 1081q104 0 193.5 -38t148.5 -117.5t59 -186.5v-739h-115v745q0 107 -84.5 166.5t-199.5 59.5q-148 0 -289 -58v-913h-115v1231h-145v88h145v131h115v-131h260v-88h-260v-213q135 63 287 63z" />
    <glyph glyph-name="Imacron" unicode="&#x12a;" horiz-adv-x="444" 
d="M18 1610v108h398v-108h-398zM283 1450v-1450h-121v1450h121z" />
    <glyph glyph-name="imacron" unicode="&#x12b;" horiz-adv-x="401" 
d="M2 1262v108h397v-108h-397zM262 1061v-1061h-123v1061h123z" />
    <glyph glyph-name="Iogonek" unicode="&#x12e;" horiz-adv-x="444" 
d="M340 -340l33 -92q-75 -68 -174 -68q-76 0 -122 49.5t-46 128.5q0 67 48 158.5t118 163.5h-35v1450h121v-1450q-76 -86 -113.5 -170t-32.5 -135q4 -46 35.5 -69.5t78 -15t89.5 49.5z" />
    <glyph glyph-name="iogonek" unicode="&#x12f;" horiz-adv-x="393" 
d="M197 1229q-38 0 -65.5 27t-27.5 65t27.5 65t65.5 27t65 -27t27 -65t-27 -65t-65 -27zM311 -340l33 -92q-75 -68 -174 -68q-76 0 -122 49.5t-46 128.5q0 67 48 158.5t118 163.5h-29v1061h115v-1061q-76 -86 -113 -170t-32 -135q4 -46 35.5 -69.5t77.5 -15t89 49.5z" />
    <glyph glyph-name="Idotaccent" unicode="&#x130;" horiz-adv-x="444" 
d="M131 1665q0 40 26 66t66 26t66 -26t26 -66t-26 -66t-66 -26t-66 26t-26 66zM283 1450v-1450h-121v1450h121z" />
    <glyph glyph-name="dotlessi" unicode="&#x131;" horiz-adv-x="401" 
d="M262 1061v-1061h-123v1061h123z" />
    <glyph glyph-name="IJ" unicode="&#x132;" horiz-adv-x="1658" 
d="M283 1450v-1450h-121v1450h121zM903 1329v121h604v-1032q0 -85 -29.5 -157t-79.5 -123t-117 -87t-142 -53.5t-154 -17.5q-117 0 -222 39.5t-182.5 122t-99.5 194.5l119 29q17 -85 77.5 -146.5t141 -90t172.5 -28.5q76 0 146 21t126 60t89.5 102t33.5 141v905h-483z" />
    <glyph glyph-name="ij" unicode="&#x133;" horiz-adv-x="786" 
d="M104 1321q0 38 27.5 65t65.5 27t65 -27t27 -65t-27 -65t-65 -27t-65.5 27t-27.5 65zM139 1061h115v-1061h-115v1061zM498 1321q0 38 27 65t65 27t65 -27t27 -65t-27 -65t-65 -27t-65 27t-27 65zM322 -279v-114q155 0 240 92.5t85 255.5v1106h-115v-1106q0 -112 -52 -173
t-158 -61z" />
    <glyph glyph-name="Kcommaaccent" unicode="&#x136;" horiz-adv-x="1261" 
d="M283 1450v-797l811 797h155l-698 -698l694 -752h-155l-625 666l-182 -183v-483h-121v1450h121zM764 -172l-113 -307h-106l92 307h127z" />
    <glyph glyph-name="kcommaaccent" unicode="&#x137;" horiz-adv-x="989" 
d="M254 1450v-946l559 557h143l-475 -479l471 -582h-141l-410 500l-147 -148v-352h-115v1450h115zM596 -172l-113 -307h-106l92 307h127z" />
    <glyph glyph-name="Lacute" unicode="&#x139;" horiz-adv-x="1040" 
d="M434 1780l-186 -232h-119l141 232h164zM1008 0h-846v1450h121v-1329h725v-121z" />
    <glyph glyph-name="lacute" unicode="&#x13a;" horiz-adv-x="468" 
d="M401 1780l-186 -232h-119l142 232h163zM457 94v-114q-155 0 -239.5 88t-84.5 247v1135h115v-1135q0 -221 209 -221z" />
    <glyph glyph-name="Lcommaaccent" unicode="&#x13b;" horiz-adv-x="1040" 
d="M682 -172l-119 -324h-112l96 324h135zM1008 0h-846v1450h121v-1329h725v-121z" />
    <glyph glyph-name="lcommaaccent" unicode="&#x13c;" horiz-adv-x="468" 
d="M457 94v-114q-155 0 -239.5 88t-84.5 247v1135h115v-1135q0 -221 209 -221zM381 -172l-113 -307h-106l92 307h127z" />
    <glyph glyph-name="Lcaron" unicode="&#x13d;" horiz-adv-x="1040" 
d="M1008 0h-846v1450h121v-1329h725v-121zM840 1450l-131 -389h-121l108 389h144z" />
    <glyph glyph-name="lcaron" unicode="&#x13e;" horiz-adv-x="491" 
d="M457 94v-114q-155 0 -239.5 88t-84.5 247v1135h115v-1135q0 -221 209 -221zM530 1432l-94 -320h-90l74 320h110z" />
    <glyph glyph-name="Ldot" unicode="&#x13f;" horiz-adv-x="1046" 
d="M1008 0h-846v1450h121v-1329h725v-121zM559 729q0 41 28.5 69.5t69.5 28.5t70 -28.5t29 -69.5t-29 -69.5t-70 -28.5t-69.5 28.5t-28.5 69.5z" />
    <glyph glyph-name="ldot" unicode="&#x140;" horiz-adv-x="514" 
d="M457 94v-114q-155 0 -239.5 88t-84.5 247v1135h115v-1135q0 -221 209 -221zM358 727q0 38 26.5 64t64.5 26t65 -26t27 -64t-27 -65t-65 -27t-64.5 27t-26.5 65z" />
    <glyph glyph-name="Lslash" unicode="&#x141;" horiz-adv-x="1064" 
d="M1032 121v-121h-846v612l-137 -69l-41 75l178 93v739h121v-678l240 123l41 -76l-281 -143v-555h725z" />
    <glyph glyph-name="lslash" unicode="&#x142;" horiz-adv-x="528" 
d="M289 623v-308q0 -221 209 -221v-114q-155 0 -239.5 88t-84.5 247v242l-123 -70l-39 76l162 94v793h115v-727l168 98l39 -80z" />
    <glyph glyph-name="Nacute" unicode="&#x143;" horiz-adv-x="1411" 
d="M938 1780l-186 -232h-119l141 232h164zM309 1450l819 -1317v1317h121v-1450h-180l-786 1264v-1264h-121v1450h147z" />
    <glyph glyph-name="nacute" unicode="&#x144;" horiz-adv-x="1069" 
d="M754 1411l-187 -231h-118l141 231h164zM135 0v997q245 84 408 84q76 -2 145 -24t125 -63t89.5 -107t33.5 -148v-739h-115v743q0 74 -42 127.5t-103.5 77t-132.5 23.5q-148 0 -293 -62v-909h-115z" />
    <glyph glyph-name="Ncommaaccent" unicode="&#x145;" horiz-adv-x="1411" 
d="M309 1450l819 -1317v1317h121v-1450h-180l-786 1264v-1264h-121v1450h147zM786 -156l-124 -340h-119l102 340h141z" />
    <glyph glyph-name="ncommaaccent" unicode="&#x146;" horiz-adv-x="1069" 
d="M135 0v997q245 84 408 84q76 -2 145 -24t125 -63t89.5 -107t33.5 -148v-739h-115v743q0 74 -42 127.5t-103.5 77t-132.5 23.5q-148 0 -293 -62v-909h-115zM614 -156l-125 -340h-118l102 340h141z" />
    <glyph glyph-name="Ncaron" unicode="&#x147;" horiz-adv-x="1411" 
d="M621 1548l-222 232h136l161 -156l152 156h137l-221 -232h-143zM309 1450l819 -1317v1317h121v-1450h-180l-786 1264v-1264h-121v1450h147z" />
    <glyph glyph-name="ncaron" unicode="&#x148;" horiz-adv-x="1069" 
d="M457 1180l-221 231h135l161 -156l152 156h137l-221 -231h-143zM135 0v997q245 84 408 84q76 -2 145 -24t125 -63t89.5 -107t33.5 -148v-739h-115v743q0 74 -42 127.5t-103.5 77t-132.5 23.5q-148 0 -293 -62v-909h-115z" />
    <glyph glyph-name="Eng" unicode="&#x14a;" horiz-adv-x="1409" 
d="M1247 1450v-1495q0 -160 -94 -254t-252 -94v114q109 0 170.5 62.5t61.5 171.5v45h-66l-786 1264v-1264h-121v1450h147l819 -1317v1317h121z" />
    <glyph glyph-name="eng" unicode="&#x14b;" horiz-adv-x="1067" 
d="M541 1081q76 -2 145 -24t125 -63t89.5 -107t33.5 -148v-784q0 -160 -94 -254t-252 -94v114q108 0 169.5 62.5t61.5 171.5v788q0 74 -42 127.5t-103.5 77t-132.5 23.5q-148 0 -293 -62v-909h-115v997q245 84 408 84z" />
    <glyph glyph-name="Omacron" unicode="&#x14c;" horiz-adv-x="1386" 
d="M432 1636v99h512v-99h-512zM119 426v598q0 107 49 194t130.5 141t183 82.5t212.5 28.5q110 0 211 -28.5t183 -82.5t131 -141t49 -194v-598q0 -107 -49 -194t-131 -141t-183 -82.5t-211 -28.5q-111 0 -212.5 28.5t-183 82.5t-130.5 141t-49 194zM240 1024v-598
q0 -78 38.5 -142t103.5 -103t145 -60t167 -21q86 0 166 21t144.5 60t103.5 103t39 142v598q0 83 -39 147t-105 102t-145.5 57.5t-167.5 19.5q-87 -1 -165.5 -21t-143.5 -58t-103 -102t-38 -145z" />
    <glyph glyph-name="omacron" unicode="&#x14d;" horiz-adv-x="1017" 
d="M248 1268v98h512v-98h-512zM106 326v409q0 83 34.5 150.5t92.5 109t129 63.5t148 23q77 -1 147.5 -23t128 -63.5t91.5 -108.5t34 -151v-409q0 -84 -34 -151t-91.5 -108.5t-128 -63.5t-147.5 -23q-77 1 -148 23t-129 63.5t-92.5 109t-34.5 150.5zM510 971
q-74 0 -137 -22.5t-107.5 -76.5t-44.5 -131v-419q0 -77 44.5 -131.5t107.5 -77.5t137 -23q53 0 103 14t91.5 41t67 73t25.5 104v419q0 77 -44.5 131t-107 76.5t-135.5 22.5z" />
    <glyph glyph-name="Ohungarumlaut" unicode="&#x150;" horiz-adv-x="1386" 
d="M748 1815l-162 -232h-103l101 232h164zM1047 1815l-162 -232h-103l101 232h164zM119 426v598q0 107 49 194t130.5 141t183 82.5t212.5 28.5q110 0 211 -28.5t183 -82.5t131 -141t49 -194v-598q0 -107 -49 -194t-131 -141t-183 -82.5t-211 -28.5q-111 0 -212.5 28.5
t-183 82.5t-130.5 141t-49 194zM240 1024v-598q0 -78 38.5 -142t103.5 -103t145 -60t167 -21q86 0 166 21t144.5 60t103.5 103t39 142v598q0 83 -39 147t-105 102t-145.5 57.5t-167.5 19.5q-87 -1 -165.5 -21t-143.5 -58t-103 -102t-38 -145z" />
    <glyph glyph-name="ohungarumlaut" unicode="&#x151;" horiz-adv-x="1017" 
d="M563 1411l-162 -231h-82l101 231h143zM821 1411l-162 -231h-81l100 231h143zM106 326v409q0 83 34.5 150.5t92.5 109t129 63.5t148 23q77 -1 147.5 -23t128 -63.5t91.5 -108.5t34 -151v-409q0 -84 -34 -151t-91.5 -108.5t-128 -63.5t-147.5 -23q-77 1 -148 23t-129 63.5
t-92.5 109t-34.5 150.5zM510 971q-74 0 -137 -22.5t-107.5 -76.5t-44.5 -131v-419q0 -77 44.5 -131.5t107.5 -77.5t137 -23q53 0 103 14t91.5 41t67 73t25.5 104v419q0 77 -44.5 131t-107 76.5t-135.5 22.5z" />
    <glyph glyph-name="OE" unicode="&#x152;" horiz-adv-x="1892" 
d="M1798 1329h-704v-547h641v-120h-641v-541h704v-121h-825v37q-107 -57 -295 -57q-108 0 -207 29t-178 83t-126.5 140.5t-47.5 191.5v602q0 107 48.5 193t129.5 139.5t181.5 82t209.5 29.5q184 0 285 -67v47h825v-121zM973 164v1128q-120 61 -283 58q-87 0 -165.5 -19.5
t-143.5 -57.5t-103 -102t-38 -145v-602q0 -90 50.5 -160t132.5 -107t178.5 -51t195 1.5t176.5 56.5z" />
    <glyph glyph-name="oe" unicode="&#x153;" horiz-adv-x="1685" 
d="M106 322v415q0 83 34 149.5t91.5 107.5t128 63t146.5 22q111 0 205.5 -49t136.5 -143q22 66 80 111t124.5 63.5t139.5 19.5q76 -1 146.5 -23t128 -63.5t92 -108t34.5 -149.5v-262l-688 2v-147q0 -76 44 -130t107.5 -77t135.5 -23q91 0 165 36.5t105 105.5l103 -54
q-30 -66 -90 -113.5t-132 -70.5t-151 -24q-109 0 -204.5 49t-139.5 141q-43 -92 -138 -140t-204 -50q-61 1 -118 14.5t-108.5 41.5t-90 67.5t-61 95.5t-22.5 123zM506 971q-53 0 -102.5 -13.5t-91 -40t-66.5 -71.5t-25 -103v-421q0 -58 25 -103t66.5 -71.5t91 -40
t102.5 -13.5q72 0 135 24.5t106.5 79.5t43.5 130v417q0 75 -44 128t-106.5 75.5t-134.5 22.5zM1479 575v168q0 73 -42.5 126.5t-106.5 77.5t-138 24t-136.5 -22.5t-106.5 -76.5t-44 -131v-163z" />
    <glyph glyph-name="Racute" unicode="&#x154;" horiz-adv-x="1265" 
d="M874 1780l-186 -232h-119l142 232h163zM1042 0l-475 614h-284v-614h-121v1450h547q105 0 190.5 -24t151.5 -73.5t103.5 -132t39.5 -192.5q0 -109 -38.5 -191t-106.5 -129.5t-152.5 -70.5t-185.5 -23h-4l485 -614h-150zM283 725h428q177 0 269.5 69.5t92.5 233.5
q0 301 -362 301h-428v-604z" />
    <glyph glyph-name="racute" unicode="&#x155;" horiz-adv-x="618" 
d="M598 1384l-176 -219h-113l133 219h156zM514 1081q24 0 78 -4v-114q-69 14 -148 -2q-86 -20 -141 -76.5t-55 -145.5v-739h-115v739q0 72 25.5 132t66 98t92 64t101 37t96.5 11z" />
    <glyph glyph-name="Rcommaaccent" unicode="&#x156;" horiz-adv-x="1265" 
d="M1042 0l-475 614h-284v-614h-121v1450h547q105 0 190.5 -24t151.5 -73.5t103.5 -132t39.5 -192.5q0 -109 -38.5 -191t-106.5 -129.5t-152.5 -70.5t-185.5 -23h-4l485 -614h-150zM283 725h428q177 0 269.5 69.5t92.5 233.5q0 301 -362 301h-428v-604zM729 -156l-125 -340
h-119l103 340h141z" />
    <glyph glyph-name="rcommaaccent" unicode="&#x157;" horiz-adv-x="618" 
d="M514 1081q24 0 78 -4v-114q-69 14 -148 -2q-86 -20 -141 -76.5t-55 -145.5v-739h-115v739q0 72 25.5 132t66 98t92 64t101 37t96.5 11zM262 -211l-100 -281h-107l80 281h127z" />
    <glyph glyph-name="Rcaron" unicode="&#x158;" horiz-adv-x="1265" 
d="M565 1548l-221 232h135l162 -156l152 156h137l-221 -232h-144zM1042 0l-475 614h-284v-614h-121v1450h547q105 0 190.5 -24t151.5 -73.5t103.5 -132t39.5 -192.5q0 -109 -38.5 -191t-106.5 -129.5t-152.5 -70.5t-185.5 -23h-4l485 -614h-150zM283 725h428
q177 0 269.5 69.5t92.5 233.5q0 301 -362 301h-428v-604z" />
    <glyph glyph-name="rcaron" unicode="&#x159;" horiz-adv-x="618" 
d="M332 1163l-211 221h129l156 -149l145 149h133l-213 -221h-139zM514 1081q24 0 78 -4v-114q-69 14 -148 -2q-86 -20 -141 -76.5t-55 -145.5v-739h-115v739q0 72 25.5 132t66 98t92 64t101 37t96.5 11z" />
    <glyph glyph-name="Sacute" unicode="&#x15a;" horiz-adv-x="1210" 
d="M813 1780l-186 -232h-119l141 232h164zM219 1102q-2 -34 3.5 -63.5t15.5 -52t29.5 -43t38.5 -34.5t50 -28t55.5 -22.5t63 -18t65.5 -15.5t70 -14q70 -14 109 -22.5t102.5 -27.5t99.5 -39t81 -54.5t67.5 -75.5t37 -100.5t11.5 -131.5q-4 -92 -49.5 -166t-118.5 -120
t-162.5 -70t-187.5 -24q-111 0 -213 30.5t-185.5 95t-123.5 154.5l110 49q44 -100 160.5 -154.5t255.5 -54.5q74 0 141 16.5t122 48.5t90 83.5t40 116.5q3 40 -3 74t-16 60.5t-32 49.5t-41 39.5t-54 32.5t-59 25t-68 20.5t-70 17.5t-74 16q-67 14 -104 22.5t-96.5 26.5
t-93.5 36t-75.5 48.5t-63 66.5t-35.5 88t-12 114q4 117 78 202.5t184.5 125.5t239.5 40q170 0 312 -70.5t200 -201.5l-108 -49q-42 97 -156 150t-248 53q-98 0 -180.5 -26t-139.5 -84.5t-63 -139.5z" />
    <glyph glyph-name="sacute" unicode="&#x15b;" horiz-adv-x="901" 
d="M690 1411l-186 -231h-119l141 231h164zM70 199l88 55q59 -80 143 -122t178 -42q100 0 168.5 46.5t67.5 146.5q-1 41 -16.5 73.5t-37.5 52.5t-57.5 35t-64 22.5t-68.5 14.5q-62 11 -105.5 22t-97.5 34t-87 53t-56 78.5t-23 111.5q0 77 34.5 137t91 94.5t120.5 52t131 17.5
q85 0 163.5 -27t133.5 -79l-74 -86q-79 82 -223 82q-45 0 -88 -9.5t-84 -30t-66.5 -60t-25.5 -91.5q1 -40 20.5 -71t42 -49t67 -33.5t67.5 -20.5t70 -14q7 -1 10 -2q55 -10 99.5 -23.5t90 -38t76.5 -56.5t50.5 -80.5t20.5 -108.5q0 -101 -51.5 -170.5t-128 -100
t-170.5 -32.5q-126 -3 -233.5 53.5t-175.5 165.5z" />
    <glyph glyph-name="Scedilla" unicode="&#x15e;" horiz-adv-x="1210" 
d="M610 811q70 -14 109 -22.5t102.5 -27.5t99.5 -39t81 -54.5t67.5 -75.5t37 -100.5t11.5 -131.5q-4 -86 -44.5 -157t-106 -116.5t-147 -72.5t-173.5 -32l-61 -121l2 -4q99 12 154.5 -33t52.5 -133q-3 -92 -73 -141.5t-157 -49.5q-93 0 -180 41l27 76q69 -35 149 -35
q55 0 94.5 28t42.5 81q2 43 -19.5 68.5t-54 30t-64 0.5t-54.5 -15l-29 28l94 177q-165 6 -301 79t-192 201l110 49q44 -100 160.5 -154.5t255.5 -54.5q74 0 141 16.5t122 48.5t90 83.5t40 116.5q3 40 -3 74t-16 60.5t-32 49.5t-41 39.5t-54 32.5t-59 25t-68 20.5t-70 17.5
t-74 16q-67 14 -104 22.5t-96.5 26.5t-93.5 36t-75.5 48.5t-63 66.5t-35.5 88t-12 114q4 117 78 202.5t184.5 125.5t239.5 40q170 0 312 -70.5t200 -201.5l-108 -49q-42 97 -156 150t-248 53q-98 0 -180.5 -26t-139.5 -84.5t-63 -139.5q-2 -34 3.5 -63.5t15.5 -52t29.5 -43
t38.5 -34.5t50 -28t55.5 -22.5t63 -18t65.5 -15.5t70 -14z" />
    <glyph glyph-name="scedilla" unicode="&#x15f;" horiz-adv-x="901" 
d="M829 283q0 -73 -26.5 -130t-72.5 -92.5t-103 -55t-123 -23.5l-62 -121l2 -4q99 12 154.5 -33t52.5 -133q-3 -92 -72.5 -141.5t-156.5 -49.5q-93 0 -180 41l26 76q69 -35 150 -35q55 0 94.5 28t42.5 81q2 43 -19.5 68.5t-54.5 30t-64.5 0.5t-54.5 -15l-28 28l94 179
q-111 8 -204 63.5t-154 153.5l88 55q59 -80 143 -122t178 -42q100 0 168.5 46.5t67.5 146.5q-1 41 -16.5 73.5t-37.5 52.5t-57.5 35t-64 22.5t-68.5 14.5q-62 11 -105.5 22t-97.5 34t-87 53t-56 78.5t-23 111.5q0 77 34.5 137t91 94.5t120.5 52t131 17.5q85 0 163.5 -27
t133.5 -79l-74 -86q-79 82 -223 82q-45 0 -88 -9.5t-84 -30t-66.5 -60t-25.5 -91.5q1 -40 20.5 -71t42 -49t67 -33.5t67.5 -20.5t70 -14q7 -1 10 -2q55 -10 99.5 -23.5t90 -38t76.5 -56.5t50.5 -80.5t20.5 -108.5z" />
    <glyph glyph-name="Scaron" unicode="&#x160;" horiz-adv-x="1210" 
d="M516 1548l-221 232h135l162 -156l151 156h138l-222 -232h-143zM219 1102q-2 -34 3.5 -63.5t15.5 -52t29.5 -43t38.5 -34.5t50 -28t55.5 -22.5t63 -18t65.5 -15.5t70 -14q70 -14 109 -22.5t102.5 -27.5t99.5 -39t81 -54.5t67.5 -75.5t37 -100.5t11.5 -131.5
q-4 -92 -49.5 -166t-118.5 -120t-162.5 -70t-187.5 -24q-111 0 -213 30.5t-185.5 95t-123.5 154.5l110 49q44 -100 160.5 -154.5t255.5 -54.5q74 0 141 16.5t122 48.5t90 83.5t40 116.5q3 40 -3 74t-16 60.5t-32 49.5t-41 39.5t-54 32.5t-59 25t-68 20.5t-70 17.5t-74 16
q-67 14 -104 22.5t-96.5 26.5t-93.5 36t-75.5 48.5t-63 66.5t-35.5 88t-12 114q4 117 78 202.5t184.5 125.5t239.5 40q170 0 312 -70.5t200 -201.5l-108 -49q-42 97 -156 150t-248 53q-98 0 -180.5 -26t-139.5 -84.5t-63 -139.5z" />
    <glyph glyph-name="scaron" unicode="&#x161;" horiz-adv-x="901" 
d="M393 1180l-221 231h135l162 -156l152 156h137l-221 -231h-144zM70 199l88 55q59 -80 143 -122t178 -42q100 0 168.5 46.5t67.5 146.5q-1 41 -16.5 73.5t-37.5 52.5t-57.5 35t-64 22.5t-68.5 14.5q-62 11 -105.5 22t-97.5 34t-87 53t-56 78.5t-23 111.5q0 77 34.5 137
t91 94.5t120.5 52t131 17.5q85 0 163.5 -27t133.5 -79l-74 -86q-79 82 -223 82q-45 0 -88 -9.5t-84 -30t-66.5 -60t-25.5 -91.5q1 -40 20.5 -71t42 -49t67 -33.5t67.5 -20.5t70 -14q7 -1 10 -2q55 -10 99.5 -23.5t90 -38t76.5 -56.5t50.5 -80.5t20.5 -108.5
q0 -101 -51.5 -170.5t-128 -100t-170.5 -32.5q-126 -3 -233.5 53.5t-175.5 165.5z" />
    <glyph glyph-name="Tcommaaccent" unicode="&#x162;" horiz-adv-x="1144" 
d="M1116 1450v-117h-483v-1333h-121v1333h-483v117h1087zM653 -156l-125 -340h-118l102 340h141z" />
    <glyph glyph-name="tcommaaccent" unicode="&#x163;" horiz-adv-x="538" 
d="M406 -156l-115 -313h-111l94 313h132zM510 86v-102q-184 -30 -280.5 64.5t-96.5 273.5v981h100l15 -242h229v-103h-229v-636q0 -58 13 -104t42 -81t81.5 -49t125.5 -2z" />
    <glyph glyph-name="Tcaron" unicode="&#x164;" horiz-adv-x="1144" 
d="M487 1548l-221 232h135l162 -156l152 156h137l-221 -232h-144zM1116 1450v-117h-483v-1333h-121v1333h-483v117h1087z" />
    <glyph glyph-name="tcaron" unicode="&#x165;" horiz-adv-x="538" 
d="M567 1450l-96 -287h-96l78 287h114zM510 86v-102q-184 -30 -280.5 64.5t-96.5 273.5v981h100l15 -242h229v-103h-229v-636q0 -58 13 -104t42 -81t81.5 -49t125.5 -2z" />
    <glyph glyph-name="Tbar" unicode="&#x166;" horiz-adv-x="1157" 
d="M639 1333v-526h215v-98h-215v-709h-121v709h-217v98h217v526h-483v117h1087v-117h-483z" />
    <glyph glyph-name="tbar" unicode="&#x167;" horiz-adv-x="548" 
d="M520 86v-102q-184 -30 -280.5 64.5t-96.5 273.5v270h-110v88h110v623h101l14 -242h229v-103h-229v-278h191v-88h-191v-270q0 -58 13 -104t42 -81t81.5 -49t125.5 -2z" />
    <glyph glyph-name="Umacron" unicode="&#x16a;" horiz-adv-x="1390" 
d="M434 1636v99h512v-99h-512zM272 1450v-1020q0 -79 36 -143.5t96.5 -104.5t135.5 -61t156 -21t155.5 21.5t134.5 61t96 104t36 143.5v1020h121v-1018q0 -109 -46.5 -197t-124 -142.5t-173.5 -83.5t-199 -29q-104 0 -200 29t-173.5 83.5t-124 142.5t-46.5 197v1018h120z
" />
    <glyph glyph-name="umacron" unicode="&#x16b;" horiz-adv-x="1067" 
d="M270 1247v99h512v-99h-512zM932 61l-115 -34q-164 -47 -293 -47q-102 0 -189.5 37t-145.5 116.5t-58 188.5v741h115v-748q0 -105 82.5 -165t195.5 -60q144 0 293 64v909h115v-1002z" />
    <glyph glyph-name="Uring" unicode="&#x16e;" horiz-adv-x="1390" 
d="M506 1694q0 76 56 131t134 55t134.5 -55t56.5 -131t-56.5 -131.5t-134.5 -55.5t-134 55t-56 132zM805 1694q0 47 -32.5 80.5t-76.5 33.5q-47 0 -79.5 -33.5t-32.5 -80.5q0 -48 32.5 -81.5t79.5 -33.5q44 0 76.5 34t32.5 81zM272 1450v-1020q0 -79 36 -143.5t96.5 -104.5
t135.5 -61t156 -21t155.5 21.5t134.5 61t96 104t36 143.5v1020h121v-1018q0 -109 -46.5 -197t-124 -142.5t-173.5 -83.5t-199 -29q-104 0 -200 29t-173.5 83.5t-124 142.5t-46.5 197v1018h120z" />
    <glyph glyph-name="uring" unicode="&#x16f;" horiz-adv-x="1067" 
d="M354 1298q0 76 56.5 131.5t134.5 55.5t134 -55t56 -132q0 -76 -56 -131t-134 -55t-134.5 55t-56.5 131zM653 1298q0 47 -32 81t-76 34q-47 0 -80 -34t-33 -81t33 -80.5t80 -33.5q44 0 76 33.5t32 80.5zM932 61l-115 -34q-164 -47 -293 -47q-102 0 -189.5 37t-145.5 116.5
t-58 188.5v741h115v-748q0 -105 82.5 -165t195.5 -60q144 0 293 64v909h115v-1002z" />
    <glyph glyph-name="Uhungarumlaut" unicode="&#x170;" horiz-adv-x="1390" 
d="M770 1780l-162 -232h-82l101 232h143zM1028 1780l-162 -232h-82l101 232h143zM272 1450v-1020q0 -79 36 -143.5t96.5 -104.5t135.5 -61t156 -21t155.5 21.5t134.5 61t96 104t36 143.5v1020h121v-1018q0 -109 -46.5 -197t-124 -142.5t-173.5 -83.5t-199 -29
q-104 0 -200 29t-173.5 83.5t-124 142.5t-46.5 197v1018h120z" />
    <glyph glyph-name="uhungarumlaut" unicode="&#x171;" horiz-adv-x="1067" 
d="M606 1391l-162 -232h-82l101 232h143zM864 1391l-162 -232h-81l100 232h143zM932 61l-115 -34q-164 -47 -293 -47q-102 0 -189.5 37t-145.5 116.5t-58 188.5v741h115v-748q0 -105 82.5 -165t195.5 -60q144 0 293 64v909h115v-1002z" />
    <glyph glyph-name="Uogonek" unicode="&#x172;" horiz-adv-x="1390" 
d="M1239 1450v-1018q0 -136 -66.5 -231.5t-226.5 -204.5q-86 -59 -122.5 -149.5t-30.5 -151.5q4 -46 35.5 -69.5t77.5 -15t89 49.5l33 -92q-75 -68 -174 -68q-76 0 -122 49.5t-46 128.5q0 72 46 166.5t116 151.5q-78 -16 -152 -16q-104 0 -200 29t-173.5 83.5t-124 142.5
t-46.5 197v1018h120v-1020q0 -79 36 -143.5t96.5 -104.5t135.5 -61t156 -21t155.5 21.5t134.5 61t96 104t36 143.5v1020h121z" />
    <glyph glyph-name="uogonek" unicode="&#x173;" horiz-adv-x="1069" 
d="M805 14l-4 9q-155 -43 -277 -43q-102 0 -189.5 37t-145.5 116.5t-58 188.5v741h115v-748q0 -105 82.5 -165t195.5 -60q144 0 293 64v909h115v-1002q-204 -242 -193 -366q4 -46 35.5 -69.5t78 -15t89.5 49.5l33 -92q-75 -68 -174 -68q-76 0 -122 49.5t-46 128.5
q0 66 51.5 165t120.5 171z" />
    <glyph glyph-name="Wcircumflex" unicode="&#x174;" horiz-adv-x="1927" 
d="M1032 1780l211 -232h-129l-153 160l-144 -160h-131l211 232h135zM1391 90l381 1360h126l-419 -1450h-176l-338 1069l-340 -1069h-176l-420 1450h127l381 -1360l368 1170h117z" />
    <glyph glyph-name="wcircumflex" unicode="&#x175;" horiz-adv-x="1480" 
d="M809 1391l211 -232h-129l-154 160l-143 -160h-131l211 232h135zM520 0h-164l-319 1061h121l280 -942l230 942h145l229 -942l281 942h121l-320 -1061h-163l-220 907z" />
    <glyph glyph-name="Ycircumflex" unicode="&#x176;" horiz-adv-x="1144" 
d="M641 1780l211 -232h-129l-154 160l-143 -160h-131l211 232h135zM633 567v-567h-121v567l-504 883h142l423 -762l422 762h144z" />
    <glyph glyph-name="ycircumflex" unicode="&#x177;" horiz-adv-x="1095" 
d="M623 1391l211 -232h-129l-154 160l-143 -160h-132l211 232h136zM182 -279l80 74q100 -106 279 -106q126 0 212.5 67.5t86.5 190.5v102q-61 -39 -132.5 -53t-162.5 -16q-79 -1 -153 22.5t-132.5 67.5t-93.5 112.5t-35 151.5v727h119v-731q0 -111 88 -176.5t205 -67.5
q150 0 297 64v911h116v-1114q0 -90 -33.5 -162t-91 -116t-130.5 -67.5t-156 -23.5q-105 0 -203 37.5t-160 105.5z" />
    <glyph glyph-name="Ydieresis" unicode="&#x178;" horiz-adv-x="1144" 
d="M305 1665q0 35 24.5 59.5t59.5 24.5t59.5 -24.5t24.5 -59.5t-24.5 -59.5t-59.5 -24.5t-59.5 24.5t-24.5 59.5zM674 1665q0 35 24.5 59.5t59.5 24.5t59.5 -24.5t24.5 -59.5t-24.5 -59.5t-59.5 -24.5t-59.5 24.5t-24.5 59.5zM633 567v-567h-121v567l-504 883h142l423 -762
l422 762h144z" />
    <glyph glyph-name="Zacute" unicode="&#x179;" horiz-adv-x="1181" 
d="M844 1780l-187 -232h-118l141 232h164zM86 1329v121h995l43 -92l-903 -1237h883v-121h-1018l-37 92l903 1237h-866z" />
    <glyph glyph-name="zacute" unicode="&#x17a;" horiz-adv-x="950" 
d="M694 1411l-186 -231h-119l141 231h164zM92 950v111h739l48 -84l-662 -856h657v-121h-772l-49 82l668 868h-629z" />
    <glyph glyph-name="Zdotaccent" unicode="&#x17b;" horiz-adv-x="1181" 
d="M524 1665q0 40 26 66t66 26t66.5 -26t26.5 -66t-26.5 -66t-66.5 -26t-66 26t-26 66zM86 1329v121h995l43 -92l-903 -1237h883v-121h-1018l-37 92l903 1237h-866z" />
    <glyph glyph-name="zdotaccent" unicode="&#x17c;" horiz-adv-x="950" 
d="M391 1296q0 40 26 66.5t66 26.5t66 -26.5t26 -66.5t-26 -66t-66 -26t-66 26t-26 66zM92 950v111h739l48 -84l-662 -856h657v-121h-772l-49 82l668 868h-629z" />
    <glyph glyph-name="Zcaron" unicode="&#x17d;" horiz-adv-x="1181" 
d="M530 1548l-221 232h135l162 -156l152 156h137l-221 -232h-144zM86 1329v121h995l43 -92l-903 -1237h883v-121h-1018l-37 92l903 1237h-866z" />
    <glyph glyph-name="zcaron" unicode="&#x17e;" horiz-adv-x="950" 
d="M397 1180l-221 231h135l162 -156l152 156h137l-221 -231h-144zM92 950v111h739l48 -84l-662 -856h657v-121h-772l-49 82l668 868h-629z" />
    <glyph glyph-name="florin" unicode="&#x192;" horiz-adv-x="968" 
d="M514 750l-147 -791q-50 -254 -293 -254q-102 0 -162 49l61 96q42 -34 109 -34q78 0 117 55t61 172l131 707h-221v108h240l57 311q11 59 30.5 108t53 95t87 72t122.5 26q101 0 184 -61l-65 -92q-60 43 -119 43q-137 0 -170 -184l-58 -318h222v-108h-240z" />
    <glyph glyph-name="Scommaaccent" unicode="&#x218;" horiz-adv-x="1210" 
d="M219 1102q-2 -34 3.5 -63.5t15.5 -52t29.5 -43t38.5 -34.5t50 -28t55.5 -22.5t63 -18t65.5 -15.5t70 -14q70 -14 109 -22.5t102.5 -27.5t99.5 -39t81 -54.5t67.5 -75.5t37 -100.5t11.5 -131.5q-4 -92 -49.5 -166t-118.5 -120t-162.5 -70t-187.5 -24q-111 0 -213 30.5
t-185.5 95t-123.5 154.5l110 49q44 -100 160.5 -154.5t255.5 -54.5q74 0 141 16.5t122 48.5t90 83.5t40 116.5q3 40 -3 74t-16 60.5t-32 49.5t-41 39.5t-54 32.5t-59 25t-68 20.5t-70 17.5t-74 16q-67 14 -104 22.5t-96.5 26.5t-93.5 36t-75.5 48.5t-63 66.5t-35.5 88
t-12 114q4 117 78 202.5t184.5 125.5t239.5 40q170 0 312 -70.5t200 -201.5l-108 -49q-42 97 -156 150t-248 53q-98 0 -180.5 -26t-139.5 -84.5t-63 -139.5zM680 -156l-125 -340h-119l103 340h141z" />
    <glyph glyph-name="scommaaccent" unicode="&#x219;" horiz-adv-x="901" 
d="M70 199l88 55q59 -80 143 -122t178 -42q100 0 168.5 46.5t67.5 146.5q-1 41 -16.5 73.5t-37.5 52.5t-57.5 35t-64 22.5t-68.5 14.5q-62 11 -105.5 22t-97.5 34t-87 53t-56 78.5t-23 111.5q0 77 34.5 137t91 94.5t120.5 52t131 17.5q85 0 163.5 -27t133.5 -79l-74 -86
q-79 82 -223 82q-45 0 -88 -9.5t-84 -30t-66.5 -60t-25.5 -91.5q1 -40 20.5 -71t42 -49t67 -33.5t67.5 -20.5t70 -14q7 -1 10 -2q55 -10 99.5 -23.5t90 -38t76.5 -56.5t50.5 -80.5t20.5 -108.5q0 -101 -51.5 -170.5t-128 -100t-170.5 -32.5q-126 -3 -233.5 53.5
t-175.5 165.5zM551 -172l-113 -307h-106l92 307h127z" />
    <glyph glyph-name="uni021A" unicode="&#x21a;" horiz-adv-x="1144" 
d="M1116 1450v-117h-483v-1333h-121v1333h-483v117h1087zM653 -156l-125 -340h-118l102 340h141z" />
    <glyph glyph-name="uni021B" unicode="&#x21b;" horiz-adv-x="538" 
d="M406 -156l-115 -313h-111l94 313h132zM510 86v-102q-184 -30 -280.5 64.5t-96.5 273.5v981h100l15 -242h229v-103h-229v-636q0 -58 13 -104t42 -81t81.5 -49t125.5 -2z" />
    <glyph glyph-name="circumflex" unicode="&#x2c6;" horiz-adv-x="536" 
d="M330 1780l211 -232h-129l-154 160l-143 -160h-131l211 232h135z" />
    <glyph glyph-name="caron" unicode="&#x2c7;" horiz-adv-x="526" 
d="M184 1548l-221 232h135l162 -156l152 156h137l-221 -232h-144z" />
    <glyph glyph-name="breve" unicode="&#x2d8;" horiz-adv-x="491" 
d="M373 1780h96q0 -108 -68 -174t-180 -66t-180 66t-68 174h97q0 -63 42 -102.5t109 -39.5t109.5 39.5t42.5 102.5z" />
    <glyph glyph-name="dotaccent" unicode="&#x2d9;" horiz-adv-x="491" 
d="M160 1665q0 40 26 66t66 26t66 -26t26 -66t-26 -66t-66 -26t-66 26t-26 66z" />
    <glyph glyph-name="ring" unicode="&#x2da;" horiz-adv-x="491" 
d="M57 1694q0 76 56.5 131t134.5 55t134 -55t56 -131q0 -77 -56 -132t-134 -55t-134.5 55.5t-56.5 131.5zM356 1694q0 47 -32 80.5t-76 33.5q-47 0 -80 -33.5t-33 -80.5t33 -81t80 -34q44 0 76 34t32 81z" />
    <glyph glyph-name="ogonek" unicode="&#x2db;" horiz-adv-x="491" 
d="M350 -340l33 -92q-75 -68 -174 -68q-76 0 -122 49.5t-46 128.5q0 69 51.5 164.5t124.5 167.5l76 -10q-76 -86 -113.5 -170t-32.5 -135q4 -46 35.5 -69.5t78 -15t89.5 49.5z" />
    <glyph glyph-name="tilde" unicode="&#x2dc;" horiz-adv-x="555" 
d="M78 1597l-82 29q12 72 56.5 113t111.5 41q29 0 61 -15.5t55.5 -34t52 -34t50.5 -15.5q60 0 78 76l80 -31q-19 -70 -60.5 -109.5t-97.5 -39.5q-40 0 -80 24.5t-77.5 49t-69.5 24.5q-53 0 -78 -78z" />
    <glyph glyph-name="hungarumlaut" unicode="&#x2dd;" horiz-adv-x="559" 
d="M315 1780l-161 -232h-82l100 232h143zM573 1780l-161 -232h-82l100 232h143z" />
    <glyph glyph-name="uni0326" unicode="&#x326;" horiz-adv-x="0" 
d="M406 -156l-125 -340h-119l102 340h142z" />
    <glyph glyph-name="uni03A9" unicode="&#x3a9;" horiz-adv-x="1591" 
d="M430 111v6q-140 113 -227.5 280.5t-87.5 376.5q0 206 93.5 365t250 243t348.5 84q146 0 272.5 -54t213 -146.5t135.5 -218t49 -265.5q0 -217 -89 -390t-223 -275v-6h338v-111h-549v76q178 102 290 287.5t112 418.5q0 104 -38 205.5t-106.5 184t-175.5 133.5t-233 51
q-162 0 -291 -75.5t-201.5 -209.5t-72.5 -301q0 -216 112.5 -395t296.5 -299v-76h-557v111h340z" />
    <glyph glyph-name="uni03BC" unicode="&#x3bc;" horiz-adv-x="1093" 
d="M956 0h-118q-3 122 -9 147h-6q-37 -79 -123 -125.5t-200 -46.5q-155 0 -240 117v-559h-121v1516h123v-660q0 -303 238 -303q144 0 235.5 100t91.5 287v576h123z" />
    <glyph glyph-name="pi" unicode="&#x3c0;" horiz-adv-x="1140" 
d="M1030 106l2 -108q-128 6 -179.5 78.5t-51.5 208.5v682h-426v-967h-113v967q-142 0 -217 -27l-22 82q83 51 266 51h801l-13 -106h-157v-670q0 -106 23 -150t87 -41z" />
    <glyph glyph-name="uni0401" unicode="&#x401;" horiz-adv-x="1165" 
d="M375 1665q0 35 24.5 59.5t59.5 24.5t59.5 -24.5t24.5 -59.5t-24.5 -59.5t-59.5 -24.5t-59.5 24.5t-24.5 59.5zM743 1665q0 35 24.5 59.5t59.5 24.5t59.5 -24.5t24.5 -59.5t-24.5 -59.5t-59.5 -24.5t-59.5 24.5t-24.5 59.5zM283 1329v-543h727v-122h-727v-543h788v-121
h-909v1450h909v-121h-788z" />
    <glyph glyph-name="uni0410" unicode="&#x410;" horiz-adv-x="1247" 
d="M711 1450l524 -1450h-127l-174 483h-623l-170 -483h-127l521 1450h176zM623 1360l-269 -756h537z" />
    <glyph glyph-name="uni0411" unicode="&#x411;" horiz-adv-x="1255" 
d="M283 838h426q235 0 355.5 -102.5t119.5 -325.5q0 -112 -36 -193t-102 -127.5t-149.5 -68t-189.5 -21.5h-545v1450h913v-119h-792v-493zM283 119h428q81 -1 143 13t111 46.5t74.5 91t25.5 142.5q0 160 -88.5 236.5t-271.5 76.5h-422v-606z" />
    <glyph glyph-name="uni0412" unicode="&#x412;" horiz-adv-x="1284" 
d="M971 772q121 -42 173 -135.5t52 -233.5q-2 -109 -39.5 -188.5t-104 -125.5t-151 -67.5t-190.5 -21.5h-549v1450h551q116 0 207.5 -39t148.5 -123.5t57 -204.5q0 -222 -155 -311zM283 829h430q136 0 216.5 61.5t80.5 192.5q0 67 -23 116t-64.5 76.5t-93.5 40.5t-116 13
h-430v-500zM283 121h430q83 -2 146 11t113.5 44.5t76.5 89t26 140.5q0 164 -92.5 234.5t-269.5 68.5h-430v-588z" />
    <glyph glyph-name="uni0413" unicode="&#x413;" horiz-adv-x="1052" 
d="M281 0h-119v1450h860v-119h-741v-1331z" />
    <glyph glyph-name="uni0414" unicode="&#x414;" horiz-adv-x="1376" 
d="M1309 -285h-117v285h-1057v-285h-115v404h48q137 20 196.5 201t91.5 622l37 508h776v-1331h140v-404zM498 1331l-33 -491q-21 -296 -66.5 -471t-126.5 -250h777v1212h-551z" />
    <glyph glyph-name="uni0415" unicode="&#x415;" horiz-adv-x="1165" 
d="M283 1329v-543h727v-122h-727v-543h788v-121h-909v1450h909v-121h-788z" />
    <glyph glyph-name="uni0416" unicode="&#x416;" horiz-adv-x="1837" 
d="M1661 0l-535 682l-147 -160v-522h-119v522l-147 160l-535 -682h-158l601 762l-609 688h160l688 -778v778h119v-778l686 778h162l-608 -688l598 -762h-156z" />
    <glyph glyph-name="uni0417" unicode="&#x417;" horiz-adv-x="1099" 
d="M535 1470q188 0 296.5 -105t108.5 -284q0 -106 -40.5 -179t-137.5 -128q137 -55 191.5 -147.5t54.5 -223.5q-2 -111 -39.5 -193.5t-103.5 -132t-150 -73.5t-187 -24q-337 0 -487 243l109 58q129 -183 382 -183q164 -2 260.5 73.5t96.5 234.5q0 309 -357 309h-188v108h188
q133 0 212 63.5t79 192.5q0 133 -81 203t-214 70q-218 0 -333 -144l-101 54q141 208 441 208z" />
    <glyph glyph-name="uni0418" unicode="&#x418;" horiz-adv-x="1396" 
d="M1116 1255h-2l-82 -131l-715 -1124h-155v1450h119v-1122l-2 -164h2l96 149l715 1137h143v-1450h-119v1255z" />
    <glyph glyph-name="uni0419" unicode="&#x419;" horiz-adv-x="1396" 
d="M913 1886h119q-18 -134 -108.5 -212.5t-218.5 -78.5q-130 0 -220.5 78.5t-107.5 212.5h119q41 -178 209 -178q167 0 208 178zM1116 1255h-2l-76 -120l-721 -1135h-155v1450h119v-1286h2l809 1286h143v-1450h-119v1255z" />
    <glyph glyph-name="uni041A" unicode="&#x41a;" horiz-adv-x="1261" 
d="M283 1450v-797l811 797h155l-698 -698l694 -752h-155l-625 666l-182 -183v-483h-121v1450h121z" />
    <glyph glyph-name="uni041B" unicode="&#x41b;" horiz-adv-x="1341" 
d="M1059 1331h-555l-35 -512q-8 -119 -14.5 -191t-21.5 -169.5t-34.5 -155.5t-53 -123t-77.5 -99.5t-108.5 -57.5t-145.5 -23v119q164 0 236 134q58 106 81 363q5 57 19 265l39 569h791v-1450h-121v1331z" />
    <glyph glyph-name="uni041C" unicode="&#x41c;" horiz-adv-x="1644" 
d="M766 199l-483 1083v-1282h-121v1450h176l485 -1096l484 1096h176v-1450h-121v1282l-481 -1083h-115z" />
    <glyph glyph-name="uni041D" unicode="&#x41d;" horiz-adv-x="1411" 
d="M283 670v-670h-121v1450h121v-666h845v666h121v-1450h-121v670h-845z" />
    <glyph glyph-name="uni041E" unicode="&#x41e;" horiz-adv-x="1361" 
d="M119 418v618q0 105 48 189.5t128 136.5t179.5 80t207.5 28t207 -28t178.5 -80t127.5 -136.5t48 -189.5v-618q0 -105 -48 -190.5t-127.5 -138.5t-179 -81t-206.5 -28q-108 0 -207.5 28t-179.5 81t-128 138.5t-48 190.5zM238 1034v-616q0 -102 65 -176.5t164 -109
t215 -34.5q115 0 213.5 34.5t164.5 109t66 176.5v616q0 65 -25 119t-68 90.5t-100.5 62t-121 37t-131.5 11.5q-86 -1 -163.5 -20.5t-140.5 -57.5t-100.5 -100.5t-37.5 -141.5z" />
    <glyph glyph-name="uni041F" unicode="&#x41f;" horiz-adv-x="1372" 
d="M162 0v1450h1048v-1450h-118v1331h-811v-1331h-119z" />
    <glyph glyph-name="uni0420" unicode="&#x420;" horiz-adv-x="1255" 
d="M283 0h-121v1450h547q103 0 189.5 -31t142.5 -83.5t95 -120.5t47.5 -143.5t0 -150.5t-47.5 -143t-94.5 -120.5t-141.5 -83.5t-189 -31h-428v-543zM283 664h426q100 0 177.5 37t117.5 96t58 130.5t-1 142.5t-59.5 129.5t-117.5 94.5t-175 35h-426v-665z" />
    <glyph glyph-name="uni0421" unicode="&#x421;" horiz-adv-x="1214" 
d="M121 420v610q0 85 30.5 157.5t83.5 123.5t122.5 87.5t148 54t160.5 17.5q105 0 200 -27.5t173.5 -87.5t119.5 -145l-108 -53v-2q-48 93 -156 144t-236 51q-108 0 -201 -34.5t-154.5 -109t-61.5 -176.5v-610q0 -102 61.5 -176.5t154.5 -109t201 -34.5q128 0 236 51
t156 144l108 -53q-61 -126 -199 -194t-301 -68q-103 0 -198 28t-171.5 81.5t-122.5 139t-46 191.5z" />
    <glyph glyph-name="uni0422" unicode="&#x422;" horiz-adv-x="1144" 
d="M1116 1450v-117h-483v-1333h-121v1333h-483v117h1087z" />
    <glyph glyph-name="uni0423" unicode="&#x423;" horiz-adv-x="1042" 
d="M467 453l-487 997h141l405 -860h4l388 860h126l-653 -1450h-129z" />
    <glyph glyph-name="uni0424" unicode="&#x424;" horiz-adv-x="1480" 
d="M801 1450v-152q94 0 174.5 -10.5t158 -37t132 -67.5t87.5 -108t33 -153v-394q0 -86 -33 -152.5t-87.5 -107.5t-132 -67.5t-158 -36.5t-174.5 -10v-154h-121v154q-94 0 -174.5 10t-158.5 36.5t-132.5 67.5t-87.5 107.5t-33 152.5v394q0 86 33 153t87.5 108t132 67.5
t158.5 37t175 10.5v152h121zM680 264l2 924q-469 0 -469 -266v-394q0 -64 27.5 -112.5t71 -77t107.5 -45.5t125.5 -23t135.5 -6zM801 1188v-924q74 0 135.5 6t125.5 23t107.5 45.5t71 77t27.5 112.5v394q0 266 -467 266z" />
    <glyph glyph-name="uni0425" unicode="&#x425;" horiz-adv-x="1173" 
d="M659 723l496 -723h-145l-422 629l-424 -629h-146l498 723l-493 727h141l424 -621l422 621h143z" />
    <glyph glyph-name="uni0426" unicode="&#x426;" horiz-adv-x="1394" 
d="M1327 -285h-121v285h-1046v1450h119v-1331h788v1331h121v-1331h139v-404z" />
    <glyph glyph-name="uni0427" unicode="&#x427;" horiz-adv-x="1230" 
d="M948 0v641q-169 -166 -381 -166q-135 0 -239.5 46.5t-169 147t-64.5 244.5v537h119v-537q0 -158 99 -238.5t255 -80.5q130 0 219 44t162 122v690h121v-1450h-121z" />
    <glyph glyph-name="uni0428" unicode="&#x428;" horiz-adv-x="1796" 
d="M162 1450h119v-1331h557v1331h120v-1331h558v1331h118v-1450h-1472v1450z" />
    <glyph glyph-name="uni0429" unicode="&#x429;" horiz-adv-x="1839" 
d="M1769 -285h-118v285h-1493v1450h118v-1331h558v1331h120v-1331h557v1331h121v-1331h137v-404z" />
    <glyph glyph-name="uni042A" unicode="&#x42a;" horiz-adv-x="1374" 
d="M414 870h417q235 0 356 -109t120 -345q-1 -111 -37 -193t-102 -130t-150.5 -70.5t-190.5 -22.5h-532v1337h-262v113h381v-580zM414 119h420q168 0 261 69.5t93 231.5q0 173 -90 256.5t-273 83.5h-411v-641z" />
    <glyph glyph-name="uni042B" unicode="&#x42b;" horiz-adv-x="1675" 
d="M281 870h415q236 0 357.5 -109t120.5 -345q-1 -111 -37.5 -193t-102.5 -130t-150.5 -70.5t-189.5 -22.5h-532v1450h119v-580zM1397 1450h116v-1450h-116v1450zM281 119h419q80 0 142 15t110.5 49t74.5 93.5t26 143.5q0 173 -89 256.5t-272 83.5h-411v-641z" />
    <glyph glyph-name="uni042C" unicode="&#x42c;" horiz-adv-x="1243" 
d="M281 870h415q236 0 357.5 -109t120.5 -345q-1 -111 -37.5 -193t-102.5 -130t-150.5 -70.5t-189.5 -22.5h-532v1450h119v-580zM281 119h419q80 0 142 15t110.5 49t74.5 93.5t26 143.5q0 173 -89 256.5t-272 83.5h-411v-641z" />
    <glyph glyph-name="uni042D" unicode="&#x42d;" horiz-adv-x="1208" 
d="M555 1470q104 0 199.5 -28.5t170.5 -82t120 -138t45 -187.5v-618q0 -104 -45.5 -188t-121.5 -136t-169.5 -80t-194.5 -28q-156 0 -291 67t-200 191l106 51q52 -92 157.5 -141.5t227.5 -49.5q106 0 197 33.5t152 106.5t61 174v250h-664v118h664v250q0 101 -61 175
t-152.5 108.5t-196.5 34.5q-122 0 -228 -51.5t-157 -143.5l-106 57q65 124 198 190t289 66z" />
    <glyph glyph-name="uni042E" unicode="&#x42e;" horiz-adv-x="1869" 
d="M1188 1470q86 0 166.5 -16.5t153 -52t126.5 -86t85.5 -122.5t31.5 -157v-618q0 -85 -31.5 -157.5t-85.5 -123.5t-126.5 -87t-153.5 -53t-166 -17q-108 0 -207 28t-178.5 80.5t-127.5 138t-48 191.5v258h-351v-676h-118v1450h118v-659h351v245q0 105 48 190t128 137
t178.5 79.5t206.5 27.5zM1186 1354q-85 -1 -162.5 -20.5t-140.5 -57.5t-100.5 -100.5t-37.5 -141.5v-616q0 -102 65.5 -176.5t164 -109t213.5 -34.5t213.5 34.5t164.5 109t66 176.5v616q0 65 -25 119t-68 90.5t-100.5 62t-121 37t-131.5 11.5z" />
    <glyph glyph-name="uni042F" unicode="&#x42f;" horiz-adv-x="1261" 
d="M981 610h-268l-520 -610h-158l524 610q-100 3 -182.5 27t-149 71t-104 126t-37.5 184q0 205 129.5 318.5t357.5 113.5h527v-1450h-121zM979 1333h-414q-174 1 -266 -82t-92 -233q0 -78 30 -136.5t83 -93t117.5 -51t140.5 -16.5h403z" />
    <glyph glyph-name="uni0430" unicode="&#x430;" horiz-adv-x="1005" 
d="M764 584v159q0 73 -43.5 126t-108.5 77.5t-141 24.5q-82 0 -155 -28t-113 -79l-78 74q63 69 159 106t199 37q105 0 193 -37t145.5 -115.5t57.5 -185.5v-696q-207 -70 -435 -67q-164 2 -267 85t-103 242q1 70 24 126.5t61.5 94t91 63.5t110 37t120.5 11q151 0 283 -55z
M764 113v376q-135 52 -279 52q-62 0 -112.5 -12t-93 -38t-66.5 -73t-25 -111q0 -115 71 -169t192 -56q175 -3 313 31z" />
    <glyph glyph-name="uni0431" unicode="&#x431;" horiz-adv-x="1024" 
d="M813 1485l39 -96q-103 -68 -328 -93q-273 -31 -276 -227l-2 -188q131 110 297 110q162 0 267 -85.5t105 -246.5v-346q0 -81 -33.5 -146t-89 -105t-124 -61t-142.5 -21q-75 0 -144.5 21t-125.5 61t-89.5 105t-33.5 146v756q0 65 22 119t59 91t87.5 64t104 41.5t112.5 20.5
q186 20 295 80zM532 883q-150 0 -286 -109v-461q0 -56 24.5 -100t65 -70t89.5 -39.5t101 -13.5q51 0 99 13.5t88.5 39.5t65 70t24.5 100v346q0 59 -22.5 103t-61.5 70t-86 38.5t-101 12.5z" />
    <glyph glyph-name="uni0432" unicode="&#x432;" horiz-adv-x="1011" 
d="M139 1061h406q157 0 246.5 -69.5t89.5 -200.5q0 -151 -133 -230q174 -64 174 -264q0 -79 -28.5 -137.5t-79.5 -92.5t-115.5 -50.5t-143.5 -16.5h-416v1061zM252 592h293q96 0 159.5 46t63.5 140q0 180 -223 180h-293v-366zM252 102h291q59 0 104.5 9t83 30.5t58 62
t20.5 97.5q0 112 -65 157.5t-197 45.5h-295v-402z" />
    <glyph glyph-name="uni0433" unicode="&#x433;" horiz-adv-x="792" 
d="M252 0h-113v1061h627v-109h-514v-952z" />
    <glyph glyph-name="uni0434" unicode="&#x434;" horiz-adv-x="1110" 
d="M1055 -250h-111v250h-809v-250h-110v361h32q40 3 69 18.5t50.5 50t35 73t24 109t16.5 135.5t14 173l29 391h635v-950h125v-361zM399 950l-26 -354q-26 -390 -119 -485h563v839h-418z" />
    <glyph glyph-name="uni0435" unicode="&#x435;" 
d="M223 465v-146q0 -111 84 -170t203 -59q90 0 164.5 36t105.5 105l103 -47q-30 -66 -90 -113t-132 -69t-151 -22q-77 0 -148 22t-129 63t-92.5 108.5t-34.5 150.5v413q0 83 34.5 150.5t92.5 108.5t129 63t148 22q76 0 146.5 -22t128 -63t92 -108.5t34.5 -150.5v-272h-688z
M797 565v180q0 73 -42.5 126t-106 76.5t-138.5 23.5q-119 0 -203.5 -58.5t-83.5 -167.5v-180h574z" />
    <glyph glyph-name="uni0436" unicode="&#x436;" horiz-adv-x="1476" 
d="M1298 0l-403 514l-102 -100v-414h-111v414l-100 100l-404 -514h-139l459 586l-463 475h143l504 -518v518h111v-518l503 518h146l-463 -475l459 -586h-140z" />
    <glyph glyph-name="uni0437" unicode="&#x437;" horiz-adv-x="899" 
d="M432 1081q165 0 251.5 -78.5t86.5 -209.5q0 -80 -41 -140t-104 -88q88 -25 138 -95.5t50 -174.5q-1 -78 -31.5 -139.5t-82.5 -99t-117.5 -57t-139.5 -19.5q-129 0 -220 44.5t-156 141.5l96 49q100 -133 268 -133q58 0 105 11t85 35.5t59 67t21 101.5q0 117 -65 165
t-199 48h-166v88h160q97 0 162 50t65 145q0 186 -227 186q-90 0 -151 -28.5t-109 -90.5l-84 45q59 87 149 131.5t197 44.5z" />
    <glyph glyph-name="uni0438" unicode="&#x438;" horiz-adv-x="1071" 
d="M819 752l4 159h-4l-80 -143l-456 -768h-144v1061h113v-760l-2 -154h4l78 146l450 768h150v-1061h-113v752z" />
    <glyph glyph-name="uni0439" unicode="&#x439;" horiz-adv-x="1071" 
d="M682 1409h104q-13 -101 -81.5 -159t-153.5 -58q-86 0 -155 58t-83 159h105q13 -52 50.5 -81.5t82.5 -29.5q43 0 80.5 29.5t50.5 81.5zM819 752l4 159h-4l-80 -143l-456 -768h-144v1061h113v-760l-2 -154h4l78 146l450 768h150v-1061h-113v752z" />
    <glyph glyph-name="uni043A" unicode="&#x43a;" horiz-adv-x="974" 
d="M797 0l-402 500l-143 -144v-356h-113v1061h113v-555l543 555h145l-465 -481l461 -580h-139z" />
    <glyph glyph-name="uni043B" unicode="&#x43b;" horiz-adv-x="1054" 
d="M803 950h-402l-28 -403q-17 -220 -35 -298q-35 -154 -133 -209q-70 -40 -182 -40v113q62 0 102 19.5t64 44.5t39 97t20.5 126t15.5 182q1 17 2 26l33 453h616v-1061h-112v950z" />
    <glyph glyph-name="uni043C" unicode="&#x43c;" horiz-adv-x="1286" 
d="M1034 754l2 125h-2l-350 -717h-84l-346 717h-2l2 -136l-2 -743h-113v1061h144l360 -748l361 748h143v-1061h-113v754z" />
    <glyph glyph-name="uni043D" unicode="&#x43d;" horiz-adv-x="1058" 
d="M807 500h-555v-500h-113v1061h113v-451h555v451h113v-1061h-113v500z" />
    <glyph glyph-name="uni043E" unicode="&#x43e;" horiz-adv-x="1017" 
d="M106 326v409q0 83 34.5 150.5t92.5 109t129 63.5t148 23q77 -1 147.5 -23t128 -63.5t91.5 -108.5t34 -151v-409q0 -84 -34 -151t-91.5 -108.5t-128 -63.5t-147.5 -23q-77 1 -148 23t-129 63.5t-92.5 109t-34.5 150.5zM510 971q-74 0 -137 -22.5t-107.5 -76.5t-44.5 -131
v-419q0 -77 44.5 -131.5t107.5 -77.5t137 -23q53 0 103 14t91.5 41t67 73t25.5 104v419q0 77 -44.5 131t-107 76.5t-135.5 22.5z" />
    <glyph glyph-name="uni043F" unicode="&#x43f;" horiz-adv-x="1052" 
d="M801 950h-549v-950h-113v1061h774v-1061h-112v950z" />
    <glyph glyph-name="uni0440" unicode="&#x440;" horiz-adv-x="1077" 
d="M154 -391v1399q207 71 409 71q76 -1 146 -22.5t127 -62.5t91 -107.5t34 -149.5v-411q0 -108 -59.5 -188.5t-150 -119t-194.5 -38.5q-146 0 -289 65v-436h-114zM268 936v-789q144 -59 291 -59q117 2 201 61t84 166v433q0 107 -83 165t-198 58q-195 0 -295 -35z" />
    <glyph glyph-name="uni0441" unicode="&#x441;" horiz-adv-x="952" 
d="M870 899l-96 -57q-34 63 -106 96t-160 33q-75 0 -138 -22.5t-106 -75.5t-43 -128v-430q0 -56 24.5 -100.5t65.5 -71t91.5 -40t105.5 -13.5q99 0 177 42t101 122l105 -47q-39 -110 -145.5 -168.5t-237.5 -58.5q-76 0 -147 22t-128.5 63t-92 108.5t-34.5 150.5v413
q0 83 34.5 150.5t92 108.5t128.5 63t147 22q115 0 213 -46.5t149 -135.5z" />
    <glyph glyph-name="uni0442" unicode="&#x442;" horiz-adv-x="858" 
d="M485 0h-112v950h-344v111h800v-111h-344v-950z" />
    <glyph glyph-name="uni0443" unicode="&#x443;" horiz-adv-x="1095" 
d="M182 -279l80 74q100 -106 279 -106q126 0 212.5 67.5t86.5 190.5v102q-61 -39 -132.5 -53t-162.5 -16q-79 -1 -153 22.5t-132.5 67.5t-93.5 112.5t-35 151.5v727h119v-731q0 -111 88 -176.5t205 -67.5q150 0 297 64v911h116v-1114q0 -90 -33.5 -162t-91 -116
t-130.5 -67.5t-156 -23.5q-105 0 -203 37.5t-160 105.5z" />
    <glyph glyph-name="uni0444" unicode="&#x444;" horiz-adv-x="1402" 
d="M758 1450v-397q22 11 74.5 19.5t91.5 8.5q90 0 172.5 -36t140 -114t57.5 -183v-435q0 -105 -57.5 -183t-140 -114t-172.5 -36q-39 0 -90.5 8.5t-75.5 19.5v-389h-113l-2 389q-22 -11 -73.5 -19.5t-92.5 -8.5q-89 0 -171 36t-139.5 114t-57.5 183v435q0 105 57.5 183
t139.5 114t171 36q40 0 92 -8t76 -20v397h113zM500 973q-69 0 -131.5 -24.5t-105 -77.5t-42.5 -123v-435q0 -70 42.5 -123t105 -77.5t131.5 -24.5q79 0 145 25v835q-66 25 -145 25zM903 973q-83 0 -145 -25v-835q62 -25 145 -25q108 0 193.5 61t85.5 164v435
q0 103 -85.5 164t-193.5 61z" />
    <glyph glyph-name="uni0445" unicode="&#x445;" horiz-adv-x="948" 
d="M907 1061l-364 -531l364 -530h-139l-293 446l-295 -446h-139l365 530l-365 531h139l295 -449l293 449h139z" />
    <glyph glyph-name="uni0446" unicode="&#x446;" horiz-adv-x="1081" 
d="M1028 -250h-113v250h-778v1061h113v-950h541v950h110v-950h127v-361z" />
    <glyph glyph-name="uni0447" unicode="&#x447;" horiz-adv-x="978" 
d="M727 0v414q-125 -90 -272 -90q-73 0 -138 20t-118 60t-84 106.5t-31 151.5v399h111v-397q0 -116 75 -173t185 -57q157 0 272 82v545h113v-1061h-113z" />
    <glyph glyph-name="uni0448" unicode="&#x448;" horiz-adv-x="1478" 
d="M252 111h432v950h111v-950h432v950h112v-1061h-1200v1061h113v-950z" />
    <glyph glyph-name="uni0449" unicode="&#x449;" horiz-adv-x="1517" 
d="M1462 -250h-112v250h-1213v1061h113v-950h432v950h111v-950h432v950h112v-950h125v-361z" />
    <glyph glyph-name="uni044A" unicode="&#x44a;" horiz-adv-x="1087" 
d="M350 649h344q157 0 245.5 -85.5t88.5 -244.5q0 -158 -101 -238.5t-263 -80.5h-424v958h-205v103h315v-412zM350 104h299q120 0 193 51.5t73 163.5q0 122 -71 174t-195 54h-299v-443z" />
    <glyph glyph-name="uni044B" unicode="&#x44b;" horiz-adv-x="1386" 
d="M252 649h342q157 0 246.5 -85.5t89.5 -244.5q0 -158 -101.5 -238.5t-263.5 -80.5h-426v1061h113v-412zM1135 1061h112v-1061h-112v1061zM252 104h299q119 0 192.5 52t73.5 163q0 224 -268 228h-297v-443z" />
    <glyph glyph-name="uni044C" unicode="&#x44c;" horiz-adv-x="989" 
d="M252 649h342q157 0 246.5 -85.5t89.5 -244.5q0 -158 -101.5 -238.5t-263.5 -80.5h-426v1061h113v-412zM252 104h299q119 0 192.5 52t73.5 163q0 224 -268 228h-297v-443z" />
    <glyph glyph-name="uni044D" unicode="&#x44d;" horiz-adv-x="937" 
d="M438 1079q101 0 188 -36t145 -113.5t58 -184.5v-428q0 -81 -33.5 -146.5t-89.5 -106t-124.5 -61.5t-143.5 -21q-122 0 -225 57.5t-147 165.5l104 51q28 -79 102.5 -120.5t165.5 -41.5q73 0 134.5 22.5t103 73.5t41.5 123v172h-445v99h445v164q0 72 -41.5 123.5
t-103.5 74.5t-134 23q-184 0 -262 -123l-90 55q55 88 149 133t203 45z" />
    <glyph glyph-name="uni044E" unicode="&#x44e;" horiz-adv-x="1441" 
d="M944 1081q101 -1 187.5 -37t144 -113t57.5 -183v-435q0 -81 -33 -145.5t-88.5 -104.5t-124 -61t-143.5 -22q-76 1 -145 22t-125 61t-89.5 104.5t-33.5 145.5v193h-303v-506h-113v1061h113v-449h303v136q0 106 58 183t145.5 113t189.5 37zM944 969q-72 0 -133 -21.5
t-104 -73.5t-43 -126v-435q0 -56 24.5 -100t65 -70t89.5 -39.5t101 -13.5q51 0 99 13.5t88.5 39.5t65 70t24.5 100v435q0 56 -24.5 100t-65 69.5t-88.5 38.5t-99 13z" />
    <glyph glyph-name="uni044F" unicode="&#x44f;" horiz-adv-x="1005" 
d="M754 444h-215l-353 -444h-137l354 444q-135 5 -221 84t-86 215q0 159 90.5 238.5t253.5 79.5h426v-1061h-112v444zM754 954h-310q-115 0 -174 -50t-59 -163q0 -105 68.5 -154.5t185.5 -49.5h289v417z" />
    <glyph glyph-name="uni0451" unicode="&#x451;" 
d="M242 1296q0 35 24.5 59.5t59.5 24.5t59.5 -24.5t24.5 -59.5t-24.5 -59.5t-59.5 -24.5t-59.5 24.5t-24.5 59.5zM610 1296q0 35 24.5 59.5t59.5 24.5t59.5 -24.5t24.5 -59.5t-24.5 -59.5t-59.5 -24.5t-59.5 24.5t-24.5 59.5zM223 465v-146q0 -111 84 -170t203 -59
q90 0 164.5 36t105.5 105l103 -47q-30 -66 -90 -113t-132 -69t-151 -22q-77 0 -148 22t-129 63t-92.5 108.5t-34.5 150.5v413q0 83 34.5 150.5t92.5 108.5t129 63t148 22q76 0 146.5 -22t128 -63t92 -108.5t34.5 -150.5v-272h-688zM797 565v180q0 73 -42.5 126t-106 76.5
t-138.5 23.5q-119 0 -203.5 -58.5t-83.5 -167.5v-180h574z" />
    <glyph glyph-name="Wgrave" unicode="&#x1e80;" horiz-adv-x="1927" 
d="M930 1548l-189 232h164l144 -232h-119zM1391 90l381 1360h126l-419 -1450h-176l-338 1069l-340 -1069h-176l-420 1450h127l381 -1360l368 1170h117z" />
    <glyph glyph-name="wgrave" unicode="&#x1e81;" horiz-adv-x="1480" 
d="M707 1159l-189 232h164l143 -232h-118zM520 0h-164l-319 1061h121l280 -942l230 942h145l229 -942l281 942h121l-320 -1061h-163l-220 907z" />
    <glyph glyph-name="Wacute" unicode="&#x1e82;" horiz-adv-x="1927" 
d="M1176 1780l-187 -232h-119l142 232h164zM1391 90l381 1360h126l-419 -1450h-176l-338 1069l-340 -1069h-176l-420 1450h127l381 -1360l368 1170h117z" />
    <glyph glyph-name="wacute" unicode="&#x1e83;" horiz-adv-x="1480" 
d="M952 1391l-186 -232h-119l141 232h164zM520 0h-164l-319 1061h121l280 -942l230 942h145l229 -942l281 942h121l-320 -1061h-163l-220 907z" />
    <glyph glyph-name="Wdieresis" unicode="&#x1e84;" horiz-adv-x="1927" 
d="M696 1665q0 35 24.5 59.5t59.5 24.5t59.5 -24.5t24.5 -59.5t-24.5 -59.5t-59.5 -24.5t-59.5 24.5t-24.5 59.5zM1065 1665q0 35 24.5 59.5t59.5 24.5t59.5 -24.5t24.5 -59.5t-24.5 -59.5t-59.5 -24.5t-59.5 24.5t-24.5 59.5zM1391 90l381 1360h126l-419 -1450h-176
l-338 1069l-340 -1069h-176l-420 1450h127l381 -1360l368 1170h117z" />
    <glyph glyph-name="wdieresis" unicode="&#x1e85;" horiz-adv-x="1480" 
d="M473 1276q0 35 24.5 59.5t59.5 24.5t59.5 -24.5t24.5 -59.5t-24.5 -59.5t-59.5 -24.5t-59.5 24.5t-24.5 59.5zM842 1276q0 35 24.5 59.5t59.5 24.5t59.5 -24.5t24.5 -59.5t-24.5 -59.5t-59.5 -24.5t-59.5 24.5t-24.5 59.5zM520 0h-164l-319 1061h121l280 -942l230 942
h145l229 -942l281 942h121l-320 -1061h-163l-220 907z" />
    <glyph glyph-name="Ygrave" unicode="&#x1ef2;" horiz-adv-x="1144" 
d="M539 1548l-189 232h164l143 -232h-118zM633 567v-567h-121v567l-504 883h142l423 -762l422 762h144z" />
    <glyph glyph-name="ygrave" unicode="&#x1ef3;" horiz-adv-x="1095" 
d="M510 1159l-188 232h163l144 -232h-119zM182 -279l80 74q100 -106 279 -106q126 0 212.5 67.5t86.5 190.5v102q-61 -39 -132.5 -53t-162.5 -16q-79 -1 -153 22.5t-132.5 67.5t-93.5 112.5t-35 151.5v727h119v-731q0 -111 88 -176.5t205 -67.5q150 0 297 64v911h116v-1114
q0 -90 -33.5 -162t-91 -116t-130.5 -67.5t-156 -23.5q-105 0 -203 37.5t-160 105.5z" />
    <glyph glyph-name="endash" unicode="&#x2013;" horiz-adv-x="1204" 
d="M1077 672v-117h-950v117h950z" />
    <glyph glyph-name="emdash" unicode="&#x2014;" horiz-adv-x="2088" 
d="M1962 672v-117h-1835v117h1835z" />
    <glyph glyph-name="quoteleft" unicode="&#x2018;" horiz-adv-x="444" 
d="M94 983l156 467h123l-131 -467h-148z" />
    <glyph glyph-name="quoteright" unicode="&#x2019;" horiz-adv-x="442" 
d="M375 1450l-158 -467h-121l129 467h150z" />
    <glyph glyph-name="quotesinglbase" unicode="&#x201a;" horiz-adv-x="430" 
d="M307 154l-157 -437h-121l129 437h149z" />
    <glyph glyph-name="quotedblleft" unicode="&#x201c;" horiz-adv-x="757" 
d="M92 983l158 467h121l-129 -467h-150zM406 983l157 467h121l-129 -467h-149z" />
    <glyph glyph-name="quotedblright" unicode="&#x201d;" horiz-adv-x="749" 
d="M375 1450l-158 -467h-121l129 467h150zM682 1450l-158 -467h-121l129 467h150z" />
    <glyph glyph-name="quotedblbase" unicode="&#x201e;" horiz-adv-x="761" 
d="M305 145l-158 -428h-120l129 428h149zM641 145l-158 -428h-121l130 428h149z" />
    <glyph glyph-name="dagger" unicode="&#x2020;" horiz-adv-x="1015" 
d="M53 944v109h393v397h123v-397h394v-109h-394v-1202h-123v1202h-393z" />
    <glyph glyph-name="daggerdbl" unicode="&#x2021;" horiz-adv-x="1148" 
d="M119 143v105h393v696h-393v107h393v399h123v-399h393v-107h-393v-696h393v-105h-393v-401h-123v401h-393z" />
    <glyph glyph-name="bullet" unicode="&#x2022;" horiz-adv-x="864" 
d="M135 725q0 123 87 210t210 87t210 -87t87 -210t-87 -210t-210 -87t-210 87t-87 210z" />
    <glyph glyph-name="ellipsis" unicode="&#x2026;" horiz-adv-x="1271" 
d="M111 86q0 41 28.5 69.5t69.5 28.5t69.5 -28.5t28.5 -69.5t-28.5 -69.5t-69.5 -28.5t-69.5 28.5t-28.5 69.5zM539 86q0 41 28.5 69.5t69.5 28.5t69.5 -28.5t28.5 -69.5t-28.5 -69.5t-69.5 -28.5t-69.5 28.5t-28.5 69.5zM965 86q0 41 28.5 69.5t69.5 28.5t69.5 -28.5
t28.5 -69.5t-28.5 -69.5t-69.5 -28.5t-69.5 28.5t-28.5 69.5z" />
    <glyph glyph-name="perthousand" unicode="&#x2030;" horiz-adv-x="2209" 
d="M291 -143l-103 61l1022 1618l101 -61zM676 1059q0 -179 -84.5 -284t-218.5 -105q-146 0 -224.5 101t-78.5 292q0 176 84.5 281.5t218.5 105.5q142 0 222.5 -103t80.5 -288zM557 1059q0 274 -186 274q-93 0 -137 -64.5t-44 -205.5q0 -145 44 -210t139 -65q184 0 184 271z
M1464 381q0 -178 -84 -282.5t-217 -104.5q-147 0 -225 100.5t-78 290.5q0 178 84 282.5t219 104.5q141 0 221 -102.5t80 -288.5zM2150 381q0 -178 -84 -282.5t-217 -104.5q-147 0 -225 100.5t-78 290.5q0 178 84 282.5t219 104.5q141 0 221 -102.5t80 -288.5zM1346 381
q0 139 -48.5 207.5t-138.5 68.5q-93 0 -136.5 -65t-43.5 -207q0 -145 44 -209.5t140 -64.5q183 0 183 270zM2032 381q0 139 -48.5 207.5t-138.5 68.5q-93 0 -136.5 -65t-43.5 -207q0 -145 44 -209.5t140 -64.5q183 0 183 270z" />
    <glyph glyph-name="guilsinglleft" unicode="&#x2039;" horiz-adv-x="550" 
d="M354 1020l99 -59l-244 -357l244 -356l-99 -60l-280 416z" />
    <glyph glyph-name="guilsinglright" unicode="&#x203a;" horiz-adv-x="550" 
d="M197 188l-99 60l244 356l-244 357l99 59l280 -416z" />
    <glyph glyph-name="fraction" unicode="&#x2044;" horiz-adv-x="1056" 
d="M1042 1462l-936 -1532l-92 58l934 1532z" />
    <glyph glyph-name="Euro" unicode="&#x20ac;" horiz-adv-x="1253" 
d="M199 870v154q0 107 42 193.5t113 140.5t159.5 83t184.5 29q148 0 275 -68.5t188 -195.5l-108 -53q-47 96 -144.5 146.5t-210.5 50.5q-98 0 -183 -36t-141.5 -111.5t-56.5 -176.5v-156h555l-20 -92h-535v-110h557l-18 -90h-539v-156q0 -103 55.5 -178t139 -109.5
t180.5 -34.5q116 0 214.5 50.5t146.5 144.5l108 -53q-61 -127 -190 -196t-279 -69q-96 0 -183 28.5t-157 82t-111.5 140t-41.5 194.5v156h-136l21 90h115v110h-129l20 92h109z" />
    <glyph glyph-name="uni2113" unicode="&#x2113;" horiz-adv-x="897" 
d="M778 291l80 -64q-122 -241 -348 -241q-81 0 -142 31.5t-97 87.5t-54 126t-20 154v21q-11 -9 -51.5 -40.5t-61.5 -50.5l-41 74q56 50 154 152v569q0 108 17 193.5t44 139t65 88t76.5 48.5t81.5 14q113 0 172.5 -89t59.5 -232q0 -360 -404 -774v-60q3 -342 219 -342
q81 0 147.5 55.5t102.5 139.5zM309 1120v-481q142 168 218.5 319t76.5 308q0 217 -129 217q-68 0 -117 -85.5t-49 -277.5z" />
    <glyph glyph-name="trademark" unicode="&#x2122;" horiz-adv-x="1710" 
d="M328 651v699h-267v100h639v-100h-266v-699h-106zM801 651v799h123l260 -571l260 571h125v-799h-109l8 623l-239 -526h-90l-236 518l4 -615h-106z" />
    <glyph glyph-name="Omega" unicode="&#x2126;" horiz-adv-x="1601" 
d="M434 111v6q-140 113 -227.5 280.5t-87.5 376.5q0 206 93.5 365t250 243t348.5 84q146 0 272.5 -54t213 -146.5t135.5 -218t49 -265.5q0 -217 -89 -390t-223 -275v-6h338v-111h-549v76q178 102 290 287.5t112 418.5q0 83 -23.5 165t-71 156t-112.5 131t-154.5 90.5
t-191.5 33.5q-245 0 -405 -167t-160 -421q0 -216 112.5 -395t296.5 -299v-76h-557v111h340z" />
    <glyph glyph-name="estimated" unicode="&#x212e;" horiz-adv-x="1818" 
d="M1755 705h-1347q-11 0 -11 -11v-407q0 -23 17 -47q101 -104 232.5 -163t277.5 -59q157 0 296 66t240 182h121q-115 -133 -288.5 -211t-370.5 -78q-169 0 -323 59t-265.5 159t-177.5 239t-66 291t66 291t177.5 239.5t265.5 160t323 59.5q227 0 418.5 -100.5t303 -273
t111.5 -376.5v-20zM1450 758v409q0 30 -20 50q-102 100 -231.5 156.5t-274.5 56.5q-144 0 -275.5 -58.5t-232.5 -161.5q-19 -22 -19 -51v-401q0 -4 3.5 -9.5t7.5 -5.5h1034q8 0 8 15z" />
    <glyph glyph-name="partialdiff" unicode="&#x2202;" horiz-adv-x="1042" 
d="M201 1346l-45 92q135 104 313 104q93 0 176.5 -44.5t151.5 -131t108.5 -232t40.5 -331.5q0 -241 -54.5 -423t-167 -288t-271.5 -106q-89 0 -159.5 36.5t-114 99.5t-66.5 142t-23 168q0 112 34.5 208.5t91.5 160t131.5 99.5t154.5 36q63 0 120.5 -19.5t97 -50t65.5 -59.5
t40 -55h2q13 185 -29.5 341.5t-132.5 249.5t-206 93q-148 0 -258 -90zM455 96h2q91 0 172 71t130 189.5t52 253.5q-26 79 -112.5 149t-190.5 70q-122 0 -210.5 -115.5t-88.5 -277.5q0 -153 67 -246.5t179 -93.5z" />
    <glyph glyph-name="Delta" unicode="&#x2206;" horiz-adv-x="1216" 
d="M543 1485h135l487 -1395v-90h-1114v88zM610 1296h-8l-412 -1175h824z" />
    <glyph glyph-name="product" unicode="&#x220f;" horiz-adv-x="1335" 
d="M1069 -143h-117v1480h-571v-1480h-117v1480h-211v115h1229v-115h-213v-1480z" />
    <glyph glyph-name="summation" unicode="&#x2211;" horiz-adv-x="1114" 
d="M61 -94l547 723l-522 731v88h920v-109h-754v-8l491 -694l-524 -703v-8h819v-106h-977v86z" />
    <glyph glyph-name="minus" unicode="&#x2212;" horiz-adv-x="1306" 
d="M1176 684v-113h-1045v113h1045z" />
    <glyph glyph-name="uni2215" unicode="&#x2215;" horiz-adv-x="1044" 
d="M1036 1462l-936 -1532l-92 58l934 1532z" />
    <glyph glyph-name="uni2219" unicode="&#x2219;" horiz-adv-x="450" 
d="M127 651q0 41 28.5 70t69.5 29t70 -29t29 -70t-29 -69.5t-70 -28.5t-69.5 28.5t-28.5 69.5z" />
    <glyph glyph-name="radical" unicode="&#x221a;" horiz-adv-x="1075" 
d="M510 -315l-305 952l-146 -53l-39 102l256 98l279 -899l375 1829h119l-428 -2029h-111z" />
    <glyph glyph-name="infinity" unicode="&#x221e;" horiz-adv-x="1517" 
d="M1419 600v-2q0 -137 -90.5 -224t-214.5 -87q-90 0 -166 51t-186 170q-38 -41 -63 -66.5t-64 -58.5t-72.5 -51t-77.5 -31.5t-90 -13.5q-124 0 -210.5 88.5t-86.5 216.5q0 135 88.5 224t223.5 89q53 0 102 -17.5t95 -53.5t81 -70t80 -86l4 6q39 44 61 67t61.5 57.5t71 52
t75 31t89.5 13.5q130 -1 209.5 -85.5t79.5 -219.5zM408 393h2q36 0 72 14.5t72.5 44.5t59.5 52.5t60 62.5l24 25q-34 40 -52.5 61t-52.5 54t-61 49.5t-64 29.5t-75 13q-84 0 -133 -60.5t-49 -148.5q2 -84 56 -140.5t141 -56.5zM1120 799h-2q-46 0 -98 -29.5t-83 -59
t-75 -77.5l-33 -35q110 -116 168.5 -160.5t124.5 -44.5q85 0 135 60t50 139q0 97 -52.5 152t-134.5 55z" />
    <glyph glyph-name="integral" unicode="&#x222b;" horiz-adv-x="665" 
d="M643 1731l-25 -97q-107 63 -174 8.5t-65 -192.5q1 -102 14 -696.5t13 -782.5q0 -77 -23.5 -136t-62.5 -93.5t-89 -51t-105 -11.5t-108 28l25 90q106 -43 177 10t71 166q0 166 -12.5 748.5t-12.5 740.5q0 100 36 173t91 105t122 30.5t128 -39.5z" />
    <glyph glyph-name="approxequal" unicode="&#x2248;" horiz-adv-x="1105" 
d="M907 819l72 -61q-87 -137 -221 -137q-56 0 -103 18.5t-127 65.5q-109 63 -174 63q-79 0 -151 -100l-78 63q96 141 242 141q82 0 192 -65l31 -16l28 -17q83 -49 148 -49q75 0 141 94zM901 518l78 -59q-88 -135 -221 -135q-38 0 -77 11.5t-67 25.5t-88 47q-37 22 -58.5 33
t-53.5 21.5t-60 10.5q-84 0 -151 -98l-78 61q95 144 242 144q13 0 26 -1t26.5 -4.5t23 -5.5t23.5 -8t20.5 -8.5t21 -10t18.5 -9.5t18.5 -10t16.5 -9h-2l29 -16l16 -9q92 -57 162 -57q73 0 135 86z" />
    <glyph glyph-name="notequal" unicode="&#x2260;" horiz-adv-x="1144" 
d="M1024 823v-108h-346q-74 -165 -117 -258h463v-109h-508q-16 -36 -53 -115.5t-53 -115.5l-91 45l87 186h-285v109h332q94 211 116 258h-448v108h495l105 228l88 -41l-86 -187h301z" />
    <glyph glyph-name="lessequal" unicode="&#x2264;" 
d="M268 752l588 -322v-129l-721 406v92l721 411v-131zM106 227h777v-108h-777v108z" />
    <glyph glyph-name="greaterequal" unicode="&#x2265;" 
d="M868 799v-92l-721 -406v129l588 322l-588 327v131zM121 227h776v-108h-776v108z" />
    <glyph glyph-name="lozenge" unicode="&#x25ca;" horiz-adv-x="1101" 
d="M485 -66l-436 793l445 795h120l439 -793l-445 -795h-123zM911 727l-325 573q-23 47 -37 86q-6 -19 -39 -86l-320 -569l326 -581q16 -32 33 -91q14 46 37 91z" />
    <glyph glyph-name="i.loclTRK" horiz-adv-x="401" 
d="M109 1296q0 40 26 66.5t66 26.5t66 -26.5t26 -66.5t-26 -66t-66 -26t-66 26t-26 66zM262 1061v-1061h-123v1061h123z" />
    <glyph glyph-name="f_i" horiz-adv-x="962" 
d="M672 1321q0 38 27 65t65 27t65 -27t27 -65t-27 -65t-65 -27t-65 27t-27 65zM825 0h-114v1061h114v-1061zM498 1458v-106q-126 13 -185 -45t-59 -193v-102h229v-103h-229v-909h-115v1114q0 184 98 273t261 71z" />
    <glyph glyph-name="f_l" horiz-adv-x="1028" 
d="M1016 94v-114q-155 0 -239.5 88t-84.5 247v1137h115v-1137q0 -221 209 -221zM496 1458v-106q-126 13 -185 -45t-59 -193v-102h229v-103h-229v-909h-115v1114q0 184 98 273t261 71z" />
    <glyph glyph-name="uni0414.loclBGR" horiz-adv-x="1361" 
d="M1339 -285h-118v285h-1078v-285h-120v402h135l444 1333h154l450 -1333h133v-402zM678 1325l-395 -1208h796z" />
    <glyph glyph-name="uni041B.loclBGR" horiz-adv-x="1208" 
d="M696 1069l-92 264h-4l-459 -1333h-127l508 1450h160l512 -1450h-127z" />
    <glyph glyph-name="uni0432.loclBGR" horiz-adv-x="1019" 
d="M530 1470q169 0 263 -80t94 -241q0 -107 -62 -194t-139 -128q93 -2 163.5 -74.5t70.5 -183.5v-252q0 -107 -56.5 -184.5t-141.5 -114t-185 -38.5q-208 0 -400 63v1094q0 152 110.5 242.5t282.5 90.5zM530 1362q-123 0 -201.5 -60t-78.5 -176v-360l266 84
q119 36 188.5 114t69.5 181q0 217 -244 217zM516 745q-61 -15 -266 -79v-547q109 -35 287 -35q107 0 190 65.5t82 167.5v252q0 106 -85.5 156.5t-207.5 19.5z" />
    <glyph glyph-name="uni0433.loclBGR" horiz-adv-x="899" 
d="M455 1081q149 0 241 -68t92 -202q0 -41 -10 -76t-25.5 -61t-43 -49t-52.5 -38.5t-65 -31.5t-69.5 -25.5t-76.5 -23.5q-66 -20 -108.5 -38.5t-78.5 -44t-52.5 -60t-16.5 -80.5q0 -203 244 -203q204 0 328 131l72 -66q-68 -80 -171.5 -122.5t-230.5 -42.5q-165 0 -259.5 76
t-94.5 220q0 129 82 200.5t250 119.5q43 13 70 22t62 23.5t56 29.5t41.5 35.5t29.5 46t9 56.5q0 80 -56 122t-163 42q-168 0 -275 -107l-73 74q147 141 344 141z" />
    <glyph glyph-name="uni0434.loclBGR" horiz-adv-x="1038" 
d="M156 -287l71 68q44 -48 118.5 -73t156.5 -25q125 0 207 63t82 182v115q-126 -63 -285 -63q-103 -1 -192.5 37t-148.5 118t-59 187v419q0 81 33.5 147t89 107t125 63t144.5 23q129 0 293 -47l112 -35v-1069q0 -110 -57.5 -192t-146.5 -121t-195 -39q-101 0 -192.5 34
t-155.5 101zM791 147v762q-145 62 -293 62q-114 0 -196 -59.5t-81 -166.5v-432q0 -106 83.5 -165.5t197.5 -59.5q153 3 289 59z" />
    <glyph glyph-name="uni0436.loclBGR" horiz-adv-x="1472" 
d="M1440 1061l-461 -475l457 -586h-140l-397 508l-108 -102v-406h-111v406l-105 102l-399 -508h-139l459 586l-463 475h143l504 -518v907h111v-907l503 518h146z" />
    <glyph glyph-name="uni0438.loclBGR" horiz-adv-x="1048" 
d="M911 1061v-1010q-207 -71 -395 -71q-100 0 -185 36t-141.5 113.5t-56.5 183.5v748h113v-750q0 -69 41 -121.5t101 -77.5t128 -26q165 0 283 45v930h112z" />
    <glyph glyph-name="uni0439.loclBGR" horiz-adv-x="1048" 
d="M664 1409h106q-14 -101 -83 -159t-155 -58t-154.5 58t-82.5 159h104q13 -52 50.5 -81.5t82.5 -29.5t82.5 29.5t49.5 81.5zM911 1061v-1010q-207 -71 -395 -71q-100 0 -185 36t-141.5 113.5t-56.5 183.5v748h113v-750q0 -69 41 -121.5t101 -77.5t128 -26q165 0 283 45v930
h112z" />
    <glyph glyph-name="uni043A.loclBGR" horiz-adv-x="989" 
d="M254 1450v-946l559 557h143l-475 -479l471 -582h-141l-410 500l-147 -148v-352h-115v1450h115z" />
    <glyph glyph-name="uni043B.loclBGR" horiz-adv-x="901" 
d="M504 774l-47 178h-6l-50 -180l-256 -772h-116l354 1055h147l340 -1055h-118z" />
    <glyph glyph-name="uni043F.loclBGR" horiz-adv-x="1069" 
d="M135 0v997q245 84 408 84q76 -2 145 -24t125 -63t89.5 -107t33.5 -148v-739h-115v743q0 74 -42 127.5t-103.5 77t-132.5 23.5q-148 0 -293 -62v-909h-115z" />
    <glyph glyph-name="uni0442.loclBGR" horiz-adv-x="1660" 
d="M135 0v991q72 40 165.5 65t186.5 25q226 0 336 -143q56 71 139.5 107t170.5 36q110 0 198 -38t143.5 -119.5t55.5 -196.5v-727h-117v727q0 64 -22.5 112.5t-62 76.5t-87.5 41.5t-104 13.5q-95 0 -174.5 -51.5t-79.5 -139.5v-780h-113v772q0 65 -45.5 111.5t-111.5 67
t-142 20.5q-144 0 -219 -60v-911h-117z" />
    <glyph glyph-name="uni0446.loclBGR" horiz-adv-x="1091" 
d="M903 156h135q0 -193 -37 -406h-86l7 299h-43q-156 -67 -361 -67q-100 0 -186 36t-143.5 113t-57.5 182v750h113v-752q0 -101 82.5 -162t187.5 -61q178 0 274 43v932h115v-907z" />
    <glyph glyph-name="uni0448.loclBGR" horiz-adv-x="1603" 
d="M1468 1061v-991q-154 -90 -335 -90q-97 0 -183 34.5t-143 108.5q-111 -143 -297 -143q-107 0 -190.5 35.5t-135 113.5t-51.5 190v742h113v-737q0 -119 73 -176.5t185 -57.5q96 2 172 53t76 138v780h110v-780q0 -63 41 -108.5t102.5 -66t133.5 -20.5q135 0 215 55v920h114
z" />
    <glyph glyph-name="uni0449.loclBGR" horiz-adv-x="1656" 
d="M1468 156h136q-3 -209 -37 -406h-90l6 299h-43q-135 -69 -310 -69q-97 0 -182.5 34.5t-142.5 108.5q-111 -143 -295 -143q-107 0 -190.5 35.5t-135 113.5t-51.5 190v742h113v-737q0 -119 73 -176.5t185 -57.5q94 2 170 55.5t76 135.5v780h110v-780q0 -63 41 -108.5
t102.5 -66t133.5 -20.5q134 0 217 47v928h114v-905z" />
    <glyph glyph-name="uni044E.loclBGR" horiz-adv-x="1443" 
d="M553 612v136q0 106 58 183t145.5 113t189.5 37q101 -1 187.5 -37t144 -113t57.5 -183v-435q0 -81 -33 -145.5t-88.5 -104.5t-124 -61t-143.5 -22q-76 1 -145 22t-125 61t-89.5 104.5t-33.5 145.5v193h-303v-506h-113v1450h113v-838h303zM946 969q-72 0 -133 -21.5
t-104 -73.5t-43 -126v-435q0 -56 24.5 -100t65 -70t89.5 -39.5t101 -13.5q51 0 99 13.5t88.5 39.5t65 70t24.5 100v435q0 56 -24.5 100t-65 69.5t-88.5 38.5t-99 13z" />
    <glyph glyph-name="newGlyph" horiz-adv-x="1228" 
 />
    </font>
</defs>
</svg>
