<?xml version="1.0" standalone="no"?>
<!DOCTYPE svg PUBLIC "-//W3C//DTD SVG 1.1//EN" "http://www.w3.org/Graphics/SVG/1.1/DTD/svg11.dtd" >
<svg xmlns="http://www.w3.org/2000/svg" xmlns:xlink="http://www.w3.org/1999/xlink" version="1.1">
<metadata>
Created by FontForge 20170731 at Mon Jun  7 10:06:58 2021
 By Aleksey,,,
Copyright (c) 2014 by (c) 2009 Designed by Svetoslav Simov (c) Fontfabric, Inc. All rights reserved.
</metadata>
<defs>
<font id="UniSansBold" horiz-adv-x="991" >
  <font-face 
    font-family="Uni Sans Bold"
    font-weight="700"
    font-stretch="normal"
    units-per-em="2048"
    panose-1="0 0 5 0 0 0 0 0 0 0"
    ascent="1638"
    descent="-410"
    x-height="1061"
    cap-height="1450"
    bbox="-174 -520 2130 1991"
    underline-thickness="102"
    underline-position="-307"
    unicode-range="U+0020-FB02"
  />
<missing-glyph horiz-adv-x="1230" 
d="M1106 1434v-1434h-1083v1434h1083zM422 1151l143 -213q16 23 62 93t80 120h-285zM469 715l-16 28l-164 248v-536zM686 743l-16 -28l180 -260v536zM420 285h285q-13 17 -142 209z" />
    <glyph glyph-name="fi" unicode="fi" horiz-adv-x="1146" 
d="M723 1321q0 72 48.5 121t119.5 49q76 0 124 -48.5t48 -121.5t-48.5 -122.5t-123.5 -49.5q-70 0 -119 50t-49 122zM754 0h284v1063h-284v-1063zM596 1454v-266q-91 18 -146 -20t-55 -105v-51h189v-260h-189v-752h-284v1079q0 190 132.5 292.5t352.5 82.5z" />
    <glyph glyph-name="fl" unicode="fl" horiz-adv-x="1224" 
d="M1210 248v-244q-112 -17 -201 8t-143 82.5t-82 133.5t-28 165v1057h284v-1057q0 -64 43 -104.5t127 -40.5zM594 1454v-266q-91 18 -146 -20t-55 -105v-51h189v-260h-189v-752h-284v1079q0 190 132.5 292.5t352.5 82.5z" />
    <glyph glyph-name=".notdef" horiz-adv-x="1230" 
d="M1106 1434v-1434h-1083v1434h1083zM422 1151l143 -213q16 23 62 93t80 120h-285zM469 715l-16 28l-164 248v-536zM686 743l-16 -28l180 -260v536zM420 285h285q-13 17 -142 209z" />
    <glyph glyph-name=".null" horiz-adv-x="0" 
 />
    <glyph glyph-name="nonmarkingreturn" horiz-adv-x="682" 
 />
    <glyph glyph-name="space" unicode=" " horiz-adv-x="393" 
 />
    <glyph glyph-name="exclam" unicode="!" horiz-adv-x="524" 
d="M117 393v1063h289v-1063h-289zM86 156q0 74 50.5 126t123.5 52q75 0 126.5 -52t51.5 -126t-51.5 -125t-126.5 -51q-73 0 -123.5 51t-50.5 125z" />
    <glyph glyph-name="quotedbl" unicode="&#x22;" horiz-adv-x="847" 
d="M397 1448l-41 -555h-250v555h291zM762 1448l-39 -555h-252v555h291z" />
    <glyph glyph-name="numbersign" unicode="#" horiz-adv-x="1327" 
d="M1198 647l-57 -272h-223q-101 -348 -109 -377h-281l107 377h-148l-108 -377h-283l111 377h-154l53 272h181q13 35 30 98h-196l59 277h219q12 39 105 356h282l-104 -356h147l105 356h287l-109 -356h166l-78 -277h-174l-27 -98h199zM541 629h196l37 135h-199z" />
    <glyph glyph-name="dollar" unicode="$" horiz-adv-x="1159" 
d="M487 -143v127q-128 14 -242 83.5t-194 188.5l228 174q66 -106 208 -145v315q-426 81 -421 455q7 114 67 202.5t150.5 138.5t203.5 68v125h195v-123q258 -33 401 -249l-247 -166q-63 92 -154 123v-306q75 -17 134 -38t117 -58.5t95.5 -86t59 -121.5t18.5 -165
q-7 -83 -44 -154t-95 -121t-130.5 -83.5t-154.5 -48.5v-135h-195zM373 1044v-2q0 -52 29.5 -82t84.5 -49v260q-108 -33 -114 -127zM803 420q3 55 -28.5 87.5t-92.5 53.5v-278q115 34 121 137z" />
    <glyph glyph-name="percent" unicode="%" horiz-adv-x="1497" 
d="M160 33l946 1462l192 -117l-948 -1454zM662 1100q0 -168 -86.5 -268.5t-219.5 -100.5q-146 0 -224.5 95.5t-78.5 277.5q0 165 84.5 264.5t218.5 99.5q146 0 226 -95.5t80 -272.5zM449 1100q0 155 -97 155q-45 0 -71.5 -38t-26.5 -115q0 -156 98 -156q97 0 97 154z
M1446 360q0 -168 -86 -268t-219 -100q-146 0 -224.5 95.5t-78.5 277.5q0 165 84.5 264.5t218.5 99.5q146 0 225.5 -96t79.5 -273zM1233 360q0 156 -96 156q-45 0 -72 -39t-27 -115q0 -155 99 -155q96 0 96 153z" />
    <glyph glyph-name="ampersand" unicode="&#x26;" horiz-adv-x="1366" 
d="M1044 725l183 -176l-146 -170l285 -348h-350l-103 125q-79 -84 -167.5 -124t-210.5 -40q-201 0 -335 123.5t-134 326.5q0 68 17.5 126.5t51 104.5t70.5 81t86 69q-98 141 -98 264q0 115 58.5 202.5t149 130t197.5 42.5q98 0 183 -43.5t138.5 -125.5t53.5 -185
q0 -122 -56.5 -203.5t-156.5 -142.5l160 -187zM590 1204q-48 0 -80.5 -31.5t-32.5 -78.5q0 -67 78 -160q58 30 97.5 76t39.5 94q0 44 -29 72t-73 28zM709 354l-228 258q-61 -40 -96 -80.5t-35 -89.5q0 -64 37.5 -109.5t91 -60.5t117.5 5t113 77z" />
    <glyph glyph-name="quotesingle" unicode="'" horiz-adv-x="483" 
d="M393 1448l-28 -555h-259v555h287z" />
    <glyph glyph-name="parenleft" unicode="(" horiz-adv-x="628" 
d="M391 1624l207 -139q-175 -223 -235.5 -496t-1 -554.5t232.5 -530.5l-213 -146q-206 290 -278 634t2.5 669.5t285.5 562.5z" />
    <glyph glyph-name="parenright" unicode=")" horiz-adv-x="628" 
d="M29 1485l207 139q211 -237 285.5 -562.5t2.5 -669.5t-278 -634l-213 146q173 249 232.5 530.5t-1 554.5t-235.5 496z" />
    <glyph glyph-name="asterisk" unicode="*" horiz-adv-x="942" 
d="M815 1303l76 -259l-238 -45l164 -190l-211 -160l-135 221l-127 -221l-219 158l160 190l-232 52l74 258l233 -97l-20 242h266l-24 -240z" />
    <glyph glyph-name="plus" unicode="+" horiz-adv-x="1167" 
d="M449 813v377h286v-377h373v-289h-373v-381h-286v381h-390v289h390z" />
    <glyph glyph-name="comma" unicode="," horiz-adv-x="544" 
d="M461 227l-189 -477h-288l157 477h320z" />
    <glyph glyph-name="hyphen" unicode="-" horiz-adv-x="808" 
d="M707 743v-288h-605v288h605z" />
    <glyph glyph-name="period" unicode="." horiz-adv-x="493" 
d="M72 166q0 74 50.5 125t123.5 51q74 0 125 -51t51 -125q0 -75 -51 -126.5t-125 -51.5q-73 0 -123.5 51.5t-50.5 126.5z" />
    <glyph glyph-name="slash" unicode="/" horiz-adv-x="974" 
d="M934 1466l-621 -1577l-272 99l625 1573z" />
    <glyph glyph-name="zero" unicode="0" horiz-adv-x="1234" 
d="M618 -20q-76 0 -149 16t-141.5 51t-120 85.5t-82.5 124t-31 161.5v612q0 88 31 162.5t82.5 124.5t120 85.5t141.5 51.5t149 16t150 -16t142 -51.5t119.5 -85.5t82.5 -124.5t31 -162.5v-612q0 -88 -31 -161.5t-82.5 -124t-119.5 -85.5t-142 -51t-150 -16zM383 1030v-612
q5 -60 53.5 -101t115 -51t133.5 0t115.5 51t53.5 101v612q-5 61 -53.5 103t-115.5 52t-133.5 0t-115 -52t-53.5 -103z" />
    <glyph glyph-name="one" unicode="1" horiz-adv-x="727" 
d="M612 0h-282v1022l-137 -119l-189 160l371 391h237v-1454z" />
    <glyph glyph-name="two" unicode="2" horiz-adv-x="1130" 
d="M281 1040l-215 146q80 134 214.5 209t278.5 75q94 0 174 -23t137.5 -62.5t98.5 -94t61 -117t20.5 -132.5t-18.5 -138.5t-59.5 -137t-100.5 -126.5l-370 -363l2 -8l201 19l346 2v-289h-938l-68 176l623 672q71 77 85 157.5t-38 135.5t-160 55q-80 0 -157 -42t-117 -114z
" />
    <glyph glyph-name="three" unicode="3" horiz-adv-x="1161" 
d="M268 1053l-178 166q77 119 208 186t273 65q197 -3 329 -128.5t132 -297.5q0 -153 -141 -266q101 -54 152 -151.5t51 -200.5q0 -87 -38.5 -167.5t-104.5 -142t-162.5 -98t-204.5 -36.5q-47 0 -91.5 4.5t-111 23t-123.5 50t-117.5 91t-103.5 140.5l223 164q49 -82 128 -128
t159 -46q152 0 216.5 83.5t11 170t-192.5 94.5h-203v256h203q64 0 107.5 41.5t43.5 105.5t-54 103t-128 39q-185 0 -283 -121z" />
    <glyph glyph-name="four" unicode="4" horiz-adv-x="1161" 
d="M1090 590v-264h-123v-326h-289v326h-533l-137 202l701 924h258v-862h123zM647 967l-289 -398h326l6 305l33 203l-12 2z" />
    <glyph glyph-name="five" unicode="5" horiz-adv-x="1155" 
d="M88 274l221 148q46 -72 115.5 -112t138.5 -40q52 0 95.5 15.5t72 42t48.5 60.5t24.5 71.5t0.5 75t-23 72t-46 61t-70 42.5t-94 17q-79 1 -139 -17.5t-164 -76.5l-168 -4v821h906v-285h-627v-207q80 33 169.5 39t163.5 -10t138 -47q79 -39 136 -103t85.5 -138.5t33.5 -158
t-13.5 -163.5t-62 -152.5t-105.5 -127t-150 -86.5t-190 -31q-43 0 -84.5 5t-101.5 23t-112 48t-106 86.5t-92 131.5z" />
    <glyph glyph-name="six" unicode="6" horiz-adv-x="1220" 
d="M1128 1176l-254 -109q-25 53 -72.5 86t-101 43.5t-110 4t-102 -28.5t-74.5 -60t-29 -84v-209q60 62 142.5 91.5t167.5 27t169 -34.5t149 -86t105.5 -135.5t40.5 -175.5v-86q0 -106 -44 -191.5t-119 -139t-168.5 -81.5t-196.5 -28q-103 -1 -198 27t-171.5 81t-122 139
t-45.5 193v610q0 107 45.5 193t122 139t171.5 81t198 27q333 0 497 -294zM870 422v82q0 50 -36 86.5t-90 53t-116.5 16t-116.5 -17t-90 -53t-36 -85.5v-82q0 -43 26.5 -76.5t69.5 -50.5t94.5 -25.5t103.5 -0.5t95 25.5t69.5 51t26.5 76.5z" />
    <glyph glyph-name="seven" unicode="7" horiz-adv-x="1093" 
d="M61 1452h943l83 -168l-694 -1284h-325l630 1171h-637v281z" />
    <glyph glyph-name="eight" unicode="8" horiz-adv-x="1265" 
d="M647 -20h-31q-238 0 -390.5 130t-155.5 359q0 86 47 175t145 153q-57 36 -91 93t-41.5 117.5t1.5 118.5t33 103q58 116 181 178.5t271 62.5h31q96 0 181.5 -24.5t155 -73t110.5 -131.5t41 -190q0 -68 -35 -137t-103 -111q102 -51 150.5 -141t48.5 -193
q-3 -153 -76.5 -265t-195.5 -168t-277 -56zM649 1221h-33q-82 0 -141 -42.5t-59 -113.5q0 -80 61 -119t146 -39q54 0 103 14.5t85.5 52t36.5 91.5q0 70 -59 113t-140 43zM616 264h31q95 0 171.5 51.5t76.5 139.5q0 101 -70 149.5t-178 48.5h-31q-108 0 -177.5 -48.5
t-69.5 -149.5q0 -88 76 -139.5t171 -51.5z" />
    <glyph glyph-name="nine" unicode="9" horiz-adv-x="1220" 
d="M94 274l254 109q25 -53 72.5 -86t101 -43.5t110.5 -4t102.5 28.5t74.5 60t29 84v209q-61 -61 -144.5 -90.5t-168.5 -26.5t-169 34.5t-148.5 85.5t-104.5 135t-40 175v86q0 106 44.5 191.5t119 139t168.5 81.5t197 28q103 1 197.5 -27t170 -81t121.5 -139t47 -193v-610
q0 -107 -45.5 -193t-121.5 -139t-171 -81t-198 -27q-334 0 -498 294zM352 1028v-82q0 -50 36 -86.5t90 -53t117 -16t117 17t90 53t36 85.5v82q0 49 -36 85.5t-90 53t-117 17t-117 -16t-90 -53t-36 -86.5z" />
    <glyph glyph-name="colon" unicode=":" horiz-adv-x="544" 
d="M96 827q0 73 51 123.5t125 50.5t125.5 -50.5t51.5 -123.5q0 -74 -52 -126t-125 -52t-124.5 52t-51.5 126zM96 190q0 76 51 126.5t125 50.5t125.5 -50.5t51.5 -126.5q0 -73 -51.5 -124.5t-125.5 -51.5t-125 51t-51 125z" />
    <glyph glyph-name="semicolon" unicode=";" horiz-adv-x="563" 
d="M109 803q0 74 50.5 124t127.5 50q74 0 123 -50t49 -124q0 -76 -49 -127t-123 -51q-77 0 -127.5 51t-50.5 127zM465 281l-172 -476h-256l115 476h313z" />
    <glyph glyph-name="less" unicode="&#x3c;" horiz-adv-x="870" 
d="M369 604l403 -221v-332l-725 459v188l725 465v-329z" />
    <glyph glyph-name="equal" unicode="=" horiz-adv-x="1083" 
d="M979 926v-281h-875v281h875zM979 549v-279h-875v279h875z" />
    <glyph glyph-name="greater" unicode="&#x3e;" horiz-adv-x="872" 
d="M823 698v-188l-725 -459v332l404 221l-404 230v329z" />
    <glyph glyph-name="question" unicode="?" horiz-adv-x="985" 
d="M229 1098l-184 155q85 112 191 164.5t219 52.5q101 0 186.5 -33t143 -87t94 -124.5t46.5 -145t-7 -149t-59 -136t-117 -106t-173 -58.5l-20 -232h-248l-18 424q57 -14 127 -14q121 0 182 89q51 74 31 162t-102 124q-51 22 -118 16q-109 -10 -174 -102zM272 141
q0 70 47 116t115 46t115 -46t47 -116q0 -67 -47 -114t-115 -47t-115 47t-47 114z" />
    <glyph glyph-name="at" unicode="@" horiz-adv-x="1576" 
d="M1221 1061l-111 -596q73 40 122 102t69 134.5t15.5 151.5t-34.5 155q-33 87 -105 146.5t-171 86.5q-271 70 -465 -79q-146 -111 -206 -310q-59 -193 -9 -369q52 -182 198 -258q160 -82 396 -14l47 -193q-114 -36 -228.5 -37t-215.5 30t-187.5 94t-146.5 149t-91 202.5
t-22 248.5q10 166 82 319.5t198 267.5t300 157.5t388 -9.5q141 -35 250 -119t170 -201q60 -116 63.5 -260.5t-49.5 -279.5t-151 -222q-52 -46 -125 -75t-157.5 -26t-145.5 50q-55 -40 -127 -45t-138 19.5t-116 70.5q-126 114 -123 304q2 163 95 304q91 137 218 174
q157 46 306 -85l45 51zM903 524l64 303q-38 67 -93.5 87.5t-107 -3t-88.5 -77.5q-45 -68 -46.5 -163t46.5 -155q46 -49 116 -43.5t109 51.5z" />
    <glyph glyph-name="A" unicode="A" horiz-adv-x="1298" 
d="M791 1450l520 -1450h-316l-127 332h-432l-121 -332h-321l508 1450h289zM594 922l-82 -314h279l-93 316l-45 206h-14z" />
    <glyph glyph-name="B" unicode="B" horiz-adv-x="1277" 
d="M1155 1026q0 -70 -34.5 -143t-102.5 -111q65 -32 109 -80t63 -100.5t25.5 -111t-3.5 -111.5q-11 -76 -43.5 -140t-91 -117t-152 -82.5t-214.5 -29.5h-584v1452h573q95 0 177 -27.5t144 -79.5t98 -134t36 -185zM428 883h272q42 0 76.5 15t53 39.5t28.5 53.5t2.5 58
t-24.5 53.5t-53 39.5t-83 15h-272v-274zM428 293h272q51 0 92.5 14.5t67.5 37.5t40 53t14 61t-13.5 61t-39 53t-67.5 37.5t-94 14.5h-272v-332z" />
    <glyph glyph-name="C" unicode="C" horiz-adv-x="1196" 
d="M915 428l261 -145q-91 -148 -229 -225.5t-288 -77.5q-85 0 -167 19t-155 59t-128 95.5t-87 135t-32 172.5v528q0 92 31.5 171t86 135.5t127 96.5t155 59t169.5 19q100 0 194.5 -32.5t178.5 -104.5t131 -174l-241 -131q-41 78 -119 118t-166 38q-102 -2 -175 -55t-73 -140
v-528q0 -86 71 -137.5t171 -53.5q87 -2 165 38.5t119 119.5z" />
    <glyph glyph-name="D" unicode="D" horiz-adv-x="1302" 
d="M127 1450h532q88 0 168 -17t150.5 -54.5t122.5 -91.5t82 -133t30 -175v-516q0 -118 -45.5 -209t-124 -145.5t-175.5 -81.5t-208 -27h-532v1450zM428 303h231q108 0 179 39t71 121v516q0 84 -71.5 126t-178.5 42h-231v-844z" />
    <glyph glyph-name="E" unicode="E" horiz-adv-x="1193" 
d="M430 1157v-285h625v-292h-625v-287h680v-293h-983v1452h983v-295h-680z" />
    <glyph glyph-name="F" unicode="F" horiz-adv-x="1165" 
d="M430 1157v-319h594v-297h-594v-541h-303v1450h981v-293h-678z" />
    <glyph glyph-name="G" unicode="G" horiz-adv-x="1286" 
d="M1165 1163l-243 -129q-34 79 -109 119.5t-166 40.5q-105 0 -181.5 -54.5t-76.5 -146.5v-528q0 -91 79 -142t189 -51t191.5 51t81.5 142v70h-330v292h625v-362q0 -116 -48.5 -210.5t-129 -153t-180.5 -89.5t-208 -32q-87 -1 -169 18t-154.5 58.5t-127 96t-86.5 137
t-32 175.5v528q0 115 48 207.5t128.5 150.5t180.5 88.5t208 30.5q104 0 195.5 -28.5t176.5 -99t138 -179.5z" />
    <glyph glyph-name="H" unicode="H" horiz-adv-x="1390" 
d="M428 594v-594h-301v1450h301v-576h535v576h301v-1450h-301v594h-535z" />
    <glyph glyph-name="I" unicode="I" horiz-adv-x="555" 
d="M428 1450v-1450h-301v1450h301z" />
    <glyph glyph-name="J" unicode="J" horiz-adv-x="1224" 
d="M463 1450h645v-995q0 -114 -47.5 -206.5t-126.5 -150t-176 -88t-201 -30.5q-93 0 -181.5 30t-165 87t-129 151t-67.5 213l291 57q21 -116 94.5 -180t163.5 -64q97 0 169.5 48.5t72.5 132.5v710h-342v285z" />
    <glyph glyph-name="K" unicode="K" horiz-adv-x="1296" 
d="M428 846l516 604h367l-623 -711l623 -739h-373l-453 539l-57 -56v-483h-301v1450h301v-604z" />
    <glyph glyph-name="L" unicode="L" horiz-adv-x="1085" 
d="M127 0v1450h301v-1147h627v-303h-928z" />
    <glyph glyph-name="M" unicode="M" horiz-adv-x="1593" 
d="M1110 655l-199 -465h-225l-201 467l-69 199h-21l33 -281v-575h-301v1450h315l353 -834l356 834h315v-1450h-301v578l37 280h-22z" />
    <glyph glyph-name="N" unicode="N" horiz-adv-x="1390" 
d="M985 397l21 4q-37 219 -43 308v741h301v-1450h-322l-442 762l-88 196l-21 -4l39 -247v-707h-303v1450h297l459 -791z" />
    <glyph glyph-name="O" unicode="O" horiz-adv-x="1363" 
d="M88 461v526q0 94 33.5 174.5t90.5 136.5t133 95.5t161.5 58.5t175.5 18q90 0 175.5 -19t161.5 -58.5t133 -96t90.5 -136t33.5 -173.5v-526q0 -94 -33.5 -174t-90.5 -136t-133 -96t-161.5 -59t-175.5 -19t-175.5 19t-161.5 58.5t-133 96t-90.5 136.5t-33.5 174zM387 987
v-526q0 -59 44 -101.5t109 -61.5t142 -19q120 2 206.5 49.5t86.5 132.5v526q0 60 -44 103t-109.5 62.5t-141.5 18.5q-75 0 -140.5 -20t-109 -63t-43.5 -101z" />
    <glyph glyph-name="P" unicode="P" horiz-adv-x="1263" 
d="M127 0v1450h571q143 0 254.5 -55.5t169 -144t84 -195t-0.5 -213.5t-84.5 -195t-168.5 -143t-252 -55h-274v-449h-299zM426 731h272q60 0 107.5 23t72.5 59.5t36.5 81t0.5 89t-35.5 81t-72.5 59.5t-109 23h-272v-416z" />
    <glyph glyph-name="Q" unicode="Q" horiz-adv-x="1363" 
d="M1174 -68l-127 138q-162 -93 -365 -93q-90 0 -175.5 19t-161.5 58.5t-133 96t-90.5 136.5t-33.5 174v526q0 94 33.5 174.5t90.5 136.5t133 95.5t161.5 58.5t175.5 18q90 0 175.5 -19t161.5 -58.5t133 -96t90.5 -136t33.5 -173.5v-526q0 -148 -84 -262l131 -140zM682 279
q92 0 160 10l-129 139l149 127l113 -121v27v526q0 60 -44 103t-109.5 62.5t-141.5 18.5q-75 0 -140.5 -20t-109 -63t-43.5 -101v-526q0 -87 88 -135.5t207 -46.5z" />
    <glyph glyph-name="R" unicode="R" horiz-adv-x="1294" 
d="M948 0l-411 530h-107v-530h-303v1450h571q112 0 203 -26.5t162 -81t111 -144.5t43 -211q0 -194 -84 -299t-246 -137l432 -551h-371zM430 805h268q217 0 217 180q0 169 -217 162h-268v-342z" />
    <glyph glyph-name="S" unicode="S" horiz-adv-x="1163" 
d="M53 256l228 174q38 -60 103.5 -100.5t135 -51.5t133 -2t106.5 47t46 97q2 36 -13 64t-38.5 45.5t-63.5 30.5t-76 20t-88 14q-463 71 -458 461q6 99 52.5 180t120 132t165 78.5t190.5 27.5q148 0 275 -62.5t214 -193.5l-247 -166q-89 137 -242 137q-92 0 -154.5 -36.5
t-66.5 -107.5v-2q0 -27 8 -48t25 -36t33.5 -25.5t46.5 -19.5t50.5 -13.5t57.5 -12.5q9 -2 15.5 -3.5t13.5 -2.5q70 -13 125 -28.5t114.5 -41t102.5 -61.5t77.5 -84t50.5 -116t13 -151q-7 -79 -41.5 -147.5t-87.5 -117.5t-121 -84.5t-144.5 -52.5t-156.5 -17q-146 0 -280 71
t-224 205z" />
    <glyph glyph-name="T" unicode="T" horiz-adv-x="1196" 
d="M1165 1149h-415v-1149h-304v1149h-415v303h1134v-303z" />
    <glyph glyph-name="U" unicode="U" horiz-adv-x="1368" 
d="M418 1450v-973q0 -96 78 -149.5t186 -53.5q112 0 190 53.5t78 149.5v973h303v-973q0 -120 -48 -217t-129 -157t-182 -91.5t-212 -31.5q-87 0 -168.5 19.5t-154 60t-127 98.5t-86 140t-31.5 179v973h303z" />
    <glyph glyph-name="V" unicode="V" horiz-adv-x="1314" 
d="M721 647l285 805h321l-524 -1452h-291l-524 1452h321l275 -805l59 -299h23z" />
    <glyph glyph-name="W" unicode="W" horiz-adv-x="1884" 
d="M426 0l-420 1450h311l207 -758l45 -338h19l49 340q43 141 95 289t89 266h244l176 -559l59 -350h19l39 350l211 760h309l-418 -1450h-295l-186 559l-33 174h-16q-2 -11 -6 -29.5t-12.5 -57.5t-14 -64.5t-6.5 -24.5l-170 -557h-295z" />
    <glyph glyph-name="X" unicode="X" horiz-adv-x="1292" 
d="M1296 0h-368l-291 512l-268 -512h-371l428 723l-424 727h367l268 -516l293 516h366l-458 -729z" />
    <glyph glyph-name="Y" unicode="Y" horiz-adv-x="1286" 
d="M793 0h-301v555l-504 895h346l307 -606l307 606h350l-505 -895v-555z" />
    <glyph glyph-name="Z" unicode="Z" horiz-adv-x="1222" 
d="M76 1450h1022l84 -137l-723 -1043h694v-270h-1044l-72 137l723 1034h-684v279z" />
    <glyph glyph-name="bracketleft" unicode="[" horiz-adv-x="628" 
d="M401 1182v-1129h154v-276h-444v1683h444v-278h-154z" />
    <glyph glyph-name="backslash" unicode="\" horiz-adv-x="976" 
d="M664 -117l-625 1581l272 97l625 -1586z" />
    <glyph glyph-name="bracketright" unicode="]" horiz-adv-x="628" 
d="M225 49v1141h-149v272h442v-1683h-442v270h149z" />
    <glyph glyph-name="asciicircum" unicode="^" horiz-adv-x="1261" 
d="M713 1419l491 -612h-342l-239 295l-234 -295h-330l480 612h174z" />
    <glyph glyph-name="underscore" unicode="_" horiz-adv-x="1232" 
d="M1130 16v-284h-1030v284h1030z" />
    <glyph glyph-name="grave" unicode="`" horiz-adv-x="526" 
d="M332 1548h-266l-240 291h336z" />
    <glyph glyph-name="a" unicode="a" 
d="M55 315q0 88 31.5 156.5t85 109t119.5 61t141 20.5q92 0 189 -33v76q0 78 -45.5 112.5t-118.5 34.5q-58 0 -121 -28.5t-103 -69.5l-139 149q152 175 383 178q82 0 155.5 -23.5t133 -68t94.5 -118t35 -166.5v-648q-205 -77 -399 -77q-219 0 -330 88.5t-111 246.5zM612 213
v215q-69 25 -129 25q-79 0 -118 -34.5t-39 -94.5q0 -59 41.5 -92t124.5 -33q65 0 120 14z" />
    <glyph glyph-name="b" unicode="b" horiz-adv-x="1042" 
d="M393 1448v-404q81 37 176 37q100 -1 188 -43t146 -125.5t58 -191.5v-375q-7 -99 -45 -172t-100 -114.5t-135 -60.5t-161 -19q-206 0 -414 79v1389h287zM393 827v-614q37 -18 85.5 -21.5t92.5 8t74.5 43t30.5 76.5v416q-7 58 -58.5 89t-114.5 30t-110 -27z" />
    <glyph glyph-name="c" unicode="c" horiz-adv-x="958" 
d="M672 350l250 -82q-27 -77 -74 -135t-104.5 -90t-116.5 -47.5t-119 -15.5q-81 0 -156 23.5t-136 68.5t-97.5 118t-36.5 164v351q0 91 36.5 164.5t97.5 118.5t136 69t156 24q61 0 120 -15t116 -46t101 -89t64 -136l-243 -76q-16 52 -60 79t-98 27q-57 0 -99 -32t-42 -86
v-351q0 -56 41.5 -88t99.5 -32q54 0 99.5 28.5t64.5 85.5z" />
    <glyph glyph-name="d" unicode="d" horiz-adv-x="1042" 
d="M936 1448v-1389q-208 -79 -414 -79q-88 0 -161 19t-134.5 60.5t-99.5 114.5t-45 172v375q0 108 58 191.5t146 125.5t189 43q96 0 174 -37v404h287zM649 213v614q-47 26 -110 27t-114 -30t-58 -89v-416q1 -45 31.5 -76.5t74 -43t91.5 -8t85 21.5z" />
    <glyph glyph-name="e" unicode="e" 
d="M694 315l187 -135q-39 -72 -105.5 -119t-132 -64t-133.5 -17q-82 0 -157 24t-136.5 69t-98 118.5t-36.5 164.5v351q0 92 37 165.5t99.5 118t138 67.5t157.5 23q80 0 151.5 -21t130.5 -63.5t93.5 -114t34.5 -163.5v-311h-555v-48q0 -58 46.5 -91t112.5 -33q52 0 97 20.5
t69 58.5zM655 618v97q0 53 -40.5 81.5t-98.5 28.5q-60 0 -103.5 -29t-43.5 -83v-95h286z" />
    <glyph glyph-name="f" unicode="f" horiz-adv-x="624" 
d="M596 1454v-266q-91 18 -146 -20t-55 -105v-51h189v-260h-189v-752h-284v1079q0 190 132.5 292.5t352.5 82.5z" />
    <glyph glyph-name="g" unicode="g" horiz-adv-x="1036" 
d="M125 -274l131 170q36 -34 96.5 -55t118.5 -21q84 0 130 51t46 154q-75 -45 -172 -45q-104 0 -191 37.5t-142.5 117.5t-55.5 189v401q0 94 35.5 164.5t97 111.5t137 60.5t164.5 19.5q225 0 410 -90v-989q0 -103 -34.5 -184.5t-95 -132t-139 -77t-169.5 -26.5
q-102 0 -199 37.5t-168 106.5zM643 236v600q-53 26 -121 26q-67 0 -114.5 -35t-47.5 -96v-403q7 -58 56 -88.5t114 -30.5q61 0 113 27z" />
    <glyph glyph-name="h" unicode="h" horiz-adv-x="1060" 
d="M395 1450v-401q77 32 172 32q77 0 146.5 -24.5t124.5 -71t87.5 -120.5t32.5 -165v-700h-282v702q0 47 -31.5 77.5t-76 38.5t-92.5 2t-81 -25v-795h-284v1450h284z" />
    <glyph glyph-name="i" unicode="i" horiz-adv-x="505" 
d="M80 1319q0 72 48.5 121t119.5 49q76 0 124 -48.5t48 -121.5t-48.5 -122.5t-123.5 -49.5q-70 0 -119 50t-49 122zM111 1063h284v-1063h-284v1063z" />
    <glyph glyph-name="j" unicode="j" horiz-adv-x="505" 
d="M80 1317q0 73 49.5 122.5t120.5 49.5q72 0 122 -49.5t50 -122.5q0 -71 -50 -120.5t-122 -49.5q-70 0 -120 49.5t-50 120.5zM-33 -156v-219q112 -20 193 -2t133 71.5t77 126t25 161.5v1081h-284v-1081q0 -151 -144 -138z" />
    <glyph glyph-name="k" unicode="k" horiz-adv-x="1044" 
d="M395 659l307 402h332l-422 -512q63 -84 210 -272t214 -277h-329l-293 387l-19 -16v-371h-284v1448h284v-789z" />
    <glyph glyph-name="l" unicode="l" horiz-adv-x="569" 
d="M555 227v-243q-40 -4 -59 -4q-196 0 -296 110t-100 283v1077h285v-1077q0 -64 43 -105t127 -41z" />
    <glyph glyph-name="m" unicode="m" horiz-adv-x="1542" 
d="M106 0v950q70 61 173 96.5t206 34.5q91 -2 168 -33.5t117 -97.5q50 62 124 96.5t150 34.5q75 0 144.5 -23t126.5 -66t91 -113.5t34 -157.5v-721h-283v731q0 45 -37 69.5t-88 24.5t-89 -24.5t-38 -67.5v-733h-272v725q0 45 -44 72.5t-102 27.5q-67 -3 -102 -41v-784h-279z
" />
    <glyph glyph-name="n" unicode="n" horiz-adv-x="1054" 
d="M109 0v989q189 92 383 92q93 0 174 -22t146.5 -66.5t103.5 -121t38 -177.5v-694h-282v684q0 69 -47.5 105t-114.5 36q-66 0 -117 -28v-797h-284z" />
    <glyph glyph-name="o" unicode="o" horiz-adv-x="1011" 
d="M82 356v346q0 91 36.5 164.5t97 119t135.5 70t157 25.5q81 -1 155.5 -25.5t135 -70t97 -119t36.5 -164.5v-346q0 -92 -36 -165.5t-97 -118t-135.5 -68t-155.5 -24.5q-82 1 -156.5 24.5t-136 68t-97.5 118t-36 165.5zM508 825q-55 0 -98 -28t-43 -76v-371
q0 -49 43.5 -81.5t97.5 -32.5q53 0 96 32.5t43 81.5v371q0 48 -42.5 76t-96.5 28z" />
    <glyph glyph-name="p" unicode="p" horiz-adv-x="1044" 
d="M106 -389v1390q211 80 414 80q71 0 132 -9.5t119.5 -34.5t99 -64t65.5 -101.5t25 -144.5v-387q0 -90 -33.5 -160.5t-90.5 -113t-126 -64t-146 -22.5q-96 0 -172 36v-405h-287zM393 840v-617q43 -24 111 -24q74 0 123 36.5t49 104.5v401q0 61 -47 92t-121 31
q-66 0 -115 -24z" />
    <glyph glyph-name="q" unicode="q" horiz-adv-x="1044" 
d="M651 -389v405q-76 -36 -168 -36q-177 0 -288 96.5t-111 263.5v350q0 99 37 176t100 123t140 69t163 23q203 0 414 -80v-1390h-287zM651 223v611q-48 28 -110 28q-67 0 -119.5 -42.5t-52.5 -104.5v-369q0 -73 54.5 -110t125.5 -37q59 0 102 24z" />
    <glyph glyph-name="r" unicode="r" horiz-adv-x="696" 
d="M516 1081q60 0 150 -20v-230q-45 14 -95 10.5t-91 -18t-68 -47.5t-27 -76v-700h-285v705q0 91 37.5 165t98.5 119t133 68.5t147 23.5z" />
    <glyph glyph-name="s" unicode="s" horiz-adv-x="868" 
d="M51 160l135 184q58 -55 128.5 -87t127.5 -32q65 0 86 47q21 48 -5.5 87t-96.5 49q-169 29 -257.5 126t-90.5 220q-1 63 23.5 121.5t69 104.5t114.5 73.5t155 27.5q202 0 338 -110l-141 -195q-27 27 -77 46.5t-95 19.5q-37 0 -64.5 -21.5t-31.5 -64.5q-4 -42 46 -75.5
t95 -41.5q305 -79 305 -311q0 -84 -31.5 -151.5t-85.5 -109.5t-122 -64.5t-144 -22.5q-246 0 -381 180z" />
    <glyph glyph-name="t" unicode="t" horiz-adv-x="653" 
d="M606 248v-234q-218 -73 -360.5 22.5t-141.5 336.5v923h263l20 -235h188v-260h-188v-426q0 -90 52 -119.5t167 -7.5z" />
    <glyph glyph-name="u" unicode="u" horiz-adv-x="1056" 
d="M950 1061v-1004q-216 -77 -401 -77q-73 0 -136 11.5t-121.5 40t-99.5 72.5t-65.5 112.5t-24.5 156.5v688h285v-672q0 -88 50.5 -131t127.5 -43q53 0 103 18v828h282z" />
    <glyph glyph-name="v" unicode="v" horiz-adv-x="1032" 
d="M563 526l160 535h305l-379 -1061h-268l-377 1061h303l160 -535l45 -274h6z" />
    <glyph glyph-name="w" unicode="w" horiz-adv-x="1435" 
d="M684 383l-84 -383h-266l-322 1061h281l119 -428l32 -277h5l30 258l135 447h207l131 -445l31 -260h4l37 279l111 426h284l-313 -1061h-266l-88 383l-33 289h-4z" />
    <glyph glyph-name="x" unicode="x" horiz-adv-x="1062" 
d="M1047 1061l-353 -529q50 -72 177.5 -265t179.5 -267h-338l-138 221l-40 109h-15l-47 -113q-2 -4 -50 -80.5t-87 -136.5h-322l344 530q-16 24 -56.5 91t-111 176t-176.5 264h322l147 -242l39 -100h13l36 100q14 22 61 104t81 138h334z" />
    <glyph glyph-name="y" unicode="y" horiz-adv-x="1058" 
d="M948 1061v-1053q0 -205 -121.5 -315.5t-318.5 -110.5q-104 0 -201.5 35t-169.5 107l135 178q35 -34 92 -56t111 -22q96 0 148 45t51 145q-104 -34 -180 -34q-177 0 -283.5 91.5t-106.5 258.5v731h275v-727q0 -62 43 -93.5t121 -31.5q59 0 119 33v819h286z" />
    <glyph glyph-name="z" unicode="z" horiz-adv-x="927" 
d="M82 1061h731l61 -100l-442 -717h428v-244h-756l-61 102l440 715h-401v244z" />
    <glyph glyph-name="braceleft" unicode="{" horiz-adv-x="679" 
d="M473 1190v-37v-270q0 -81 -40.5 -158.5t-102.5 -106.5q143 -58 143 -262v-276q0 -27 -8 -31h139v-270h-155q-150 0 -208.5 75t-58.5 222v246q0 161 -119 161v273q64 0 91.5 46t27.5 116v245q0 146 65 222.5t220 76.5h137v-272h-131z" />
    <glyph glyph-name="bar" unicode="|" horiz-adv-x="505" 
d="M395 -299h-284v1757h284v-1757z" />
    <glyph glyph-name="braceright" unicode="}" horiz-adv-x="667" 
d="M82 1462h108q65 0 113.5 -9t80 -28.5t52 -43t30.5 -60.5t13.5 -72t3.5 -86v-245q0 -162 121 -162v-273q-121 0 -121 -161v-246q0 -73 -12.5 -124t-44 -92t-91.5 -61t-149 -20h-104v270h102q11 0 11 31v276q-2 88 35 160.5t112 104.5q-64 40 -106 112.5t-41 149.5v270
q0 37 -7 37h-106v272z" />
    <glyph glyph-name="asciitilde" unicode="~" horiz-adv-x="997" 
d="M766 760l162 -135q-124 -217 -299 -217q-103 0 -195 81q-32 28 -59.5 35.5t-59.5 -8.5t-67 -61l-178 149q63 91 132 145t154 54q100 0 222 -94q55 -39 96.5 -27t91.5 78z" />
    <glyph glyph-name="uni00A0" unicode="&#xa0;" horiz-adv-x="393" 
 />
    <glyph glyph-name="exclamdown" unicode="&#xa1;" horiz-adv-x="509" 
d="M430 907q0 -76 -50.5 -126t-125.5 -50q-76 0 -125 49.5t-49 126.5q0 74 49 124t125 50q75 0 125.5 -50t50.5 -124zM399 670v-1016h-288v1016h288z" />
    <glyph glyph-name="cent" unicode="&#xa2;" horiz-adv-x="970" 
d="M614 1165v-104q104 -24 183.5 -91.5t109.5 -183.5l-243 -75q-15 47 -50 71v-506q38 30 56 82l250 -82q-40 -116 -122 -184t-184 -92v-109h-184v103q-96 13 -173 56.5t-127 124.5t-50 187v334q0 80 28.5 147t78 112t111 73.5t132.5 38.5v98h184zM365 698v-333
q0 -72 65 -105v539q-65 -33 -65 -101z" />
    <glyph glyph-name="sterling" unicode="&#xa3;" horiz-adv-x="1075" 
d="M252 276v345h-174v270h174v137q0 61 12.5 120t44 118.5t79.5 104t124 72t172 27.5q197 0 328 -180l-166 -153q-41 47 -93 61.5t-96.5 -0.5t-77.5 -57.5t-38 -102.5v-147h274v-270h-274v-345h458v-276h-921v276h174z" />
    <glyph glyph-name="currency" unicode="&#xa4;" horiz-adv-x="1255" 
d="M82 336l98 100q-65 110 -65 254q0 136 67 254l-4 4l-98 94l188 205l111 -110q106 63 248 63q137 0 252 -65l110 110l187 -203l-103 -100q68 -110 68 -252q0 -144 -68 -256l4 -4v2l99 -94l-187 -203l-110 111q-110 -66 -252 -66q-137 0 -250 64l-8 -11l-101 -96zM395 688
q0 -95 68.5 -163t163.5 -68q94 0 161.5 68t67.5 163q0 98 -67.5 167t-161.5 69q-96 0 -164 -69t-68 -167z" />
    <glyph glyph-name="yen" unicode="&#xa5;" horiz-adv-x="1388" 
d="M39 1450h346l307 -606l307 606h351l-389 -688h143l-41 -205l-219 -2v-76h260l-39 -200h-221v-279h-301v279h-258l41 200h217l-2 78h-256l41 205h100z" />
    <glyph glyph-name="brokenbar" unicode="&#xa6;" horiz-adv-x="516" 
d="M401 664h-286v712h286v-712zM401 -244h-286v781h286v-781z" />
    <glyph glyph-name="section" unicode="&#xa7;" horiz-adv-x="976" 
d="M61 61l220 121q67 -133 204 -133q46 0 80.5 26t34.5 70q0 19 -12 38t-27.5 33t-45.5 31.5t-52 28.5t-60 29q-40 18 -58.5 26.5t-55 27t-55 32t-47 35.5t-43.5 43.5t-31 49t-22.5 60.5t-6.5 70q0 166 147 228q-54 35 -80 88.5t-26 111.5q0 111 57.5 196.5t146.5 128
t191 42.5q105 0 188.5 -50t151.5 -167l-207 -111q-27 46 -69 63t-78.5 6.5t-63 -40.5t-26.5 -68q0 -39 47 -72.5t137 -74.5q41 -20 63 -30.5t60 -32.5t59.5 -39t49 -44t42 -54t25 -63.5t10.5 -76.5q0 -64 -34.5 -122t-94.5 -91q61 -64 87.5 -136t19 -137.5t-41.5 -126.5
t-87.5 -105t-124.5 -70.5t-148 -26.5q-129 0 -245.5 74.5t-178.5 211.5zM428 567l164 -78q43 26 57 53.5t0.5 52.5t-39.5 46t-65 39v2l-109 61q-37 -17 -65.5 -40.5t-28.5 -43.5q0 -29 22.5 -49.5t63.5 -42.5z" />
    <glyph glyph-name="dieresis" unicode="&#xa8;" horiz-adv-x="804" 
d="M-29 1700q0 67 46 112.5t112 45.5q64 0 111 -46t47 -112q0 -64 -47 -109t-111 -45q-66 0 -112 45t-46 109zM416 1700q0 68 45 113t112 45q68 0 114 -45.5t46 -112.5q0 -65 -46.5 -109.5t-113.5 -44.5t-112 44.5t-45 109.5z" />
    <glyph glyph-name="copyright" unicode="&#xa9;" horiz-adv-x="1607" 
d="M68 719q0 198 99 367.5t268.5 268.5t369.5 99q148 0 284 -58.5t234 -157.5t156.5 -235t58.5 -284q0 -200 -98.5 -369t-267.5 -267.5t-367 -98.5q-200 0 -369.5 98.5t-268.5 267.5t-99 369zM279 719q0 -143 70 -264t191 -191.5t265 -70.5q142 0 262.5 70.5t190 191.5
t69.5 264q0 144 -70 264.5t-190 190t-262 69.5q-144 0 -265 -69.5t-191 -190t-70 -264.5zM412 827v-227q0 -67 22 -123.5t60 -96t88.5 -67t106.5 -40.5t116 -13q61 0 120 14.5t113.5 44t96.5 81.5t61 120l-197 74q-15 -53 -57 -86.5t-92.5 -39t-99.5 5t-84 44t-41 80.5v231
q6 47 41 81t84 44.5t99.5 5t92.5 -39t57 -86.5l193 73q-25 90 -89.5 151t-139.5 85t-158 24q-60 0 -116 -13t-106.5 -40.5t-88.5 -67t-60 -96t-22 -123.5z" />
    <glyph glyph-name="ordfeminine" unicode="&#xaa;" horiz-adv-x="782" 
d="M201 1176l-115 106q34 52 84 88.5t105.5 51.5t113.5 16.5t110.5 -18.5t94 -53t66 -86.5t24.5 -119.5v-477q-70 -19 -137.5 -30t-138.5 -13.5t-129.5 12t-106 44t-74 84.5t-26.5 132q0 58 19 104t51 74t72.5 45.5t84.5 22.5t86 1.5t78 -15.5q-3 53 -50.5 74t-108.5 8
t-103 -51zM449 829v136q-31 11 -65 11.5t-61.5 -18.5t-29.5 -51q0 -40 27.5 -62t62 -22t66.5 6z" />
    <glyph glyph-name="guillemotleft" unicode="&#xab;" horiz-adv-x="1144" 
d="M365 1061l245 -148l-219 -321q19 -28 98.5 -148.5t120.5 -177.5l-248 -145l-313 471zM831 1061l248 -148l-221 -325l14 -19q4 -6 75 -106.5t134 -192.5l-250 -149l-313 471z" />
    <glyph glyph-name="logicalnot" unicode="&#xac;" horiz-adv-x="1196" 
d="M92 578v284h993v-577h-284v293h-709z" />
    <glyph glyph-name="uni00AD" unicode="&#xad;" horiz-adv-x="821" 
d="M713 647v-289h-604v289h604z" />
    <glyph glyph-name="registered" unicode="&#xae;" horiz-adv-x="1607" 
d="M68 719q0 198 99 367.5t268.5 268.5t369.5 99q148 0 284 -58.5t234 -157.5t156.5 -235t58.5 -284q0 -200 -98.5 -369t-267.5 -267.5t-367 -98.5q-200 0 -369.5 98.5t-268.5 267.5t-99 369zM287 719q0 -106 41.5 -202.5t111 -166.5t166.5 -111.5t203 -41.5q140 0 259.5 70
t189 190.5t69.5 261.5q0 106 -41 202.5t-110.5 166t-165.5 110.5t-201 41q-107 0 -203.5 -41t-166.5 -110.5t-111 -166t-41 -202.5zM506 346v733h332q79 0 140 -29t93 -74.5t43 -101.5t-1 -109t-49 -98t-93 -67l176 -254h-238l-159 240h-43v-240h-201zM707 750h124
q31 0 52 16t25 39t-1 45.5t-26.5 38.5t-51.5 16h-122v-155z" />
    <glyph glyph-name="macron" unicode="&#xaf;" horiz-adv-x="657" 
d="M18 1589v211h551v-211h-551z" />
    <glyph glyph-name="degree" unicode="&#xb0;" horiz-adv-x="759" 
d="M381 815q-133 0 -227.5 94.5t-94.5 227.5q0 134 94 226.5t228 92.5q133 0 226 -92.5t93 -226.5q0 -131 -94.5 -226.5t-224.5 -95.5zM381 1038q41 0 69.5 28.5t28.5 68.5t-28.5 70t-69.5 30t-69.5 -30t-28.5 -70t28.5 -68.5t69.5 -28.5z" />
    <glyph glyph-name="plusminus" unicode="&#xb1;" horiz-adv-x="1101" 
d="M406 985v293h286v-293h314v-287h-314v-290h-286v290h-308v287h308zM1008 301v-285h-912v285h912z" />
    <glyph glyph-name="twosuperior" unicode="&#xb2;" horiz-adv-x="817" 
d="M268 1090l-188 161q114 179 315 179q80 0 142 -25t100.5 -67.5t58 -97t19.5 -116.5q0 -75 -66.5 -168.5t-171.5 -183.5h246v-268h-596l-57 155l321 361q62 70 38 116q-17 34 -62 29q-60 -7 -99 -75z" />
    <glyph glyph-name="threesuperior" unicode="&#xb3;" horiz-adv-x="784" 
d="M279 1090h102q32 0 42 35q10 37 -15 62q-19 18 -52 17q-32 -1 -60.5 -15.5t-43.5 -35.5l-156 131q67 72 122 105.5t132 37.5q68 4 132 -20.5t106 -69t62 -99t2.5 -116.5t-74.5 -116q61 -28 94 -75.5t36 -100t-16 -105.5t-57 -96q-78 -87 -197 -108.5t-228.5 28.5
t-160.5 156l187 116q22 -42 71 -55t89 7t40 61q0 20 -15 37t-38 14h-104v205z" />
    <glyph glyph-name="acute" unicode="&#xb4;" horiz-adv-x="536" 
d="M655 1839l-264 -291h-278l194 291h348z" />
    <glyph glyph-name="mu" unicode="&#xb5;" horiz-adv-x="1067" 
d="M711 -2l-23 70q-29 -54 -87.5 -76.5t-118 -2t-87.5 82.5v-455h-289v1440h291v-643q0 -96 68.5 -133t137 2t67.5 127v647h291l4 -1061z" />
    <glyph glyph-name="paragraph" unicode="&#xb6;" horiz-adv-x="1329" 
d="M504 -184v665q-108 7 -196.5 50.5t-144 111t-85 150.5t-29.5 172q0 74 19.5 144t60.5 132t99 108.5t141 73.5t180 27h657v-1634h-288v1364h-123v-1364h-291z" />
    <glyph glyph-name="periodcentered" unicode="&#xb7;" horiz-adv-x="509" 
d="M80 629q0 76 50.5 127t127.5 51q74 0 123 -51t49 -127q0 -74 -49 -124t-123 -50q-77 0 -127.5 50t-50.5 124z" />
    <glyph glyph-name="cedilla" unicode="&#xb8;" horiz-adv-x="514" 
d="M-49 -414l57 131q70 -45 124.5 -39.5t68.5 50.5q12 38 -24.5 69t-127.5 31l94 186h205l-53 -114q64 -5 104.5 -44t46.5 -93.5t-14 -116.5q-20 -53 -69.5 -90.5t-114 -52t-144.5 5.5t-153 77z" />
    <glyph glyph-name="onesuperior" unicode="&#xb9;" horiz-adv-x="614" 
d="M127 1024l-102 143l258 281h219v-903h-275v536z" />
    <glyph glyph-name="ordmasculine" unicode="&#xba;" horiz-adv-x="860" 
d="M430 610q-89 0 -167.5 33t-131.5 104t-53 168v246q0 98 53 169t131 103.5t168 32.5t168 -32.5t131 -103.5t53 -169v-246q0 -97 -53 -168t-131.5 -104t-167.5 -33zM354 1161v-246q1 -32 24.5 -51t51.5 -19.5t51.5 18t24.5 52.5v244q-1 45 -39 64t-75.5 0.5t-37.5 -62.5z
" />
    <glyph glyph-name="guillemotright" unicode="&#xbb;" horiz-adv-x="1136" 
d="M311 123l-250 143l224 324l-219 323l243 148l316 -469zM772 121l-246 149l219 322q-7 10 -92 137.5t-127 185.5l248 146l313 -469z" />
    <glyph glyph-name="onequarter" unicode="&#xbc;" horiz-adv-x="1701" 
d="M1350 1329l-865 -1421l-239 143l864 1422zM520 557v903h-219l-258 -280l102 -144l101 58v-537h274zM1559 958h-232l-491 -596l118 -184h330v-178h275v178h73v240h-73v540zM1309 410h-172l168 192l8 -2z" />
    <glyph glyph-name="onehalf" unicode="&#xbd;" horiz-adv-x="1759" 
d="M1364 1329l-866 -1421l-236 145l864 1420zM520 557v903h-219l-258 -280l102 -144l101 58v-537h274zM1038 723l187 -156q38 65 95 72q44 5 60 -27q22 -45 -39 -112l-313 -348l57 -152h596v260h-229l121 111q104 88 104 223q0 125 -90.5 213t-236.5 88q-202 0 -312 -172z
" />
    <glyph glyph-name="threequarters" unicode="&#xbe;" horiz-adv-x="1761" 
d="M1468 1329l-864 -1421l-231 145l864 1420zM287 897h110q24 3 40 -14.5t16 -38.5q0 -32 -26 -51.5t-61 -22t-70.5 13t-53.5 47.5l-195 -118q54 -110 169 -161.5t239.5 -29t206.5 112.5q53 59 70.5 132.5t-15 145t-117.5 109.5q60 55 78.5 119t-2 120t-64.5 102t-111 71.5
t-139 21.5q-80 -4 -137.5 -38.5t-128.5 -108.5l164 -135q16 21 46 36.5t63 16.5q54 2 69 -42q12 -37 -11 -62q-13 -15 -32 -15h-108v-211zM1413 926l-475 -576l115 -178h333v-172h242v172h72v231h-72v523h-215zM1229 395l162 187l8 -2l-4 -185h-166z" />
    <glyph glyph-name="questiondown" unicode="&#xbf;" horiz-adv-x="970" 
d="M707 920q0 -70 -47 -116t-115 -46t-115 46t-47 116q0 67 47 114t115 47t115 -47t47 -114zM750 -37l184 -156q-85 -112 -191 -164.5t-219 -52.5q-101 0 -186.5 33t-143 87t-94 124.5t-46.5 145.5t7 149t59 135.5t117 106.5t173 59l20 232h248l18 -424q-57 14 -127 14
q-136 0 -193.5 -103.5t0 -202t199.5 -85.5q110 10 175 102z" />
    <glyph glyph-name="Agrave" unicode="&#xc0;" horiz-adv-x="1298" 
d="M834 1548h-267l-239 291h336zM791 1450l520 -1450h-316l-127 332h-432l-121 -332h-321l508 1450h289zM594 922l-82 -314h279l-93 316l-45 206h-14z" />
    <glyph glyph-name="Aacute" unicode="&#xc1;" horiz-adv-x="1298" 
d="M1012 1839l-264 -291h-279l195 291h348zM791 1450l520 -1450h-316l-127 332h-432l-121 -332h-321l508 1450h289zM594 922l-82 -314h279l-93 316l-45 206h-14z" />
    <glyph glyph-name="Acircumflex" unicode="&#xc2;" horiz-adv-x="1298" 
d="M1049 1548h-330l-74 84l-74 -84h-321l278 291h238zM791 1450l520 -1450h-316l-127 332h-432l-121 -332h-321l508 1450h289zM594 922l-82 -314h279l-93 316l-45 206h-14z" />
    <glyph glyph-name="Atilde" unicode="&#xc3;" horiz-adv-x="1298" 
d="M455 1563l-150 75q19 100 83 161t136 61q36 0 77.5 -15.5t72 -31.5t60.5 -25.5t54 2.5t41 51l148 -74q-37 -111 -87 -162t-124 -51q-39 0 -89 23t-83.5 41.5t-72 9t-66.5 -64.5zM791 1450l520 -1450h-316l-127 332h-432l-121 -332h-321l508 1450h289zM594 922l-82 -314
h279l-93 316l-45 206h-14z" />
    <glyph glyph-name="Adieresis" unicode="&#xc4;" horiz-adv-x="1298" 
d="M266 1700q0 67 46 112.5t112 45.5q64 0 111 -46t47 -112q0 -64 -47 -109t-111 -45q-66 0 -112 45t-46 109zM711 1700q0 68 45 113t112 45q68 0 114 -45.5t46 -112.5q0 -65 -46.5 -109.5t-113.5 -44.5t-112 44.5t-45 109.5zM791 1450l520 -1450h-316l-127 332h-432
l-121 -332h-321l508 1450h289zM594 922l-82 -314h279l-93 316l-45 206h-14z" />
    <glyph glyph-name="Aring" unicode="&#xc5;" horiz-adv-x="1298" 
d="M995 0l-127 332h-432l-121 -332h-321l495 1415q-45 36 -70.5 87.5t-25.5 109.5q0 103 75.5 178.5t180.5 75.5q103 0 175.5 -77.5t72.5 -178.5q0 -56 -25.5 -107.5t-68.5 -87.5l508 -1415h-316zM649 1714q-46 0 -77 -29.5t-31 -74.5q0 -36 32 -68.5t76 -32.5
q40 0 70.5 29.5t30.5 71.5q0 45 -30 74.5t-71 29.5zM698 924l-45 206h-14l-45 -208l-82 -314h279z" />
    <glyph glyph-name="AE" unicode="&#xc6;" horiz-adv-x="1691" 
d="M1608 1147h-533v-273h479v-301h-479v-274h533v-299h-813v418h-271l-192 -418h-361l744 1450h893v-303zM649 707h162l2 356l-22 2z" />
    <glyph glyph-name="Ccedilla" unicode="&#xc7;" horiz-adv-x="1196" 
d="M915 428l261 -145q-76 -124 -187 -199t-237 -96l-43 -92q64 -5 104.5 -44t46.5 -93.5t-14 -116.5q-20 -53 -69.5 -90.5t-114 -52t-144.5 5.5t-153 77l57 131q70 -45 124 -39.5t68 50.5q12 38 -24 69t-127 31l84 164q-93 15 -174 52t-145 95t-101 142t-37 184v528
q0 92 31.5 171t86 135.5t127 96.5t155 59t169.5 19q100 0 194.5 -32.5t178.5 -104.5t131 -174l-241 -131q-41 78 -119 118t-166 38q-102 -2 -175 -55t-73 -140v-528q0 -86 71 -137.5t171 -53.5q87 -2 165 38.5t119 119.5z" />
    <glyph glyph-name="Egrave" unicode="&#xc8;" horiz-adv-x="1193" 
d="M805 1548h-266l-240 291h336zM430 1157v-285h625v-292h-625v-287h680v-293h-983v1452h983v-295h-680z" />
    <glyph glyph-name="Eacute" unicode="&#xc9;" horiz-adv-x="1193" 
d="M983 1839l-264 -291h-279l195 291h348zM430 1157v-285h625v-292h-625v-287h680v-293h-983v1452h983v-295h-680z" />
    <glyph glyph-name="Ecircumflex" unicode="&#xca;" horiz-adv-x="1193" 
d="M1020 1548h-330l-74 84l-73 -84h-322l279 291h237zM430 1157v-285h625v-292h-625v-287h680v-293h-983v1452h983v-295h-680z" />
    <glyph glyph-name="Edieresis" unicode="&#xcb;" horiz-adv-x="1193" 
d="M238 1700q0 67 45.5 112.5t111.5 45.5q64 0 111 -46t47 -112q0 -64 -47 -109t-111 -45q-66 0 -111.5 44.5t-45.5 109.5zM682 1700q0 68 45 113t113 45t113.5 -45.5t45.5 -112.5q0 -65 -46 -109.5t-113 -44.5t-112.5 44.5t-45.5 109.5zM430 1157v-285h625v-292h-625v-287
h680v-293h-983v1452h983v-295h-680z" />
    <glyph glyph-name="Igrave" unicode="&#xcc;" horiz-adv-x="555" 
d="M465 1548h-266l-240 291h336zM428 1450v-1450h-301v1450h301z" />
    <glyph glyph-name="Iacute" unicode="&#xcd;" horiz-adv-x="555" 
d="M643 1839l-264 -291h-279l195 291h348zM428 1450v-1450h-301v1450h301z" />
    <glyph glyph-name="Icircumflex" unicode="&#xce;" horiz-adv-x="555" 
d="M680 1548h-330l-74 84l-73 -84h-322l279 291h237zM428 1450v-1450h-301v1450h301z" />
    <glyph glyph-name="Idieresis" unicode="&#xcf;" horiz-adv-x="555" 
d="M-102 1700q0 67 45.5 112.5t111.5 45.5q64 0 111 -46t47 -112q0 -64 -47 -109t-111 -45q-66 0 -111.5 44.5t-45.5 109.5zM342 1700q0 68 45 113t113 45t113.5 -45.5t45.5 -112.5q0 -65 -46 -109.5t-113 -44.5t-112.5 44.5t-45.5 109.5zM428 1450v-1450h-301v1450h301z
" />
    <glyph glyph-name="Eth" unicode="&#xd0;" horiz-adv-x="1318" 
d="M143 848v602h578q110 0 200 -27t159.5 -82t108 -145.5t38.5 -210.5v-522q0 -119 -38.5 -209.5t-108 -145t-160 -81.5t-199.5 -27h-578v586h-114v262h114zM446 303h275q102 0 153.5 37.5t51.5 122.5v522q0 86 -51.5 124t-153.5 38h-275v-299h242v-262h-242v-283z" />
    <glyph glyph-name="Ntilde" unicode="&#xd1;" horiz-adv-x="1390" 
d="M504 1563l-150 75q19 100 83 161t136 61q36 0 77.5 -15.5t72.5 -31.5t61 -25.5t54 2.5t41 51l147 -74q-37 -111 -87 -162t-124 -51q-39 0 -89 23t-83.5 41.5t-72 9t-66.5 -64.5zM985 397l21 4q-37 219 -43 308v741h301v-1450h-322l-442 762l-88 196l-21 -4l39 -247v-707
h-303v1450h297l459 -791z" />
    <glyph glyph-name="Ograve" unicode="&#xd2;" horiz-adv-x="1363" 
d="M868 1569h-266l-240 291h336zM88 461v526q0 94 33.5 174.5t90.5 136.5t133 95.5t161.5 58.5t175.5 18q90 0 175.5 -19t161.5 -58.5t133 -96t90.5 -136t33.5 -173.5v-526q0 -94 -33.5 -174t-90.5 -136t-133 -96t-161.5 -59t-175.5 -19t-175.5 19t-161.5 58.5t-133 96
t-90.5 136.5t-33.5 174zM387 987v-526q0 -59 44 -101.5t109 -61.5t142 -19q120 2 206.5 49.5t86.5 132.5v526q0 60 -44 103t-109.5 62.5t-141.5 18.5q-75 0 -140.5 -20t-109 -63t-43.5 -101z" />
    <glyph glyph-name="Oacute" unicode="&#xd3;" horiz-adv-x="1363" 
d="M1047 1860l-265 -291h-278l194 291h349zM88 461v526q0 94 33.5 174.5t90.5 136.5t133 95.5t161.5 58.5t175.5 18q90 0 175.5 -19t161.5 -58.5t133 -96t90.5 -136t33.5 -173.5v-526q0 -94 -33.5 -174t-90.5 -136t-133 -96t-161.5 -59t-175.5 -19t-175.5 19t-161.5 58.5
t-133 96t-90.5 136.5t-33.5 174zM387 987v-526q0 -59 44 -101.5t109 -61.5t142 -19q120 2 206.5 49.5t86.5 132.5v526q0 60 -44 103t-109.5 62.5t-141.5 18.5q-75 0 -140.5 -20t-109 -63t-43.5 -101z" />
    <glyph glyph-name="Ocircumflex" unicode="&#xd4;" horiz-adv-x="1363" 
d="M1083 1569h-329l-74 84l-74 -84h-321l278 291h238zM88 461v526q0 94 33.5 174.5t90.5 136.5t133 95.5t161.5 58.5t175.5 18q90 0 175.5 -19t161.5 -58.5t133 -96t90.5 -136t33.5 -173.5v-526q0 -94 -33.5 -174t-90.5 -136t-133 -96t-161.5 -59t-175.5 -19t-175.5 19
t-161.5 58.5t-133 96t-90.5 136.5t-33.5 174zM387 987v-526q0 -59 44 -101.5t109 -61.5t142 -19q120 2 206.5 49.5t86.5 132.5v526q0 60 -44 103t-109.5 62.5t-141.5 18.5q-75 0 -140.5 -20t-109 -63t-43.5 -101z" />
    <glyph glyph-name="Otilde" unicode="&#xd5;" horiz-adv-x="1363" 
d="M489 1583l-149 76q19 100 83 160.5t136 60.5q36 0 77.5 -15.5t72 -31t60.5 -25.5t54 2.5t41 51.5l148 -74q-37 -111 -87 -162t-124 -51q-33 0 -72 16t-69 32t-61 25.5t-59 -5.5t-51 -60zM88 461v526q0 94 33.5 174.5t90.5 136.5t133 95.5t161.5 58.5t175.5 18
q90 0 175.5 -19t161.5 -58.5t133 -96t90.5 -136t33.5 -173.5v-526q0 -94 -33.5 -174t-90.5 -136t-133 -96t-161.5 -59t-175.5 -19t-175.5 19t-161.5 58.5t-133 96t-90.5 136.5t-33.5 174zM387 987v-526q0 -59 44 -101.5t109 -61.5t142 -19q120 2 206.5 49.5t86.5 132.5v526
q0 60 -44 103t-109.5 62.5t-141.5 18.5q-75 0 -140.5 -20t-109 -63t-43.5 -101z" />
    <glyph glyph-name="Odieresis" unicode="&#xd6;" horiz-adv-x="1363" 
d="M301 1720q0 67 46 112.5t112 45.5q64 0 110.5 -45.5t46.5 -112.5q0 -64 -46.5 -108.5t-110.5 -44.5q-66 0 -112 44.5t-46 108.5zM745 1720q0 68 45.5 113t112.5 45q68 0 114 -45.5t46 -112.5q0 -65 -46.5 -109t-113.5 -44t-112.5 44t-45.5 109zM88 461v526
q0 94 33.5 174.5t90.5 136.5t133 95.5t161.5 58.5t175.5 18q90 0 175.5 -19t161.5 -58.5t133 -96t90.5 -136t33.5 -173.5v-526q0 -94 -33.5 -174t-90.5 -136t-133 -96t-161.5 -59t-175.5 -19t-175.5 19t-161.5 58.5t-133 96t-90.5 136.5t-33.5 174zM387 987v-526
q0 -59 44 -101.5t109 -61.5t142 -19q120 2 206.5 49.5t86.5 132.5v526q0 60 -44 103t-109.5 62.5t-141.5 18.5q-75 0 -140.5 -20t-109 -63t-43.5 -101z" />
    <glyph glyph-name="multiply" unicode="&#xd7;" horiz-adv-x="1081" 
d="M541 805l270 270l201 -203l-267 -266l265 -266l-201 -201l-266 267l-275 -277l-196 205l270 268l-276 277l200 198z" />
    <glyph glyph-name="Oslash" unicode="&#xd8;" horiz-adv-x="1363" 
d="M1122 1569l-75 -191q107 -63 168 -161.5t61 -229.5v-526q0 -94 -33.5 -174t-90.5 -136t-133 -96t-161.5 -59t-175.5 -19t-193 23l-69 -174l-160 63l70 172q-112 64 -177 164.5t-65 235.5v526q0 94 33.5 174.5t90.5 136.5t133 95.5t161.5 58.5t175.5 18q108 0 203 -26
l73 182zM387 987v-526q0 -68 57 -115l328 817q-39 8 -92 8q-75 0 -140.5 -20t-109 -63t-43.5 -101zM975 461v526q0 63 -45 105l-326 -807q38 -6 78 -6q120 2 206.5 49.5t86.5 132.5z" />
    <glyph glyph-name="Ugrave" unicode="&#xd9;" horiz-adv-x="1368" 
d="M874 1548h-266l-239 291h336zM418 1450v-973q0 -96 78 -149.5t186 -53.5q112 0 190 53.5t78 149.5v973h303v-973q0 -120 -48 -217t-129 -157t-182 -91.5t-212 -31.5q-87 0 -168.5 19.5t-154 60t-127 98.5t-86 140t-31.5 179v973h303z" />
    <glyph glyph-name="Uacute" unicode="&#xda;" horiz-adv-x="1368" 
d="M1053 1839l-265 -291h-278l195 291h348zM418 1450v-973q0 -96 78 -149.5t186 -53.5q112 0 190 53.5t78 149.5v973h303v-973q0 -120 -48 -217t-129 -157t-182 -91.5t-212 -31.5q-87 0 -168.5 19.5t-154 60t-127 98.5t-86 140t-31.5 179v973h303z" />
    <glyph glyph-name="Ucircumflex" unicode="&#xdb;" horiz-adv-x="1368" 
d="M1090 1548h-330l-74 84l-74 -84h-321l278 291h238zM418 1450v-973q0 -96 78 -149.5t186 -53.5q112 0 190 53.5t78 149.5v973h303v-973q0 -120 -48 -217t-129 -157t-182 -91.5t-212 -31.5q-87 0 -168.5 19.5t-154 60t-127 98.5t-86 140t-31.5 179v973h303z" />
    <glyph glyph-name="Udieresis" unicode="&#xdc;" horiz-adv-x="1368" 
d="M307 1700q0 67 46 112.5t112 45.5q64 0 111 -46t47 -112q0 -64 -47 -109t-111 -45q-66 0 -112 45t-46 109zM752 1700q0 68 45 113t112 45q68 0 114 -45.5t46 -112.5q0 -65 -46.5 -109.5t-113.5 -44.5t-112 44.5t-45 109.5zM418 1450v-973q0 -96 78 -149.5t186 -53.5
q112 0 190 53.5t78 149.5v973h303v-973q0 -120 -48 -217t-129 -157t-182 -91.5t-212 -31.5q-87 0 -168.5 19.5t-154 60t-127 98.5t-86 140t-31.5 179v973h303z" />
    <glyph glyph-name="Yacute" unicode="&#xdd;" horiz-adv-x="1286" 
d="M1008 1839l-265 -291h-278l194 291h349zM793 0h-301v555l-504 895h346l307 -606l307 606h350l-505 -895v-555z" />
    <glyph glyph-name="Thorn" unicode="&#xde;" horiz-adv-x="1257" 
d="M127 2v1450h299v-207h272q143 0 254.5 -55.5t169 -144t84 -195t-0.5 -213.5t-84.5 -195t-168.5 -143t-252 -55h-274v-242h-299zM426 526h272q70 0 121.5 31t75 77t24 100t-22.5 100t-75 77t-123 31h-272v-416z" />
    <glyph glyph-name="germandbls" unicode="&#xdf;" horiz-adv-x="1183" 
d="M475 37v289q44 -38 104.5 -46t112.5 9.5t88.5 60.5t36.5 99q0 83 -56 123t-149 40h-143v277h143q59 0 105.5 55t46.5 123q0 60 -38.5 99.5t-93.5 47t-109 -3.5t-91 -53t-35 -102v-1055h-286v1055q-1 114 50.5 204.5t134.5 138t184 71t202 3t184.5 -65.5t136 -134.5
t52.5 -204.5q0 -195 -150 -303q115 -58 169.5 -158t47 -205.5t-64.5 -199.5q-85 -136 -250.5 -182.5t-331.5 18.5z" />
    <glyph glyph-name="agrave" unicode="&#xe0;" 
d="M700 1180h-266l-239 290h335zM55 315q0 88 31.5 156.5t85 109t119.5 61t141 20.5q92 0 189 -33v76q0 78 -45.5 112.5t-118.5 34.5q-58 0 -121 -28.5t-103 -69.5l-139 149q152 175 383 178q82 0 155.5 -23.5t133 -68t94.5 -118t35 -166.5v-648q-205 -77 -399 -77
q-219 0 -330 88.5t-111 246.5zM612 213v215q-69 25 -129 25q-79 0 -118 -34.5t-39 -94.5q0 -59 41.5 -92t124.5 -33q65 0 120 14z" />
    <glyph glyph-name="aacute" unicode="&#xe1;" 
d="M879 1470l-265 -290h-278l194 290h349zM55 315q0 88 31.5 156.5t85 109t119.5 61t141 20.5q92 0 189 -33v76q0 78 -45.5 112.5t-118.5 34.5q-58 0 -121 -28.5t-103 -69.5l-139 149q152 175 383 178q82 0 155.5 -23.5t133 -68t94.5 -118t35 -166.5v-648q-205 -77 -399 -77
q-219 0 -330 88.5t-111 246.5zM612 213v215q-69 25 -129 25q-79 0 -118 -34.5t-39 -94.5q0 -59 41.5 -92t124.5 -33q65 0 120 14z" />
    <glyph glyph-name="acircumflex" unicode="&#xe2;" 
d="M895 1180h-330l-73 84l-74 -84h-322l279 290h237zM55 315q0 88 31.5 156.5t85 109t119.5 61t141 20.5q92 0 189 -33v76q0 78 -45.5 112.5t-118.5 34.5q-58 0 -121 -28.5t-103 -69.5l-139 149q152 175 383 178q82 0 155.5 -23.5t133 -68t94.5 -118t35 -166.5v-648
q-205 -77 -399 -77q-219 0 -330 88.5t-111 246.5zM612 213v215q-69 25 -129 25q-79 0 -118 -34.5t-39 -94.5q0 -59 41.5 -92t124.5 -33q65 0 120 14z" />
    <glyph glyph-name="atilde" unicode="&#xe3;" 
d="M301 1194l-149 76q19 100 83 160.5t136 60.5q36 0 77.5 -15.5t72 -31t60.5 -25.5t54 2.5t41 51.5l147 -74q-37 -111 -87 -162t-124 -51q-33 0 -72 16t-69 32t-60.5 25.5t-58.5 -5.5t-51 -60zM55 315q0 88 31.5 156.5t85 109t119.5 61t141 20.5q92 0 189 -33v76
q0 78 -45.5 112.5t-118.5 34.5q-58 0 -121 -28.5t-103 -69.5l-139 149q152 175 383 178q82 0 155.5 -23.5t133 -68t94.5 -118t35 -166.5v-648q-205 -77 -399 -77q-219 0 -330 88.5t-111 246.5zM612 213v215q-69 25 -129 25q-79 0 -118 -34.5t-39 -94.5q0 -59 41.5 -92
t124.5 -33q65 0 120 14z" />
    <glyph glyph-name="adieresis" unicode="&#xe4;" 
d="M125 1331q0 67 46 112.5t112 45.5q64 0 110.5 -45.5t46.5 -112.5q0 -64 -46.5 -108.5t-110.5 -44.5q-66 0 -112 44.5t-46 108.5zM569 1331q0 67 45.5 112.5t112.5 45.5q68 0 114 -45.5t46 -112.5q0 -65 -46.5 -109t-113.5 -44t-112.5 44t-45.5 109zM55 315
q0 88 31.5 156.5t85 109t119.5 61t141 20.5q92 0 189 -33v76q0 78 -45.5 112.5t-118.5 34.5q-58 0 -121 -28.5t-103 -69.5l-139 149q152 175 383 178q82 0 155.5 -23.5t133 -68t94.5 -118t35 -166.5v-648q-205 -77 -399 -77q-219 0 -330 88.5t-111 246.5zM612 213v215
q-69 25 -129 25q-79 0 -118 -34.5t-39 -94.5q0 -59 41.5 -92t124.5 -33q65 0 120 14z" />
    <glyph glyph-name="aring" unicode="&#xe5;" 
d="M492 1622q76 0 132 -34.5t81.5 -86.5t25.5 -112.5t-25.5 -112.5t-81.5 -86.5t-132 -34.5q-79 0 -137 34.5t-84 86.5t-26 112.5t26 112.5t84 86.5t137 34.5zM492 1487q-50 0 -77 -31t-25.5 -67.5t29 -67.5t73.5 -31t72 31t26 67.5t-26 67.5t-72 31zM55 315
q0 88 31.5 156.5t85 109t119.5 61t141 20.5q92 0 189 -33v76q0 78 -45.5 112.5t-118.5 34.5q-58 0 -121 -28.5t-103 -69.5l-139 149q152 175 383 178q82 0 155.5 -23.5t133 -68t94.5 -118t35 -166.5v-648q-205 -77 -399 -77q-219 0 -330 88.5t-111 246.5zM612 213v215
q-69 25 -129 25q-79 0 -118 -34.5t-39 -94.5q0 -59 41.5 -92t124.5 -33q65 0 120 14z" />
    <glyph glyph-name="ae" unicode="&#xe6;" horiz-adv-x="1486" 
d="M1200 293l176 -123q-61 -93 -152.5 -141.5t-191.5 -48.5q-185 0 -284 129q-68 -65 -149.5 -97t-160.5 -32q-160 2 -267.5 93.5t-107.5 258.5q0 75 22 138t65 112.5t115 77.5t165 28q129 0 191 -33q6 101 -45.5 150t-137.5 49q-62 0 -122.5 -24.5t-98.5 -65.5l-139 129
q64 90 168.5 139t220.5 49q168 0 291 -96q99 96 266 96q79 0 149 -23.5t125.5 -69.5t88 -119.5t32.5 -166.5v-290h-553v-56q0 -71 52 -108t124 -37q47 0 90.5 21.5t67.5 60.5zM1171 618v97q0 56 -45.5 88.5t-107.5 32.5q-61 0 -106.5 -33.5t-45.5 -89.5v-95h305zM616 451
q-23 9 -68.5 14.5t-82.5 3.5q-77 -1 -118.5 -40t-41.5 -93q0 -64 44 -100.5t126 -36.5q40 0 87 10t69 31q-19 86 -15 211z" />
    <glyph glyph-name="ccedilla" unicode="&#xe7;" horiz-adv-x="958" 
d="M672 350l250 -82q-40 -118 -123.5 -186t-186.5 -90l-45 -96q93 -7 130 -81.5t3 -162.5q-19 -52 -66.5 -88t-110 -49.5t-139 5.5t-146.5 74l55 125q67 -42 119 -37t65 48q12 36 -22.5 66t-122.5 30l82 162q-143 27 -237.5 121t-94.5 245v351q0 91 36.5 164.5t97.5 118.5
t136 69t156 24q61 0 120 -15t116 -46t101 -89t64 -136l-243 -76q-16 52 -60 79t-98 27q-57 0 -99 -32t-42 -86v-351q0 -56 41.5 -88t99.5 -32q54 0 99.5 28.5t64.5 85.5z" />
    <glyph glyph-name="egrave" unicode="&#xe8;" 
d="M696 1180h-266l-240 290h336zM694 315l187 -135q-39 -72 -105.5 -119t-132 -64t-133.5 -17q-82 0 -157 24t-136.5 69t-98 118.5t-36.5 164.5v351q0 92 37 165.5t99.5 118t138 67.5t157.5 23q80 0 151.5 -21t130.5 -63.5t93.5 -114t34.5 -163.5v-311h-555v-48
q0 -58 46.5 -91t112.5 -33q52 0 97 20.5t69 58.5zM655 618v97q0 53 -40.5 81.5t-98.5 28.5q-60 0 -103.5 -29t-43.5 -83v-95h286z" />
    <glyph glyph-name="eacute" unicode="&#xe9;" 
d="M874 1470l-264 -290h-278l194 290h348zM694 315l187 -135q-39 -72 -105.5 -119t-132 -64t-133.5 -17q-82 0 -157 24t-136.5 69t-98 118.5t-36.5 164.5v351q0 92 37 165.5t99.5 118t138 67.5t157.5 23q80 0 151.5 -21t130.5 -63.5t93.5 -114t34.5 -163.5v-311h-555v-48
q0 -58 46.5 -91t112.5 -33q52 0 97 20.5t69 58.5zM655 618v97q0 53 -40.5 81.5t-98.5 28.5q-60 0 -103.5 -29t-43.5 -83v-95h286z" />
    <glyph glyph-name="ecircumflex" unicode="&#xea;" 
d="M911 1180h-329l-74 84l-74 -84h-321l278 290h238zM694 315l187 -135q-39 -72 -105.5 -119t-132 -64t-133.5 -17q-82 0 -157 24t-136.5 69t-98 118.5t-36.5 164.5v351q0 92 37 165.5t99.5 118t138 67.5t157.5 23q80 0 151.5 -21t130.5 -63.5t93.5 -114t34.5 -163.5v-311
h-555v-48q0 -58 46.5 -91t112.5 -33q52 0 97 20.5t69 58.5zM655 618v97q0 53 -40.5 81.5t-98.5 28.5q-60 0 -103.5 -29t-43.5 -83v-95h286z" />
    <glyph glyph-name="edieresis" unicode="&#xeb;" 
d="M129 1331q0 67 46 112.5t112 45.5q64 0 110.5 -45.5t46.5 -112.5q0 -64 -46.5 -108.5t-110.5 -44.5q-66 0 -112 44.5t-46 108.5zM573 1331q0 67 45.5 112.5t112.5 45.5q68 0 114 -45.5t46 -112.5q0 -65 -46.5 -109t-113.5 -44t-112.5 44t-45.5 109zM694 315l187 -135
q-39 -72 -105.5 -119t-132 -64t-133.5 -17q-82 0 -157 24t-136.5 69t-98 118.5t-36.5 164.5v351q0 92 37 165.5t99.5 118t138 67.5t157.5 23q80 0 151.5 -21t130.5 -63.5t93.5 -114t34.5 -163.5v-311h-555v-48q0 -58 46.5 -91t112.5 -33q52 0 97 20.5t69 58.5zM655 618v97
q0 53 -40.5 81.5t-98.5 28.5q-60 0 -103.5 -29t-43.5 -83v-95h286z" />
    <glyph glyph-name="igrave" unicode="&#xec;" horiz-adv-x="509" 
d="M442 1159h-266l-239 291h335zM401 1059v-1059h-290v1059h290z" />
    <glyph glyph-name="iacute" unicode="&#xed;" horiz-adv-x="512" 
d="M621 1450l-265 -291h-278l194 291h349zM401 1059v-1059h-290v1059h290z" />
    <glyph glyph-name="icircumflex" unicode="&#xee;" horiz-adv-x="512" 
d="M616 1159h-290l-72 92l-70 -92h-284l237 291h238zM401 1059v-1059h-290v1059h290z" />
    <glyph glyph-name="idieresis" unicode="&#xef;" horiz-adv-x="512" 
d="M-104 1292q0 67 45.5 112.5t111.5 45.5q64 0 111 -46t47 -112q0 -64 -47 -108.5t-111 -44.5q-66 0 -111.5 44.5t-45.5 108.5zM299 1292q0 68 45.5 113t112.5 45q68 0 113.5 -45.5t45.5 -112.5q0 -65 -46 -109t-113 -44t-112.5 44t-45.5 109zM401 1059v-1059h-290v1059
h290z" />
    <glyph glyph-name="eth" unicode="&#xf0;" horiz-adv-x="1034" 
d="M690 1542l-35 -106q119 -44 196 -150t77 -254v-956q-192 -96 -391 -96q-91 0 -169.5 20t-143.5 61t-102.5 113t-37.5 168v399q0 85 33.5 153.5t91 109.5t129.5 63t151.5 19t155.5 -29q0 91 -70 141l-22 -68l-121 29l23 72q-53 0 -107.5 -20t-87.5 -58l-137 145
q71 85 180 128t221 34h6l37 113zM641 227v602q-51 31 -125 31q-65 0 -111.5 -32t-46.5 -91v-393q0 -69 49 -104t121 -35q58 0 113 22z" />
    <glyph glyph-name="ntilde" unicode="&#xf1;" horiz-adv-x="1054" 
d="M340 1194l-150 76q19 100 83 160.5t137 60.5q36 0 77.5 -15.5t72 -31t60.5 -25.5t54 2.5t41 51.5l147 -74q-37 -111 -87 -162t-124 -51q-33 0 -72 16t-69 32t-60.5 25.5t-58.5 -5.5t-51 -60zM109 0v989q189 92 383 92q93 0 174 -22t146.5 -66.5t103.5 -121t38 -177.5
v-694h-282v684q0 69 -47.5 105t-114.5 36q-66 0 -117 -28v-797h-284z" />
    <glyph glyph-name="ograve" unicode="&#xf2;" horiz-adv-x="1011" 
d="M694 1159h-266l-240 291h336zM82 356v346q0 91 36.5 164.5t97 119t135.5 70t157 25.5q81 -1 155.5 -25.5t135 -70t97 -119t36.5 -164.5v-346q0 -92 -36 -165.5t-97 -118t-135.5 -68t-155.5 -24.5q-82 1 -156.5 24.5t-136 68t-97.5 118t-36 165.5zM508 825q-55 0 -98 -28
t-43 -76v-371q0 -49 43.5 -81.5t97.5 -32.5q53 0 96 32.5t43 81.5v371q0 48 -42.5 76t-96.5 28z" />
    <glyph glyph-name="oacute" unicode="&#xf3;" horiz-adv-x="1011" 
d="M872 1450l-264 -291h-278l194 291h348zM82 356v346q0 91 36.5 164.5t97 119t135.5 70t157 25.5q81 -1 155.5 -25.5t135 -70t97 -119t36.5 -164.5v-346q0 -92 -36 -165.5t-97 -118t-135.5 -68t-155.5 -24.5q-82 1 -156.5 24.5t-136 68t-97.5 118t-36 165.5zM508 825
q-55 0 -98 -28t-43 -76v-371q0 -49 43.5 -81.5t97.5 -32.5q53 0 96 32.5t43 81.5v371q0 48 -42.5 76t-96.5 28z" />
    <glyph glyph-name="ocircumflex" unicode="&#xf4;" horiz-adv-x="1011" 
d="M909 1159h-329l-74 84l-74 -84h-321l278 291h238zM82 356v346q0 91 36.5 164.5t97 119t135.5 70t157 25.5q81 -1 155.5 -25.5t135 -70t97 -119t36.5 -164.5v-346q0 -92 -36 -165.5t-97 -118t-135.5 -68t-155.5 -24.5q-82 1 -156.5 24.5t-136 68t-97.5 118t-36 165.5z
M508 825q-55 0 -98 -28t-43 -76v-371q0 -49 43.5 -81.5t97.5 -32.5q53 0 96 32.5t43 81.5v371q0 48 -42.5 76t-96.5 28z" />
    <glyph glyph-name="otilde" unicode="&#xf5;" horiz-adv-x="1011" 
d="M315 1174l-149 75q19 100 83 160.5t136 60.5q36 0 77.5 -15.5t72 -31t60.5 -25.5t54 2.5t41 51.5l148 -74q-37 -111 -87 -162t-124 -51q-39 0 -89 23t-84 41.5t-72.5 9t-66.5 -64.5zM82 356v346q0 91 36.5 164.5t97 119t135.5 70t157 25.5q81 -1 155.5 -25.5t135 -70
t97 -119t36.5 -164.5v-346q0 -92 -36 -165.5t-97 -118t-135.5 -68t-155.5 -24.5q-82 1 -156.5 24.5t-136 68t-97.5 118t-36 165.5zM508 825q-55 0 -98 -28t-43 -76v-371q0 -49 43.5 -81.5t97.5 -32.5q53 0 96 32.5t43 81.5v371q0 48 -42.5 76t-96.5 28z" />
    <glyph glyph-name="odieresis" unicode="&#xf6;" horiz-adv-x="1011" 
d="M127 1311q0 67 46 112t112 45q64 0 110.5 -45.5t46.5 -111.5q0 -64 -46.5 -109t-110.5 -45q-66 0 -112 45t-46 109zM571 1311q0 67 45 112t113 45t114 -45t46 -112q0 -65 -46.5 -109.5t-113.5 -44.5t-112.5 44.5t-45.5 109.5zM82 356v346q0 91 36.5 164.5t97 119
t135.5 70t157 25.5q81 -1 155.5 -25.5t135 -70t97 -119t36.5 -164.5v-346q0 -92 -36 -165.5t-97 -118t-135.5 -68t-155.5 -24.5q-82 1 -156.5 24.5t-136 68t-97.5 118t-36 165.5zM508 825q-55 0 -98 -28t-43 -76v-371q0 -49 43.5 -81.5t97.5 -32.5q53 0 96 32.5t43 81.5v371
q0 48 -42.5 76t-96.5 28z" />
    <glyph glyph-name="divide" unicode="&#xf7;" horiz-adv-x="1044" 
d="M342 1024q0 74 53 126t127 52t128.5 -52t54.5 -126q0 -75 -54.5 -129.5t-128.5 -54.5q-73 0 -126.5 54.5t-53.5 129.5zM983 778v-272h-920v272h920zM348 262q0 77 52.5 126.5t129.5 51.5q75 0 129 -51.5t54 -126.5q0 -76 -53.5 -129t-127.5 -53q-76 0 -130 53t-54 129z
" />
    <glyph glyph-name="oslash" unicode="&#xf8;" horiz-adv-x="1011" 
d="M827 1137l-53 -133q158 -106 158 -302v-346q0 -92 -36 -165.5t-97 -118t-135.5 -68t-155.5 -24.5q-62 0 -131 16l-55 -139l-140 57l58 141q-158 103 -158 301v346q0 91 36.5 164.5t97 119t135.5 70t157 25.5q70 0 131 -18l51 127zM367 377l176 444q-20 4 -35 4
q-55 0 -98 -28t-43 -76v-344zM508 236q53 0 96 32.5t43 81.5v330l-174 -440q24 -4 35 -4z" />
    <glyph glyph-name="ugrave" unicode="&#xf9;" horiz-adv-x="1056" 
d="M713 1159h-267l-239 291h336zM950 1061v-1004q-216 -77 -401 -77q-73 0 -136 11.5t-121.5 40t-99.5 72.5t-65.5 112.5t-24.5 156.5v688h285v-672q0 -88 50.5 -131t127.5 -43q53 0 103 18v828h282z" />
    <glyph glyph-name="uacute" unicode="&#xfa;" horiz-adv-x="1056" 
d="M891 1450l-264 -291h-279l195 291h348zM950 1061v-1004q-216 -77 -401 -77q-73 0 -136 11.5t-121.5 40t-99.5 72.5t-65.5 112.5t-24.5 156.5v688h285v-672q0 -88 50.5 -131t127.5 -43q53 0 103 18v828h282z" />
    <glyph glyph-name="ucircumflex" unicode="&#xfb;" horiz-adv-x="1056" 
d="M928 1159h-330l-74 84l-73 -84h-322l279 291h237zM950 1061v-1004q-216 -77 -401 -77q-73 0 -136 11.5t-121.5 40t-99.5 72.5t-65.5 112.5t-24.5 156.5v688h285v-672q0 -88 50.5 -131t127.5 -43q53 0 103 18v828h282z" />
    <glyph glyph-name="udieresis" unicode="&#xfc;" horiz-adv-x="1056" 
d="M145 1311q0 67 46 112t112 45q64 0 111 -45.5t47 -111.5q0 -64 -47 -109t-111 -45q-66 0 -112 45t-46 109zM590 1311q0 67 45 112t113 45t113.5 -45t45.5 -112q0 -65 -46 -109.5t-113 -44.5t-112.5 44.5t-45.5 109.5zM950 1061v-1004q-216 -77 -401 -77q-73 0 -136 11.5
t-121.5 40t-99.5 72.5t-65.5 112.5t-24.5 156.5v688h285v-672q0 -88 50.5 -131t127.5 -43q53 0 103 18v828h282z" />
    <glyph glyph-name="yacute" unicode="&#xfd;" horiz-adv-x="1058" 
d="M891 1450l-264 -291h-279l195 291h348zM948 1061v-1053q0 -205 -121.5 -315.5t-318.5 -110.5q-104 0 -201.5 35t-169.5 107l135 178q35 -34 92 -56t111 -22q96 0 148 45t51 145q-104 -34 -180 -34q-177 0 -283.5 91.5t-106.5 258.5v731h275v-727q0 -62 43 -93.5
t121 -31.5q59 0 119 33v819h286z" />
    <glyph glyph-name="thorn" unicode="&#xfe;" horiz-adv-x="1046" 
d="M395 1450v-403q61 34 156 34q412 0 412 -360v-367q0 -93 -36 -166.5t-96 -117.5t-133.5 -67t-154.5 -23q-82 0 -148 36v-366h-284v1800h284zM395 821v-575q47 -31 121 -31q67 0 114.5 36t47.5 105v357q0 65 -45.5 102t-108.5 37q-74 0 -129 -31z" />
    <glyph glyph-name="ydieresis" unicode="&#xff;" horiz-adv-x="1058" 
d="M145 1311q0 67 46 112t112 45q64 0 111 -45.5t47 -111.5q0 -64 -47 -109t-111 -45q-66 0 -112 45t-46 109zM590 1311q0 67 45 112t113 45t113.5 -45t45.5 -112q0 -65 -46 -109.5t-113 -44.5t-112.5 44.5t-45.5 109.5zM948 1061v-1053q0 -205 -121.5 -315.5t-318.5 -110.5
q-104 0 -201.5 35t-169.5 107l135 178q35 -34 92 -56t111 -22q96 0 148 45t51 145q-104 -34 -180 -34q-177 0 -283.5 91.5t-106.5 258.5v731h275v-727q0 -62 43 -93.5t121 -31.5q59 0 119 33v819h286z" />
    <glyph glyph-name="Amacron" unicode="&#x100;" horiz-adv-x="1298" 
d="M371 1589v211h551v-211h-551zM791 1450l520 -1450h-316l-127 332h-432l-121 -332h-321l508 1450h289zM594 922l-82 -314h279l-93 316l-45 206h-14z" />
    <glyph glyph-name="amacron" unicode="&#x101;" 
d="M238 1221v211h550v-211h-550zM55 315q0 88 31.5 156.5t85 109t119.5 61t141 20.5q92 0 189 -33v76q0 78 -45.5 112.5t-118.5 34.5q-58 0 -121 -28.5t-103 -69.5l-139 149q152 175 383 178q82 0 155.5 -23.5t133 -68t94.5 -118t35 -166.5v-648q-205 -77 -399 -77
q-219 0 -330 88.5t-111 246.5zM612 213v215q-69 25 -129 25q-79 0 -118 -34.5t-39 -94.5q0 -59 41.5 -92t124.5 -33q65 0 120 14z" />
    <glyph glyph-name="Abreve" unicode="&#x102;" horiz-adv-x="1298" 
d="M735 1839h238q0 -73 -28 -132.5t-74 -96t-105 -56.5t-120 -20t-120 20t-105 56.5t-74 96t-28 132.5h248q0 -50 42 -70.5t84 0t42 70.5zM791 1450l520 -1450h-316l-127 332h-432l-121 -332h-321l508 1450h289zM594 922l-82 -314h279l-93 316l-45 206h-14z" />
    <glyph glyph-name="abreve" unicode="&#x103;" 
d="M578 1470h237q0 -73 -28 -132.5t-74 -96t-104.5 -56.5t-120 -20t-120 20t-104.5 56.5t-74 96t-28 132.5h248q0 -50 42 -70.5t84 0t42 70.5zM55 315q0 88 31.5 156.5t85 109t119.5 61t141 20.5q92 0 189 -33v76q0 78 -45.5 112.5t-118.5 34.5q-58 0 -121 -28.5t-103 -69.5
l-139 149q152 175 383 178q82 0 155.5 -23.5t133 -68t94.5 -118t35 -166.5v-648q-205 -77 -399 -77q-219 0 -330 88.5t-111 246.5zM612 213v215q-69 25 -129 25q-79 0 -118 -34.5t-39 -94.5q0 -59 41.5 -92t124.5 -33q65 0 120 14z" />
    <glyph glyph-name="Aogonek" unicode="&#x104;" horiz-adv-x="1298" 
d="M1362 -229l86 -131q-117 -123 -248 -123q-104 0 -163.5 49t-66.5 121t29.5 157.5t112.5 155.5h-117l-127 332h-432l-121 -332h-321l508 1450h289l520 -1450q-114 -129 -99 -205q10 -51 76 -51q40 0 74 27zM698 924l-45 206h-14l-45 -208l-82 -314h279z" />
    <glyph glyph-name="aogonek" unicode="&#x105;" horiz-adv-x="995" 
d="M55 315q0 88 31.5 156.5t85 109t119.5 61t141 20.5q92 0 189 -33v76q0 78 -45.5 112.5t-118.5 34.5q-58 0 -121 -28.5t-103 -69.5l-139 149q152 175 383 178q82 0 155.5 -23.5t133 -68t94.5 -118t35 -166.5v-680q-119 -133 -122 -218q4 -60 65 -63q39 0 73 27l86 -131
q-117 -123 -247 -123q-100 0 -159.5 46t-69.5 115t21 151.5t99 152.5l-4 8q-82 -10 -141 -10q-219 0 -330 88.5t-111 246.5zM612 213v215q-69 25 -129 25q-79 0 -118 -34.5t-39 -94.5q0 -59 41.5 -92t124.5 -33q65 0 120 14z" />
    <glyph glyph-name="Cacute" unicode="&#x106;" horiz-adv-x="1196" 
d="M1006 1839l-265 -291h-278l194 291h349zM915 428l261 -145q-91 -148 -229 -225.5t-288 -77.5q-85 0 -167 19t-155 59t-128 95.5t-87 135t-32 172.5v528q0 92 31.5 171t86 135.5t127 96.5t155 59t169.5 19q100 0 194.5 -32.5t178.5 -104.5t131 -174l-241 -131
q-41 78 -119 118t-166 38q-102 -2 -175 -55t-73 -140v-528q0 -86 71 -137.5t171 -53.5q87 -2 165 38.5t119 119.5z" />
    <glyph glyph-name="cacute" unicode="&#x107;" horiz-adv-x="958" 
d="M872 1450l-264 -291h-278l194 291h348zM672 350l250 -82q-27 -77 -74 -135t-104.5 -90t-116.5 -47.5t-119 -15.5q-81 0 -156 23.5t-136 68.5t-97.5 118t-36.5 164v351q0 91 36.5 164.5t97.5 118.5t136 69t156 24q61 0 120 -15t116 -46t101 -89t64 -136l-243 -76
q-16 52 -60 79t-98 27q-57 0 -99 -32t-42 -86v-351q0 -56 41.5 -88t99.5 -32q54 0 99.5 28.5t64.5 85.5z" />
    <glyph glyph-name="Cdotaccent" unicode="&#x10a;" horiz-adv-x="1196" 
d="M465 1714q0 72 51 121t125 49q73 0 122.5 -49t49.5 -121q0 -73 -49 -120.5t-123 -47.5t-125 47.5t-51 120.5zM915 428l261 -145q-91 -148 -229 -225.5t-288 -77.5q-85 0 -167 19t-155 59t-128 95.5t-87 135t-32 172.5v528q0 92 31.5 171t86 135.5t127 96.5t155 59
t169.5 19q100 0 194.5 -32.5t178.5 -104.5t131 -174l-241 -131q-41 78 -119 118t-166 38q-102 -2 -175 -55t-73 -140v-528q0 -86 71 -137.5t171 -53.5q87 -2 165 38.5t119 119.5z" />
    <glyph glyph-name="cdotaccent" unicode="&#x10b;" horiz-adv-x="958" 
d="M326 1335q0 75 52.5 125.5t129.5 50.5t128.5 -50.5t51.5 -125.5q0 -76 -51.5 -125t-128.5 -49t-129.5 49t-52.5 125zM672 350l250 -82q-27 -77 -74 -135t-104.5 -90t-116.5 -47.5t-119 -15.5q-81 0 -156 23.5t-136 68.5t-97.5 118t-36.5 164v351q0 91 36.5 164.5
t97.5 118.5t136 69t156 24q61 0 120 -15t116 -46t101 -89t64 -136l-243 -76q-16 52 -60 79t-98 27q-57 0 -99 -32t-42 -86v-351q0 -56 41.5 -88t99.5 -32q54 0 99.5 28.5t64.5 85.5z" />
    <glyph glyph-name="Ccaron" unicode="&#x10c;" horiz-adv-x="1196" 
d="M528 1548l-278 291h321l74 -84l74 84h330l-283 -291h-238zM915 428l261 -145q-91 -148 -229 -225.5t-288 -77.5q-85 0 -167 19t-155 59t-128 95.5t-87 135t-32 172.5v528q0 92 31.5 171t86 135.5t127 96.5t155 59t169.5 19q100 0 194.5 -32.5t178.5 -104.5t131 -174
l-241 -131q-41 78 -119 118t-166 38q-102 -2 -175 -55t-73 -140v-528q0 -86 71 -137.5t171 -53.5q87 -2 165 38.5t119 119.5z" />
    <glyph glyph-name="ccaron" unicode="&#x10d;" horiz-adv-x="958" 
d="M395 1159l-278 291h321l74 -84l74 84h329l-282 -291h-238zM672 350l250 -82q-27 -77 -74 -135t-104.5 -90t-116.5 -47.5t-119 -15.5q-81 0 -156 23.5t-136 68.5t-97.5 118t-36.5 164v351q0 91 36.5 164.5t97.5 118.5t136 69t156 24q61 0 120 -15t116 -46t101 -89t64 -136
l-243 -76q-16 52 -60 79t-98 27q-57 0 -99 -32t-42 -86v-351q0 -56 41.5 -88t99.5 -32q54 0 99.5 28.5t64.5 85.5z" />
    <glyph glyph-name="Dcaron" unicode="&#x10e;" horiz-adv-x="1302" 
d="M510 1548l-279 291h322l74 -84l73 84h330l-282 -291h-238zM127 1450h532q88 0 168 -17t150.5 -54.5t122.5 -91.5t82 -133t30 -175v-516q0 -118 -45.5 -209t-124 -145.5t-175.5 -81.5t-208 -27h-532v1450zM428 303h231q108 0 179 39t71 121v516q0 84 -71.5 126t-178.5 42
h-231v-844z" />
    <glyph glyph-name="dcaron" unicode="&#x10f;" horiz-adv-x="1050" 
d="M1288 1450l-96 -358h-199l45 358h250zM936 1448v-1389q-208 -79 -414 -79q-88 0 -161 19t-134.5 60.5t-99.5 114.5t-45 172v375q0 108 58 191.5t146 125.5t189 43q96 0 174 -37v404h287zM649 213v614q-47 26 -110 27t-114 -30t-58 -89v-416q1 -45 31.5 -76.5t74 -43
t91.5 -8t85 21.5z" />
    <glyph glyph-name="Dcroat" unicode="&#x110;" horiz-adv-x="1318" 
d="M143 848v602h578q110 0 200 -27t159.5 -82t108 -145.5t38.5 -210.5v-522q0 -119 -38.5 -209.5t-108 -145t-160 -81.5t-199.5 -27h-578v586h-114v262h114zM446 303h275q102 0 153.5 37.5t51.5 122.5v522q0 86 -51.5 124t-153.5 38h-275v-299h242v-262h-242v-283z" />
    <glyph glyph-name="dcroat" unicode="&#x111;" horiz-adv-x="1042" 
d="M1044 1192h-108v-1133q-208 -79 -414 -79q-88 0 -161 19t-134.5 60.5t-99.5 114.5t-45 172v375q0 108 58 191.5t146 125.5t189 43q96 0 174 -37v148h-203v164h203v92h287v-92h108v-164zM649 213v614q-47 26 -110 27t-114 -30t-58 -89v-416q1 -45 31.5 -76.5t74 -43
t91.5 -8t85 21.5z" />
    <glyph glyph-name="Emacron" unicode="&#x112;" horiz-adv-x="1193" 
d="M342 1589v211h551v-211h-551zM430 1157v-285h625v-292h-625v-287h680v-293h-983v1452h983v-295h-680z" />
    <glyph glyph-name="emacron" unicode="&#x113;" 
d="M233 1221v211h551v-211h-551zM694 315l187 -135q-39 -72 -105.5 -119t-132 -64t-133.5 -17q-82 0 -157 24t-136.5 69t-98 118.5t-36.5 164.5v351q0 92 37 165.5t99.5 118t138 67.5t157.5 23q80 0 151.5 -21t130.5 -63.5t93.5 -114t34.5 -163.5v-311h-555v-48
q0 -58 46.5 -91t112.5 -33q52 0 97 20.5t69 58.5zM655 618v97q0 53 -40.5 81.5t-98.5 28.5q-60 0 -103.5 -29t-43.5 -83v-95h286z" />
    <glyph glyph-name="Edotaccent" unicode="&#x116;" horiz-adv-x="1193" 
d="M436 1724q0 75 52.5 126t129.5 51t129 -51t52 -126q0 -76 -52 -125t-129 -49t-129.5 49t-52.5 125zM430 1157v-285h625v-292h-625v-287h680v-293h-983v1452h983v-295h-680z" />
    <glyph glyph-name="edotaccent" unicode="&#x117;" 
d="M328 1356q0 75 52.5 125.5t129.5 50.5t128.5 -50.5t51.5 -125.5q0 -76 -51.5 -125t-128.5 -49t-129.5 49t-52.5 125zM694 315l187 -135q-39 -72 -105.5 -119t-132 -64t-133.5 -17q-82 0 -157 24t-136.5 69t-98 118.5t-36.5 164.5v351q0 92 37 165.5t99.5 118t138 67.5
t157.5 23q80 0 151.5 -21t130.5 -63.5t93.5 -114t34.5 -163.5v-311h-555v-48q0 -58 46.5 -91t112.5 -33q52 0 97 20.5t69 58.5zM655 618v97q0 53 -40.5 81.5t-98.5 28.5q-60 0 -103.5 -29t-43.5 -83v-95h286z" />
    <glyph glyph-name="Eogonek" unicode="&#x118;" horiz-adv-x="1191" 
d="M1155 -229l86 -131q-117 -123 -248 -123q-104 0 -163.5 49t-66.5 121t29.5 157.5t112.5 155.5h-780v1452h983v-295h-680v-285h625v-292h-625v-287h680v-293q-115 -131 -101 -206q9 -50 74 -50q40 0 74 27z" />
    <glyph glyph-name="eogonek" unicode="&#x119;" horiz-adv-x="993" 
d="M369 408v-52q0 -52 41 -85t94.5 -38t108.5 15t81 63l187 -131q-28 -52 -71 -94.5t-81 -68.5t-73 -53t-54 -62.5t-16 -81.5q2 -34 21.5 -55t54.5 -21q39 0 73 27l86 -131q-117 -123 -248 -123q-81 0 -136 30t-75.5 79.5t-17.5 109.5t35.5 125t87.5 121q-77 6 -144.5 32.5
t-122 71.5t-86.5 115t-32 155v351q0 92 36.5 165.5t98 118t136.5 67.5t157 23q80 0 153 -23t133 -67.5t96 -118t36 -165.5v-299h-559zM659 618v101q0 42 -30.5 70.5t-73.5 35.5t-85.5 0t-72 -36t-28.5 -72v-99h290z" />
    <glyph glyph-name="Ecaron" unicode="&#x11a;" horiz-adv-x="1193" 
d="M506 1548l-279 291h322l74 -84l73 84h330l-283 -291h-237zM430 1157v-285h625v-292h-625v-287h680v-293h-983v1452h983v-295h-680z" />
    <glyph glyph-name="ecaron" unicode="&#x11b;" 
d="M397 1180l-278 290h321l74 -84l74 84h330l-283 -290h-238zM694 315l187 -135q-39 -72 -105.5 -119t-132 -64t-133.5 -17q-82 0 -157 24t-136.5 69t-98 118.5t-36.5 164.5v351q0 92 37 165.5t99.5 118t138 67.5t157.5 23q80 0 151.5 -21t130.5 -63.5t93.5 -114
t34.5 -163.5v-311h-555v-48q0 -58 46.5 -91t112.5 -33q52 0 97 20.5t69 58.5zM655 618v97q0 53 -40.5 81.5t-98.5 28.5q-60 0 -103.5 -29t-43.5 -83v-95h286z" />
    <glyph glyph-name="Gbreve" unicode="&#x11e;" horiz-adv-x="1286" 
d="M743 1839h238q0 -73 -28 -132.5t-74 -96t-104.5 -56.5t-120 -20t-120 20t-104.5 56.5t-74 96t-28 132.5h247q0 -50 42 -70.5t84 0t42 70.5zM1165 1163l-243 -129q-34 79 -109 119.5t-166 40.5q-105 0 -181.5 -54.5t-76.5 -146.5v-528q0 -91 79 -142t189 -51t191.5 51
t81.5 142v70h-330v292h625v-362q0 -116 -48.5 -210.5t-129 -153t-180.5 -89.5t-208 -32q-87 -1 -169 18t-154.5 58.5t-127 96t-86.5 137t-32 175.5v528q0 115 48 207.5t128.5 150.5t180.5 88.5t208 30.5q104 0 195.5 -28.5t176.5 -99t138 -179.5z" />
    <glyph glyph-name="gbreve" unicode="&#x11f;" horiz-adv-x="1036" 
d="M618 1470h238q0 -73 -28 -132.5t-74 -96t-104.5 -56.5t-120 -20t-120 20t-104.5 56.5t-74 96t-28 132.5h248q0 -50 41.5 -70.5t83.5 0t42 70.5zM125 -274l131 170q36 -34 96.5 -55t118.5 -21q84 0 130 51t46 154q-75 -45 -172 -45q-104 0 -191 37.5t-142.5 117.5
t-55.5 189v401q0 94 35.5 164.5t97 111.5t137 60.5t164.5 19.5q225 0 410 -90v-989q0 -103 -34.5 -184.5t-95 -132t-139 -77t-169.5 -26.5q-102 0 -199 37.5t-168 106.5zM643 236v600q-53 26 -121 26q-67 0 -114.5 -35t-47.5 -96v-403q7 -58 56 -88.5t114 -30.5q61 0 113 27
z" />
    <glyph glyph-name="Gdotaccent" unicode="&#x120;" horiz-adv-x="1286" 
d="M473 1724q0 75 52.5 126t129.5 51t129 -51t52 -126q0 -76 -52 -125t-129 -49t-129.5 49t-52.5 125zM1165 1163l-243 -129q-34 79 -109 119.5t-166 40.5q-105 0 -181.5 -54.5t-76.5 -146.5v-528q0 -91 79 -142t189 -51t191.5 51t81.5 142v70h-330v292h625v-362
q0 -116 -48.5 -210.5t-129 -153t-180.5 -89.5t-208 -32q-87 -1 -169 18t-154.5 58.5t-127 96t-86.5 137t-32 175.5v528q0 115 48 207.5t128.5 150.5t180.5 88.5t208 30.5q104 0 195.5 -28.5t176.5 -99t138 -179.5z" />
    <glyph glyph-name="gdotaccent" unicode="&#x121;" horiz-adv-x="1036" 
d="M348 1356q0 75 52.5 125.5t129.5 50.5t129 -50.5t52 -125.5q0 -76 -52 -125t-129 -49t-129.5 49t-52.5 125zM125 -274l131 170q36 -34 96.5 -55t118.5 -21q84 0 130 51t46 154q-75 -45 -172 -45q-104 0 -191 37.5t-142.5 117.5t-55.5 189v401q0 94 35.5 164.5t97 111.5
t137 60.5t164.5 19.5q225 0 410 -90v-989q0 -103 -34.5 -184.5t-95 -132t-139 -77t-169.5 -26.5q-102 0 -199 37.5t-168 106.5zM643 236v600q-53 26 -121 26q-67 0 -114.5 -35t-47.5 -96v-403q7 -58 56 -88.5t114 -30.5q61 0 113 27z" />
    <glyph glyph-name="Gcommaaccent" unicode="&#x122;" horiz-adv-x="1286" 
d="M1165 1163l-243 -129q-34 79 -109 119.5t-166 40.5q-105 0 -181.5 -54.5t-76.5 -146.5v-528q0 -91 79 -142t189 -51t191.5 51t81.5 142v70h-330v292h625v-362q0 -116 -48.5 -210.5t-129 -153t-180.5 -89.5t-208 -32q-87 -1 -169 18t-154.5 58.5t-127 96t-86.5 137
t-32 175.5v528q0 115 48 207.5t128.5 150.5t180.5 88.5t208 30.5q104 0 195.5 -28.5t176.5 -99t138 -179.5zM817 -162l-139 -358h-264l106 358h297z" />
    <glyph glyph-name="gcommaaccent" unicode="&#x123;" horiz-adv-x="1036" 
d="M766 1450l-100 -279h-281l70 279h311zM125 -274l131 170q36 -34 96.5 -55t118.5 -21q84 0 130 51t46 154q-75 -45 -172 -45q-104 0 -191 37.5t-142.5 117.5t-55.5 189v401q0 94 35.5 164.5t97 111.5t137 60.5t164.5 19.5q225 0 410 -90v-989q0 -103 -34.5 -184.5
t-95 -132t-139 -77t-169.5 -26.5q-102 0 -199 37.5t-168 106.5zM643 236v600q-53 26 -121 26q-67 0 -114.5 -35t-47.5 -96v-403q7 -58 56 -88.5t114 -30.5q61 0 113 27z" />
    <glyph glyph-name="Hbar" unicode="&#x126;" horiz-adv-x="1402" 
d="M1374 1063h-104v-1063h-301v573h-535v-573h-301v1063h-104v192h104v195h301v-195h535v195h301v-195h104v-192zM969 1063h-535v-189h535v189z" />
    <glyph glyph-name="hbar" unicode="&#x127;" horiz-adv-x="1060" 
d="M567 1081q77 0 146.5 -24.5t124.5 -71t87.5 -120.5t32.5 -165v-700h-282v702q0 47 -31.5 77.5t-76 38.5t-92.5 2t-81 -25v-795h-284v1176h-113v167h113v107h284v-107h262v-167h-262v-127q77 32 172 32z" />
    <glyph glyph-name="Imacron" unicode="&#x12a;" horiz-adv-x="555" 
d="M2 1589v211h551v-211h-551zM428 1450v-1450h-301v1450h301z" />
    <glyph glyph-name="imacron" unicode="&#x12b;" horiz-adv-x="512" 
d="M20 1180v211h469v-211h-469zM401 1059v-1059h-290v1059h290z" />
    <glyph glyph-name="Iogonek" unicode="&#x12e;" horiz-adv-x="555" 
d="M444 -229l86 -131q-117 -123 -247 -123q-70 0 -121 22.5t-77.5 60t-33 87.5t7 103t47.5 108t84 102h-63v1450h301v-1450q-111 -87 -126 -170q-11 -60 34 -79q15 -7 35 -7q39 0 73 27z" />
    <glyph glyph-name="iogonek" unicode="&#x12f;" horiz-adv-x="509" 
d="M252 1147q-70 0 -119 50t-49 122t48.5 121t119.5 49q76 0 124 -48.5t48 -121.5t-48.5 -122.5t-123.5 -49.5zM426 -229l86 -131q-117 -123 -248 -123q-104 0 -163.5 49t-66.5 121t29.5 157.5t112.5 155.5h-65v1059h290v-1059h-22q-115 -131 -101 -206q9 -50 74 -50
q40 0 74 27z" />
    <glyph glyph-name="Idotaccent" unicode="&#x130;" horiz-adv-x="555" 
d="M96 1724q0 75 53 126t130 51q76 0 128 -51t52 -126q0 -76 -51.5 -125t-128.5 -49t-130 49t-53 125zM428 1450v-1450h-301v1450h301z" />
    <glyph glyph-name="dotlessi" unicode="&#x131;" horiz-adv-x="509" 
d="M401 1059v-1059h-290v1059h290z" />
    <glyph glyph-name="IJ" unicode="&#x132;" horiz-adv-x="1779" 
d="M428 1450v-1450h-301v1450h301zM1018 1450h645v-995q0 -114 -47.5 -206.5t-126.5 -150t-176 -88t-201 -30.5q-93 0 -181.5 30t-165 87t-129 151t-67.5 213l291 57q21 -116 94.5 -180t163.5 -64q97 0 169.5 48.5t72.5 132.5v710h-342v285z" />
    <glyph glyph-name="ij" unicode="&#x133;" horiz-adv-x="1011" 
d="M80 1319q0 72 48.5 121t119.5 49q76 0 124 -48.5t48 -121.5t-48.5 -122.5t-123.5 -49.5q-70 0 -119 50t-49 122zM111 1063h284v-1063h-284v1063zM586 1317q0 73 49.5 122.5t120.5 49.5q72 0 122 -49.5t50 -122.5q0 -71 -50 -120.5t-122 -49.5q-70 0 -120 49.5t-50 120.5z
M473 -156v-219q112 -20 193 -2t133 71.5t77 126t25 161.5v1081h-285v-1081q0 -151 -143 -138z" />
    <glyph glyph-name="Kcommaaccent" unicode="&#x136;" horiz-adv-x="1296" 
d="M428 846l516 604h367l-623 -711l623 -739h-373l-453 539l-57 -56v-483h-301v1450h301v-604zM803 -141l-139 -359h-265l107 359h297z" />
    <glyph glyph-name="kcommaaccent" unicode="&#x137;" horiz-adv-x="1044" 
d="M395 659l307 402h332l-422 -512q63 -84 210 -272t214 -277h-329l-293 387l-19 -16v-371h-284v1448h284v-789zM709 -141l-140 -359h-264l107 359h297z" />
    <glyph glyph-name="Lacute" unicode="&#x139;" horiz-adv-x="1085" 
d="M643 1839l-264 -291h-279l195 291h348zM127 0v1450h301v-1147h627v-303h-928z" />
    <glyph glyph-name="lacute" unicode="&#x13a;" horiz-adv-x="569" 
d="M608 1839l-264 -291h-278l194 291h348zM555 227v-243q-40 -4 -59 -4q-196 0 -296 110t-100 283v1077h285v-1077q0 -64 43 -105t127 -41z" />
    <glyph glyph-name="Lcommaaccent" unicode="&#x13b;" horiz-adv-x="1085" 
d="M127 0v1450h301v-1147h627v-303h-928zM750 -141l-140 -359h-264l107 359h297z" />
    <glyph glyph-name="lcommaaccent" unicode="&#x13c;" horiz-adv-x="569" 
d="M555 227v-243q-40 -4 -59 -4q-196 0 -296 110t-100 283v1077h285v-1077q0 -64 43 -105t127 -41zM522 -162l-139 -358h-264l106 358h297z" />
    <glyph glyph-name="Lcaron" unicode="&#x13d;" horiz-adv-x="1089" 
d="M127 0v1450h301v-1147h627v-303h-928zM1010 1450l-138 -358h-260l107 358h291z" />
    <glyph glyph-name="lcaron" unicode="&#x13e;" horiz-adv-x="591" 
d="M555 227v-243q-40 -4 -59 -4q-196 0 -296 110t-100 283v1077h285v-1077q0 -64 43 -105t127 -41zM756 1450l-92 -340h-218l58 340h252z" />
    <glyph glyph-name="Ldot" unicode="&#x13f;" horiz-adv-x="1099" 
d="M127 0v1450h301v-1147h627v-303h-928zM580 799q0 76 50.5 127t127.5 51q74 0 123 -51t49 -127q0 -74 -49 -124t-123 -50q-77 0 -127.5 50t-50.5 124z" />
    <glyph glyph-name="ldot" unicode="&#x140;" horiz-adv-x="733" 
d="M555 227v-243q-40 -4 -59 -4q-196 0 -296 110t-100 283v1077h285v-1077q0 -64 43 -105t127 -41zM453 770q0 68 45.5 115t115.5 47q67 0 111.5 -47t44.5 -115q0 -67 -44.5 -112.5t-111.5 -45.5q-70 0 -115.5 45.5t-45.5 112.5z" />
    <glyph glyph-name="Lslash" unicode="&#x141;" horiz-adv-x="1138" 
d="M1081 305v-305h-899v504l-98 -51l-92 170l190 104v723h303v-557l179 96l92 -186l-271 -141v-357h596z" />
    <glyph glyph-name="lslash" unicode="&#x142;" horiz-adv-x="675" 
d="M475 739v-366q0 -64 43 -105t127 -41v-243q-40 -4 -59 -4q-196 0 -296 110t-100 283v215l-104 -56l-78 156l182 98v664h285v-512l117 63l82 -155z" />
    <glyph glyph-name="Nacute" unicode="&#x143;" horiz-adv-x="1390" 
d="M1061 1839l-264 -291h-279l195 291h348zM985 397l21 4q-37 219 -43 308v741h301v-1450h-322l-442 762l-88 196l-21 -4l39 -247v-707h-303v1450h297l459 -791z" />
    <glyph glyph-name="nacute" unicode="&#x144;" horiz-adv-x="1054" 
d="M897 1470l-264 -290h-279l195 290h348zM109 0v989q189 92 383 92q93 0 174 -22t146.5 -66.5t103.5 -121t38 -177.5v-694h-282v684q0 69 -47.5 105t-114.5 36q-66 0 -117 -28v-797h-284z" />
    <glyph glyph-name="Ncommaaccent" unicode="&#x145;" horiz-adv-x="1390" 
d="M985 397l21 4q-37 219 -43 308v741h301v-1450h-322l-442 762l-88 196l-21 -4l39 -247v-707h-303v1450h297l459 -791zM854 -141l-139 -359h-264l106 359h297z" />
    <glyph glyph-name="ncommaaccent" unicode="&#x146;" horiz-adv-x="1054" 
d="M109 0v989q189 92 383 92q93 0 174 -22t146.5 -66.5t103.5 -121t38 -177.5v-694h-282v684q0 69 -47.5 105t-114.5 36q-66 0 -117 -28v-797h-284zM690 -141l-139 -359h-264l106 359h297z" />
    <glyph glyph-name="Ncaron" unicode="&#x147;" horiz-adv-x="1390" 
d="M584 1548l-279 291h322l73 -84l74 84h330l-283 -291h-237zM985 397l21 4q-37 219 -43 308v741h301v-1450h-322l-442 762l-88 196l-21 -4l39 -247v-707h-303v1450h297l459 -791z" />
    <glyph glyph-name="ncaron" unicode="&#x148;" horiz-adv-x="1054" 
d="M420 1180l-279 290h322l74 -84l73 84h330l-283 -290h-237zM109 0v989q189 92 383 92q93 0 174 -22t146.5 -66.5t103.5 -121t38 -177.5v-694h-282v684q0 69 -47.5 105t-114.5 36q-66 0 -117 -28v-797h-284z" />
    <glyph glyph-name="Eng" unicode="&#x14a;" horiz-adv-x="1390" 
d="M1264 1450v-1468q0 -89 -25 -161.5t-77 -126t-133 -71.5t-193 2v219q143 -13 143 138v18h-37l-442 762l-88 196l-21 -4l39 -247v-707h-303v1450h297l459 -791l102 -262l21 4q-37 219 -43 308v741h301z" />
    <glyph glyph-name="eng" unicode="&#x14b;" horiz-adv-x="1052" 
d="M489 1081q93 0 174 -22t147 -66.5t104 -121t38 -177.5v-739q0 -89 -25 -161.5t-77 -125.5t-133 -71t-193 2v219q146 -14 146 137v729q0 69 -47.5 105t-114.5 36q-66 0 -117 -28v-797h-285v989q189 92 383 92z" />
    <glyph glyph-name="Omacron" unicode="&#x14c;" horiz-adv-x="1363" 
d="M406 1610v211h550v-211h-550zM88 461v526q0 94 33.5 174.5t90.5 136.5t133 95.5t161.5 58.5t175.5 18q90 0 175.5 -19t161.5 -58.5t133 -96t90.5 -136t33.5 -173.5v-526q0 -94 -33.5 -174t-90.5 -136t-133 -96t-161.5 -59t-175.5 -19t-175.5 19t-161.5 58.5t-133 96
t-90.5 136.5t-33.5 174zM387 987v-526q0 -59 44 -101.5t109 -61.5t142 -19q120 2 206.5 49.5t86.5 132.5v526q0 60 -44 103t-109.5 62.5t-141.5 18.5q-75 0 -140.5 -20t-109 -63t-43.5 -101z" />
    <glyph glyph-name="omacron" unicode="&#x14d;" horiz-adv-x="1011" 
d="M231 1200v211h551v-211h-551zM82 356v346q0 91 36.5 164.5t97 119t135.5 70t157 25.5q81 -1 155.5 -25.5t135 -70t97 -119t36.5 -164.5v-346q0 -92 -36 -165.5t-97 -118t-135.5 -68t-155.5 -24.5q-82 1 -156.5 24.5t-136 68t-97.5 118t-36 165.5zM508 825q-55 0 -98 -28
t-43 -76v-371q0 -49 43.5 -81.5t97.5 -32.5q53 0 96 32.5t43 81.5v371q0 48 -42.5 76t-96.5 28z" />
    <glyph glyph-name="Ohungarumlaut" unicode="&#x150;" horiz-adv-x="1363" 
d="M801 1876l-258 -305h-271l197 305h332zM1237 1876l-256 -305h-272l196 305h332zM88 461v526q0 94 33.5 174.5t90.5 136.5t133 95.5t161.5 58.5t175.5 18q90 0 175.5 -19t161.5 -58.5t133 -96t90.5 -136t33.5 -173.5v-526q0 -94 -33.5 -174t-90.5 -136t-133 -96
t-161.5 -59t-175.5 -19t-175.5 19t-161.5 58.5t-133 96t-90.5 136.5t-33.5 174zM387 987v-526q0 -59 44 -101.5t109 -61.5t142 -19q120 2 206.5 49.5t86.5 132.5v526q0 60 -44 103t-109.5 62.5t-141.5 18.5q-75 0 -140.5 -20t-109 -63t-43.5 -101z" />
    <glyph glyph-name="ohungarumlaut" unicode="&#x151;" horiz-adv-x="1013" 
d="M625 1444l-207 -283h-250l162 283h295zM1008 1444l-207 -283h-250l162 283h295zM82 356v346q0 91 36.5 164.5t97 119t135.5 70t157 25.5q81 -1 155.5 -25.5t135 -70t97 -119t36.5 -164.5v-346q0 -92 -36 -165.5t-97 -118t-135.5 -68t-155.5 -24.5q-82 1 -156.5 24.5
t-136 68t-97.5 118t-36 165.5zM508 825q-55 0 -98 -28t-43 -76v-371q0 -49 43.5 -81.5t97.5 -32.5q53 0 96 32.5t43 81.5v371q0 48 -42.5 76t-96.5 28z" />
    <glyph glyph-name="OE" unicode="&#x152;" horiz-adv-x="1751" 
d="M1112 1145v-273h500v-301h-500v-270h555v-301h-833v70q-73 -49 -160 -69.5t-169 -11.5t-159 44t-133.5 89.5t-89 132.5t-29.5 167v592q0 94 37.5 175.5t98.5 136t140.5 89t160.5 42t161.5 -13.5t141.5 -71v76h833v-303h-555zM686 248q98 0 148 55v817q-38 33 -91.5 53.5
t-109.5 20.5q-95 0 -167 -51.5t-71 -130.5v-586q0 -59 43.5 -101t107.5 -59.5t140 -17.5z" />
    <glyph glyph-name="oe" unicode="&#x153;" horiz-adv-x="1538" 
d="M1262 295l157 -141q-58 -84 -151.5 -129t-196.5 -45q-84 0 -161.5 37t-131.5 104q-52 -70 -127.5 -105.5t-158.5 -35.5q-174 0 -292 104t-118 278v338q0 115 61 204t153 133t196 44q87 0 165 -36t127 -109q51 75 129.5 110t165.5 35q179 0 286.5 -101t107.5 -278v-284
h-551v-47q0 -67 50.5 -105.5t119.5 -38.5q51 0 99 19.5t71 48.5zM1214 629v86q0 41 -30 69t-73 34.5t-86 0t-73 -34.5t-30 -69v-86h292zM500 819q-54 -2 -98 -32.5t-44 -75.5v-349q1 -55 42 -87.5t100 -32.5t100.5 33t44.5 87v351q0 45 -43.5 76.5t-101.5 29.5z" />
    <glyph glyph-name="Racute" unicode="&#x154;" horiz-adv-x="1294" 
d="M963 1839l-265 -291h-278l194 291h349zM948 0l-411 530h-107v-530h-303v1450h571q112 0 203 -26.5t162 -81t111 -144.5t43 -211q0 -194 -84 -299t-246 -137l432 -551h-371zM430 805h268q217 0 217 180q0 169 -217 162h-268v-342z" />
    <glyph glyph-name="racute" unicode="&#x155;" horiz-adv-x="696" 
d="M750 1470l-265 -290h-278l194 290h349zM516 1081q60 0 150 -20v-230q-45 14 -95 10.5t-91 -18t-68 -47.5t-27 -76v-700h-285v705q0 91 37.5 165t98.5 119t133 68.5t147 23.5z" />
    <glyph glyph-name="Rcommaaccent" unicode="&#x156;" horiz-adv-x="1294" 
d="M948 0l-411 530h-107v-530h-303v1450h571q112 0 203 -26.5t162 -81t111 -144.5t43 -211q0 -194 -84 -299t-246 -137l432 -551h-371zM430 805h268q217 0 217 180q0 169 -217 162h-268v-342zM840 -141l-140 -359h-264l107 359h297z" />
    <glyph glyph-name="rcommaaccent" unicode="&#x157;" horiz-adv-x="696" 
d="M516 1081q60 0 150 -20v-230q-45 14 -95 10.5t-91 -18t-68 -47.5t-27 -76v-700h-285v705q0 91 37.5 165t98.5 119t133 68.5t147 23.5zM401 -141l-139 -359h-264l106 359h297z" />
    <glyph glyph-name="Rcaron" unicode="&#x158;" horiz-adv-x="1294" 
d="M485 1548l-278 291h321l74 -84l74 84h330l-283 -291h-238zM948 0l-411 530h-107v-530h-303v1450h571q112 0 203 -26.5t162 -81t111 -144.5t43 -211q0 -194 -84 -299t-246 -137l432 -551h-371zM430 805h268q217 0 217 180q0 169 -217 162h-268v-342z" />
    <glyph glyph-name="rcaron" unicode="&#x159;" horiz-adv-x="696" 
d="M315 1169l-252 287h295l72 -84l72 84h303l-256 -287h-234zM516 1081q60 0 150 -20v-230q-45 14 -95 10.5t-91 -18t-68 -47.5t-27 -76v-700h-285v705q0 91 37.5 165t98.5 119t133 68.5t147 23.5z" />
    <glyph glyph-name="Sacute" unicode="&#x15a;" horiz-adv-x="1163" 
d="M961 1843l-265 -291h-278l194 291h349zM53 256l228 174q38 -60 103.5 -100.5t135 -51.5t133 -2t106.5 47t46 97q2 36 -13 64t-38.5 45.5t-63.5 30.5t-76 20t-88 14q-463 71 -458 461q6 99 52.5 180t120 132t165 78.5t190.5 27.5q148 0 275 -62.5t214 -193.5l-247 -166
q-89 137 -242 137q-92 0 -154.5 -36.5t-66.5 -107.5v-2q0 -27 8 -48t25 -36t33.5 -25.5t46.5 -19.5t50.5 -13.5t57.5 -12.5q9 -2 15.5 -3.5t13.5 -2.5q70 -13 125 -28.5t114.5 -41t102.5 -61.5t77.5 -84t50.5 -116t13 -151q-7 -79 -41.5 -147.5t-87.5 -117.5t-121 -84.5
t-144.5 -52.5t-156.5 -17q-146 0 -280 71t-224 205z" />
    <glyph glyph-name="sacute" unicode="&#x15b;" horiz-adv-x="868" 
d="M805 1450l-264 -291h-279l195 291h348zM51 160l135 184q58 -55 128.5 -87t127.5 -32q65 0 86 47q21 48 -5.5 87t-96.5 49q-169 29 -257.5 126t-90.5 220q-1 63 23.5 121.5t69 104.5t114.5 73.5t155 27.5q202 0 338 -110l-141 -195q-27 27 -77 46.5t-95 19.5
q-37 0 -64.5 -21.5t-31.5 -64.5q-4 -42 46 -75.5t95 -41.5q305 -79 305 -311q0 -84 -31.5 -151.5t-85.5 -109.5t-122 -64.5t-144 -22.5q-246 0 -381 180z" />
    <glyph glyph-name="Scedilla" unicode="&#x15e;" horiz-adv-x="1163" 
d="M625 881q70 -13 125 -28.5t114.5 -41t102.5 -61.5t77.5 -84t50.5 -116t13 -151q-14 -157 -124 -261.5t-273 -141.5l-45 -98q64 -5 104.5 -44t46.5 -93.5t-14 -116.5q-20 -53 -69.5 -90.5t-114 -52t-144.5 5.5t-153 77l57 131q70 -45 124 -39.5t68 50.5q12 38 -24 69
t-127 31l80 156q-132 14 -249 83.5t-198 190.5l228 174q38 -60 103.5 -100.5t135 -51.5t133 -2t106.5 47t46 97q2 36 -13 64t-38.5 45.5t-63.5 30.5t-76 20t-88 14q-463 71 -458 461q6 99 52.5 180t120 132t165 78.5t190.5 27.5q148 0 275 -62.5t214 -193.5l-247 -166
q-89 137 -242 137q-92 0 -154.5 -36.5t-66.5 -107.5v-2q0 -27 8 -48t25 -36t33.5 -25.5t46.5 -19.5t50.5 -13.5t57.5 -12.5q9 -2 15.5 -3.5t13.5 -2.5z" />
    <glyph glyph-name="scedilla" unicode="&#x15f;" horiz-adv-x="868" 
d="M815 328q0 -134 -75 -220.5t-195 -115.5l-41 -88q93 -7 130 -81.5t3 -162.5q-19 -52 -67 -88t-110 -49.5t-139 6t-147 74.5l55 125q66 -43 119.5 -38t65.5 48q12 36 -23 66t-123 30l76 152q-181 26 -293 174l135 184q58 -55 128.5 -87t127.5 -32q65 0 86 47
q21 48 -5.5 87t-96.5 49q-169 29 -257.5 126t-90.5 220q-1 63 23.5 121.5t69 104.5t114.5 73.5t155 27.5q202 0 338 -110l-141 -195q-27 27 -77 46.5t-95 19.5q-37 0 -64.5 -21.5t-31.5 -64.5q-4 -42 46 -75.5t95 -41.5q305 -79 305 -311z" />
    <glyph glyph-name="Scaron" unicode="&#x160;" horiz-adv-x="1163" 
d="M483 1552l-278 291h321l74 -84l74 84h330l-283 -291h-238zM53 256l228 174q38 -60 103.5 -100.5t135 -51.5t133 -2t106.5 47t46 97q2 36 -13 64t-38.5 45.5t-63.5 30.5t-76 20t-88 14q-463 71 -458 461q6 99 52.5 180t120 132t165 78.5t190.5 27.5q148 0 275 -62.5
t214 -193.5l-247 -166q-89 137 -242 137q-92 0 -154.5 -36.5t-66.5 -107.5v-2q0 -27 8 -48t25 -36t33.5 -25.5t46.5 -19.5t50.5 -13.5t57.5 -12.5q9 -2 15.5 -3.5t13.5 -2.5q70 -13 125 -28.5t114.5 -41t102.5 -61.5t77.5 -84t50.5 -116t13 -151q-7 -79 -41.5 -147.5
t-87.5 -117.5t-121 -84.5t-144.5 -52.5t-156.5 -17q-146 0 -280 71t-224 205z" />
    <glyph glyph-name="scaron" unicode="&#x161;" horiz-adv-x="866" 
d="M840 1159h-330l-74 84l-74 -84h-321l278 291h238zM49 160l135 184q58 -55 128.5 -87t127.5 -32q65 0 86 47q21 48 -5.5 87t-96.5 49q-169 29 -257.5 126t-90.5 220q-1 63 23.5 121.5t69 104.5t114.5 73.5t155 27.5q202 0 338 -110l-141 -195q-27 27 -77 46.5t-95 19.5
q-37 0 -64.5 -21.5t-31.5 -64.5q-4 -42 46 -75.5t95 -41.5q305 -79 305 -311q0 -84 -31.5 -151.5t-85.5 -109.5t-122 -64.5t-144 -22.5q-246 0 -381 180z" />
    <glyph glyph-name="Tcommaaccent" unicode="&#x162;" horiz-adv-x="1196" 
d="M1165 1149h-415v-1149h-304v1149h-415v303h1134v-303zM756 -141l-140 -359h-264l107 359h297z" />
    <glyph glyph-name="tcommaaccent" unicode="&#x163;" horiz-adv-x="653" 
d="M532 -141l-139 -359h-264l107 359h296zM606 248v-234q-218 -73 -360.5 22.5t-141.5 336.5v923h263l20 -235h188v-260h-188v-426q0 -90 52 -119.5t167 -7.5z" />
    <glyph glyph-name="Tcaron" unicode="&#x164;" horiz-adv-x="1196" 
d="M485 1548l-278 291h321l74 -84l74 84h330l-283 -291h-238zM1165 1149h-415v-1149h-304v1149h-415v303h1134v-303z" />
    <glyph glyph-name="tcaron" unicode="&#x165;" horiz-adv-x="653" 
d="M799 1450l-109 -340h-221l78 340h252zM606 248v-234q-218 -73 -360.5 22.5t-141.5 336.5v923h263l20 -235h188v-260h-188v-426q0 -90 52 -119.5t167 -7.5z" />
    <glyph glyph-name="Tbar" unicode="&#x166;" horiz-adv-x="1212" 
d="M758 1149v-326h246v-217h-246v-606h-303v606h-248v217h248v326h-416v303h1135v-303h-416z" />
    <glyph glyph-name="tbar" unicode="&#x167;" horiz-adv-x="673" 
d="M406 465v-90q0 -174 219 -131v-230q-218 -73 -360.5 22.5t-141.5 336.5v92h-92v170h92v661h262l21 -235h188v-260h-188v-166h133v-170h-133z" />
    <glyph glyph-name="Umacron" unicode="&#x16a;" horiz-adv-x="1368" 
d="M412 1589v211h551v-211h-551zM418 1450v-973q0 -96 78 -149.5t186 -53.5q112 0 190 53.5t78 149.5v973h303v-973q0 -120 -48 -217t-129 -157t-182 -91.5t-212 -31.5q-87 0 -168.5 19.5t-154 60t-127 98.5t-86 140t-31.5 179v973h303z" />
    <glyph glyph-name="umacron" unicode="&#x16b;" horiz-adv-x="1056" 
d="M238 1206v219h573v-219h-573zM950 1061v-1004q-216 -77 -401 -77q-73 0 -136 11.5t-121.5 40t-99.5 72.5t-65.5 112.5t-24.5 156.5v688h285v-672q0 -88 50.5 -131t127.5 -43q53 0 103 18v828h282z" />
    <glyph glyph-name="Uring" unicode="&#x16e;" horiz-adv-x="1368" 
d="M692 1991q76 0 132 -34.5t81.5 -86.5t25.5 -112.5t-25.5 -112.5t-81.5 -86.5t-132 -34.5q-79 0 -137 34.5t-84 86.5t-26 112.5t26 112.5t84 86.5t137 34.5zM692 1855q-50 0 -77 -30.5t-25.5 -67.5t29 -67.5t73.5 -30.5t72 30.5t26 67.5t-26 67.5t-72 30.5zM418 1450v-973
q0 -96 78 -149.5t186 -53.5q112 0 190 53.5t78 149.5v973h303v-973q0 -120 -48 -217t-129 -157t-182 -91.5t-212 -31.5q-87 0 -168.5 19.5t-154 60t-127 98.5t-86 140t-31.5 179v973h303z" />
    <glyph glyph-name="uring" unicode="&#x16f;" horiz-adv-x="1056" 
d="M530 1583q76 0 132 -34.5t81.5 -86.5t25.5 -112.5t-25.5 -112.5t-81.5 -86.5t-132 -34.5q-79 0 -137 34.5t-84 86.5t-26 112.5t26 112.5t84 86.5t137 34.5zM530 1448q-50 0 -77 -31t-25.5 -67.5t29 -67.5t73.5 -31t72 31t26 67.5t-26 67.5t-72 31zM950 1061v-1004
q-216 -77 -401 -77q-73 0 -136 11.5t-121.5 40t-99.5 72.5t-65.5 112.5t-24.5 156.5v688h285v-672q0 -88 50.5 -131t127.5 -43q53 0 103 18v828h282z" />
    <glyph glyph-name="Uhungarumlaut" unicode="&#x170;" horiz-adv-x="1368" 
d="M807 1855l-258 -305h-270l196 305h332zM1243 1855l-256 -305h-272l196 305h332zM418 1450v-973q0 -96 78 -149.5t186 -53.5q112 0 190 53.5t78 149.5v973h303v-973q0 -120 -48 -217t-129 -157t-182 -91.5t-212 -31.5q-87 0 -168.5 19.5t-154 60t-127 98.5t-86 140
t-31.5 179v973h303z" />
    <glyph glyph-name="uhungarumlaut" unicode="&#x171;" horiz-adv-x="1056" 
d="M643 1446l-254 -299h-264l192 299h326zM1071 1446l-252 -299h-266l192 299h326zM950 1061v-1004q-216 -77 -401 -77q-73 0 -136 11.5t-121.5 40t-99.5 72.5t-65.5 112.5t-24.5 156.5v688h285v-672q0 -88 50.5 -131t127.5 -43q53 0 103 18v828h282z" />
    <glyph glyph-name="Uogonek" unicode="&#x172;" horiz-adv-x="1368" 
d="M801 -168q0 -38 22.5 -63t59.5 -25q39 0 73 27l86 -131q-117 -123 -247 -123q-81 0 -136 29.5t-76 78t-18.5 108t34 124t85.5 120.5q-109 0 -209.5 32t-181.5 92t-129.5 157t-48.5 217v975h303v-975q0 -56 29.5 -100t76.5 -66.5t103.5 -33t113 0.5t103.5 33.5t76.5 66
t29.5 99.5v975h303v-975q0 -81 -33.5 -156t-83.5 -128t-109 -105t-109 -90.5t-83.5 -82t-33.5 -81.5z" />
    <glyph glyph-name="uogonek" unicode="&#x173;" horiz-adv-x="1058" 
d="M672 -31l-6 11q-69 -10 -137.5 -6t-131.5 16t-116.5 43.5t-93.5 75t-62.5 111.5t-22.5 153v688h285v-690q3 -62 47 -104.5t105 -51t129 11.5v834h282v-1016l-39 -39q-119 -133 -107 -210q8 -52 75 -52q39 0 73 27l86 -131q-117 -123 -247 -123q-99 0 -157.5 44t-70 110.5
t16.5 146.5t92 151z" />
    <glyph glyph-name="Wcircumflex" unicode="&#x174;" horiz-adv-x="1884" 
d="M1346 1548h-330l-74 84l-74 -84h-321l278 291h238zM426 0l-420 1450h311l207 -758l45 -338h19l49 340q43 141 95 289t89 266h244l176 -559l59 -350h19l39 350l211 760h309l-418 -1450h-295l-186 559l-33 174h-16q-2 -11 -6 -29.5t-12.5 -57.5t-14 -64.5t-6.5 -24.5
l-170 -557h-295z" />
    <glyph glyph-name="wcircumflex" unicode="&#x175;" horiz-adv-x="1435" 
d="M1120 1159h-329l-74 84l-74 -84h-321l278 291h238zM684 383l-84 -383h-266l-322 1061h281l119 -428l32 -277h5l30 258l135 447h207l131 -445l31 -260h4l37 279l111 426h284l-313 -1061h-266l-88 383l-33 289h-4z" />
    <glyph glyph-name="Ycircumflex" unicode="&#x176;" horiz-adv-x="1286" 
d="M1044 1548h-329l-74 84l-74 -84h-321l278 291h238zM793 0h-301v555l-504 895h346l307 -606l307 606h350l-505 -895v-555z" />
    <glyph glyph-name="ycircumflex" unicode="&#x177;" horiz-adv-x="1058" 
d="M928 1159h-330l-74 84l-73 -84h-322l279 291h237zM948 1061v-1053q0 -205 -121.5 -315.5t-318.5 -110.5q-104 0 -201.5 35t-169.5 107l135 178q35 -34 92 -56t111 -22q96 0 148 45t51 145q-104 -34 -180 -34q-177 0 -283.5 91.5t-106.5 258.5v731h275v-727
q0 -62 43 -93.5t121 -31.5q59 0 119 33v819h286z" />
    <glyph glyph-name="Ydieresis" unicode="&#x178;" horiz-adv-x="1286" 
d="M262 1700q0 67 46 112.5t112 45.5q64 0 111 -46t47 -112q0 -64 -47 -109t-111 -45q-66 0 -112 45t-46 109zM707 1700q0 68 45 113t112 45q68 0 114 -45.5t46 -112.5q0 -65 -46.5 -109.5t-113.5 -44.5t-112 44.5t-45 109.5zM793 0h-301v555l-504 895h346l307 -606l307 606
h350l-505 -895v-555z" />
    <glyph glyph-name="Zacute" unicode="&#x179;" horiz-adv-x="1222" 
d="M979 1839l-264 -291h-279l195 291h348zM76 1450h1022l84 -137l-723 -1043h694v-270h-1044l-72 137l723 1034h-684v279z" />
    <glyph glyph-name="zacute" unicode="&#x17a;" horiz-adv-x="927" 
d="M836 1450l-265 -291h-278l194 291h349zM82 1061h731l61 -100l-442 -717h428v-244h-756l-61 102l440 715h-401v244z" />
    <glyph glyph-name="Zdotaccent" unicode="&#x17b;" horiz-adv-x="1222" 
d="M432 1724q0 75 52.5 126t129.5 51t129 -51t52 -126q0 -76 -52 -125t-129 -49t-129.5 49t-52.5 125zM76 1450h1022l84 -137l-723 -1043h694v-270h-1044l-72 137l723 1034h-684v279z" />
    <glyph glyph-name="zdotaccent" unicode="&#x17c;" horiz-adv-x="927" 
d="M289 1335q0 75 52.5 125.5t129.5 50.5t128.5 -50.5t51.5 -125.5q0 -76 -51.5 -125t-128.5 -49t-129.5 49t-52.5 125zM82 1061h731l61 -100l-442 -717h428v-244h-756l-61 102l440 715h-401v244z" />
    <glyph glyph-name="Zcaron" unicode="&#x17d;" horiz-adv-x="1222" 
d="M502 1548l-279 291h322l73 -84l74 84h330l-283 -291h-237zM76 1450h1022l84 -137l-723 -1043h694v-270h-1044l-72 137l723 1034h-684v279z" />
    <glyph glyph-name="zcaron" unicode="&#x17e;" horiz-adv-x="927" 
d="M358 1159l-278 291h321l74 -84l74 84h330l-283 -291h-238zM82 1061h731l61 -100l-442 -717h428v-244h-756l-61 102l440 715h-401v244z" />
    <glyph glyph-name="florin" unicode="&#x192;" horiz-adv-x="983" 
d="M2 -190l66 192q57 -27 102 -1.5t57 99.5l111 576h-168v233h211l39 217v-2q11 64 33.5 119t60.5 104.5t100.5 78t143.5 28.5q87 0 205 -63l-99 -201q-60 29 -100.5 4t-52.5 -92l-35 -193h164v-233h-205l-117 -635q-16 -92 -68 -159.5t-123 -99.5t-157.5 -26t-167.5 54z
" />
    <glyph glyph-name="Scommaaccent" unicode="&#x218;" horiz-adv-x="1163" 
d="M53 256l228 174q38 -60 103.5 -100.5t135 -51.5t133 -2t106.5 47t46 97q2 36 -13 64t-38.5 45.5t-63.5 30.5t-76 20t-88 14q-463 71 -458 461q6 99 52.5 180t120 132t165 78.5t190.5 27.5q148 0 275 -62.5t214 -193.5l-247 -166q-89 137 -242 137q-92 0 -154.5 -36.5
t-66.5 -107.5v-2q0 -27 8 -48t25 -36t33.5 -25.5t46.5 -19.5t50.5 -13.5t57.5 -12.5q9 -2 15.5 -3.5t13.5 -2.5q70 -13 125 -28.5t114.5 -41t102.5 -61.5t77.5 -84t50.5 -116t13 -151q-7 -79 -41.5 -147.5t-87.5 -117.5t-121 -84.5t-144.5 -52.5t-156.5 -17q-146 0 -280 71
t-224 205zM715 -143l-140 -359h-264l107 359h297z" />
    <glyph glyph-name="scommaaccent" unicode="&#x219;" horiz-adv-x="868" 
d="M51 160l135 184q58 -55 128.5 -87t127.5 -32q65 0 86 47q21 48 -5.5 87t-96.5 49q-169 29 -257.5 126t-90.5 220q-1 63 23.5 121.5t69 104.5t114.5 73.5t155 27.5q202 0 338 -110l-141 -195q-27 27 -77 46.5t-95 19.5q-37 0 -64.5 -21.5t-31.5 -64.5q-4 -42 46 -75.5
t95 -41.5q305 -79 305 -311q0 -84 -31.5 -151.5t-85.5 -109.5t-122 -64.5t-144 -22.5q-246 0 -381 180zM590 -141l-139 -359h-265l107 359h297z" />
    <glyph glyph-name="uni021A" unicode="&#x21a;" horiz-adv-x="1196" 
d="M1165 1149h-415v-1149h-304v1149h-415v303h1134v-303zM756 -141l-140 -359h-264l107 359h297z" />
    <glyph glyph-name="uni021B" unicode="&#x21b;" horiz-adv-x="653" 
d="M532 -141l-139 -359h-264l107 359h296zM606 248v-234q-218 -73 -360.5 22.5t-141.5 336.5v923h263l20 -235h188v-260h-188v-426q0 -90 52 -119.5t167 -7.5z" />
    <glyph glyph-name="circumflex" unicode="&#x2c6;" horiz-adv-x="903" 
d="M819 1548h-330l-73 84l-74 -84h-322l279 291h238z" />
    <glyph glyph-name="caron" unicode="&#x2c7;" horiz-adv-x="679" 
d="M160 1548l-279 291h322l73 -84l74 84h330l-283 -291h-237z" />
    <glyph glyph-name="uni02C9" unicode="&#x2c9;" horiz-adv-x="661" 
d="M-10 1171v252h633v-252h-633z" />
    <glyph glyph-name="breve" unicode="&#x2d8;" horiz-adv-x="587" 
d="M449 1839h237q0 -73 -28 -132.5t-74 -96t-104.5 -56.5t-120 -20t-120 20t-104.5 56.5t-74 96t-28 132.5h248q0 -50 42 -70.5t84 0t42 70.5z" />
    <glyph glyph-name="dotaccent" unicode="&#x2d9;" horiz-adv-x="491" 
d="M47 1724q0 75 52.5 126t129.5 51t129 -51t52 -126q0 -76 -52 -125t-129 -49t-129.5 49t-52.5 125z" />
    <glyph glyph-name="ring" unicode="&#x2da;" horiz-adv-x="491" 
d="M225 1991q76 0 132 -34.5t81.5 -86.5t25.5 -112.5t-25.5 -112.5t-81.5 -86.5t-132 -34.5q-79 0 -137 34.5t-84 86.5t-26 112.5t26 112.5t84 86.5t137 34.5zM225 1855q-50 0 -77 -30.5t-25.5 -67.5t29 -67.5t73.5 -30.5t72 30.5t26 67.5t-26 67.5t-72 30.5z" />
    <glyph glyph-name="ogonek" unicode="&#x2db;" horiz-adv-x="516" 
d="M135 4l205 2q-119 -133 -108 -210q8 -52 75 -52q40 0 74 27l86 -131q-117 -123 -248 -123q-105 0 -164.5 49.5t-66 122.5t31.5 159t115 156z" />
    <glyph glyph-name="tilde" unicode="&#x2dc;" horiz-adv-x="624" 
d="M94 1563l-149 75q19 100 83 161t136 61q36 0 77.5 -15.5t72 -31.5t60.5 -25.5t54 2.5t41 51l147 -74q-37 -111 -86.5 -162t-123.5 -51q-39 0 -89 23t-84 41.5t-72.5 9t-66.5 -64.5z" />
    <glyph glyph-name="hungarumlaut" unicode="&#x2dd;" horiz-adv-x="997" 
d="M535 1855l-259 -305h-270l197 305h332zM971 1855l-256 -305h-273l197 305h332z" />
    <glyph glyph-name="uni0326" unicode="&#x326;" horiz-adv-x="0" 
d="M483 -141l-139 -359h-264l106 359h297z" />
    <glyph glyph-name="uni03A9" unicode="&#x3a9;" horiz-adv-x="1587" 
d="M82 293h205q-195 160 -195 475q0 134 39 247.5t106 193t156 135.5t189 83t206 27q107 0 209.5 -27.5t193.5 -84t159.5 -135.5t108.5 -190.5t40 -240.5q0 -153 -54 -283.5t-153 -199.5h209v-293h-643v221q84 26 152 81.5t111.5 127t66.5 154.5t22.5 164.5t-28 158
t-77 134.5t-131.5 93t-186 35q-127 0 -220.5 -61t-137 -154.5t-48 -207.5t31 -218.5t117 -190t194.5 -118.5v-219h-643v293z" />
    <glyph glyph-name="uni03BC" unicode="&#x3bc;" horiz-adv-x="1075" 
d="M715 -2l-23 70q-29 -54 -87.5 -76.5t-118 -2t-87.5 82.5v-455h-288v1440h290v-643q0 -96 68.5 -133t137 2t67.5 127v647h291l4 -1061z" />
    <glyph glyph-name="pi" unicode="&#x3c0;" horiz-adv-x="1165" 
d="M1049 283l2 -291q-110 6 -185.5 31.5t-117.5 70.5t-60 101.5t-18 134.5v450h-160v-780h-283v772q-44 -7 -104 -29l-47 -2l-58 224q91 55 131 70q69 26 158 26h801l-27 -281h-125v-442q0 -32 20.5 -45t72.5 -10z" />
    <glyph glyph-name="uni0401" unicode="&#x401;" horiz-adv-x="1193" 
d="M238 1700q0 67 45.5 112.5t111.5 45.5q64 0 111 -46t47 -112q0 -64 -47 -109t-111 -45q-66 0 -111.5 44.5t-45.5 109.5zM682 1700q0 68 45 113t113 45t113.5 -45.5t45.5 -112.5q0 -65 -46 -109.5t-113 -44.5t-112.5 44.5t-45.5 109.5zM430 1157v-285h625v-292h-625v-287
h680v-293h-983v1452h983v-295h-680z" />
    <glyph glyph-name="uni0410" unicode="&#x410;" horiz-adv-x="1298" 
d="M791 1450l520 -1450h-316l-127 332h-432l-121 -332h-321l508 1450h289zM594 922l-82 -314h279l-93 316l-45 206h-14z" />
    <glyph glyph-name="uni0411" unicode="&#x411;" horiz-adv-x="1261" 
d="M428 899h266q278 0 400.5 -106.5t122.5 -335.5q0 -219 -138 -338t-374 -119h-578v1450h973v-262h-672v-289zM428 270h274q110 0 164 48.5t54 152.5q0 199 -224 199h-268v-400z" />
    <glyph glyph-name="uni0412" unicode="&#x412;" horiz-adv-x="1280" 
d="M1155 1026q0 -70 -34.5 -143t-102.5 -111q65 -32 109 -80t63 -100.5t25.5 -111t-3.5 -111.5q-11 -76 -43.5 -140t-91 -117t-152 -82.5t-214.5 -29.5h-584v1452h573q95 0 177 -27.5t144 -79.5t98 -134t36 -185zM428 883h272q42 0 76.5 15t53 39.5t28.5 53.5t2.5 58
t-24.5 53.5t-53 39.5t-83 15h-272v-274zM428 293h272q51 0 92.5 14.5t67.5 37.5t40 53t14 61t-13.5 61t-39 53t-67.5 37.5t-94 14.5h-272v-332z" />
    <glyph glyph-name="uni0413" unicode="&#x413;" horiz-adv-x="1052" 
d="M428 0h-301v1450h899v-287h-598v-1163z" />
    <glyph glyph-name="uni0414" unicode="&#x414;" horiz-adv-x="1454" 
d="M1397 -279h-303v279h-754v-279h-305v553h20q132 8 186 117q44 88 60 309q4 45 9 143q5 70 7 107l35 500h908v-1176h137v-553zM631 1163l-31 -448q-17 -290 -88 -441h446v889h-327z" />
    <glyph glyph-name="uni0415" unicode="&#x415;" horiz-adv-x="1193" 
d="M430 1157v-285h625v-292h-625v-287h680v-293h-983v1452h983v-295h-680z" />
    <glyph glyph-name="uni0416" unicode="&#x416;" horiz-adv-x="1929" 
d="M1563 0l-394 584l-53 -60v-524h-303v524l-53 60l-393 -584h-377l542 745l-544 705h368l457 -608v608h303v-608l457 608h369l-545 -705l545 -745h-379z" />
    <glyph glyph-name="uni0417" unicode="&#x417;" horiz-adv-x="1153" 
d="M559 1470q227 0 350 -110.5t123 -302.5q0 -84 -39.5 -163t-111.5 -120q105 -55 155.5 -145.5t50.5 -200.5q-1 -216 -148.5 -332t-403.5 -116q-171 0 -307.5 72t-217.5 208l207 156q62 -77 141 -119.5t164 -42.5q264 0 264 190q0 98 -61 145.5t-172 47.5h-211v233h205
q94 0 148.5 42.5t54.5 127.5q0 79 -56 122.5t-157 43.5q-83 0 -158.5 -36t-128.5 -85l-172 160q172 225 481 225z" />
    <glyph glyph-name="uni0418" unicode="&#x418;" horiz-adv-x="1404" 
d="M977 723l24 231l-8 2l-121 -235l-446 -721h-299v1450h301v-780l-22 -205l8 -2l112 227l463 760h289v-1450h-301v723z" />
    <glyph glyph-name="uni0419" unicode="&#x419;" horiz-adv-x="1404" 
d="M815 1913h246q-4 -108 -57 -187t-132.5 -116t-173.5 -37t-173 37t-131.5 116t-55.5 187h246q5 -51 34 -79t80 -28t81 28t36 79zM977 731l24 223l-8 2l-119 -231l-448 -725h-299v1450h301v-782l-20 -203l6 -2l114 229l461 758h289v-1450h-301v731z" />
    <glyph glyph-name="uni041A" unicode="&#x41a;" horiz-adv-x="1300" 
d="M1319 1450l-617 -709l613 -741h-381l-447 555l-59 -59v-496h-301v1450h301v-602l512 602h379z" />
    <glyph glyph-name="uni041B" unicode="&#x41b;" horiz-adv-x="1433" 
d="M1006 1163h-349l-26 -448q-6 -90 -17 -166.5t-33 -154t-52.5 -138t-76.5 -113t-105 -85.5t-138 -48.5t-174 -9.5v283q44 -2 80 6.5t63 22.5t48.5 41t36.5 53t27 70t19 79t12.5 92.5t9 100t7.5 110.5q1 20 2 31t2 28.5t2 32.5l33 500h932v-1450h-303v1163z" />
    <glyph glyph-name="uni041C" unicode="&#x41c;" horiz-adv-x="1593" 
d="M1110 655l-199 -465h-225l-201 467l-69 199h-21l33 -281v-575h-301v1450h315l353 -834l356 834h315v-1450h-301v578l37 280h-22z" />
    <glyph glyph-name="uni041D" unicode="&#x41d;" horiz-adv-x="1390" 
d="M428 573v-573h-301v1450h301v-576h535v576h301v-1450h-301v573h-535z" />
    <glyph glyph-name="uni041E" unicode="&#x41e;" horiz-adv-x="1361" 
d="M88 463v524q0 94 33 174t90 136t132.5 95.5t161 58.5t175.5 19t175.5 -19t161.5 -58.5t133 -96t90.5 -136t33.5 -173.5v-524q0 -116 -50.5 -210.5t-134.5 -152.5t-188.5 -89t-218.5 -31q-90 0 -175.5 19t-161.5 58.5t-133 96t-90.5 136t-33.5 173.5zM387 987v-524
q0 -95 87.5 -148t207.5 -53q118 0 205.5 53.5t87.5 147.5v524q0 99 -88 152t-209 53q-118 0 -204.5 -54t-86.5 -151z" />
    <glyph glyph-name="uni041F" unicode="&#x41f;" horiz-adv-x="1378" 
d="M948 1163h-520v-1163h-301v1450h1124v-1450h-303v1163z" />
    <glyph glyph-name="uni0420" unicode="&#x420;" horiz-adv-x="1263" 
d="M127 0v1450h571q143 0 254.5 -55.5t169 -144t84 -195t-0.5 -213.5t-84.5 -195t-168.5 -143t-252 -55h-274v-449h-299zM426 731h272q60 0 107.5 23t72.5 59.5t36.5 81t0.5 89t-35.5 81t-72.5 59.5t-109 23h-272v-416z" />
    <glyph glyph-name="uni0421" unicode="&#x421;" horiz-adv-x="1193" 
d="M913 428l261 -145q-91 -148 -229 -225.5t-288 -77.5q-85 0 -167 19t-155 59t-128 95.5t-87 135t-32 172.5v528q0 92 31.5 171t86 135.5t127 96.5t155 59t169.5 19q100 0 194.5 -32.5t178.5 -104.5t131 -174l-241 -131q-41 78 -119 118t-166 38q-102 -2 -175 -55t-73 -140
v-528q0 -86 71 -137.5t171 -53.5q87 -2 165 38.5t119 119.5z" />
    <glyph glyph-name="uni0422" unicode="&#x422;" horiz-adv-x="1181" 
d="M741 0h-303v1163h-411v289h1128v-289h-414v-1163z" />
    <glyph glyph-name="uni0423" unicode="&#x423;" horiz-adv-x="1175" 
d="M432 467l-479 983h342l203 -442l80 -209h8l88 219l192 432h332l-655 -1450h-324z" />
    <glyph glyph-name="uni0424" unicode="&#x424;" horiz-adv-x="1591" 
d="M940 1450v-123q92 0 175.5 -15t160 -50t132.5 -86.5t89 -129t33 -174.5v-294q0 -96 -33 -174t-89 -129t-132.5 -85.5t-160 -49.5t-175.5 -15v-125h-289v125q-92 0 -175.5 15t-160 49.5t-132.5 85.5t-89 129t-33 174v294q0 97 33 174.5t89 129t132.5 86.5t160 50t175.5 15
v123h289zM651 395v660q-289 0 -289 -181v-299q0 -180 289 -180zM940 1055v-660q289 0 289 180v299q0 181 -289 181z" />
    <glyph glyph-name="uni0425" unicode="&#x425;" horiz-adv-x="1292" 
d="M1296 0h-368l-291 512l-268 -512h-371l428 723l-424 727h367l268 -516l293 516h366l-458 -729z" />
    <glyph glyph-name="uni0426" unicode="&#x426;" horiz-adv-x="1425" 
d="M1368 -279h-289v279h-954v1450h301v-1163h504v1163h301v-1163h137v-566z" />
    <glyph glyph-name="uni0427" unicode="&#x427;" horiz-adv-x="1286" 
d="M858 0v522q-51 -43 -128.5 -71.5t-164.5 -28.5q-100 0 -188 30.5t-156.5 88.5t-108.5 151.5t-40 210.5v547h301v-547q0 -95 56 -143.5t157 -48.5q175 0 270 88l2 651h301v-1450h-301z" />
    <glyph glyph-name="uni0428" unicode="&#x428;" horiz-adv-x="1951" 
d="M127 1450h301v-1163h395v1163h303v-1163h396v1163h303v-1450h-1698v1450z" />
    <glyph glyph-name="uni0429" unicode="&#x429;" horiz-adv-x="2023" 
d="M1966 -279h-289v279h-1552v1450h301v-1163h395v1163h303v-1163h396v1163h303v-1163h143v-566z" />
    <glyph glyph-name="uni042A" unicode="&#x42a;" horiz-adv-x="1437" 
d="M602 938h268q269 0 394 -116.5t125 -344.5q0 -219 -138 -348t-370 -129h-580v1165h-266v285h567v-512zM602 270h275q107 0 161 54.5t54 156.5q0 103 -55.5 157t-166.5 54h-268v-422z" />
    <glyph glyph-name="uni042B" unicode="&#x42b;" horiz-adv-x="1818" 
d="M428 938h266q270 0 394 -116t124 -345q0 -219 -137.5 -348t-369.5 -129h-578v1450h301v-512zM1391 1450h301v-1450h-301v1450zM428 270h272q108 0 163 55t55 156q0 103 -55.5 157t-166.5 54h-268v-422z" />
    <glyph glyph-name="uni042C" unicode="&#x42c;" horiz-adv-x="1263" 
d="M430 938h266q270 0 394 -116t124 -345q0 -219 -137.5 -348t-369.5 -129h-580v1450h303v-512zM430 270h272q107 0 161.5 55t54.5 156q0 102 -55.5 156.5t-164.5 54.5h-268v-422z" />
    <glyph glyph-name="uni042D" unicode="&#x42d;" horiz-adv-x="1210" 
d="M551 1470q87 0 169.5 -19.5t155.5 -60t127.5 -97.5t86.5 -136.5t32 -171.5v-520q0 -116 -48.5 -210.5t-129 -152.5t-180 -89t-207.5 -31q-99 0 -194 31.5t-183.5 105t-142.5 180.5l264 121q32 -74 104.5 -112t159.5 -38q104 0 180 52.5t76 142.5v135h-432v258h432v127
q0 92 -79 146.5t-185 54.5q-83 0 -156 -37.5t-110 -106.5l-250 107q39 86 98 150t128 100.5t139.5 53.5t144.5 17z" />
    <glyph glyph-name="uni042E" unicode="&#x42e;" horiz-adv-x="1955" 
d="M1272 1470q90 0 176 -19t162 -58.5t133.5 -96t91 -136t33.5 -173.5v-524q0 -94 -33.5 -173.5t-91 -136t-133.5 -96t-162 -58.5t-176 -19t-175.5 19t-161.5 58.5t-133 96t-90.5 136t-33.5 173.5v131h-254v-594h-301v1450h301v-580h254v117q0 94 33 174t90 136t133 95.5
t161.5 58.5t176.5 19zM1270 1184q-118 -2 -204.5 -56t-86.5 -151v-508q0 -64 43 -111t108.5 -69.5t141.5 -22.5q118 0 206.5 54t88.5 149v508q0 99 -88 153t-209 54z" />
    <glyph glyph-name="uni042F" unicode="&#x42f;" horiz-adv-x="1306" 
d="M877 522h-111l-426 -522h-379l465 549q-346 74 -346 438q3 225 145 344t385 119h570v-1450h-303v522zM877 1163h-271q-107 0 -166 -48t-59 -146q0 -97 58 -149t167 -52h271v395z" />
    <glyph glyph-name="uni0430" unicode="&#x430;" 
d="M55 315q0 88 31.5 156.5t85 109t119.5 61t141 20.5q92 0 189 -33v76q0 78 -45.5 112.5t-118.5 34.5q-58 0 -121 -28.5t-103 -69.5l-139 149q152 175 383 178q82 0 155.5 -23.5t133 -68t94.5 -118t35 -166.5v-648q-205 -77 -399 -77q-219 0 -330 88.5t-111 246.5zM612 213
v215q-69 25 -129 25q-79 0 -118 -34.5t-39 -94.5q0 -59 41.5 -92t124.5 -33q65 0 120 14z" />
    <glyph glyph-name="uni0431" unicode="&#x431;" horiz-adv-x="1046" 
d="M827 1526l84 -217q-106 -74 -307 -101q-99 -10 -131 -21q-86 -30 -86 -128v-123q85 61 209 61q165 0 267 -96.5t102 -269.5v-283q0 -89 -37 -161t-98.5 -116t-137 -67.5t-157.5 -23.5q-65 0 -127.5 14.5t-118 44.5t-97 73t-66 103.5t-24.5 132.5v739q0 78 25 138t62 95.5
t92 60.5t102 35.5t106 17.5q226 27 338 92zM539 752q-91 0 -152 -47v-349q0 -55 44 -86.5t104 -31.5q58 0 101.5 31.5t43.5 86.5v279q0 58 -40.5 87.5t-100.5 29.5z" />
    <glyph glyph-name="uni0432" unicode="&#x432;" horiz-adv-x="1050" 
d="M111 1061h450q189 0 287 -69t98 -204q0 -151 -121 -223q89 -43 123.5 -110.5t34.5 -161.5q0 -147 -110.5 -220t-311.5 -73h-450v1061zM395 633h158q60 0 95.5 30t35.5 82q-3 109 -135 109h-154v-221zM395 207h158q77 0 117 29t41 94q1 69 -39.5 98t-118.5 29h-158v-250z
" />
    <glyph glyph-name="uni0433" unicode="&#x433;" horiz-adv-x="815" 
d="M395 0h-284v1061h675v-256h-391v-805z" />
    <glyph glyph-name="uni0434" unicode="&#x434;" horiz-adv-x="1206" 
d="M1155 -242h-270v242h-572v-242h-272v482h16q30 1 53 7.5t41.5 20t32 29.5t24 43.5t17 53.5t12.5 67.5t9.5 77.5t7.5 92l37 430h739v-821h125v-482zM532 813l-20 -299q-12 -199 -63 -274h305v573h-222z" />
    <glyph glyph-name="uni0435" unicode="&#x435;" 
d="M694 315l187 -135q-39 -72 -105.5 -119t-132 -64t-133.5 -17q-82 0 -157 24t-136.5 69t-98 118.5t-36.5 164.5v351q0 92 37 165.5t99.5 118t138 67.5t157.5 23q80 0 151.5 -21t130.5 -63.5t93.5 -114t34.5 -163.5v-311h-555v-48q0 -58 46.5 -91t112.5 -33q52 0 97 20.5
t69 58.5zM655 618v97q0 53 -40.5 81.5t-98.5 28.5q-60 0 -103.5 -29t-43.5 -83v-95h286z" />
    <glyph glyph-name="uni0436" unicode="&#x436;" horiz-adv-x="1531" 
d="M1192 0l-262 391l-25 -24v-367h-278v367l-27 26l-262 -393h-324l402 559l-408 502h330l289 -387v387h278v-387l287 387h330l-408 -502l404 -559h-326z" />
    <glyph glyph-name="uni0437" unicode="&#x437;" horiz-adv-x="923" 
d="M446 1081q156 2 265.5 -74t109.5 -208q0 -77 -36.5 -139.5t-94.5 -92.5q80 -34 124 -102.5t44 -163.5q-1 -80 -36.5 -143.5t-94.5 -101t-130.5 -57t-150.5 -19.5q-135 0 -230 39.5t-185 150.5l172 141q77 -92 207 -92q71 0 118 27t47 80q0 65 -38 90.5t-117 25.5h-137
v209h131q63 0 94 23.5t31 81.5q0 44 -34.5 71t-96.5 27q-105 0 -185 -80l-151 127q59 90 157.5 135t216.5 45z" />
    <glyph glyph-name="uni0438" unicode="&#x438;" horiz-adv-x="1126" 
d="M729 479l19 201l-7 2l-61 -170l-272 -512h-297v1061h284v-504l-14 -203h6l66 168l264 539h299v-1061h-287v479z" />
    <glyph glyph-name="uni0439" unicode="&#x439;" horiz-adv-x="1126" 
d="M705 1505h237q-2 -79 -32 -142.5t-78 -102.5t-106 -59.5t-120 -20.5q-81 0 -151.5 36.5t-117.5 112.5t-50 176h237q4 -40 30 -63t60 -23q35 0 61.5 23t29.5 63zM729 479l19 201l-7 2l-61 -170l-272 -512h-297v1061h284v-504l-14 -203h6l66 168l264 539h299v-1061h-287
v479z" />
    <glyph glyph-name="uni043A" unicode="&#x43a;" horiz-adv-x="1056" 
d="M713 0l-277 383l-41 -39v-344h-284v1061h284v-385l318 385h334l-418 -504l413 -557h-329z" />
    <glyph glyph-name="uni043B" unicode="&#x43b;" horiz-adv-x="1124" 
d="M729 805h-188l-25 -309q-11 -144 -35.5 -233.5t-78 -151t-140 -86.5t-221.5 -25v240q44 0 74 6.5t53 25.5t36.5 43t23.5 69.5t15 93.5t11 126l37 457h723v-1061h-285v805z" />
    <glyph glyph-name="uni043C" unicode="&#x43c;" horiz-adv-x="1335" 
d="M938 432l20 186h-8l-194 -468h-176l-195 468h-8l20 -196v-422h-286v1061h313l244 -586l243 586h314v-1061h-287v432z" />
    <glyph glyph-name="uni043D" unicode="&#x43d;" horiz-adv-x="1079" 
d="M682 426h-287v-426h-284v1061h284v-379h287v379h287v-1061h-287v426z" />
    <glyph glyph-name="uni043E" unicode="&#x43e;" horiz-adv-x="1011" 
d="M82 356v346q0 91 36.5 164.5t97 119t135.5 70t157 25.5q81 -1 155.5 -25.5t135 -70t97 -119t36.5 -164.5v-346q0 -92 -36 -165.5t-97 -118t-135.5 -68t-155.5 -24.5q-82 1 -156.5 24.5t-136 68t-97.5 118t-36 165.5zM508 825q-55 0 -98 -28t-43 -76v-371
q0 -49 43.5 -81.5t97.5 -32.5q53 0 96 32.5t43 81.5v371q0 48 -42.5 76t-96.5 28z" />
    <glyph glyph-name="uni043F" unicode="&#x43f;" horiz-adv-x="1079" 
d="M682 805h-287v-805h-284v1061h858v-1061h-287v805z" />
    <glyph glyph-name="uni0440" unicode="&#x440;" horiz-adv-x="1058" 
d="M117 -389v1390q211 80 413 80q71 0 132 -9.5t119.5 -34.5t99 -64t65.5 -101.5t25 -144.5v-387q0 -90 -33.5 -160.5t-90.5 -113t-126 -64t-146 -22.5q-96 0 -172 36v-405h-286zM403 840v-617q43 -24 111 -24q74 0 123 36.5t49 104.5v401q0 61 -47 92t-121 31
q-66 0 -115 -24z" />
    <glyph glyph-name="uni0441" unicode="&#x441;" horiz-adv-x="960" 
d="M672 350l250 -82q-27 -77 -74 -135t-104.5 -90t-116.5 -47.5t-119 -15.5q-81 0 -156 23.5t-136 68.5t-97.5 118t-36.5 164v351q0 91 36.5 164.5t97.5 118.5t136 69t156 24q61 0 120 -15t116 -46t101 -89t64 -136l-243 -76q-16 52 -60 79t-98 27q-57 0 -99 -32t-42 -86
v-351q0 -56 41.5 -88t99.5 -32q54 0 99.5 28.5t64.5 85.5z" />
    <glyph glyph-name="uni0442" unicode="&#x442;" horiz-adv-x="919" 
d="M602 0h-287v817h-284v244h856v-244h-285v-817z" />
    <glyph glyph-name="uni0443" unicode="&#x443;" horiz-adv-x="1058" 
d="M948 1061v-1053q0 -205 -121.5 -315.5t-318.5 -110.5q-104 0 -201.5 35t-169.5 107l135 178q35 -34 92 -56t111 -22q96 0 148 45t51 145q-104 -34 -180 -34q-177 0 -283.5 91.5t-106.5 258.5v731h275v-727q0 -62 43 -93.5t121 -31.5q59 0 119 33v819h286z" />
    <glyph glyph-name="uni0444" unicode="&#x444;" horiz-adv-x="1470" 
d="M877 1450v-395q50 26 139 26q169 0 267.5 -94.5t98.5 -259.5v-393q0 -165 -98.5 -259.5t-267.5 -94.5q-89 0 -139 26v-383h-279v383q-50 -26 -139 -26q-170 0 -269.5 94.5t-99.5 259.5v393q0 165 99.5 259.5t269.5 94.5q89 0 139 -26v395h279zM518 842q-59 0 -100 -32.5
t-41 -94.5v-369q0 -62 41 -94.5t100 -32.5q40 0 80 21v581q-40 21 -80 21zM956 842q-39 0 -79 -21v-581q40 -21 79 -21q59 0 100.5 32.5t41.5 94.5v369q0 62 -41.5 94.5t-100.5 32.5z" />
    <glyph glyph-name="uni0445" unicode="&#x445;" horiz-adv-x="1067" 
d="M1049 1061l-353 -529q50 -72 177.5 -265t179.5 -267h-338l-137 221l-41 109h-15l-47 -113q-2 -4 -50 -80.5t-87 -136.5h-322l344 530q-16 24 -56.5 91t-111 176t-176.5 264h322l147 -242l39 -100h13l36 100q14 22 61 104t81 138h334z" />
    <glyph glyph-name="uni0446" unicode="&#x446;" horiz-adv-x="1132" 
d="M1073 -254h-260l-14 254h-690v1061h284v-821h281v821h287v-821h112v-494z" />
    <glyph glyph-name="uni0447" unicode="&#x447;" horiz-adv-x="1024" 
d="M627 0v348q-82 -53 -199 -53q-50 0 -99 11t-97.5 37.5t-84.5 65.5t-58.5 99.5t-22.5 134.5v418h286v-375q0 -133 133 -133q80 0 142 35v473h286v-1061h-286z" />
    <glyph glyph-name="uni0448" unicode="&#x448;" horiz-adv-x="1544" 
d="M395 250h234v811h286v-811h234v811h285v-1061h-1323v1061h284v-811z" />
    <glyph glyph-name="uni0449" unicode="&#x449;" horiz-adv-x="1603" 
d="M1544 -254h-262l-12 254h-1161v1061h284v-821h234v821h286v-821h234v821h285v-821h112v-494z" />
    <glyph glyph-name="uni044A" unicode="&#x44a;" horiz-adv-x="1116" 
d="M485 707h228q178 0 270 -95t92 -268q0 -182 -108.5 -263t-313.5 -81h-452v846h-166v215h450v-354zM485 207h160q74 0 116 37.5t42 107.5q3 154 -158 154h-160v-299z" />
    <glyph glyph-name="uni044B" unicode="&#x44b;" horiz-adv-x="1515" 
d="M397 707h228q178 0 270 -95t92 -268q0 -182 -108.5 -263t-313.5 -81h-454v1061h286v-354zM1120 1061h285v-1061h-285v1061zM397 207h160q73 0 115 37.5t43 107.5q3 154 -158 154h-160v-299z" />
    <glyph glyph-name="uni044C" unicode="&#x44c;" horiz-adv-x="1026" 
d="M395 707h228q178 0 270 -95t92 -268q0 -182 -108.5 -263t-311.5 -81h-454v1061h284v-354zM395 207h162q73 0 115 37.5t43 107.5q0 81 -40.5 117.5t-119.5 36.5h-160v-299z" />
    <glyph glyph-name="uni044D" unicode="&#x44d;" horiz-adv-x="968" 
d="M455 1081q80 0 156 -24t138 -69.5t100 -119.5t38 -166v-346q0 -91 -38 -164t-100 -118t-138 -68.5t-156 -23.5q-62 0 -119.5 12.5t-115.5 40.5t-104.5 83.5t-72.5 133.5l244 96q21 -60 63 -92.5t103 -32.5q64 0 105.5 29t41.5 92v76h-254v215h254v63q0 58 -42.5 91.5
t-100.5 33.5q-53 2 -95 -23.5t-61 -78.5l-235 96q24 71 68 124.5t98 82.5t109.5 43t113.5 14z" />
    <glyph glyph-name="uni044E" unicode="&#x44e;" horiz-adv-x="1503" 
d="M991 1081q81 -1 156.5 -25t137.5 -69.5t99 -119t37 -165.5v-354q0 -89 -37 -161t-98.5 -116t-137 -67.5t-157.5 -23.5q-65 0 -127.5 14.5t-117.5 44.5t-96.5 73t-66 103.5t-24.5 132.5v86h-168v-434h-285v1061h285v-391h168v51q0 70 25 129.5t67.5 101t98 71t117 43.5
t124.5 15zM991 823q-58 0 -102.5 -30.5t-44.5 -85.5v-351q1 -56 44.5 -87t102.5 -31q58 0 101.5 31.5t44.5 86.5v351q0 55 -44.5 85.5t-101.5 30.5z" />
    <glyph glyph-name="uni044F" unicode="&#x44f;" horiz-adv-x="1052" 
d="M659 393h-59l-268 -393h-326l318 420q-112 26 -179 103t-67 204q0 334 426 334h438v-1061h-285zM657 854h-155q-73 0 -113.5 -34.5t-40.5 -100.5q0 -70 40.5 -107t119.5 -37h149v279z" />
    <glyph glyph-name="uni0451" unicode="&#x451;" 
d="M150 1313q0 67 45.5 112t111.5 45q64 0 111 -45.5t47 -111.5q0 -64 -47 -109t-111 -45q-66 0 -111.5 44.5t-45.5 109.5zM573 1313q0 67 45 112t113 45t114 -45t46 -112q0 -65 -46.5 -109.5t-113.5 -44.5t-112.5 44.5t-45.5 109.5zM694 315l187 -135q-39 -72 -105.5 -119
t-132 -64t-133.5 -17q-82 0 -157 24t-136.5 69t-98 118.5t-36.5 164.5v351q0 92 37 165.5t99.5 118t138 67.5t157.5 23q80 0 151.5 -21t130.5 -63.5t93.5 -114t34.5 -163.5v-311h-555v-48q0 -58 46.5 -91t112.5 -33q52 0 97 20.5t69 58.5zM655 618v97q0 53 -40.5 81.5
t-98.5 28.5q-60 0 -103.5 -29t-43.5 -83v-95h286z" />
    <glyph glyph-name="Wgrave" unicode="&#x1e80;" horiz-adv-x="1884" 
d="M1130 1548h-266l-239 291h336zM426 0l-420 1450h311l207 -758l45 -338h19l49 340q43 141 95 289t89 266h244l176 -559l59 -350h19l39 350l211 760h309l-418 -1450h-295l-186 559l-33 174h-16q-2 -11 -6 -29.5t-12.5 -57.5t-14 -64.5t-6.5 -24.5l-170 -557h-295z" />
    <glyph glyph-name="wgrave" unicode="&#x1e81;" horiz-adv-x="1435" 
d="M905 1159h-266l-240 291h336zM684 383l-84 -383h-266l-322 1061h281l119 -428l32 -277h5l30 258l135 447h207l131 -445l31 -260h4l37 279l111 426h284l-313 -1061h-266l-88 383l-33 289h-4z" />
    <glyph glyph-name="Wacute" unicode="&#x1e82;" horiz-adv-x="1884" 
d="M1309 1839l-265 -291h-278l195 291h348zM426 0l-420 1450h311l207 -758l45 -338h19l49 340q43 141 95 289t89 266h244l176 -559l59 -350h19l39 350l211 760h309l-418 -1450h-295l-186 559l-33 174h-16q-2 -11 -6 -29.5t-12.5 -57.5t-14 -64.5t-6.5 -24.5l-170 -557h-295z
" />
    <glyph glyph-name="wacute" unicode="&#x1e83;" horiz-adv-x="1435" 
d="M1083 1450l-264 -291h-278l194 291h348zM684 383l-84 -383h-266l-322 1061h281l119 -428l32 -277h5l30 258l135 447h207l131 -445l31 -260h4l37 279l111 426h284l-313 -1061h-266l-88 383l-33 289h-4z" />
    <glyph glyph-name="Wdieresis" unicode="&#x1e84;" horiz-adv-x="1884" 
d="M563 1700q0 67 46 112.5t112 45.5q64 0 111 -46t47 -112q0 -64 -47 -109t-111 -45q-66 0 -112 45t-46 109zM1008 1700q0 68 45 113t112 45q68 0 114 -45.5t46 -112.5q0 -65 -46.5 -109.5t-113.5 -44.5t-112 44.5t-45 109.5zM426 0l-420 1450h311l207 -758l45 -338h19
l49 340q43 141 95 289t89 266h244l176 -559l59 -350h19l39 350l211 760h309l-418 -1450h-295l-186 559l-33 174h-16q-2 -11 -6 -29.5t-12.5 -57.5t-14 -64.5t-6.5 -24.5l-170 -557h-295z" />
    <glyph glyph-name="wdieresis" unicode="&#x1e85;" horiz-adv-x="1435" 
d="M338 1311q0 67 46 112t112 45q64 0 110.5 -45.5t46.5 -111.5q0 -64 -46.5 -109t-110.5 -45q-66 0 -112 45t-46 109zM782 1311q0 67 45 112t113 45t114 -45t46 -112q0 -65 -46.5 -109.5t-113.5 -44.5t-112.5 44.5t-45.5 109.5zM684 383l-84 -383h-266l-322 1061h281
l119 -428l32 -277h5l30 258l135 447h207l131 -445l31 -260h4l37 279l111 426h284l-313 -1061h-266l-88 383l-33 289h-4z" />
    <glyph glyph-name="Ygrave" unicode="&#x1ef2;" horiz-adv-x="1286" 
d="M829 1548h-266l-239 291h335zM793 0h-301v555l-504 895h346l307 -606l307 606h350l-505 -895v-555z" />
    <glyph glyph-name="ygrave" unicode="&#x1ef3;" horiz-adv-x="1058" 
d="M713 1159h-267l-239 291h336zM948 1061v-1053q0 -205 -121.5 -315.5t-318.5 -110.5q-104 0 -201.5 35t-169.5 107l135 178q35 -34 92 -56t111 -22q96 0 148 45t51 145q-104 -34 -180 -34q-177 0 -283.5 91.5t-106.5 258.5v731h275v-727q0 -62 43 -93.5t121 -31.5
q59 0 119 33v819h286z" />
    <glyph glyph-name="endash" unicode="&#x2013;" horiz-adv-x="1179" 
d="M1075 741v-286h-973v286h973z" />
    <glyph glyph-name="emdash" unicode="&#x2014;" horiz-adv-x="1841" 
d="M1737 741v-286h-1635v286h1635z" />
    <glyph glyph-name="quoteleft" unicode="&#x2018;" horiz-adv-x="579" 
d="M59 975l211 473h260l-127 -473h-344z" />
    <glyph glyph-name="quoteright" unicode="&#x2019;" horiz-adv-x="567" 
d="M539 1446l-211 -473h-260l127 473h344z" />
    <glyph glyph-name="quotesinglbase" unicode="&#x201a;" horiz-adv-x="552" 
d="M471 252l-219 -483h-250l137 483h332z" />
    <glyph glyph-name="quotedblleft" unicode="&#x201c;" horiz-adv-x="970" 
d="M59 975l211 473h260l-127 -473h-344zM471 975l182 473h260l-98 -473h-344z" />
    <glyph glyph-name="quotedblright" unicode="&#x201d;" horiz-adv-x="954" 
d="M514 1446l-182 -473h-260l98 473h344zM926 1446l-211 -473h-260l127 473h344z" />
    <glyph glyph-name="quotedblbase" unicode="&#x201e;" horiz-adv-x="956" 
d="M471 252l-219 -483h-250l137 483h332zM877 252l-220 -483h-249l137 483h332z" />
    <glyph glyph-name="dagger" unicode="&#x2020;" horiz-adv-x="1038" 
d="M51 774v279h324v395h289v-395h323v-279h-323v-987h-289v987h-324z" />
    <glyph glyph-name="daggerdbl" unicode="&#x2021;" horiz-adv-x="1124" 
d="M94 154v278h324v373h-324v276h324v371h289v-371h323v-276h-323v-373h323v-278h-323v-367h-289v367h-324z" />
    <glyph glyph-name="bullet" unicode="&#x2022;" horiz-adv-x="845" 
d="M109 690q0 131 91.5 223.5t223.5 92.5q130 0 221.5 -92.5t91.5 -223.5t-91.5 -224t-221.5 -93q-131 0 -223 93t-92 224z" />
    <glyph glyph-name="ellipsis" unicode="&#x2026;" horiz-adv-x="1466" 
d="M72 158q0 74 51.5 125t126.5 51q74 0 125 -51t51 -125q0 -75 -51 -126.5t-125 -51.5q-75 0 -126.5 51.5t-51.5 126.5zM557 158q0 74 50.5 125t123.5 51q75 0 126.5 -51t51.5 -125q0 -75 -51.5 -126.5t-126.5 -51.5q-73 0 -123.5 51.5t-50.5 126.5zM1042 158q0 74 51 125
t124 51q76 0 127 -51t51 -125q0 -75 -51 -126.5t-127 -51.5q-74 0 -124.5 51.5t-50.5 126.5z" />
    <glyph glyph-name="perthousand" unicode="&#x2030;" horiz-adv-x="2179" 
d="M168 33l946 1462l193 -117l-949 -1454zM662 1100q0 -168 -86.5 -268.5t-219.5 -100.5q-146 0 -224.5 95.5t-78.5 277.5q0 165 84.5 264.5t218.5 99.5q146 0 226 -95.5t80 -272.5zM449 1100q0 155 -97 155q-45 0 -71.5 -38t-26.5 -115q0 -156 98 -156q97 0 97 154z
M1446 360q0 -168 -86 -268t-219 -100q-146 0 -224.5 95.5t-78.5 277.5q0 165 84.5 264.5t218.5 99.5q146 0 225.5 -96t79.5 -273zM2130 360q0 -168 -86 -268t-219 -100q-146 0 -224.5 95.5t-78.5 277.5q0 165 84.5 264.5t218.5 99.5q146 0 225.5 -96t79.5 -273zM1233 360
q0 156 -96 156q-45 0 -72 -39t-27 -115q0 -155 99 -155q96 0 96 153zM1917 360q0 156 -96 156q-45 0 -72 -39t-27 -115q0 -155 99 -155q96 0 96 153z" />
    <glyph glyph-name="guilsinglleft" unicode="&#x2039;" horiz-adv-x="671" 
d="M365 1061l243 -148l-219 -319q208 -312 219 -328l-246 -145l-313 471z" />
    <glyph glyph-name="guilsinglright" unicode="&#x203a;" horiz-adv-x="673" 
d="M313 123l-250 143l220 326q-39 58 -120 177.5t-97 143.5l245 148l314 -469z" />
    <glyph glyph-name="fraction" unicode="&#x2044;" horiz-adv-x="1099" 
d="M1104 1329l-866 -1421l-238 145l866 1420z" />
    <glyph glyph-name="Euro" unicode="&#x20ac;" horiz-adv-x="1331" 
d="M190 954v35q0 115 48.5 208.5t129.5 151.5t181.5 89.5t210.5 31.5q100 0 194.5 -32.5t178.5 -104.5t131 -174l-242 -131q-30 57 -82.5 95t-111 51t-119.5 7.5t-109.5 -29t-79.5 -66.5t-31 -97v-35h390l-41 -204h-349v-84h390l-39 -201h-351v-4q0 -54 30.5 -96t78.5 -65
t108.5 -28t118 9t109.5 52t82 95l260 -145q-91 -147 -231 -225t-291 -78q-107 0 -207 31t-180 89t-128.5 152t-48.5 209v4h-139l41 201h98v84h-139l41 204h98z" />
    <glyph glyph-name="uni2113" unicode="&#x2113;" horiz-adv-x="878" 
d="M674 295l157 -184q-134 -131 -276 -131q-135 0 -217.5 69t-114.5 191l-4 -4l-84 -52l-98 236q153 132 168 147v430q0 111 19 198.5t50 142t74.5 90t88.5 49.5t95 14q140 0 213.5 -100.5t73.5 -260.5q0 -319 -334 -673v-35q2 -86 29 -131t69 -42.5t91 46.5zM451 977v-164
q38 36 66 95t40.5 119t15.5 114.5t-7.5 88.5t-30.5 34t-37.5 -24.5t-32 -92.5t-14.5 -170z" />
    <glyph glyph-name="trademark" unicode="&#x2122;" horiz-adv-x="1718" 
d="M258 610v574h-197v270h672v-270h-198v-574h-277zM782 614v840h234l178 -340l184 340h226v-840h-246l6 336l-117 -233h-100l-119 246l10 -349h-256z" />
    <glyph glyph-name="Omega" unicode="&#x2126;" horiz-adv-x="1595" 
d="M86 293h205q-195 160 -195 475q0 134 39 247.5t106 193t156.5 135.5t189.5 83t206 27q135 0 260.5 -44.5t226.5 -127t162 -214t61 -292.5q0 -153 -54 -283.5t-153 -199.5h209v-293h-643v221q84 26 152 81.5t112 127t67 154.5t22 164.5t-28 158t-76.5 134.5t-131.5 93
t-186 35q-77 0 -143 -23t-112.5 -62.5t-80.5 -93.5t-51 -115.5t-20 -128.5t9 -132.5t40 -128t68.5 -114.5t98.5 -92t127 -60v-219h-643v293z" />
    <glyph glyph-name="estimated" unicode="&#x212e;" horiz-adv-x="1679" 
d="M1626 578h-1114q0 -40 1 -116t1 -118q68 -65 154.5 -102t179.5 -37q129 0 256.5 49.5t202.5 157.5l272 -2q-66 -112 -155 -197t-186.5 -133.5t-195.5 -72t-196 -23.5q-211 0 -390 94t-283.5 256.5t-104.5 355.5q0 192 104.5 356t284 259.5t389.5 95.5q159 0 303.5 -56.5
t249 -152t166 -227t61.5 -275.5v-112zM1184 801v235q-151 138 -336 138q-90 0 -179.5 -39t-156.5 -103v-231h672z" />
    <glyph glyph-name="partialdiff" unicode="&#x2202;" horiz-adv-x="1048" 
d="M285 1145l-131 198q170 107 321 107q76 0 147 -24.5t136 -79t113.5 -133.5t77 -197.5t28.5 -261.5q0 -229 -59 -402.5t-176.5 -272.5t-280.5 -99q-96 0 -171 37.5t-121.5 102.5t-71.5 145.5t-27 172.5q-4 113 33 212t99 165.5t140.5 104.5t159.5 38q110 0 192 -57
q3 73 -17.5 134t-60.5 99t-91 55.5t-114 6.5t-126 -51zM463 262h10q73 -15 138 94t73 258q-17 28 -69 47t-109 19q-60 0 -105 -71t-45 -165q0 -83 29 -132.5t78 -49.5z" />
    <glyph glyph-name="Delta" unicode="&#x2206;" horiz-adv-x="1202" 
d="M479 1409h244l430 -1223v-186h-1104v184zM596 956l-217 -671h434z" />
    <glyph glyph-name="product" unicode="&#x220f;" horiz-adv-x="1300" 
d="M1075 -117h-287v1258h-278v-1258h-287v1258h-170v282h1196v-282h-174v-1258z" />
    <glyph glyph-name="summation" unicode="&#x2211;" horiz-adv-x="1118" 
d="M57 55l430 592l-409 596v207h950v-238h-577l380 -561l-401 -542h625v-254h-998v200z" />
    <glyph glyph-name="minus" unicode="&#x2212;" horiz-adv-x="1253" 
d="M1149 752v-283h-1045v283h1045z" />
    <glyph glyph-name="uni2215" unicode="&#x2215;" horiz-adv-x="1079" 
d="M1092 1329l-865 -1421l-237 145l864 1420z" />
    <glyph glyph-name="uni2219" unicode="&#x2219;" horiz-adv-x="509" 
d="M80 629q0 76 50.5 127t127.5 51q74 0 123 -51t49 -127q0 -74 -49 -124t-123 -50q-77 0 -127.5 50t-50.5 124z" />
    <glyph glyph-name="radical" unicode="&#x221a;" horiz-adv-x="1093" 
d="M455 -258l-244 752q-12 -4 -37 -13t-35 -12l-47 -4l-92 250l393 149l162 -649q40 220 118 702t113 680h299l-389 -1855h-241z" />
    <glyph glyph-name="infinity" unicode="&#x221e;" horiz-adv-x="1409" 
d="M1341 588v-2q0 -153 -103.5 -251.5t-242.5 -98.5q-92 0 -167 43.5t-121 121.5q-45 -69 -121.5 -117t-179.5 -48q-142 0 -240 99t-98 245q0 154 98 254t250 100q179 0 293 -178q53 79 130.5 130t168.5 48q150 -5 241.5 -99.5t91.5 -246.5zM414 690q-43 0 -71 -21.5
t-33.5 -53t2 -62.5t35 -52.5t65.5 -21.5q64 0 153 109q-94 102 -151 102zM1001 690q-57 0 -151 -102q39 -53 81 -81t73 -28q38 0 65.5 21.5t35 52.5t2 62.5t-34 53t-71.5 21.5z" />
    <glyph glyph-name="integral" unicode="&#x222b;" horiz-adv-x="755" 
d="M748 1577l-64 -188q-24 14 -49.5 18t-49.5 -3.5t-38.5 -37.5t-11.5 -80l12 -1214q0 -80 -23.5 -144.5t-63.5 -105.5t-94 -65t-113.5 -26.5t-123 15t-121.5 55.5l66 203q33 -17 62 -24.5t54.5 -3.5t40.5 28.5t15 69.5q0 115 -21 1220q0 97 33 173.5t88 118t122 57.5
t141 -1.5t139 -64.5z" />
    <glyph glyph-name="approxequal" unicode="&#x2248;" horiz-adv-x="1007" 
d="M768 952l160 -133q-44 -82 -99 -127t-118 -54t-125.5 4.5t-136.5 47.5q-54 25 -81 32t-62.5 -5t-80.5 -53l-143 122q57 92 125 143t137 56q60 2 176 -51q13 -6 35 -16.5t32.5 -15t28.5 -11t28.5 -6.5t27 2t30 10t31 21.5t35.5 33.5zM768 594l160 -133
q-44 -82 -101 -129.5t-119.5 -58.5t-127 4t-131.5 55q-67 45 -113.5 42.5t-110.5 -69.5l-143 123q36 60 70.5 100.5t70.5 61t68.5 29t73.5 2.5t74 -16t81 -30q40 -16 53.5 -20.5t43 -11t47.5 -2t45.5 16.5t58.5 36z" />
    <glyph glyph-name="notequal" unicode="&#x2260;" horiz-adv-x="1093" 
d="M1006 874v-258h-312l-37 -84h349v-258h-453l-92 -208l-236 116l37 92h-174v258h285l39 84h-324v258h430l84 199l246 -98l-43 -101h201z" />
    <glyph glyph-name="lessequal" unicode="&#x2264;" horiz-adv-x="995" 
d="M872 1040l-374 -196q78 -41 143 -72l231 -117v-307l-782 410v176l782 414v-308zM82 328h825v-281h-825v281z" />
    <glyph glyph-name="greaterequal" unicode="&#x2265;" horiz-adv-x="993" 
d="M905 926v-176l-782 -410v309l231 115l144 76l-375 192v309zM88 317h825v-278h-825v278z" />
    <glyph glyph-name="lozenge" unicode="&#x25ca;" horiz-adv-x="1126" 
d="M451 -53l-410 743l422 748h207l415 -744l-421 -747h-213zM772 692l-211 408q-78 -150 -211 -404q36 -63 69 -124.5t74 -139.5t70 -131z" />
    <glyph glyph-name="i.loclTRK" horiz-adv-x="509" 
d="M74 1335q0 75 52.5 125.5t129.5 50.5t128.5 -50.5t51.5 -125.5q0 -76 -51.5 -125t-128.5 -49t-129.5 49t-52.5 125zM401 1059v-1059h-290v1059h290z" />
    <glyph glyph-name="uni0414.loclBGR" horiz-adv-x="1415" 
d="M1386 -279h-303v279h-751v-279h-303v553h114l394 1176h329l404 -1176h116v-553zM469 274h471l-162 553l-71 289h-7l-65 -287z" />
    <glyph glyph-name="uni041B.loclBGR" horiz-adv-x="1273" 
d="M725 754l-84 362h-8l-88 -366l-228 -750h-321l491 1450h295l502 -1450h-321z" />
    <glyph glyph-name="uni0432.loclBGR" horiz-adv-x="1050" 
d="M537 1470q79 0 149.5 -20.5t129.5 -61t93.5 -109t34.5 -157.5q0 -115 -51 -196.5t-121 -118.5q87 -9 144 -80.5t57 -177.5v-203q0 -88 -38 -159t-100.5 -115t-139 -67.5t-158.5 -24.5q-224 0 -431 79v1045q0 114 60 198.5t156.5 126t214.5 41.5zM530 1214q-63 0 -101 -32
t-38 -92v-250l131 43q67 22 101 78t34 131q0 122 -127 122zM530 680q-30 -5 -139 -41v-385q61 -21 146 -21q63 0 106.5 36t42.5 100v196q0 60 -44.5 93.5t-111.5 21.5z" />
    <glyph glyph-name="uni0433.loclBGR" horiz-adv-x="897" 
d="M455 1081q161 0 260.5 -85.5t99.5 -225.5q0 -143 -84.5 -221t-238.5 -115q-37 -10 -54 -15t-43 -15.5t-37.5 -20.5t-20.5 -26.5t-9 -37.5q0 -98 135 -98q126 0 237 96l152 -167q-144 -168 -412 -168q-77 0 -144.5 19t-121 57t-84.5 100t-31 141q0 78 23 136.5t68 97
t95.5 63t119.5 43.5q29 7 39 9.5t35.5 10.5t36 15t25.5 18.5t21 26.5t6 33q0 77 -114 77q-89 0 -168 -53l-158 158q71 75 167.5 111t199.5 36z" />
    <glyph glyph-name="uni0434.loclBGR" horiz-adv-x="1034" 
d="M123 -274l131 170q36 -34 96.5 -55t118.5 -21q84 0 130 51t46 154q-75 -45 -172 -45q-104 0 -191 37.5t-142.5 117.5t-55.5 189v401q0 94 35.5 164.5t97 111.5t137 60.5t164.5 19.5q225 0 410 -90v-989q0 -137 -60.5 -233.5t-158 -141.5t-220.5 -45q-102 0 -198.5 37.5
t-167.5 106.5zM641 236v600q-53 26 -121 26q-67 0 -114.5 -35t-47.5 -96v-403q7 -58 56 -88.5t114 -30.5q61 0 113 27z" />
    <glyph glyph-name="uni0436.loclBGR" horiz-adv-x="1527" 
d="M1520 1061l-406 -502l402 -559h-326l-256 391l-31 -29v-362h-278v362l-29 31l-260 -393h-324l402 559l-408 502h330l289 -387v776h278v-776l287 387h330z" />
    <glyph glyph-name="uni0438.loclBGR" horiz-adv-x="1056" 
d="M950 1061v-998q-196 -83 -393 -83q-72 0 -137 12.5t-124 41.5t-101.5 72.5t-67.5 109t-25 146.5v699h283v-699q0 -62 44.5 -95.5t107.5 -35.5q71 0 129 21v809h284z" />
    <glyph glyph-name="uni0439.loclBGR" horiz-adv-x="1058" 
d="M633 1505h235q-3 -104 -51.5 -180t-119.5 -111.5t-154 -35.5t-155.5 35t-122 111t-52.5 181h238q4 -41 31 -63.5t61 -22.5q33 0 59.5 22.5t30.5 63.5zM952 1061v-998q-198 -83 -401 -83q-89 0 -167.5 22.5t-142.5 67t-101.5 119.5t-37.5 173v699h285v-696q0 -60 43.5 -96
t101.5 -36q74 0 136 21v807h284z" />
    <glyph glyph-name="uni043A.loclBGR" horiz-adv-x="1046" 
d="M395 659l307 402h332l-422 -512q63 -84 210 -272t214 -277h-329l-293 387l-19 -16v-371h-284v1448h284v-789z" />
    <glyph glyph-name="uni043B.loclBGR" horiz-adv-x="1015" 
d="M557 539l-49 268h-4l-49 -268l-146 -539h-299l332 1061h332l332 -1061h-310z" />
    <glyph glyph-name="uni043F.loclBGR" horiz-adv-x="1054" 
d="M109 0v987q205 88 395 88q90 0 168.5 -22t142.5 -66t101.5 -120t37.5 -175v-692h-282v690q0 63 -43.5 97t-104.5 34q-63 0 -133 -24v-797h-282z" />
    <glyph glyph-name="uni0442.loclBGR" horiz-adv-x="1542" 
d="M106 0v950q70 61 173 96.5t206 34.5q91 -2 168 -33.5t117 -97.5q50 62 124 96.5t150 34.5q75 0 144.5 -23t126.5 -66t91 -113.5t34 -157.5v-721h-283v731q0 45 -37 69.5t-88 24.5t-89 -24.5t-38 -67.5v-733h-272v725q0 45 -44 72.5t-102 27.5q-67 -3 -102 -41v-784h-279z
" />
    <glyph glyph-name="uni0446.loclBGR" horiz-adv-x="1122" 
d="M1057 -6l-23 -262h-246l9 305q-131 -57 -248 -57q-89 0 -167.5 22.5t-142 67.5t-100.5 121t-37 174v696h287v-694q0 -62 40 -97t99 -37q75 0 131 19v809h285v-778h113v-289z" />
    <glyph glyph-name="uni0448.loclBGR" horiz-adv-x="1597" 
d="M1491 1061v-979q-67 -44 -168 -73t-201 -29q-92 0 -178 28.5t-143 85.5q-51 -54 -132 -84t-161 -30q-109 0 -199.5 41t-148.5 126t-58 201v713h287v-717q0 -108 131 -108q49 2 93 27.5t44 66.5v731h285v-733q0 -45 42 -70t99 -25q84 0 123 31v797h285z" />
    <glyph glyph-name="uni0449.loclBGR" horiz-adv-x="1669" 
d="M1606 -18l-27 -248l-252 -2l8 295q-63 -26 -108.5 -36.5t-104.5 -10.5q-92 0 -178 28.5t-143 85.5q-51 -54 -132 -84t-161 -30q-109 0 -199.5 41t-148.5 126t-58 201v713h287v-717q0 -108 131 -108q49 2 93 27.5t44 66.5v731h285v-733q0 -45 42 -70t99 -25q84 0 123 25
v803h285v-778h115v-301z" />
    <glyph glyph-name="uni044E.loclBGR" horiz-adv-x="1503" 
d="M559 670v47q3 87 41.5 158t100 114.5t136.5 67t154 24.5q81 -1 156.5 -25t137.5 -69.5t99 -119t37 -165.5v-354q0 -89 -37 -161t-98.5 -116t-137 -67.5t-157.5 -23.5q-65 0 -127.5 14.5t-117.5 44.5t-96.5 73t-66 103.5t-24.5 132.5v86h-168v-434h-282v1450h282v-780h168
zM991 823q-58 0 -102.5 -30.5t-44.5 -85.5v-351q1 -56 44.5 -87t102.5 -31q58 0 101.5 31.5t44.5 86.5v351q0 55 -44 85.5t-102 30.5z" />
    </font>
</defs>
</svg>
